<?xml version="1.0" encoding="utf-8"?>
<!-- Generator: Adobe Illustrator 25.0.1, SVG Export Plug-In . SVG Version: 6.00 Build 0)  -->
<svg version="1.1" id="Layer_1" xmlns="http://www.w3.org/2000/svg" xmlns:xlink="http://www.w3.org/1999/xlink" x="0px" y="0px"
	 viewBox="0 0 48 48" style="enable-background:new 0 0 48 48;" xml:space="preserve">
<style type="text/css">
	.st0{fill:#B3001B;}
</style>
<g>
	<path class="st0" d="M30.4,36.4c0.2,0,0.3,0,0.5,0c0.8,0,1.1,0.3,1.1,1.1c0,1.1,0,2.2,0,3.3c-0.1,1.8-1.2,3.1-2.9,3.5
		c-0.2,0-0.3,0.1-0.5,0.1c-0.4,2.5-1.5,3.4-4,3.4c-0.6,0-1.2,0-1.7,0c-2.5,0-3.6-1-4-3.3c-0.7-0.3-1.4-0.5-1.9-0.9
		c-1-0.7-1.5-1.8-1.5-3c0-0.8,0-1.6,0-2.4c0-1.6,0-1.7,1.6-1.9c-0.1-1.4-0.7-2.6-1.4-3.6c-0.3-0.5-0.8-0.9-1.1-1.3
		c-3.4-3.8-4.4-8.2-2.6-13c1.8-4.8,5.4-7.6,10.4-8.2c5.2-0.7,10.4,2.2,12.8,6.9c2.4,4.8,1.5,10.5-2.2,14.4c-1.1,1.2-2,2.5-2.4,4.1
		C30.4,35.8,30.4,36.1,30.4,36.4z M28.4,36.4c0.2-2.8,1.7-4.8,3.5-6.7c2.4-2.7,3.1-5.9,2.3-9.4C33,15,28,11.5,22.6,12
		c-5.4,0.6-9.6,5.2-9.6,10.6c0,2.9,1,5.5,3,7.6c1.4,1.5,2.4,3.2,2.9,5.2c0.1,0.3,0.1,0.7,0.2,1c1.3,0,2.5,0,3.7,0
		c0-0.1,0.1-0.2,0.1-0.3c0-2.8,0-5.6,0-8.4c0-0.3-0.2-0.6-0.4-0.8c-1-1.1-2.1-2.1-3.1-3.1c-0.6-0.6-0.5-1.4,0.1-1.6
		c0.5-0.2,0.9,0,1.2,0.3c1,1,2,2.1,3.1,3.2c1.1-1.1,2.1-2.1,3.1-3.1c0.5-0.5,1.1-0.6,1.5-0.2c0.4,0.4,0.4,1-0.2,1.5c-1,1-2,2-3,3
		c-0.2,0.3-0.4,0.7-0.4,1.1c0,2.6,0,5.2,0,7.8c0,0.2,0,0.5,0,0.7C26,36.4,27.1,36.4,28.4,36.4z M30,38.4c-4.2,0-8.4,0-12.6,0
		c0,0.9,0,1.7,0,2.5c0.1,1,0.7,1.7,1.7,1.7c3.1,0,6.2,0,9.2,0c0.9,0,1.6-0.6,1.7-1.4C30.1,40.2,30,39.3,30,38.4z M20.9,44.5
		c0,0.9,0.4,1.5,1.3,1.5c1.1,0,2.1,0,3.2,0c0.8,0,1.3-0.6,1.3-1.5C24.7,44.5,22.8,44.5,20.9,44.5z"/>
	<path class="st0" d="M22.8,3.7c0-0.7,0-1.4,0-2c0-0.7,0.4-1.2,1-1.1c0.7,0,0.9,0.5,0.9,1.1c0,1.4,0,2.8,0,4.2c0,0.7-0.4,1.1-1,1
		c-0.6-0.1-0.9-0.5-0.9-1.1C22.8,5.1,22.8,4.4,22.8,3.7z"/>
	<path class="st0" d="M39.8,7.6c-0.2,0.3-0.3,0.6-0.5,0.8c-1,1-2,2-3,3c-0.5,0.5-1,0.5-1.4,0.1c-0.4-0.4-0.4-0.9,0.1-1.4
		c1-1,2-2,3-3c0.2-0.2,0.7-0.3,1-0.2C39.4,6.9,39.6,7.3,39.8,7.6z"/>
	<path class="st0" d="M11.9,33.6c0.2,0.2,0.6,0.3,0.7,0.6c0.1,0.3,0.1,0.7,0,0.9c-1.1,1.2-2.2,2.3-3.4,3.4c-0.4,0.3-0.8,0.2-1.2-0.1
		c-0.3-0.4-0.4-0.8-0.1-1.2c1.1-1.1,2.2-2.3,3.4-3.4C11.4,33.7,11.7,33.7,11.9,33.6z"/>
	<path class="st0" d="M4.6,23.7c-0.7,0-1.4,0-2.1,0c-0.6,0-1-0.3-1-0.9c-0.1-0.5,0.4-1,1-1c1.4,0,2.9,0,4.3,0c0.6,0,1.1,0.4,1,1
		c-0.1,0.6-0.4,0.9-1,0.9C6.1,23.7,5.4,23.7,4.6,23.7z"/>
	<path class="st0" d="M42.7,23.7c-0.7,0-1.4,0-2.1,0c-0.6,0-1-0.3-1-0.9c-0.1-0.5,0.4-1,1-1c1.4,0,2.9,0,4.3,0c0.6,0,1.1,0.4,1,1
		c-0.1,0.6-0.4,0.9-1,0.9C44.2,23.7,43.5,23.7,42.7,23.7z"/>
	<path class="st0" d="M12.8,11c-0.2,0.2-0.3,0.6-0.6,0.7c-0.3,0.1-0.8,0.1-1-0.1C10.1,10.5,9,9.4,7.9,8.2C7.6,7.9,7.6,7.3,8,7.1
		c0.3-0.2,0.9-0.3,1.1-0.2c1.2,1.1,2.4,2.3,3.5,3.5C12.7,10.5,12.8,10.7,12.8,11z"/>
	<path class="st0" d="M35.6,33.6c0.3,0.2,0.6,0.3,0.8,0.5c1,1,2,2,3,3c0.5,0.5,0.5,1,0.1,1.4c-0.5,0.4-1,0.4-1.4-0.1c-1-1-2-2-3-3
		c-0.2-0.2-0.3-0.8-0.2-1.1C34.9,34,35.3,33.8,35.6,33.6z"/>
</g>
</svg>
