<?xml version="1.0" encoding="utf-8"?>
<!-- Generator: Adobe Illustrator 25.0.1, SVG Export Plug-In . SVG Version: 6.00 Build 0)  -->
<svg version="1.1" id="Layer_1" xmlns="http://www.w3.org/2000/svg" xmlns:xlink="http://www.w3.org/1999/xlink" x="0px" y="0px"
	 viewBox="0 0 48 48" style="enable-background:new 0 0 48 48;" xml:space="preserve">
<style type="text/css">
	.st0{fill:#B3001B;}
</style>
<g>
	<path class="st0" d="M0,26.6c0.3-0.2,0.6-0.5,0.9-0.7c2.2-1.2,4.4-2.4,6.5-3.6c0.2-0.1,0.3-0.3,0.4-0.6c0.1-1.1,0.7-2,1.7-2.5
		c0.5-0.3,0.7-0.6,0.7-1.2c0-1.4,0.7-2.3,2-2.9c0.1,0,0.1-0.1,0.2-0.1c0.1,0,0.1,0,0.2-0.1c-0.3-2,0.5-3.3,2.4-3.9
		c0-0.4,0-0.8,0-1.2c0.3-2.3,2.8-3.5,4.8-2.4c1.5,0.8,3,1.7,4.4,2.6c0.3,0.2,0.5,0.2,0.9,0c1.2-0.7,2.4-1.4,3.7-2
		c1.9-0.9,4.1,0.1,4.6,2.1c0.1,0.3,0.1,0.7,0.1,1c2.6,0.3,3.6,2.5,2.9,4.5c0.1,0.1,0.3,0.1,0.4,0.2c1.1,0.7,1.7,1.7,1.6,3
		c0,0.7,0.3,1.2,0.7,1.8c0.1,0.2,0.4,0.4,0.5,0.6c0.2,0.6,0.7,0.8,1.2,1.1c2,1.2,4.1,2.4,6.1,3.6c0.8,0.5,0.9,0.9,0.4,1.7
		c-0.7,1.2-1.5,2.4-2.2,3.6c-0.3,0.5-0.8,0.6-1.3,0.3c-0.4-0.3-0.6-0.8-0.3-1.3c0.1-0.1,0.1-0.2,0.2-0.4c0.5-0.9,1.1-1.8,1.7-2.7
		c-1.1-0.6-2.1-1.3-3.3-1.9c-2.2,3.6-4.4,7.2-6.6,10.8c1.1,0.7,2.2,1.3,3.3,1.9c0.1-0.2,0.3-0.4,0.4-0.6c0.3-0.4,0.8-0.6,1.3-0.3
		c0.4,0.3,0.6,0.8,0.3,1.2c-0.3,0.5-0.6,1-0.9,1.5c-0.3,0.4-0.8,0.6-1.2,0.3c-1.7-1-3.3-2-4.9-3c-0.5-0.3-0.5-0.8-0.3-1.3
		c0.3-0.5,0.6-1,1-1.6c-0.7-0.4-1.4-0.9-2.2-1.3c-0.1-0.1-0.3,0-0.4,0c-2.4,1-4.8,1-7.3,0.1c-0.1-0.1-0.3,0-0.5,0
		c-2.9,1.4-5.8,1.5-8.7,0.2c-0.1,0-0.3-0.1-0.3,0c-0.7,0.4-1.5,0.8-2.2,1.2c0.3,0.5,0.6,1,0.9,1.5c0.3,0.6,0.2,1.1-0.4,1.4
		c-1.6,0.9-3.2,1.8-4.8,2.6c-0.6,0.3-1.1,0.2-1.4-0.5c-2.3-4.1-4.6-8.2-6.9-12.3c-0.1-0.1-0.2-0.2-0.3-0.4C0,27,0,26.8,0,26.6z
		 M12.9,26.3c0.1,0.2,0.2,0.3,0.2,0.4c0.9,1.5,1.7,3,2.6,4.5c0.2,0.3,0.4,0.5,0.7,0.7c2.4,1.1,4.8,0.9,7.1-0.3
		c4.4-2.3,8.8-4.6,13.2-6.9c0.3-0.2,0.6-0.3,0.9-0.5c0.5-0.3,0.7-0.8,0.6-1.3c-0.1-0.6-0.4-1-1-1.1c-0.4,0-0.8,0-1.2,0.2
		c-1.6,0.8-3.3,1.7-4.9,2.5c-0.6,0.3-1.1,0.1-1.3-0.3c-0.3-0.5-0.1-1,0.5-1.3c0.4-0.2,0.9-0.4,1.3-0.7c1.4-0.7,2.8-1.4,4.2-2.2
		c0.6-0.3,0.9-0.8,0.8-1.4c-0.1-0.6-0.4-1-1-1.1c-0.5-0.1-0.9,0-1.3,0.2c-1.8,1-3.5,1.9-5.3,2.9c-0.2,0.1-0.5,0.2-0.8,0.2
		c-0.4,0-0.7-0.3-0.8-0.8c-0.1-0.5,0.2-0.8,0.6-1c1.9-1,3.8-2.1,5.7-3.1c0.2-0.1,0.4-0.2,0.6-0.4c0.4-0.4,0.5-0.9,0.3-1.5
		c-0.2-0.5-0.7-0.9-1.3-0.8c-0.3,0-0.7,0.1-1,0.3c-1.9,1-3.7,2-5.6,3c-0.2,0.1-0.5,0.2-0.7,0.2c-0.4,0-0.7-0.3-0.8-0.7
		c-0.1-0.4,0.1-0.8,0.5-1.1c1.6-0.9,3.2-1.8,4.8-2.6c0.1-0.1,0.3-0.1,0.4-0.2c0.5-0.4,0.7-1,0.5-1.6c-0.2-0.5-0.7-0.9-1.3-0.9
		c-0.3,0-0.6,0.1-0.8,0.2c-2.5,1.3-5.1,2.7-7.6,4.1c-0.1,0-0.2,0.1-0.3,0.2c0.6,0.9,0.8,1.9,0.4,3c-0.4,1-1.2,1.7-2.2,2
		c0.5,2.4-1.3,4.3-3.7,4.1C15.9,25,14.8,26,12.9,26.3z M11.8,36.5c-2.1-3.7-4.2-7.4-6.2-11c-1.1,0.6-2.2,1.2-3.3,1.8
		c2.1,3.7,4.2,7.4,6.2,11.1C9.6,37.7,10.7,37.1,11.8,36.5z M14,32c-0.1-0.2-0.2-0.3-0.2-0.4c-1.1-1.9-2.1-3.7-3.2-5.6
		c-0.3-0.5-0.6-0.9-1.2-1.2c-0.3-0.2-0.5-0.5-0.8-0.7C8.5,24,8.3,23.9,8.2,24c-0.4,0.2-0.7,0.4-1,0.6c1.6,2.9,3.2,5.7,4.8,8.6
		C12.7,32.7,13.3,32.4,14,32z M35.4,32.9c1.7-2.8,3.4-5.6,5.1-8.4c-0.2-0.1-0.4-0.2-0.5-0.3c-0.4,1.2-1.4,1.7-2.4,2.2
		c-0.3,0.2-0.7,0.3-1,0.5c-0.1,0.1-0.3,0.1-0.3,0.2c-0.9,1.5-1.9,3-2.8,4.6C34.2,32.1,34.8,32.5,35.4,32.9z M13.6,16.7
		c-0.8,0-1.3,0.4-1.5,1c-0.2,0.6,0,1.2,0.6,1.5c1,0.6,2.1,1.3,3.2,1.9c0.7,0.4,1.6,0.2,2-0.5c0.4-0.7,0.2-1.4-0.6-1.9
		c-1-0.6-2-1.2-3-1.7C14,16.8,13.8,16.8,13.6,16.7z M15.9,12.7c-0.6,0.1-1.2,0.5-1.3,1c-0.2,0.6,0,1.2,0.6,1.5
		c1,0.6,2.1,1.3,3.1,1.8c0.7,0.4,1.6,0.2,1.9-0.5c0.4-0.7,0.1-1.4-0.6-1.9c-1-0.6-2-1.2-3-1.7C16.4,12.9,16.1,12.8,15.9,12.7z
		 M14.2,22.8c-0.1-0.2-0.2-0.6-0.5-0.8c-0.7-0.5-1.4-0.9-2.1-1.3c-0.6-0.3-1.4,0-1.8,0.6c-0.4,0.6-0.2,1.4,0.5,1.8
		c0.6,0.4,1.2,0.8,1.9,1.1C13.1,24.7,14.2,24.1,14.2,22.8z M19.8,12.6c0.8,0,1.3-0.3,1.5-0.9c0.2-0.5,0.1-1.1-0.3-1.4
		c-0.8-0.5-1.5-1-2.4-1.4c-0.5-0.2-1.1,0-1.5,0.5c-0.3,0.4-0.4,1.1-0.1,1.5C17.8,11.8,18.9,12.2,19.8,12.6z M33.1,28.9
		C33.1,28.8,33,28.8,33.1,28.9c-2.1,1-4.1,2-6.2,3.1c1.7,0.3,3.1,0,4.5-0.6c0.1,0,0.2-0.1,0.3-0.2C32.1,30.4,32.6,29.6,33.1,28.9z"
		/>
	<path class="st0" d="M43.1,34.5c0,0.5-0.4,0.9-0.9,0.9c-0.5,0-0.9-0.4-0.9-0.9c0-0.5,0.4-0.9,0.9-0.9C42.7,33.5,43.1,34,43.1,34.5z
		"/>
</g>
</svg>
