<?xml version="1.0" encoding="utf-8"?>
<!-- Generator: Adobe Illustrator 25.0.1, SVG Export Plug-In . SVG Version: 6.00 Build 0)  -->
<svg version="1.1" id="Layer_1" xmlns="http://www.w3.org/2000/svg" xmlns:xlink="http://www.w3.org/1999/xlink" x="0px" y="0px"
	 viewBox="0 0 48 48" style="enable-background:new 0 0 48 48;" xml:space="preserve">
<style type="text/css">
	.st0{fill:#B3001B;}
</style>
<g>
	<path class="st0" d="M17.8,21.6c0.7,0,1.3,0.3,1.8,0.8c0.8,0.8,1.6,1.6,2.3,2.4c0.7,0.7,1.1,0.7,1.7,0c2.4-2.5,4.9-5,7.3-7.5
		c1.2-1.2,2.6-1.2,3.8,0c0.2,0.2,0.4,0.4,0.7,0.7c1.2,1.2,1.2,2.7,0,3.9c-2,2-4,4.1-6,6.1c-1.6,1.6-3.2,3.2-4.8,4.9
		c-1.2,1.3-2.7,1.3-3.9,0c-1.9-1.9-3.8-3.9-5.7-5.8c-1.1-1.1-1.1-2.6,0-3.8c0.3-0.3,0.6-0.6,0.9-0.9C16.6,21.8,17.1,21.6,17.8,21.6z
		 M17.8,23.1c-0.3,0.2-0.5,0.2-0.7,0.4c-0.3,0.2-0.5,0.5-0.7,0.7c-0.6,0.7-0.6,1.1,0,1.7c1.9,1.9,3.8,3.9,5.7,5.8
		c0.6,0.6,1,0.6,1.6,0c1.1-1.1,2.2-2.2,3.3-3.3c2.5-2.5,5-5.1,7.4-7.6c0.6-0.7,0.6-1.1,0-1.8c-0.2-0.2-0.4-0.4-0.6-0.6
		c-0.7-0.7-1-0.7-1.7,0c-2.4,2.5-4.8,4.9-7.3,7.4c-1.3,1.3-2.7,1.3-4,0c-0.8-0.8-1.5-1.6-2.3-2.4C18.4,23.4,18.1,23.3,17.8,23.1z"/>
	<path class="st0" d="M45.9,17c-0.1,5.1-1,10.1-3,14.8c-0.3,0.7-0.7,0.9-1.1,0.7c-0.5-0.2-0.6-0.6-0.3-1.3c0.3-0.8,0.7-1.7,1-2.5
		c1.5-4.4,2-8.9,1.8-13.6c-0.1-1.2-0.2-2.4-0.3-3.6c-0.1-0.7-0.2-0.9-1-1c-4.7-0.8-9.1-2.4-13.3-4.7c-1.8-1-3.4-2.1-5.1-3.2
		c-0.7-0.5-0.8-0.5-1.5,0c-1.5,1-3,2-4.5,2.9c-0.4,0.2-0.7,0.2-1-0.1c-0.3-0.2-0.3-0.6-0.2-0.9c0.1-0.2,0.3-0.3,0.4-0.4
		c1.6-1,3.1-2,4.7-3.1c0.9-0.6,1.9-0.6,2.8,0.1c2.4,1.8,5,3.3,7.8,4.6c3.3,1.5,6.8,2.6,10.3,3.2c1.2,0.2,1.9,0.9,2.1,2.2
		C45.6,13.2,45.8,15.1,45.9,17z"/>
	<path class="st0" d="M13.5,18c-0.4,0-0.6-0.3-0.7-0.7c-0.1-0.7-0.3-1.4-0.4-2.1c-0.4-2.2-1.8-3.5-4-3.9c-0.6-0.1-1.2-0.3-1.9-0.4
		c-0.5-0.1-0.8-0.3-0.8-0.8c0-0.4,0.3-0.7,0.8-0.8c0.9-0.2,1.8-0.4,2.7-0.6c1.5-0.4,2.5-1.4,2.9-2.9c0.2-0.9,0.5-1.8,0.7-2.8
		c0.1-0.5,0.3-0.8,0.8-0.8c0.5,0,0.7,0.3,0.8,0.8c0.2,1,0.5,2.1,0.8,3.1c0.4,1.2,1.2,2.1,2.4,2.4c0.9,0.3,1.8,0.5,2.7,0.7
		c0.8,0.2,1.2,0.4,1.2,0.9c0,0.5-0.3,0.7-1.2,0.9c-0.9,0.2-1.8,0.4-2.7,0.7c-1.2,0.4-2,1.2-2.4,2.4c-0.3,1-0.5,2.1-0.8,3.1
		C14.2,17.8,13.9,18,13.5,18z M17.2,10.1c-1.9-0.6-3-1.8-3.6-3.6c-1,2.2-1.1,2.3-3.6,3.6c1.8,0.6,2.9,1.8,3.6,3.6
		C14.2,11.9,15.3,10.8,17.2,10.1z"/>
	<path class="st0" d="M37.9,46.4c-0.4,0-0.6-0.3-0.7-0.7c-0.2-0.9-0.4-1.7-0.6-2.6c-0.4-1.7-1.5-2.7-3.2-3.2
		c-0.8-0.2-1.7-0.4-2.5-0.6c-0.5-0.1-0.8-0.3-0.8-0.8c0-0.4,0.3-0.7,0.8-0.8c0.9-0.2,1.9-0.4,2.8-0.7c1.5-0.4,2.4-1.3,2.8-2.8
		c0.2-0.8,0.4-1.6,0.6-2.4c0.2-0.9,0.4-1.2,0.9-1.2c0.5,0,0.7,0.3,0.9,1.2c0.2,0.9,0.4,1.9,0.7,2.8c0.4,1.2,1.2,2,2.4,2.4
		c1,0.3,2.1,0.5,3.1,0.8c0.6,0.1,0.8,0.4,0.8,0.8c0,0.4-0.3,0.7-0.8,0.8c-1,0.2-2.1,0.5-3.1,0.8c-1.2,0.4-2,1.2-2.3,2.3
		c-0.3,1-0.5,2.1-0.8,3.2C38.6,46.1,38.4,46.4,37.9,46.4z M41.6,38.5c-1.9-0.6-3-1.8-3.6-3.6c-0.6,1.8-1.8,3-3.6,3.6
		c1.9,0.6,3,1.8,3.6,3.6C38.6,40.3,39.8,39.1,41.6,38.5z"/>
	<path class="st0" d="M6.5,17.3c0-0.9,0-1.7,0-2.6c0-0.3,0.1-0.5,0.2-0.7c0.2-0.3,0.5-0.5,0.9-0.3c0.4,0.1,0.6,0.4,0.5,0.8
		c-0.1,1.1-0.2,2.2-0.2,3.3c0.1,4.1,0.9,8,2.7,11.7c2.7,5.5,6.9,9.2,12.6,11.3c0.3,0.1,0.6,0.1,0.9,0c0.9-0.3,1.7-0.7,2.6-1.1
		c0.6-0.3,1-0.2,1.2,0.3c0.2,0.4,0,0.9-0.5,1.1c-0.9,0.4-1.9,0.8-2.8,1.2c-0.6,0.3-1.2,0.2-1.8,0c-7.6-2.8-12.6-8.1-15-15.8
		C7,23.6,6.5,20.4,6.5,17.3z"/>
	<path class="st0" d="M1.7,17c0.1-1.7,0.2-3.4,0.4-5.1c0-0.3,0.2-0.6,0.4-0.8c0.2-0.1,0.6-0.1,0.8,0c0.2,0.2,0.4,0.5,0.4,0.8
		c0,1.1-0.2,2.2-0.3,3.3C3.1,21.7,4.1,28,7.4,33.8c0.2,0.3,0.4,0.6,0.5,0.9c0.3,0.5,0.2,0.9-0.2,1.2c-0.4,0.3-0.8,0.1-1.2-0.4
		c-1.4-2.3-2.5-4.7-3.3-7.3C2.2,24.6,1.7,20.8,1.7,17z"/>
	<path class="st0" d="M23.8,48c-0.5-0.1-0.9-0.2-1.4-0.4c-3.8-1.2-7.2-3.1-10.2-5.7c-0.1-0.1-0.2-0.2-0.3-0.3c-0.3-0.3-0.3-0.7,0-1
		c0.3-0.3,0.7-0.4,1-0.1c0.3,0.2,0.7,0.5,1,0.8c2.9,2.3,6.1,4,9.6,5c0.3,0.1,0.6,0,0.9,0c2.8-0.8,5.3-2,7.7-3.7
		c0.7-0.5,1.2-0.5,1.4,0c0.3,0.4,0.1,0.9-0.6,1.3c-2.5,1.7-5.3,3-8.2,3.9C24.4,47.9,24.1,47.9,23.8,48z"/>
	<path class="st0" d="M41.1,17.5c0,3.5-0.6,6.8-1.7,10.1c-0.2,0.6-0.6,0.8-1.1,0.7c-0.5-0.1-0.6-0.6-0.4-1.2
		c1.3-3.8,1.8-7.6,1.7-11.6c0-0.5-0.1-0.9-0.4-1.2c-0.3-0.3-0.3-0.7,0-1c0.3-0.3,0.7-0.3,1.1-0.1c0.5,0.4,0.7,0.9,0.8,1.5
		c0,0.1,0,0.3,0,0.4C41.1,15.9,41.1,16.7,41.1,17.5z"/>
	<path class="st0" d="M23.9,6.1c0.4,0.1,0.8,0.2,1.2,0.5c2.1,1.3,4.3,2.5,6.7,3.5c0.6,0.2,0.8,0.7,0.6,1.1c-0.2,0.4-0.7,0.6-1.2,0.3
		c-2.2-1.1-4.4-2.3-6.6-3.5c-0.4-0.2-0.7-0.4-1.1-0.2c-0.4,0.1-0.8-0.1-0.9-0.5c-0.1-0.4,0.1-0.8,0.5-0.9
		C23.2,6.3,23.5,6.2,23.9,6.1z"/>
	<path class="st0" d="M35.2,11.5c0.4,0.2,1,0.3,1.5,0.6c0.3,0.2,0.4,0.6,0.2,0.9c-0.1,0.4-0.5,0.6-0.8,0.5c-0.5-0.1-1-0.3-1.4-0.5
		c-0.3-0.2-0.5-0.5-0.4-0.9C34.4,11.7,34.6,11.5,35.2,11.5z"/>
	<path class="st0" d="M10.1,39.7c-0.3-0.1-0.5-0.2-0.6-0.3c-0.3-0.3-0.6-0.6-0.8-0.9c-0.3-0.3-0.2-0.8,0.1-1.1
		c0.3-0.3,0.8-0.3,1.1,0.1c0.3,0.3,0.6,0.6,0.8,0.9c0.1,0.2,0.1,0.6,0.1,0.8C10.7,39.4,10.4,39.5,10.1,39.7z"/>
</g>
</svg>
