<?xml version="1.0" encoding="utf-8"?>
<!-- Generator: Adobe Illustrator 25.0.1, SVG Export Plug-In . SVG Version: 6.00 Build 0)  -->
<svg version="1.1" id="Layer_1" xmlns="http://www.w3.org/2000/svg" xmlns:xlink="http://www.w3.org/1999/xlink" x="0px" y="0px"
	 viewBox="0 0 48 48" style="enable-background:new 0 0 48 48;" xml:space="preserve">
<style type="text/css">
	.st0{fill:#B3001B;}
</style>
<g>
	<path class="st0" d="M47.9,39.5c0,0.1-0.1,0.1-0.1,0.2c-0.4,1.4-1.4,2.1-2.8,2.1c-0.7,0-1.4,0-2.2,0c-5.2,0-10.3,0-15.5,0
		c-0.4,0-0.9-0.1-1.3-0.2c-0.1,0-0.2,0-0.3,0c-0.6,0.1-1.3,0.2-1.9,0.2c-2.6,0-5.1,0-7.7,0c-2.9,0.1-5.7-0.4-8.3-1.5
		c-0.2-0.1-0.4-0.1-0.6-0.2c0,0.3,0,0.6,0,0.8c0,0.9-0.7,1.6-1.6,1.6c-1.4,0-2.7,0-4.1,0c-0.9,0-1.6-0.8-1.6-1.8c0-2.9,0-5.9,0-8.8
		c0-2.4,0-4.9,0-7.3c0-1.2,0.7-1.9,1.9-1.9c1.1,0,2.2,0,3.4,0c1.2,0,1.8,0.6,1.9,1.9c0.7,0,1.3-0.2,1.7-0.8c0.3-0.4,0.6-0.8,0.8-1.1
		c0.5-0.8,1.2-1.5,2.1-2.1c0.4-0.3,0.8-0.5,1.2-0.8c1.2-0.8,2-1.9,2.3-3.3c0.2-1,0.5-2.1,0.7-3.1c0.2-0.8,0.5-1,1.3-0.7
		c1.8,0.6,2.9,2.1,3,4.2c0.1,1.7-0.2,3.3-0.8,4.8c-0.1,0.2-0.1,0.3-0.2,0.6c1.6,0,3.2,0,4.8,0c0-0.2,0-0.4,0-0.5c0-2.5,0-5,0-7.5
		c0-1,0.3-1.9,1.1-2.6c2.4-2.2,4.9-4.4,7.3-6.5c0.7-0.6,1.4-1.1,2.3-1.3c1.5-0.4,3,0,4.2,1c1.2,1,2.4,2.1,3.6,3.2
		c1.3,1.1,2.5,2.3,3.8,3.4c0.7,0.6,1.3,1.2,1.5,2.2C47.9,22.1,47.9,30.8,47.9,39.5z M27.3,40.3c0.3,0,0.4,0,0.6,0
		c5.2,0,10.5,0,15.7,0c0.5,0,0.9,0,1.4,0c0.9,0,1.4-0.5,1.4-1.5c0-8.3,0-16.6,0-24.9c0-0.5-0.2-0.9-0.6-1.3c-1.1-1-2.3-2-3.4-3.1
		c-1.4-1.2-2.7-2.5-4.2-3.7c-1.5-1.3-2.9-1.2-4.5,0c-0.2,0.1-0.4,0.3-0.5,0.5c-2.3,2.1-4.6,4.2-7,6.3c-0.5,0.4-0.7,0.9-0.7,1.5
		c0,2.5,0,5.1,0,7.6c0,0.1,0,0.3,0,0.5c1.4-0.1,2.5,0.1,3.3,1.3c0.8,1.1,0.7,2.3,0,3.5c2.1,1.1,2.4,3.9,0.3,5.4c0.7,1,0.9,2,0.4,3.1
		c-0.5,1.1-1.3,1.7-2.5,1.9C27.8,38.3,27.8,39.3,27.3,40.3z M17.5,14.2c0,0.1,0,0.1-0.1,0.1c-0.1,0.4-0.2,0.8-0.3,1.2
		c-0.4,2.7-1.7,4.7-4.1,6c-1.1,0.6-1.9,1.6-2.5,2.6c-0.5,0.7-1,1.3-1.9,1.6c-0.4,0.1-0.9,0.2-1.4,0.3c0,0.1,0,0.3,0,0.5
		c0,3.6,0,7.1,0,10.7c0,1.1,0,1.1,1.1,1.6c0.1,0,0.2,0.1,0.3,0.1c2.4,1,4.8,1.4,7.4,1.4c2.8-0.1,5.6,0,8.3,0c0.2,0,0.4,0,0.7,0
		c0.7-0.1,1.2-0.8,1.2-1.5c0-0.7-0.5-1.3-1.2-1.5c-0.2,0-0.4,0-0.6,0c-1.2,0-2.4,0-3.7,0c-0.5,0-0.8-0.3-0.8-0.7
		c0-0.4,0.3-0.7,0.7-0.8c0.1,0,0.3,0,0.4,0c1.9,0,3.8,0,5.8,0c0.4,0,0.8-0.1,1.1-0.3c0.6-0.3,0.8-1,0.6-1.6
		c-0.2-0.7-0.7-1.1-1.5-1.1c-1.7,0-3.4,0-5.1,0c-0.4,0-0.7,0-1.1,0c-0.6,0-0.9-0.3-0.9-0.8c0-0.5,0.3-0.7,0.8-0.7c0.1,0,0.2,0,0.4,0
		c2.2,0,4.4,0,6.6,0c0.9,0,1.6-0.7,1.6-1.6c0-0.8-0.7-1.4-1.6-1.4c-2.2,0-4.5,0-6.7,0c-0.2,0-0.3,0-0.5,0c-0.4-0.1-0.6-0.3-0.6-0.8
		c0-0.4,0.3-0.6,0.7-0.7c0.2,0,0.3,0,0.5,0c1.8,0,3.6,0,5.4,0c0.7,0,1.2-0.3,1.5-0.9c0.3-0.6,0.1-1.2-0.3-1.6
		c-0.4-0.4-0.8-0.5-1.3-0.5c-2.7,0-5.4,0-8.1,0c-0.4,0-0.7-0.1-0.8-0.4c-0.2-0.3,0-0.6,0.2-0.9c0.3-0.6,0.7-1.2,0.9-1.8
		c0.5-1.5,0.8-3.1,0.3-4.7C18.5,15.2,18.1,14.6,17.5,14.2z M1.5,32.6c0,2.7,0,5.3,0,8c0,0.4,0.1,0.5,0.5,0.5c1.1,0,2.2,0,3.2,0
		c0.4,0,0.5-0.1,0.5-0.5c0-5.3,0-10.6,0-16c0-0.4-0.2-0.5-0.5-0.5c-1,0-2.1,0-3.1,0c-0.6,0-0.6,0-0.6,0.6C1.5,27.4,1.5,30,1.5,32.6z
		"/>
	<path class="st0" d="M36.8,34.1c0,0.2,0,0.5,0,0.8c0,0.5-0.3,0.7-0.7,0.8c-0.4,0-0.7-0.3-0.8-0.7c0-0.2,0-0.3,0-0.5
		c0-0.2,0-0.3,0-0.5c-0.4-0.1-0.7-0.2-1.1-0.3c-1.3-0.5-2.2-1.4-2.6-2.8c-0.1-0.4,0.1-0.8,0.5-1c0.4-0.1,0.9,0,1,0.5
		c0.3,1.3,1.6,2.1,3.2,2c0.6,0,1.2-0.2,1.8-0.4c1.3-0.6,1.4-2.2,0.2-3.1c-0.7-0.5-1.6-0.6-2.5-0.8c-0.7-0.2-1.3-0.3-1.9-0.6
		c-2.4-1.2-2.6-4.3-0.3-5.8c0.5-0.3,1.1-0.5,1.8-0.8c0-0.2,0-0.5,0-0.8c0-0.5,0.3-0.8,0.8-0.8c0.4,0,0.7,0.3,0.7,0.8
		c0,0.3,0,0.6,0,0.8c0.6,0.2,1.1,0.4,1.6,0.6c0.8,0.4,1.4,1.1,1.8,1.9c0.2,0.5,0.1,0.9-0.3,1.1c-0.4,0.2-0.8,0.1-1-0.4
		c-0.8-1.7-2.9-2.1-4.4-1.2c-0.7,0.4-1,1-1,1.7c0,0.8,0.4,1.3,1.1,1.5c0.8,0.3,1.6,0.4,2.3,0.7c0.8,0.3,1.6,0.5,2.3,0.9
		c2.1,1.4,1.9,4.4-0.4,5.6C38.1,33.7,37.5,33.9,36.8,34.1z"/>
	<path class="st0" d="M33.4,10.9c0-1.5,1.2-2.7,2.6-2.7c1.5,0,2.7,1.2,2.7,2.7c0,1.5-1.2,2.7-2.7,2.7C34.6,13.5,33.4,12.4,33.4,10.9
		z M36.1,9.7c-0.6,0-1.2,0.5-1.2,1.1c0,0.7,0.5,1.2,1.2,1.2c0.6,0,1.2-0.5,1.2-1.2C37.2,10.3,36.7,9.7,36.1,9.7z"/>
</g>
</svg>
