<?xml version="1.0" encoding="utf-8"?>
<!-- Generator: Adobe Illustrator 25.0.1, SVG Export Plug-In . SVG Version: 6.00 Build 0)  -->
<svg version="1.1" id="Layer_1" xmlns="http://www.w3.org/2000/svg" xmlns:xlink="http://www.w3.org/1999/xlink" x="0px" y="0px"
	 viewBox="0 0 48 48" style="enable-background:new 0 0 48 48;" xml:space="preserve">
<style type="text/css">
	.st0{fill:#B3001B;}
</style>
<g>
	<path class="st0" d="M12.9,48c-1-0.2-1.7-0.8-2.4-1.6c-0.4-0.5-0.9-0.9-1.3-1.4c-0.4-0.4-0.5-1-0.1-1.4c0.4-0.4,1-0.4,1.4,0
		c0.6,0.6,1.3,1.3,1.9,1.9c0.7,0.7,1.4,0.7,2,0c0.5-0.4,0.9-0.9,1.4-1.4c0.7-0.7,0.7-1.3,0-2.1c-1.7-1.7-3.3-3.4-5-5.1
		c-1.5-1.5-2.9-2.9-4.4-4.4c-0.2-0.2-0.5-0.4-0.7-0.6c-0.4-0.3-1-0.3-1.4,0.1C3.6,32.8,3,33.4,2.4,34c-0.5,0.5-0.4,1.2,0.1,1.8
		c0.7,0.7,1.3,1.3,2,2c0.3,0.3,0.4,0.7,0.2,1.1c-0.2,0.4-0.5,0.6-0.9,0.5c-0.2,0-0.5-0.1-0.7-0.3C2.4,38.4,1.7,37.7,1,37
		c-1.1-1.2-1.1-3,0-4.2c0.6-0.6,1.2-1.3,1.8-1.8c0.9-0.8,2-1,3.1-0.7c0.2,0,0.4,0.1,0.5,0c0.9-0.9,1.8-1.8,2.8-2.7
		c0.1-0.1,0.1-0.1,0.2-0.2c-1.9-1.9-1.1-4.7,1.1-5.6c-1.2-2.1-0.2-4.4,2-5c-0.2-0.9-0.1-1.7,0.4-2.5c0.5-0.8,1.2-1.3,2-1.5
		c0-0.6,0-1.2,0.1-1.7c0.4-1.8,2.1-2.8,3.9-2.4c0.2,0,0.4,0,0.6-0.1c0.8-0.6,1.7-0.5,2.6-0.3c2,0.4,4,0.8,6,1.1
		c0.4,0.1,0.8,0,1.2,0.1c1.9,0.3,3,1.9,2.7,3.8c0,0.1,0,0.2,0,0.3c0.9,0.2,1.6,0.7,2.1,1.5c0.5,0.8,0.6,1.7,0.4,2.6
		c2,0.7,2.8,2.1,2.5,4.1c1.2,0.4,2.1,1.1,2.4,2.4c0.3,1.3-0.1,2.3-1,3.3c0.8,0.8,1.5,1.5,2.3,2.3c0.1,0.1,0.2,0.1,0.2,0.2
		c0.3,0.5,0.7,0.6,1.3,0.4c1.1-0.4,2.1-0.1,2.9,0.7c0.7,0.6,1.3,1.2,1.9,1.9c1.1,1.2,1.1,3.1,0,4.3c-3.4,3.4-6.8,6.8-10.2,10.2
		c-1.2,1.2-3.1,1.2-4.4,0c-0.6-0.5-1.1-1.1-1.7-1.6c-0.9-1-1.2-2.2-0.7-3.4c0.1-0.3,0-0.4-0.1-0.6c-1.1-1.1-2.2-2.2-3.4-3.4
		c-0.1-0.1-0.3-0.2-0.4-0.2c-1,0-2-0.1-3-0.1c-0.3,0-0.7-0.1-1,0c-0.3,0.1-0.7,0.2-1,0.4c-1.1,1-2.1,2.1-3.1,3.1
		c-0.2,0.2-0.2,0.3-0.1,0.6c0.6,1.2,0.4,2.6-0.6,3.5c-0.5,0.6-1.1,1.2-1.7,1.7c-0.5,0.4-1.1,0.6-1.7,0.9C13.6,48,13.2,48,12.9,48z
		 M7.9,31.4c2.9,2.9,5.8,5.8,8.6,8.7c1.1-1.1,2.2-2.2,3.3-3.3c0.6-0.6,1.3-0.9,2.1-1c0.9,0,1.7,0,2.6,0c1.5,0.1,2.9-0.1,3.9-1.4
		c0.4-0.5,1-0.5,1.4-0.1c0.4,0.4,0.4,0.9-0.1,1.4c-0.4,0.5-0.8,0.9-1.1,1.3c0.9,0.9,1.9,1.9,2.9,2.9c2.8-2.9,5.7-5.7,8.5-8.5
		c-1-1-1.9-2-2.9-3c-0.2,0.2-0.4,0.4-0.6,0.6c-0.4,0.4-1,0.3-1.4-0.2c-0.3-0.4-0.2-0.9,0.2-1.3c0.7-0.7,1.4-1.4,2.1-2.1
		c0.5-0.6,0.5-1.4,0-1.9c-0.5-0.5-1.3-0.6-1.9-0.1c-0.3,0.2-0.5,0.5-0.8,0.7c-0.5,0.5-1,0.5-1.4,0.1c-0.4-0.4-0.3-1,0.1-1.4
		c0.5-0.5,1-1,1.5-1.6c0.5-0.6,0.5-1.4,0-1.9c-0.5-0.5-1.3-0.6-1.9,0c-0.3,0.3-0.6,0.5-0.8,0.8c-0.5,0.5-1.1,0.5-1.5,0.1
		c-0.4-0.4-0.3-1,0.1-1.4c0.6-0.6,1.1-1.1,1.7-1.7c0.5-0.6,0.5-1.4-0.1-1.9c-0.5-0.5-1.3-0.5-1.9,0c-0.3,0.3-0.6,0.6-0.9,0.9
		c-0.5,0.4-1,0.5-1.4,0.1c-0.4-0.4-0.4-1,0.1-1.4c0.5-0.5,1.1-1.1,1.6-1.6c0.3-0.3,0.5-0.7,0.4-1.2c-0.1-0.5-0.4-0.9-0.9-1.1
		c-0.5-0.2-1.1-0.1-1.5,0.3c-0.8,0.8-1.6,1.6-2.4,2.4c-0.2,0.2-0.3,0.4-0.1,0.7c0.8,1.8-0.1,3.8-1.9,4.4c-0.3,0.1-0.7,0.1-1,0.2
		c0,0.1,0,0.2-0.1,0.3c-0.3,1.7-1.2,2.7-3,3c-0.3,0-0.3,0.2-0.3,0.4c-0.2,1.5-1.3,2.7-2.8,2.9c-0.1,0-0.3,0-0.4,0.1
		c-0.1,0.4-0.1,0.7-0.2,1c-0.6,1.9-2.7,2.7-4.5,2c-0.1-0.1-0.4-0.1-0.5,0C9.7,29.6,8.8,30.5,7.9,31.4z M46,34.7
		c-0.2-0.3-0.3-0.7-0.6-0.9c-0.5-0.5-1-1-1.5-1.5c-0.6-0.6-1.3-0.6-1.9,0c-3.3,3.3-6.6,6.6-9.9,9.9c-0.6,0.6-0.6,1.3,0,1.9
		c0.5,0.5,1,1,1.5,1.5c0.6,0.6,1.3,0.6,1.9,0c3.3-3.3,6.6-6.6,10-10C45.7,35.4,45.8,35.1,46,34.7z M18.9,20.5c0.8,0,1.2-0.3,1.5-0.8
		c0.2-0.6,0.1-1.1-0.3-1.5c-1.1-1.1-2.3-2.3-3.4-3.4c-0.6-0.6-1.4-0.6-2,0c-0.5,0.5-0.5,1.4,0,2c1.1,1.1,2.2,2.2,3.3,3.3
		C18.4,20.3,18.7,20.4,18.9,20.5z M22.3,17.3c0.8-0.1,1.5-0.7,1.4-1.5c0-0.4-0.1-0.7-0.6-0.9c-1.9-0.8-3.3-2.2-4.2-4.2
		c-0.1-0.2-0.3-0.4-0.5-0.4c-0.6-0.2-1.2,0.1-1.5,0.6c-0.3,0.5-0.3,1.2,0.2,1.7c1.4,1.4,2.8,2.8,4.2,4.2C21.7,17,22,17.1,22.3,17.3z
		 M17.3,22.4c-0.1-0.3-0.2-0.6-0.4-0.8c-0.9-1-1.9-1.9-2.8-2.8c-0.5-0.5-1.3-0.4-1.8,0.1c-0.5,0.5-0.6,1.3-0.1,1.8
		c0.9,1,1.9,2,2.9,2.9c0.4,0.4,1,0.4,1.4,0.1C17,23.4,17.2,22.9,17.3,22.4z M13.9,25.6c0-0.1,0-0.4-0.2-0.5c-0.5-0.5-1-1.1-1.5-1.5
		c-0.5-0.4-1.3-0.2-1.7,0.3c-0.4,0.5-0.4,1.2,0,1.7c0.4,0.4,0.8,0.8,1.2,1.2c0.4,0.4,1,0.4,1.4,0.1C13.7,26.7,13.9,26.2,13.9,25.6z
		 M20.8,9.7c0,0.1-0.1,0.1-0.1,0.2c0.5,1.5,1.6,2.4,2.8,3.1c0.8-0.8,1.6-1.6,2.4-2.4C24.2,10.3,22.5,10,20.8,9.7z"/>
	<path class="st0" d="M7.6,1.4C7.8,1.1,8,0.7,8.3,0.6c0.3-0.1,0.7,0,0.9,0.1C9.4,0.8,9.6,1,9.8,1.2c0.9,0.9,1.9,1.9,2.8,2.8
		c0.5,0.5,0.5,1,0.1,1.4c-0.4,0.4-1,0.4-1.5-0.1c-1.1-1-2.1-2.1-3.2-3.2C7.9,2,7.8,1.7,7.6,1.4z"/>
	<path class="st0" d="M39,0.5c0.6,0,0.9,0.2,1,0.5c0.2,0.4,0.1,0.8-0.2,1.1c-0.7,0.7-1.4,1.4-2.1,2.1c-0.4,0.4-0.8,0.8-1.2,1.2
		c-0.4,0.4-1,0.4-1.4,0.1c-0.4-0.4-0.4-0.9,0-1.4c1.1-1.1,2.2-2.2,3.3-3.3C38.6,0.6,38.9,0.6,39,0.5z"/>
	<path class="st0" d="M24.8,3.3c0,0.7,0,1.3,0,2c0,0.6-0.4,1-0.9,1c-0.6,0-1-0.4-1-1c0-1.3,0-2.7,0-4c0-0.6,0.4-1,1-1
		c0.5,0,0.9,0.4,0.9,1C24.9,1.9,24.8,2.6,24.8,3.3z"/>
	<path class="st0" d="M6.7,42.3c-0.5,0-1-0.4-1-0.9c0-0.5,0.4-0.9,0.9-0.9c0.5,0,1,0.4,1,0.9C7.6,41.8,7.2,42.2,6.7,42.3z"/>
	<path class="st0" d="M32.1,33.1c-0.5,0-0.9-0.4-0.9-0.9c0-0.5,0.4-1,0.9-1c0.5,0,1,0.4,1,0.9C33,32.7,32.6,33.1,32.1,33.1z"/>
</g>
</svg>
