<?xml version="1.0" encoding="utf-8"?>
<!-- Generator: Adobe Illustrator 25.0.1, SVG Export Plug-In . SVG Version: 6.00 Build 0)  -->
<svg version="1.1" id="Layer_1" xmlns="http://www.w3.org/2000/svg" xmlns:xlink="http://www.w3.org/1999/xlink" x="0px" y="0px"
	 viewBox="0 0 48 48" style="enable-background:new 0 0 48 48;" xml:space="preserve">
<style type="text/css">
	.st0{fill:#B3001B;}
</style>
<g>
	<path class="st0" d="M20.3,47c-0.7-0.3-1.2-0.7-1.4-1.4c-0.2-0.9,0.4-1.9,1.3-2.1c0.2,0,0.4-0.1,0.6-0.1c2.1,0,4.3,0,6.4,0
		c1,0,1.7,0.6,1.8,1.4c0.2,0.9-0.2,1.7-1,2c-0.1,0-0.2,0.1-0.3,0.2C25.2,47,22.8,47,20.3,47z M24.1,44.8c-1.1,0-2.2,0-3.2,0
		c-0.2,0-0.5,0-0.5,0.3c0,0.3,0.2,0.4,0.5,0.4c0,0,0.1,0,0.1,0c2.1,0,4.1,0,6.2,0c0.3,0,0.6,0,0.5-0.4c0-0.3-0.3-0.3-0.5-0.3
		C26.1,44.8,25.1,44.8,24.1,44.8z"/>
	<path class="st0" d="M24,38.3c-1.7,0-3.4,0-5.1,0c-0.8,0-0.9-0.2-1-1c-0.1-1-0.1-1.9-0.3-2.9c-0.2-1.3-0.9-2.3-1.8-3.3
		c-2.8-2.9-4-6.3-3.3-10.3c0.8-5.2,4.8-9,10-9.8c4.9-0.7,10,1.9,12.2,6.4c2.3,4.7,1.5,10-2.3,13.6c-1.4,1.4-2,3.1-2.1,5
		c0,0.4,0,0.9,0,1.3c0,0.6-0.3,0.8-0.9,0.8C27.5,38.3,25.8,38.3,24,38.3z M19.4,36.8c0,0,0.1,0,0.1,0c3,0,6,0,8.9,0
		c0.3,0,0.3-0.1,0.3-0.3c0-0.4,0-0.8,0.1-1.2c0.2-1.7,0.7-3.3,1.9-4.7c0.5-0.6,1.2-1.2,1.6-1.8c2.7-3.9,2.6-8.8-0.3-12.5
		c-2.8-3.7-8.2-5-12.4-3c-3.9,1.8-6.4,5.8-6.1,10.2c0.2,2.6,1.2,4.8,3,6.6c1.2,1.2,2,2.5,2.3,4.2C19.2,35,19.2,35.9,19.4,36.8z"/>
	<path class="st0" d="M23.9,42.7c-1.6,0-3.1,0-4.7,0c-0.9,0-1.6-0.7-1.7-1.5c-0.1-0.9,0.4-1.7,1.2-1.9c0.2-0.1,0.5-0.1,0.8-0.1
		c3,0,6,0,9,0c1.2,0,1.9,0.7,2,1.7c0,1-0.8,1.8-1.9,1.8C27.1,42.7,25.5,42.7,23.9,42.7C23.9,42.7,23.9,42.7,23.9,42.7z M24,40.5
		c-0.4,0-0.8,0-1.2,0c-1.1,0-2.3,0-3.4,0c-0.2,0-0.3,0.2-0.4,0.3c0.1,0.1,0.3,0.3,0.4,0.4c0.1,0,0.2,0,0.3,0c2.9,0,5.8,0,8.7,0
		c0.1,0,0.3,0,0.4,0c0.1-0.1,0.3-0.2,0.3-0.3c0-0.1-0.2-0.3-0.3-0.3c-0.1-0.1-0.2,0-0.4,0C26.9,40.5,25.5,40.5,24,40.5z"/>
	<path class="st0" d="M16.1,9.2c-0.2,0.2-0.3,0.4-0.6,0.6c-0.3,0.2-0.6,0-0.8-0.2c-0.3-0.4-0.5-0.8-0.8-1.2c-0.6-1-1.2-1.9-1.8-2.9
		c-0.2-0.3-0.3-0.6,0-0.9c0.2-0.2,0.5-0.3,0.7-0.3c0.2,0,0.4,0.2,0.5,0.4c0.9,1.3,1.7,2.6,2.5,4C16,8.8,16,9,16.1,9.2z"/>
	<path class="st0" d="M23.3,4.2c0-0.8,0-1.6,0-2.3C23.3,1.3,23.6,1,24,1c0.4,0,0.7,0.3,0.7,0.8c0,1.6,0,3.1,0,4.7
		c0,0.5-0.3,0.9-0.7,0.8c-0.4,0-0.7-0.3-0.7-0.9C23.3,5.7,23.3,5,23.3,4.2z"/>
	<path class="st0" d="M38,15.8c-0.2-0.1-0.4-0.3-0.5-0.4c-0.1-0.2,0-0.5,0.1-0.8c0-0.1,0.2-0.2,0.3-0.2c1.3-0.7,2.7-1.4,4-2.2
		c0.3-0.2,0.7-0.2,0.9,0c0.2,0.2,0.3,0.5,0.2,0.7c0,0.2-0.2,0.4-0.4,0.5c-1.4,0.8-2.8,1.5-4.2,2.3C38.4,15.7,38.3,15.7,38,15.8z"/>
	<path class="st0" d="M5.5,11.9C5.8,12,6,12.1,6.1,12.2c1.3,0.7,2.6,1.4,3.9,2.1c0.2,0.1,0.4,0.3,0.5,0.5c0,0.2,0,0.6-0.2,0.7
		c-0.2,0.1-0.5,0.2-0.8,0.1c-0.4-0.2-0.8-0.4-1.2-0.6c-1-0.5-2-1.1-3-1.7c-0.3-0.2-0.5-0.5-0.4-0.8C5,12.3,5.3,12.1,5.5,11.9z"/>
	<path class="st0" d="M36.4,5.1c-0.1,0.3-0.2,0.5-0.3,0.6c-0.9,1.3-1.7,2.6-2.6,3.9c-0.3,0.4-0.7,0.5-1,0.3
		c-0.4-0.2-0.4-0.6-0.1-1.1c0.9-1.3,1.8-2.6,2.6-4c0.2-0.3,0.5-0.5,0.8-0.3C36.1,4.7,36.2,4.9,36.4,5.1z"/>
	<path class="st0" d="M33.2,22.7c0,0.1,0,0.2,0,0.4c0,0.4-0.3,0.7-0.7,0.8c-0.4,0-0.7-0.2-0.7-0.7c0-0.4,0-0.7-0.1-1.1
		c-0.5-3.7-3.6-6.5-7.3-6.6c-0.7,0-1.1-0.3-1.1-0.8c0-0.5,0.4-0.7,1.1-0.7C29.2,14.2,33.1,18.1,33.2,22.7z"/>
</g>
</svg>
