<?xml version="1.0" encoding="utf-8"?>
<!-- Generator: Adobe Illustrator 25.0.1, SVG Export Plug-In . SVG Version: 6.00 Build 0)  -->
<svg version="1.1" id="Layer_1" xmlns="http://www.w3.org/2000/svg" xmlns:xlink="http://www.w3.org/1999/xlink" x="0px" y="0px"
	 viewBox="0 0 48 48" style="enable-background:new 0 0 48 48;" xml:space="preserve">
<style type="text/css">
	.st0{fill:#B3001B;}
</style>
<g>
	<path class="st0" d="M38.4,40.8c0,1.9,0,3.7,0,5.6c0,1-0.2,1.2-1.2,1.2c-11.9,0-23.7,0-35.6,0c-1,0-1.2-0.2-1.2-1.2
		c0-13.1,0-26.2,0-39.3c0-1,0.2-1.2,1.2-1.2c2.4,0,4.7,0,7.2,0c0-0.7,0-1.4,0-2c0-0.8,0.3-1.1,1.1-1.1c0.3,0,0.6,0,1,0
		c0-0.5,0-1,0-1.4c0-0.7,0.3-1,1-1c5.2,0,10.5,0,15.7,0c0.7,0,1,0.3,1,1c0,0.5,0,0.9,0,1.4c0.4,0,0.8,0,1.2,0c0.6,0,0.9,0.3,0.9,0.9
		c0,0.7,0,1.4,0,2.1c0.2,0,0.4,0,0.6,0c1.9,0,3.9,0,5.8,0c0.9,0,1.2,0.3,1.2,1.2c0,3.8,0,7.6,0,11.3c0,0.2,0,0.4,0,0.6
		c5.9,1.6,9.4,5.2,9.2,11.5C47.4,36.1,43.9,39.5,38.4,40.8z M30.8,7.6c0,0.3,0,0.6,0,0.9c0,0.9-0.3,1.2-1.2,1.2c-1.7,0-3.4,0-5.2,0
		c-4.8,0-9.7,0-14.5,0c-0.8,0-1.1-0.3-1.1-1.1c0-0.3,0-0.7,0-1c-2.3,0-4.5,0-6.7,0c0,12.8,0,25.6,0,38.4c11.5,0,23,0,34.5,0
		c0-1.7,0-3.4,0-5C30.5,40.8,26,36,25.7,30.5c-0.3-6.3,4.7-11.6,10.9-11.6c0-3.8,0-7.5,0-11.3C34.7,7.6,32.8,7.6,30.8,7.6z M46,29.9
		c0-5.1-4.1-9.3-9.3-9.3c-5.1,0-9.3,4.1-9.3,9.2c0,5.1,4.1,9.3,9.2,9.3C41.8,39.2,46,35,46,29.9z M10.6,7.9c6.2,0,12.3,0,18.5,0
		c0-1.2,0-2.3,0-3.5c-0.4,0-0.7,0-1.1,0c-0.7,0-1-0.3-1-1c0-0.5,0-0.9,0-1.4c-4.8,0-9.6,0-14.4,0c0,0.5,0,0.9,0,1.3
		c0,0.7-0.3,1-1.1,1c-0.3,0-0.7,0-1,0C10.6,5.7,10.6,6.8,10.6,7.9z"/>
	<path class="st0" d="M22.8,16.4c-2.4,0-4.8,0-7.2,0c-0.2,0-0.4,0-0.5,0c-0.4-0.1-0.7-0.3-0.7-0.8c0-0.4,0.2-0.7,0.6-0.8
		c0.2-0.1,0.4-0.1,0.6-0.1c4.8,0,9.6,0,14.5,0c0.1,0,0.3,0,0.4,0c0.5,0.1,0.8,0.4,0.8,0.8c0,0.5-0.3,0.8-0.9,0.8c-0.5,0-1.1,0-1.6,0
		C26.8,16.4,24.8,16.4,22.8,16.4z"/>
	<path class="st0" d="M8.4,18.5c-1.6,0-2.9-1.3-2.9-3c0-1.6,1.4-3,3-2.9c1.6,0,2.9,1.3,2.9,3C11.4,17.2,10,18.5,8.4,18.5z M8.4,16.8
		c0.7,0,1.3-0.6,1.3-1.3c0-0.7-0.6-1.2-1.2-1.2c-0.7,0-1.3,0.6-1.3,1.3C7.2,16.3,7.7,16.8,8.4,16.8z"/>
	<path class="st0" d="M8.4,31.2c-1.6,0-2.9-1.3-2.9-3c0-1.6,1.3-3,3-2.9c1.6,0,2.9,1.3,2.9,3C11.4,29.9,10,31.2,8.4,31.2z M8.4,29.5
		c0.7,0,1.3-0.5,1.3-1.2c0-0.7-0.6-1.3-1.3-1.3c-0.7,0-1.2,0.6-1.3,1.2C7.1,28.9,7.7,29.5,8.4,29.5z"/>
	<path class="st0" d="M8.4,43c-1.6,0-3-1.3-3-2.9c0-1.6,1.3-3,3-3c1.6,0,3,1.3,3,3C11.4,41.7,10.1,43,8.4,43z M8.4,41.3
		c0.7,0,1.3-0.6,1.3-1.3c0-0.7-0.6-1.2-1.2-1.2c-0.7,0-1.3,0.6-1.3,1.3C7.2,40.8,7.7,41.3,8.4,41.3z"/>
	<path class="st0" d="M18.5,29.1c-1.1,0-2.1,0-3.2,0c-0.6,0-1-0.3-1-0.8c0-0.5,0.4-0.8,1-0.8c2.1,0,4.3,0,6.4,0c0.6,0,1,0.3,1,0.8
		c0,0.5-0.4,0.8-1,0.8C20.7,29.1,19.6,29.1,18.5,29.1z"/>
	<path class="st0" d="M18.5,40.9c-1.1,0-2.1,0-3.2,0c-0.6,0-1-0.3-1-0.8c0-0.5,0.4-0.8,1-0.8c2.1,0,4.3,0,6.4,0c0.6,0,1,0.3,1,0.8
		c0,0.5-0.4,0.8-1,0.8C20.7,40.9,19.6,40.9,18.5,40.9z"/>
	<path class="st0" d="M35.6,33.2c0.2-0.3,0.4-0.5,0.6-0.8c1.7-2.4,3.4-4.8,5.1-7.2c0.1-0.1,0.2-0.3,0.3-0.4c0.3-0.4,0.8-0.4,1.1-0.1
		c0.4,0.3,0.4,0.7,0.2,1.1c-0.1,0.1-0.2,0.3-0.3,0.4c-2,2.8-4,5.6-6,8.4c-0.5,0.8-0.9,0.8-1.6,0.3c-1.7-1.1-3.4-2.3-5.1-3.4
		c-0.2-0.2-0.5-0.6-0.5-0.9c0-0.2,0.3-0.6,0.5-0.7c0.3-0.1,0.7,0,0.9,0.2c1.4,0.9,2.7,1.8,4.1,2.7C35.2,33,35.4,33.1,35.6,33.2z"/>
</g>
</svg>
