<?xml version="1.0" encoding="utf-8"?>
<!-- Generator: Adobe Illustrator 25.0.1, SVG Export Plug-In . SVG Version: 6.00 Build 0)  -->
<svg version="1.1" id="Layer_1" xmlns="http://www.w3.org/2000/svg" xmlns:xlink="http://www.w3.org/1999/xlink" x="0px" y="0px"
	 viewBox="0 0 48 48" style="enable-background:new 0 0 48 48;" xml:space="preserve">
<style type="text/css">
	.st0{fill:#B3001B;}
</style>
<g>
	<path class="st0" d="M0.4,37.1c0.2-0.3,0.4-0.6,0.7-0.8c3.3-3.3,6.5-6.5,9.8-9.8c2.1-2.1,4.5-3.1,7.4-3.1c0.5,0,1,0,1.5,0
		c0.5,0,0.8,0.3,0.8,0.7c0,0.4-0.3,0.6-0.8,0.7c-1.2,0.1-2.4,0.1-3.6,0.2c-1.4,0.2-2.7,0.9-3.8,1.9c-2,1.9-3.9,3.9-5.9,5.9
		c0.1,0.1,0.1,0.2,0.2,0.3c0.8,0.8,1.5,1.5,2.3,2.3c0.4,0.4,0.4,0.8,0.1,1.1c-0.3,0.3-0.7,0.3-1.1-0.1c-0.9-0.9-1.7-1.7-2.6-2.6
		c-0.6,0.6-1.1,1.1-1.6,1.7C3.3,36,2.6,36.6,2,37.3c-0.1,0.1-0.2,0.3-0.2,0.5c0,2.7,0,5.5,0,8.2c0,0,0,0.1,0,0.2c0.1,0,0.3,0,0.4,0
		c2.2,0,4.4,0,6.6,0c0.2,0,0.4-0.1,0.6-0.2c1.2-1.5,2.4-3.1,3.6-4.6c0,0,0-0.1,0.1-0.2c-0.7-0.7-1.4-1.4-2.1-2.1
		c-0.1-0.1-0.2-0.2-0.3-0.3c-0.2-0.3-0.2-0.6,0-0.9c0.2-0.3,0.7-0.3,0.9,0c0.3,0.3,0.6,0.7,1,1c0.3-0.4,0.6-0.8,0.9-1.1
		c1.5-1.9,3.5-2.6,5.8-2c2.9,0.8,5.8,1.5,8.7,2.3c0.6,0.2,1.1,0.2,1.7,0c5.3-1.4,10.7-2.9,16-4.3c0.6-0.2,0.6-0.2,0.4-0.8
		c0-0.1-0.1-0.3-0.1-0.4c-0.3-1.1-1.1-1.5-2.2-1.2c-1.5,0.4-3,0.8-4.4,1.2c-2.8,0.7-5.6,1.5-8.4,2.2c-1.6,0.4-2.9,0.1-4.1-1.1
		c-1.5-1.5-2.9-2.9-4.4-4.4c-0.2-0.2-0.4-0.3-0.6-0.3c-0.6,0-1.1,0-1.7,0c-0.7,0-1-0.2-1-0.7c0-0.5,0.3-0.7,1-0.7c2.2,0,4.5,0,6.7,0
		c0.2,0,0.4,0,0.6,0c0.7-0.2,1.1-0.8,1.1-1.5c0-0.7-0.6-1.3-1.2-1.3c-0.7-0.1-1.3,0-2,0c-0.7,0-1.4,0-2.1,0c-0.5,0-0.8-0.3-0.8-0.7
		c0-0.4,0.3-0.7,0.7-0.7c1.4,0,2.8,0,4.2,0c1.4,0.1,2.5,1.4,2.5,2.8c0,1.4-1.1,2.7-2.5,2.8c-0.7,0.1-1.5,0-2.3,0c-0.3,0-0.6,0-0.8,0
		c0.9,0.9,1.7,1.7,2.7,2.7c0.4-0.2,0.9-0.5,1.4-0.8c0.8-0.5,1.6-0.9,2.4-1.4c0.5-0.3,0.9-0.2,1.1,0.2c0.2,0.4,0.1,0.7-0.4,1
		c-1.2,0.7-2.3,1.3-3.5,2c0.4,0.7,1.3,1,2,0.6c2.7-1.6,5.4-3.1,8.2-4.7c0.1-0.1,0.3-0.2,0.4-0.3c-0.4-0.7-1.5-0.9-2.1-0.5
		c-0.6,0.4-1.3,0.8-2,1.1c-0.5,0.3-0.9,0.2-1.1-0.2c-0.2-0.4-0.1-0.8,0.4-1c0.6-0.4,1.3-0.7,1.9-1.1c1.3-0.7,2.8-0.5,3.8,0.7
		c0.2,0.2,0.3,0.2,0.5,0.2c1.4-0.5,2.9,0,3.7,1.3c0,0.1,0.1,0.2,0.1,0.2c0.3,0.6,0.6,0.9,1.3,1.1c0.9,0.2,1.5,0.8,1.9,1.7
		c0.2,0.5,0.3,1,0.4,1.5c0.2,0.8-0.4,1.6-1.3,1.8c-2.2,0.6-4.4,1.2-6.5,1.8c-3.3,0.9-6.6,1.8-9.9,2.7c-0.7,0.2-1.4,0.2-2.1,0
		c-2.9-0.8-5.9-1.6-8.8-2.4c-1.8-0.5-3.3,0-4.4,1.5c-0.3,0.4-0.6,0.8-1,1.3c0.1,0.1,0.3,0.2,0.4,0.3c0.7,0.7,0.8,1.2,0.1,2
		c-1.1,1.4-2.2,2.8-3.3,4.2c-0.1,0.1-0.2,0.2-0.2,0.3c-0.4,0.7-1,0.9-1.8,0.9c-2.3,0-4.6,0-6.9,0c-0.7,0-1.2-0.2-1.5-0.8
		C0.4,43.5,0.4,40.3,0.4,37.1z M34.4,32.3C34.5,32.3,34.5,32.4,34.4,32.3c2.9-0.7,5.7-1.4,8.6-2.2c-0.6-1.5-1.7-1.9-3-1.1
		c-1,0.7-2.1,1.2-3.2,1.9C36.1,31.4,35.3,31.8,34.4,32.3z"/>
	<path class="st0" d="M30.5,0.4c0.6,0.2,1,0.7,1.2,1.3c0.5,1,1,2,1.5,3c0.2,0.4,0.5,0.7,1,0.7C35.4,5.6,36.7,5.8,38,6
		c0.7,0.1,1.1,0.4,1.3,1.1c0.2,0.6,0,1.2-0.5,1.7c-0.9,0.8-1.7,1.7-2.6,2.5c-0.5,0.4-0.6,0.8-0.5,1.4c0.2,1.2,0.4,2.5,0.7,3.7
		c0.1,0.6-0.1,1.2-0.6,1.5c-0.5,0.4-1.1,0.4-1.7,0.1c-1.1-0.6-2.2-1.2-3.3-1.8c-0.5-0.3-0.9-0.3-1.3,0c-1,0.6-2.1,1.2-3.2,1.8
		c-0.6,0.3-1.2,0.4-1.8,0c-0.6-0.4-0.8-1-0.6-1.7c0.2-1.3,0.4-2.6,0.7-3.9c0.1-0.4,0-0.7-0.3-1c-0.9-0.8-1.8-1.7-2.7-2.5
		c-0.5-0.5-0.8-1.1-0.6-1.8c0.2-0.7,0.8-1,1.5-1.1c1.3-0.2,2.5-0.4,3.8-0.6c0.4-0.1,0.7-0.3,0.8-0.6c0.5-1,1-2.1,1.5-3.1
		c0.3-0.6,0.6-1,1.2-1.3C30,0.4,30.2,0.4,30.5,0.4z M25.1,16.7c0,0,0.1,0.1,0.1,0.1c0.1-0.1,0.3-0.1,0.4-0.2c1-0.6,2.1-1.1,3.1-1.7
		c0.9-0.5,1.7-0.5,2.6,0c1.1,0.6,2.1,1.2,3.2,1.8c0.1,0.1,0.3,0,0.4,0.1c0-0.1,0-0.2,0-0.3c-0.2-1.2-0.4-2.4-0.6-3.7
		c-0.2-1,0-1.7,0.8-2.4c0.9-0.8,1.7-1.6,2.6-2.4c0.1-0.1,0.2-0.3,0.4-0.5c-0.3-0.1-0.5-0.1-0.6-0.1c-1.2-0.2-2.4-0.4-3.5-0.5
		C33,6.7,32.4,6.2,32,5.3c-0.5-1.1-1.1-2.1-1.6-3.2c-0.1-0.1-0.2-0.3-0.3-0.4C30,1.9,29.9,1.9,29.9,2c-0.6,1.1-1.1,2.3-1.7,3.4
		c-0.4,0.7-1,1.2-1.8,1.3c-1.2,0.2-2.4,0.4-3.6,0.6c-0.2,0-0.4,0.1-0.5,0.2c0.1,0.1,0.2,0.3,0.3,0.4c0.9,0.8,1.8,1.7,2.6,2.5
		c0.6,0.5,0.8,1.2,0.7,2c-0.1,0.9-0.3,1.7-0.4,2.6C25.3,15.6,25.2,16.2,25.1,16.7z"/>
	<path class="st0" d="M43.7,16.9c-0.1,0.2-0.2,0.4-0.4,0.5c-0.2,0.1-0.5,0.1-0.7,0c-0.6-0.5-1.1-1-1.6-1.6c-0.2-0.3-0.2-0.6,0.1-0.8
		c0.2-0.3,0.6-0.4,0.8-0.1c0.6,0.5,1.1,1.1,1.7,1.7C43.6,16.6,43.6,16.7,43.7,16.9z"/>
	<path class="st0" d="M43.8,10.4c0.3,0,0.6,0,1,0c0.4,0,0.7,0.3,0.7,0.7c0,0.4-0.2,0.7-0.6,0.7c-0.7,0-1.4,0-2.2,0
		c-0.4,0-0.6-0.3-0.6-0.7c0-0.4,0.3-0.6,0.7-0.6C43.1,10.4,43.5,10.4,43.8,10.4z"/>
	<path class="st0" d="M16.4,10.4c0.3,0,0.7,0,1,0c0.4,0,0.7,0.3,0.7,0.7c0,0.4-0.2,0.7-0.6,0.7c-0.7,0-1.4,0-2.1,0
		c-0.4,0-0.7-0.3-0.6-0.7c0-0.4,0.3-0.6,0.7-0.7C15.7,10.4,16.1,10.4,16.4,10.4z"/>
	<path class="st0" d="M19.4,15.3c-0.1,0.3-0.2,0.5-0.4,0.6c-0.4,0.4-0.9,0.9-1.3,1.3c-0.4,0.4-0.8,0.4-1.1,0.1
		c-0.3-0.3-0.3-0.7,0.1-1c0.4-0.5,0.9-0.9,1.4-1.4c0.2-0.1,0.5-0.2,0.7-0.1C19.1,14.9,19.2,15.1,19.4,15.3z"/>
	<path class="st0" d="M41.5,7.6C41.3,7.4,41,7.3,41,7.1c-0.1-0.2-0.1-0.6,0.1-0.7c0.5-0.6,1-1.1,1.5-1.6c0.3-0.2,0.6-0.2,0.9,0
		c0.3,0.3,0.3,0.6,0.1,0.9c-0.5,0.6-1.1,1.1-1.6,1.6C41.8,7.5,41.7,7.5,41.5,7.6z"/>
	<path class="st0" d="M19.4,6.9c-0.1,0.2-0.2,0.4-0.4,0.5c-0.2,0.1-0.6,0.1-0.7,0c-0.6-0.5-1.1-1-1.6-1.5c-0.3-0.3-0.2-0.6,0.1-0.9
		c0.3-0.3,0.6-0.3,0.9,0c0.5,0.5,1.1,1,1.6,1.6C19.3,6.5,19.3,6.7,19.4,6.9z"/>
</g>
</svg>
