<?xml version="1.0" encoding="utf-8"?>
<!-- Generator: Adobe Illustrator 25.0.1, SVG Export Plug-In . SVG Version: 6.00 Build 0)  -->
<svg version="1.1" id="Layer_1" xmlns="http://www.w3.org/2000/svg" xmlns:xlink="http://www.w3.org/1999/xlink" x="0px" y="0px"
	 viewBox="0 0 48 48" style="enable-background:new 0 0 48 48;" xml:space="preserve">
<style type="text/css">
	.st0{fill:#B3001B;}
</style>
<g>
	<path class="st0" d="M27.7,37.2c-2.1,2-5.2,2.1-7.4-0.1c-0.1,0.2-0.2,0.3-0.3,0.4c-2,2.8-4.1,5.6-6.1,8.4c-1.2,1.7-3.1,1.5-4.1-0.3
		c-0.7-1.3-1.4-2.6-2.1-3.9c-0.1-0.3-0.3-0.4-0.6-0.5c-1.5-0.2-3-0.5-4.4-0.7c-1.9-0.3-2.7-2.1-1.5-3.7c2.5-3.5,5-6.9,7.5-10.4
		c0.3-0.4,0.3-0.7,0-1c-0.6-0.7-1.3-1.3-1.9-2c-2.2-2.2-2.2-5.2,0-7.5c0.6-0.6,1.1-1.1,1.7-1.7C9,13.8,9.3,13,9.3,12.2
		c0-0.9-0.1-1.8,0-2.7c0.3-2.7,2.4-4.4,5.1-4.5c0.7,0,1.4,0,2,0c0.9,0,1.6-0.3,2.2-0.9c0.6-0.6,1.2-1.2,1.8-1.8
		c2.1-2.1,5.1-2.1,7.3,0c0.6,0.6,1.2,1.2,1.7,1.7C30.1,4.7,30.8,5,31.7,5c1.1,0,2.2,0,3.3,0.2c2.3,0.5,3.8,2.4,3.9,4.7
		c0,0.8,0,1.6,0,2.4c0,0.8,0.3,1.5,0.8,2c0.6,0.6,1.2,1.2,1.8,1.9c2.1,2.1,2.1,5.1,0,7.3c-0.6,0.7-1.3,1.3-2,2
		C39,26,39,26.1,39.5,26.7c2.4,3.4,4.8,6.8,7.3,10.2c0.4,0.6,0.7,1.2,0.6,2c-0.2,0.9-0.9,1.6-1.8,1.8c-1.5,0.3-3.1,0.5-4.6,0.7
		c-0.3,0-0.5,0.2-0.7,0.5c-0.7,1.3-1.4,2.6-2.1,3.9c-0.9,1.8-2.9,1.9-4.1,0.3c-2-2.8-4-5.6-6-8.4C27.9,37.5,27.8,37.4,27.7,37.2z
		 M36.6,11.2c0-0.4,0.1-1,0-1.6c-0.2-1.4-1.3-2.4-2.7-2.4c-0.7,0-1.5,0-2.2,0c-1.5,0-2.8-0.5-3.8-1.6c-0.6-0.6-1.2-1.2-1.8-1.8
		c-1.2-1.2-2.8-1.2-4,0c-0.6,0.6-1.2,1.2-1.8,1.8c-1.1,1.1-2.3,1.6-3.9,1.6c-0.6,0-1.3,0-1.9,0c-1.8,0-2.9,1.1-2.9,2.9
		c0,0.7,0,1.4,0,2.1c0,1.4-0.5,2.6-1.5,3.6c-0.6,0.6-1.2,1.2-1.8,1.8C7,19,7,20.6,8.2,21.8c0.6,0.6,1.3,1.3,1.9,1.9
		c0.9,0.9,1.4,2,1.4,3.2c0,0.8,0,1.6,0,2.4c0,1.7,1.2,2.9,2.9,2.9c0.7,0,1.4,0,2.1,0c1.4,0,2.6,0.5,3.6,1.5c0.6,0.6,1.2,1.2,1.8,1.8
		c1.3,1.3,2.9,1.3,4.2,0c0.7-0.7,1.3-1.3,2-2c0.7-0.7,1.5-1.1,2.4-1.2c1-0.1,2-0.1,3-0.1c1.8,0,2.9-1.2,3-3c0-0.7,0-1.4,0-2.1
		c0-1.4,0.5-2.6,1.5-3.7c0.6-0.6,1.2-1.2,1.8-1.8c1.2-1.2,1.2-2.9,0-4.1c-0.6-0.6-1.2-1.2-1.8-1.8c-0.7-0.7-1.3-1.6-1.4-2.7
		C36.6,12.6,36.6,12,36.6,11.2z M45.1,38.5c-2.1-2.9-4.1-5.8-6.2-8.7c-0.1,0.3-0.1,0.4-0.1,0.6c-0.4,2.4-2.4,4.1-4.8,4.2
		c-0.8,0-1.6,0-2.4,0c-0.9,0-1.7,0.4-2.2,1.1c2.2,3.1,4.4,6.2,6.7,9.4c0.8-1.5,1.6-2.9,2.3-4.3c0.4-0.8,1.1-1.3,1.9-1.4
		c0.3,0,0.6-0.1,0.9-0.1C42.4,38.9,43.7,38.7,45.1,38.5z M11.9,44.9c2.3-3.2,4.5-6.3,6.8-9.4c-0.6-0.7-1.3-1-2.2-1
		c-0.8,0-1.6,0-2.4,0c-2.2-0.1-4.1-1.6-4.7-3.7c-0.1-0.4-0.2-0.8-0.2-1.2c-2.1,2.9-4.2,5.8-6.4,8.8c1.7,0.3,3.3,0.5,4.8,0.8
		c0.9,0.1,1.5,0.6,1.9,1.4c0.7,1.3,1.3,2.6,2,3.9C11.7,44.5,11.8,44.7,11.9,44.9z"/>
	<path class="st0" d="M24,31.8c-6.6,0-11.9-5.4-11.9-12c0-6.6,5.4-12,12-11.9c6.6,0,11.9,5.4,11.9,12C36,26.4,30.7,31.8,24,31.8z
		 M24,29.5c5.3,0,9.7-4.3,9.8-9.7c0-5.3-4.3-9.7-9.6-9.8c-5.3-0.1-9.8,4.3-9.8,9.6C14.3,25.1,18.6,29.5,24,29.5z"/>
	<path class="st0" d="M23.1,21.5c1.5-1.9,3-3.7,4.4-5.5c0.3-0.4,0.6-0.6,1.2-0.6c0.9,0.1,1.3,1.1,0.7,1.8c-0.9,1.1-1.7,2.2-2.6,3.3
		c-0.9,1.1-1.7,2.1-2.6,3.2c-0.5,0.6-1.1,0.7-1.7,0.2c-1-0.8-2.1-1.7-3.1-2.6c-0.3-0.3-0.5-0.7-0.4-1.1c0.1-0.4,0.4-0.8,0.8-0.8
		c0.4,0,0.8,0.1,1.1,0.3C21.6,20.2,22.3,20.8,23.1,21.5z"/>
</g>
</svg>
