<?xml version="1.0" encoding="utf-8"?>
<!-- Generator: Adobe Illustrator 25.0.1, SVG Export Plug-In . SVG Version: 6.00 Build 0)  -->
<svg version="1.1" id="Layer_1" xmlns="http://www.w3.org/2000/svg" xmlns:xlink="http://www.w3.org/1999/xlink" x="0px" y="0px"
	 viewBox="0 0 48 48" style="enable-background:new 0 0 48 48;" xml:space="preserve">
<style type="text/css">
	.st0{fill:#B3001B;}
</style>
<g>
	<path class="st0" d="M20.6,47.2c-0.7-0.2-1.2-0.6-1.8-1.1c-1.1-1-2.5-1.5-4-1.9c0,0.1-0.1,0.2-0.1,0.4c-0.1,0.7-0.7,1.2-1.4,1.2
		c-2.6,0-5.2,0-7.7,0c-0.8,0-1.4-0.7-1.4-1.6c0-1.4,0-2.7,0-4.1c0-3.6,0-7.2,0-10.8c0-1.2,0.6-1.8,1.8-1.8c2.3,0,4.6,0,6.9,0
		c1.3,0,1.7,0.3,2,1.5c0.4-0.4,0.8-0.8,1.2-1.1c1-0.8,2-1.5,3-2.3c1.5-1.2,2.4-2.7,2.7-4.5c0.1-0.8,0.2-1.6,0.2-2.4
		c-0.1-1.3,1.2-2.3,2.2-2.4c1.4-0.3,2.7,0.5,3.2,1.8c1.1,2.9,1.1,5.8,0,8.7c0,0.1-0.1,0.3-0.2,0.5c0.2,0,0.4,0,0.5,0
		c2.7,0,5.5,0,8.2,0c1.7,0,2.9,0.8,3.3,2.3c0.4,1.5-0.4,2.9-1.8,3.5c0,0,0,0-0.1,0.1c1.1,1.9,0.3,3.5-1.1,4.5
		c0.5,0.7,0.7,1.5,0.5,2.4c-0.2,0.9-0.7,1.5-1.5,2c0.2,0.5,0.4,0.9,0.5,1.4c0.3,1.6-0.6,3.1-2.2,3.5c-0.1,0-0.2,0.1-0.2,0.1
		C29.1,47.2,24.8,47.2,20.6,47.2z M26.9,45.7c2,0,3.9,0,5.9,0c0.9,0,1.5-0.6,1.6-1.5c0-0.8-0.5-1.5-1.4-1.6c-0.1,0-0.2,0-0.3,0
		c-0.4-0.1-0.6-0.4-0.6-0.8c0-0.4,0.3-0.6,0.7-0.7c0.2,0,0.4,0,0.6,0c0.9,0.1,1.8-0.6,1.9-1.5c0.1-0.8-0.6-1.6-1.5-1.7
		c-0.1,0-0.2,0-0.3,0c-0.4-0.1-0.5-0.4-0.5-0.8c0-0.4,0.3-0.6,0.7-0.6c0.2,0,0.5,0,0.7,0.1c0.2,0,0.4,0.1,0.5,0
		c0.8-0.2,1.4-1.1,1.4-1.8c-0.1-0.8-0.7-1.4-1.6-1.4c-0.4,0-0.7,0-1.1,0c-0.2,0-0.5-0.2-0.6-0.4c-0.1-0.2,0-0.5,0.1-0.7
		c0.1-0.2,0.5-0.3,0.7-0.3c0.8,0,1.6,0,2.4,0c0.9,0,1.5-0.7,1.5-1.6c0-0.9-0.7-1.5-1.6-1.5c-3.3,0-6.6,0-10,0
		c-0.8,0-1.1-0.5-0.8-1.2c0.7-1.4,1.1-2.8,1.2-4.3c0.1-1.6-0.1-3.2-0.7-4.7c-0.2-0.6-0.8-0.9-1.5-0.8c-0.6,0.1-1,0.5-1,1.2
		c0,0.5-0.1,0.9-0.1,1.4C23.1,23,22,25.2,20,26.8c-0.4,0.3-0.9,0.5-1.3,0.9c-1.3,1.1-2.5,2.2-3.7,3.4c-0.1,0.1-0.2,0.3-0.2,0.5
		c0,3.6,0,7.2,0,10.8c0,0.3,0.1,0.4,0.4,0.5c1.9,0.4,3.6,1.1,5,2.5c0.2,0.2,0.7,0.4,1,0.4C23.1,45.8,25,45.7,26.9,45.7z M5.5,44.4
		c2.6,0,5.1,0,7.7,0c0-5.1,0-10.2,0-15.2c-2.6,0-5.1,0-7.7,0C5.5,34.2,5.5,39.3,5.5,44.4z"/>
	<path class="st0" d="M18.4,16.4c0.2-0.8,0.4-1.6,0.5-2.5c0.2-0.8,0.3-1.5,0.5-2.3c0.1-0.3,0-0.5-0.2-0.7c-1.1-1-2.3-2-3.4-3
		c-0.3-0.3-0.5-0.5-0.4-0.9c0.1-0.4,0.5-0.5,0.9-0.5c1.5-0.1,3.1-0.3,4.6-0.4c0.3,0,0.4-0.2,0.4-0.4c0.6-1.4,1.2-2.8,1.8-4.2
		c0.2-0.4,0.3-0.7,0.8-0.7c0.4,0,0.6,0.3,0.8,0.7c0.6,1.4,1.2,2.8,1.8,4.2C26.7,6,26.8,6,27.1,6.1c1.6,0.1,3.2,0.3,4.7,0.4
		c0.4,0,0.6,0.2,0.7,0.5c0.1,0.4-0.1,0.6-0.3,0.8c-1.2,1-2.3,2.1-3.5,3.1c-0.2,0.2-0.3,0.4-0.2,0.7c0.3,1.4,0.6,2.9,1,4.3
		c0,0.1,0,0.2,0.1,0.3c0.1,0.4,0,0.7-0.3,0.9c-0.3,0.2-0.6,0.1-0.9,0c-1.3-0.8-2.7-1.6-4-2.4c-0.3-0.2-0.5-0.2-0.8,0
		c-1.3,0.8-2.7,1.6-4,2.4C19,17.4,18.4,17.1,18.4,16.4z M17.9,7.8c0.2,0.2,0.3,0.3,0.5,0.4c0.8,0.7,1.5,1.3,2.3,2
		c0.4,0.3,0.5,0.7,0.4,1.1c-0.2,0.5-0.2,1-0.4,1.5c-0.1,0.7-0.3,1.3-0.4,2.1c1.1-0.7,2.2-1.3,3.2-1.9c0.4-0.2,0.7-0.2,1.1,0
		c0.8,0.5,1.7,1,2.5,1.5c0.2,0.1,0.4,0.2,0.7,0.4c-0.3-1.3-0.5-2.5-0.8-3.6c-0.1-0.5,0-0.8,0.4-1.1c0.8-0.7,1.5-1.3,2.3-2
		c0.2-0.1,0.3-0.3,0.5-0.5c-1.3-0.1-2.6-0.3-3.8-0.4c-0.4,0-0.7-0.2-0.8-0.6c-0.4-0.9-0.8-1.9-1.2-2.8c-0.1-0.2-0.2-0.4-0.3-0.7
		c-0.1,0.3-0.2,0.4-0.3,0.6c-0.4,0.9-0.8,1.8-1.2,2.8c-0.2,0.4-0.4,0.7-0.9,0.7C20.4,7.5,19.2,7.7,17.9,7.8z"/>
	<path class="st0" d="M34.6,18.3c0.3-1.2,0.5-2.3,0.7-3.3c0.1-0.4,0-0.6-0.3-0.8c-0.8-0.7-1.5-1.3-2.3-2c-0.3-0.2-0.4-0.5-0.3-0.9
		c0.1-0.4,0.4-0.5,0.8-0.5c1-0.1,2-0.2,3-0.3c0.4,0,0.6-0.1,0.7-0.5c0.3-0.9,0.8-1.8,1.1-2.7c0.2-0.4,0.3-0.7,0.8-0.7
		c0.4,0,0.6,0.3,0.8,0.7c0.4,0.9,0.8,1.9,1.2,2.8c0.1,0.3,0.3,0.4,0.5,0.4c1.1,0.1,2.1,0.2,3.2,0.3c0.3,0,0.6,0.1,0.7,0.5
		c0.1,0.4,0,0.6-0.3,0.9c-0.8,0.7-1.6,1.4-2.4,2.1c-0.2,0.2-0.3,0.4-0.2,0.6c0.2,1,0.4,1.9,0.7,2.9c0.1,0.4,0.2,0.8-0.2,1
		c-0.4,0.3-0.7,0.1-1-0.1c-0.8-0.5-1.7-1-2.5-1.5c-0.3-0.2-0.5-0.2-0.9,0c-0.9,0.6-1.8,1.1-2.7,1.6c-0.2,0.1-0.6,0.1-0.8,0
		C34.8,18.7,34.7,18.4,34.6,18.3z M38.9,9.2c-0.3,0.7-0.6,1.3-0.8,1.9c-0.2,0.5-0.5,0.8-1.1,0.8c-0.6,0-1.3,0.1-2,0.2
		c0.6,0.5,1.1,1,1.7,1.5c0.3,0.3,0.4,0.6,0.3,1c-0.1,0.4-0.2,0.7-0.2,1.1c-0.1,0.3-0.1,0.7-0.2,1.1c0.6-0.4,1.2-0.7,1.7-1
		c0.5-0.4,0.9-0.3,1.4,0c0.5,0.4,1.1,0.6,1.7,1c-0.2-0.8-0.3-1.4-0.5-2.1c-0.1-0.5,0-0.8,0.4-1.2c0.5-0.4,1-0.9,1.6-1.4
		c-0.7-0.1-1.4-0.2-2-0.2c-0.6,0-0.9-0.3-1.1-0.8C39.5,10.4,39.2,9.9,38.9,9.2z"/>
	<path class="st0" d="M4.8,18.3c0.3-1.2,0.5-2.3,0.8-3.3c0.1-0.3,0-0.6-0.3-0.8c-0.8-0.6-1.5-1.3-2.2-2c-0.3-0.2-0.5-0.5-0.4-0.9
		c0.1-0.4,0.4-0.5,0.8-0.5c1-0.1,2-0.2,3-0.3c0.3,0,0.5-0.1,0.6-0.5c0.4-0.9,0.8-1.9,1.2-2.8c0.1-0.3,0.3-0.6,0.7-0.6
		c0.4,0,0.6,0.3,0.8,0.6c0.4,0.9,0.8,1.9,1.2,2.8c0.1,0.3,0.3,0.4,0.6,0.4c1,0.1,2.1,0.2,3.1,0.3c0.4,0,0.6,0.1,0.8,0.5
		c0.1,0.4-0.1,0.6-0.3,0.9c-0.8,0.7-1.5,1.4-2.3,2c-0.2,0.2-0.3,0.4-0.2,0.7c0.2,1,0.4,1.9,0.7,2.9c0.1,0.4,0.1,0.8-0.2,1
		c-0.4,0.2-0.7,0.1-1-0.1c-0.9-0.5-1.8-1-2.6-1.6C9.2,17,9,17,8.8,17.1C7.9,17.7,7,18.3,6,18.8c-0.2,0.1-0.6,0.1-0.8,0
		C5,18.7,4.9,18.4,4.8,18.3z M13.1,12.1c-0.8-0.1-1.5-0.2-2.1-0.2c-0.5,0-0.8-0.2-1-0.7c-0.3-0.6-0.5-1.3-0.9-2
		c-0.3,0.7-0.6,1.4-0.9,2c-0.2,0.5-0.5,0.7-1,0.7c-0.7,0-1.3,0.1-2.1,0.2c0.6,0.5,1.1,1,1.6,1.4c0.4,0.3,0.5,0.7,0.4,1.2
		c-0.2,0.7-0.3,1.3-0.5,2.1c0.7-0.4,1.2-0.7,1.8-1.1c0.5-0.3,0.9-0.3,1.3,0c0.5,0.4,1.1,0.7,1.8,1.1c-0.2-0.8-0.3-1.5-0.5-2.1
		c-0.1-0.4,0-0.8,0.3-1.1C12,13.1,12.5,12.6,13.1,12.1z"/>
	<path class="st0" d="M10.8,31.5c0,0.4-0.3,0.8-0.7,0.8c-0.4,0-0.7-0.3-0.7-0.7c0-0.4,0.3-0.8,0.7-0.8
		C10.5,30.7,10.8,31.1,10.8,31.5z"/>
</g>
</svg>
