<?xml version="1.0" standalone="no"?>
<!DOCTYPE svg PUBLIC "-//W3C//DTD SVG 20010904//EN" "http://www.w3.org/TR/2001/REC-SVG-20010904/DTD/svg10.dtd">
<svg version="1.0" xmlns="http://www.w3.org/2000/svg" width="260.000000pt" height="260.000000pt" viewBox="0 0 260.000000 260.000000" preserveAspectRatio="xMidYMid meet">
    <g transform="translate(0.000000,260.000000) scale(0.100000,-0.100000)" fill="#000000" stroke="none">
        <path d="M1297 2466 c-134 -78 -136 -80 -98 -96 20 -8 38 -27 52 -57 18 -37 26 -44 48 -42 51 4 69 -1 92 -26 13 -13 26 -25 29 -25 3 0 5 70 5 155 0 100 -3 155 -10 154 -5 0 -58 -28 -118 -63z"/>
        <path d="M755 1948 c-93 -161 -179 -313 -193 -338 -14 -25 -33 -57 -43 -72 -11 -14 -19 -28 -19 -31 0 -3 -68 -123 -152 -268 -83 -145 -162 -288 -175 -317 -72 -156 25 -348 197 -388 19 -4 393 -7 830 -6 761 2 796 2 830 -16 84 -46 123 -148 85 -222 -25 -49 -73 -88 -116 -95 -21 -4 -368 -8 -773 -10 -404 -1 -738 -5 -743 -8 -10 -6 -9 -95 1 -104 8 -8 1480 -5 1531 3 83 14 187 105 214 187 17 52 19 119 4 169 -7 26 -89 176 -182 335 -411 704 -605 1040 -617 1070 -50 118 41 246 168 238 53 -4 71 -12 105 -48 16 -17 120 -187 230 -377 110 -190 278 -479 373 -643 l172 -297 47 26 c25 15 47 28 49 30 3 2 -77 142 -396 689 -57 99 -114 196 -124 215 -223 394 -281 472 -372 503 -99 34 -214 13 -285 -51 -30 -28 -111 -161 -322 -532 -155 -272 -290 -508 -299 -525 -10 -16 -55 -95 -101 -175 -102 -179 -122 -206 -171 -231 -75 -38 -158 -17 -212 54 -31 40 -38 79 -25 135 5 22 111 219 237 438 126 220 293 511 371 647 79 137 141 250 139 251 -1 2 -24 15 -49 30 l-47 27 -167 -293z m904 -735 c177 -304 321 -556 321 -560 0 -7 -1299 -8 -1304 -1 -2 2 92 168 208 369 116 201 262 454 325 563 62 109 117 194 121 189 5 -4 153 -256 329 -560z"/>
        <path d="M1126 2087 c-7 -12 -26 -44 -41 -72 -31 -56 -44 -80 -163 -290 -47 -82 -96 -170 -110 -195 -14 -25 -94 -168 -179 -317 -84 -150 -153 -277 -153 -282 0 -15 41 -34 50 -24 8 7 524 921 610 1078 18 33 36 64 41 70 15 16 10 31 -16 43 -22 10 -27 9 -39 -11z"/>
        <path d="M1637 1792 c-15 -17 -3 -41 220 -417 130 -220 283 -480 341 -577 58 -98 110 -178 118 -178 7 0 19 7 27 15 17 16 54 -51 -467 829 -111 187 -206 341 -212 343 -6 2 -18 -5 -27 -15z"/>
        <path d="M2576 508 c-11 -6 -39 -10 -63 -9 -37 1 -45 -2 -52 -23 -11 -27 -59 -68 -72 -60 -5 3 -9 2 -9 -3 0 -10 209 -137 216 -131 2 3 3 57 2 121 -3 111 -4 115 -22 105z"/>
        <path d="M130 414 c-63 -35 -116 -67 -117 -71 -2 -4 27 -25 65 -46 37 -20 96 -53 131 -74 53 -30 62 -33 52 -15 -17 31 -13 73 9 107 18 28 18 30 2 48 -9 10 -19 40 -22 66 l-5 48 -115 -63z"/>
        <path d="M484 381 c-2 -2 -4 -15 -4 -28 l0 -23 680 0 680 0 0 25 c0 14 -3 26 -7 26 -22 4 -1345 3 -1349 0z"/>
    </g>
</svg>
