<?xml version="1.0" encoding="utf-8"?>
<!-- Generator: Adobe Illustrator 25.0.1, SVG Export Plug-In . SVG Version: 6.00 Build 0)  -->
<svg version="1.1" id="Layer_1" xmlns="http://www.w3.org/2000/svg" xmlns:xlink="http://www.w3.org/1999/xlink" x="0px" y="0px"
	 viewBox="0 0 48 48" style="enable-background:new 0 0 48 48;" xml:space="preserve">
<style type="text/css">
	.st0{fill:#B3001B;}
</style>
<g>
	<path class="st0" d="M1,21.3c0.2-0.2,0.4-0.5,0.6-0.7c1.3-1.1,2.5-2.1,3.8-3.2c0.2-0.2,0.3-0.4,0.2-0.6c-0.3-1.7-0.5-3.4-0.8-5.1
		c-0.1-0.6,0.2-1.1,0.8-1.2c1.7-0.4,3.3-0.7,5-1.1c0.3-0.1,0.5-0.2,0.6-0.5c0.5-1.6,1.1-3.1,1.6-4.7c0.3-0.8,0.6-1,1.5-0.8
		c1.6,0.4,3.2,0.9,4.8,1.3c0.3,0.1,0.4,0,0.6-0.2c1.2-1.2,2.5-2.3,3.7-3.4c0.6-0.6,1-0.6,1.6,0c1.2,1.1,2.4,2.2,3.6,3.4
		c0.2,0.2,0.5,0.3,0.8,0.2c1.6-0.5,3.2-0.9,4.7-1.3c0.8-0.2,1.2,0,1.5,0.8c0.5,1.6,1.1,3.1,1.6,4.7c0.1,0.3,0.3,0.4,0.6,0.5
		c1.6,0.3,3.3,0.7,4.9,1.1c0.7,0.2,1,0.6,0.9,1.3c-0.3,1.7-0.5,3.4-0.7,5c0,0.2,0.1,0.4,0.2,0.6c1.3,1.1,2.6,2.2,3.9,3.3
		c0.6,0.5,0.7,0.9,0.2,1.6c-1,1.3-1.9,2.7-2.9,4c-0.2,0.3-0.3,0.5-0.1,0.9c0.6,1.5,1.2,3,1.8,4.5c0.4,0.9,0.2,1.2-0.6,1.6
		c-1.5,0.7-3,1.5-4.5,2.2c-0.3,0.1-0.4,0.3-0.4,0.6c-0.2,1.7-0.3,3.4-0.5,5.1c-0.1,0.7-0.4,1-1.1,1c-1.7,0-3.4-0.1-5.1-0.1
		c-0.3,0-0.5,0.1-0.7,0.3c-0.9,1.4-1.8,2.8-2.7,4.2c-0.5,0.7-0.9,0.8-1.6,0.4c-1.4-0.8-2.9-1.6-4.3-2.4c-0.3-0.2-0.5-0.2-0.7,0
		c-1.4,0.8-2.9,1.6-4.4,2.4c-0.7,0.4-1.1,0.3-1.6-0.4c-0.9-1.4-1.8-2.8-2.7-4.2c-0.2-0.3-0.4-0.4-0.7-0.4c-1.7,0.1-3.3,0.1-5,0.1
		c-0.8,0-1.1-0.2-1.2-1c-0.2-1.7-0.3-3.4-0.5-5c0-0.3-0.1-0.4-0.4-0.6c-1.5-0.7-3-1.5-4.5-2.2c-0.8-0.4-1-0.8-0.6-1.6
		c0.6-1.5,1.2-3,1.9-4.5c0.1-0.3,0.1-0.5-0.1-0.8c-1.1-1.5-2.2-3-3.2-4.4C1,21.7,1,21.5,1,21.3z M10.2,40.2c0.2,0,0.4,0,0.5,0
		c1.5,0,3.1-0.1,4.6-0.1c0.5,0,0.9,0.2,1.1,0.6c0.8,1.3,1.7,2.6,2.5,3.9c0.1,0.1,0.2,0.3,0.3,0.4c1.4-0.8,2.7-1.5,4-2.3
		c0.8-0.5,1.4-0.5,2.1,0c1.3,0.8,2.7,1.5,4,2.3c0.1-0.1,0.2-0.3,0.3-0.4c0.8-1.2,1.6-2.5,2.4-3.7c0.4-0.6,0.8-0.8,1.5-0.8
		c1.1,0.1,2.2,0.1,3.2,0.1c0.5,0,1.1,0,1.7,0c0-0.3,0.1-0.5,0.1-0.7c0.1-1.4,0.3-2.8,0.4-4.3c0-0.6,0.3-0.9,0.8-1.1
		c0.6-0.2,1.1-0.5,1.6-0.8c0.9-0.5,1.9-0.9,2.9-1.4c-0.1-0.2-0.1-0.3-0.2-0.5c-0.6-1.4-1.1-2.8-1.7-4.2c-0.2-0.5-0.2-0.9,0.2-1.4
		c1-1.3,2-2.7,3-4.1c-0.1-0.1-0.3-0.2-0.4-0.4c-1.2-1-2.3-2-3.5-3c-0.4-0.3-0.5-0.7-0.4-1.1c0.1-0.9,0.3-1.8,0.4-2.7
		c0.1-0.8,0.2-1.6,0.3-2.3c-0.1,0-0.2-0.1-0.3-0.1c-1.5-0.3-3.1-0.7-4.6-1c-0.6-0.1-0.9-0.4-1.1-0.9c-0.1-0.5-0.3-0.9-0.5-1.3
		c-0.4-1.1-0.8-2.3-1.2-3.4c-1.3,0.4-2.6,0.7-3.9,1.1c-1.9,0.5-1.5,0.6-3-0.7c-1-0.9-2-1.8-3-2.8c-0.1,0.1-0.2,0.2-0.4,0.3
		c-1.1,1.1-2.3,2.1-3.4,3.2c-0.4,0.3-0.7,0.4-1.2,0.3c-1-0.3-2-0.5-2.9-0.8c-0.7-0.2-1.3-0.4-2-0.5c-0.6,1.6-1.1,3.2-1.7,4.8
		c-0.2,0.5-0.5,0.8-1,0.9c-0.2,0-0.4,0.1-0.6,0.1c-1.4,0.3-2.9,0.6-4.3,1c0,0.1,0,0.3,0,0.4c0.2,1.5,0.4,3.1,0.7,4.6
		c0.1,0.6,0,1-0.5,1.3c-0.4,0.3-0.8,0.7-1.3,1.1c-0.9,0.7-1.7,1.5-2.6,2.2c0.1,0.2,0.2,0.3,0.3,0.4c0.9,1.2,1.8,2.5,2.7,3.7
		c0.3,0.4,0.3,0.8,0.1,1.2C6.1,27.5,6,28,5.8,28.5c-0.4,1.1-0.9,2.2-1.4,3.3c1.4,0.7,2.8,1.4,4.2,2.1c0.8,0.3,1.1,0.8,1.1,1.6
		C9.9,37.1,10,38.6,10.2,40.2z"/>
	<path class="st0" d="M24.3,39.7c-8.5,0-15.4-6.9-15.4-15.4c0-8.5,6.9-15.4,15.4-15.4c8.5,0,15.4,6.9,15.4,15.5
		C39.7,32.9,32.8,39.7,24.3,39.7z M24.3,37.9c7.5,0,13.6-6.1,13.6-13.6c0-7.5-6.1-13.6-13.6-13.6c-7.5,0-13.6,6.1-13.6,13.6
		C10.8,31.8,16.9,37.9,24.3,37.9z"/>
	<path class="st0" d="M21.4,29.3c1.5-1.8,3.1-3.5,4.6-5.2c1.5-1.7,3-3.4,4.5-5.1c0.4-0.4,0.8-0.5,1.2-0.4c0.6,0.3,0.8,1,0.3,1.5
		c-1.1,1.3-2.2,2.6-3.4,3.8c-2.1,2.4-4.1,4.7-6.2,7.1c-0.7,0.7-1.1,0.8-1.8,0.1c-1.9-1.9-3.9-3.9-5.8-5.8c-0.2-0.2-0.3-0.4-0.4-0.6
		c-0.1-0.4,0-0.8,0.3-1c0.3-0.2,0.7-0.2,1,0c0.2,0.1,0.3,0.2,0.4,0.4C17.9,25.8,19.6,27.5,21.4,29.3z"/>
</g>
</svg>
