<svg id="Layer_1" data-name="Layer 1" xmlns="http://www.w3.org/2000/svg" viewBox="0 0 50 50"><defs><style>.cls-1{fill:none;stroke:#000;stroke-miterlimit:10;stroke-width:0.5px;}</style></defs><path class="cls-1" d="M13.78,49.56s-.06-.08-.1-.09a2.52,2.52,0,0,1-1.8-2.64V34.36c0-5.74,0-11.48,0-17.22A3.11,3.11,0,0,1,13,14.59C16.29,11.82,19.5,9,22.73,6.22a5.11,5.11,0,0,1,1.13-.71.46.46,0,0,0,.31-.5c0-1.34,0-2.69,0-4V.44h1.68V1.93c0,1,0,2,0,3a.47.47,0,0,0,.35.52,3.83,3.83,0,0,1,1.07.62c3.28,2.6,6.55,5.23,9.82,7.83a2.62,2.62,0,0,1,1.05,2.16q0,15.45,0,30.9a2.49,2.49,0,0,1-1.75,2.48.61.61,0,0,0-.14.1ZM24.17,7.18c-.22.17-.33.26-.44.36-3.2,2.77-6.4,5.55-9.62,8.31a1.52,1.52,0,0,0-.56,1.24q0,14.82,0,29.65c0,.95.23,1.18,1.19,1.18H35.29c.93,0,1.17-.24,1.17-1.15q0-15.24,0-30.47a1.39,1.39,0,0,0-.58-1.22L26.33,7.45c-.13-.11-.27-.19-.48-.34,0,.69,0,1.28,0,1.87a.64.64,0,0,0,.47.74,3.22,3.22,0,0,1,1.78,4.09,3.28,3.28,0,1,1-4.35-4.13c.16-.07.4-.23.41-.36C24.19,8.65,24.17,8,24.17,7.18Zm0,4.18a1.53,1.53,0,0,0-.71,1.82,1.61,1.61,0,0,0,3.11-.06,1.49,1.49,0,0,0-.72-1.75v1.29H24.17Z"/><path class="cls-1" d="M24.17,31.53V29.92h1.66v1.6h2.42v1.67H26.77c-1,0-1.95,0-2.93,0a1.18,1.18,0,0,0-1.25,1.36,1.2,1.2,0,0,0,1.29,1.08c.77,0,1.54,0,2.31,0a2.87,2.87,0,0,1,2.93,2.85,2.92,2.92,0,0,1-2.86,2.89h-.4V43H24.18v-1.6H21.76V39.71h4.32c.86,0,1.36-.46,1.36-1.21A1.24,1.24,0,0,0,26,37.27H23.78a2.87,2.87,0,0,1-2.88-2.8,2.9,2.9,0,0,1,2.76-2.94C23.8,31.52,23.94,31.53,24.17,31.53Z"/><path class="cls-1" d="M29.89,25.83v1.61H16V25.83Z"/><path class="cls-1" d="M16,20.87v-1.6H27.45v1.6Z"/><path class="cls-1" d="M16,24.15V22.54h9v1.61Z"/><path class="cls-1" d="M29.13,20.86v-1.6H34v1.6Z"/><path class="cls-1" d="M34.82,46.26H30.77V44.68h4.05Z"/><line class="cls-1" x1="24.16" y1="4.2" x2="24.16" y2="12.69"/><line class="cls-1" x1="25.84" y1="3.9" x2="25.84" y2="12.69"/></svg>