<?xml version="1.0" encoding="utf-8"?>
<!-- Generator: Adobe Illustrator 21.1.0, SVG Export Plug-In . SVG Version: 6.00 Build 0)  -->
<svg version="1.1" id="Layer_1" xmlns="http://www.w3.org/2000/svg" xmlns:xlink="http://www.w3.org/1999/xlink" x="0px" y="0px"
	 viewBox="0 0 585 273" style="enable-background:new 0 0 585 273;" xml:space="preserve">
<style type="text/css">
	.st0{fill:#030303;}
	.st1{fill:url(#SVGID_1_);}
	.st2{fill:url(#SVGID_2_);}
	.st3{fill:#39BF92;}
	.st4{fill:#FFCB26;}
</style>
<g>
	<g>
		<path class="st0" d="M84.6,128.4c-18.2,12.8-40.3,8.2-51.5-7.9c-8.5-12.1-8.3-29.3,0.4-41.1c9.4-12.7,25.4-17.9,40.4-13
			C88,71,97.9,84.7,98,99.6c0.1,9.2-0.1,18.3,0.1,27.5c0.1,4.2-0.7,7.7-5.6,8.5C88.3,136.3,86,134.2,84.6,128.4z M40,100.3
			c0,12.4,10,22.5,22.4,22.5c12.3,0.1,22.6-10.1,22.6-22.3C85,88,74.6,77.4,62.3,77.6C50,77.7,40,87.9,40,100.3z"/>
		<path class="st0" d="M389.5,128.4c-9.6,7.1-20.2,9.1-31.6,6.1c-17.6-4.7-28.9-22.8-25.5-40.3c3.8-19.3,20.5-31.6,39.4-29.2
			c18.4,2.4,31.1,16.7,31.2,35.3c0.1,8.8-0.1,17.6,0,26.5c0.1,4.1-0.3,7.8-5.2,8.8C393.6,136.4,391.4,134.5,389.5,128.4z M390.1,100
			c-0.1-12.2-10.5-22.6-22.6-22.5C355.2,77.7,345,88,345,100.2c0,12.4,10,22.5,22.4,22.6C379.9,122.9,390.1,112.7,390.1,100z"/>
		<linearGradient id="SVGID_1_" gradientUnits="userSpaceOnUse" x1="433.657" y1="77.3113" x2="558.8534" y2="77.3113">
			<stop  offset="0" style="stop-color:#7FE4FF"/>
			<stop  offset="0.5865" style="stop-color:#94C5FF"/>
			<stop  offset="1" style="stop-color:#EFFF00"/>
		</linearGradient>
		<path class="st1" d="M558.9,101.2c-0.5,8.1-1.6,16.8-4.6,25.2c-1.3,3.6-3.1,6.6-7.6,5c-4.5-1.5-4.1-4.9-2.8-8.6
			c11.3-32.1-3.1-64.8-28.7-79.6c-23.3-13.4-46.8-13-70,0.6c-0.7,0.4-1.4,1-2.1,1.4c-3,1.8-6.3,2.3-8.4-0.9
			c-2.2-3.3-0.9-6.4,2.4-8.5c15.1-9.6,31.2-14.1,49.5-12.8c20.8,1.5,37.7,9.9,51.6,24.9C552,62.7,558.3,80.5,558.9,101.2z"/>
		<path class="st0" d="M515.5,98.4c0,10.7,0.1,21-0.1,31.3c0,3.4-2,5.6-5.5,6c-3.6,0.3-6.2-1-7.1-4.7c-0.2-0.8-0.3-1.5-0.5-2.4
			c-24.5,15.6-45.7,3.4-53.7-11.1c-9-16.4-3.5-37.5,12.8-47.2c1.1,3.8,2.1,7.6,3.3,11.2c0.6,1.9-0.7,2.7-1.6,3.9
			c-6.7,8.3-7.7,17.4-2.9,26c4.4,7.9,13.1,12.4,22.2,11.4c9.8-1.1,16.7-7.3,19.5-17.9c0.5-1.8,1.3-2.5,2.8-3
			C508.1,100.6,511.6,99.6,515.5,98.4z"/>
		<path class="st0" d="M295,113.6c6.6-14.5,12.8-28,19-41.4c0.5-1.1,0.9-2.1,1.4-3.2c2-4,5.5-5.4,9-3.8c3.5,1.6,4.7,5.1,2.8,9.3
			c-4.7,10.4-9.4,20.8-14.2,31.2c-3.8,8.3-7.6,16.5-11.4,24.8c-1.3,2.9-2.9,5.2-6.5,5.2c-3.5,0-5.3-1.9-6.6-5
			c-8.4-18.4-16.9-36.7-25.3-55c-2.4-5.1-1.4-8.9,2.6-10.6c3.9-1.6,7,0,9.3,4.9C281.5,84.3,288,98.4,295,113.6z"/>
		<path class="st0" d="M121.6,72.4c9.1-6.8,18.9-8.9,29.5-7.1c2.7,0.4,5.2,1.2,7.5,2.6c3.1,1.9,4.4,4.7,2.8,8.1
			c-1.5,3.4-4.3,5-8.1,3.6c-5.5-2-11-2.5-16.6-0.6c-9.4,3.2-15.4,11.6-15.5,22.1c-0.1,8.5,0,17,0,25.5c0,6.6-1.8,9.2-6.3,9.2
			c-4.5,0-6.6-2.8-6.6-9.1c0-17.5,0-35,0-52.5c0-6.1,1.7-9.1,5.8-9.4C119.1,64.4,121,67.6,121.6,72.4z"/>
		<path class="st0" d="M183.3,72.2c8.8-6.5,18.6-8.6,29.2-6.9c3,0.5,5.8,1.3,8.3,3.1c2.9,2.2,3.2,5.1,1.8,8c-1.4,3-4,4.3-7.5,3.2
			c-4.6-1.4-9.2-2.5-14.2-1.5c-10.4,2.2-17.9,10.7-18.1,21.4c-0.2,9.5,0,19-0.1,28.4c0,3.6-1,6.6-5,7.5c-4.3,1-7.9-1.4-7.9-5.8
			c-0.1-19.6-0.1-39.3,0-58.9c0-3.6,2.3-5.5,5.5-6c3-0.4,5.5,0.8,6.7,3.9C182.5,69.7,182.8,70.9,183.3,72.2z"/>
		<linearGradient id="SVGID_2_" gradientUnits="userSpaceOnUse" x1="448.4634" y1="80.7336" x2="537.045" y2="80.7336">
			<stop  offset="0" style="stop-color:#7FE4FF"/>
			<stop  offset="0.5865" style="stop-color:#94C5FF"/>
			<stop  offset="1" style="stop-color:#EFFF00"/>
		</linearGradient>
		<path class="st2" d="M480.5,44.2c36.1,0.1,62,31.7,55.6,66.7c-0.7,3.9-2.1,6.8-6.6,6.3c-3.6-0.3-5.1-3.4-4.2-8.1
			c3.7-20.6-5.5-39.9-24.1-49.1c-12.9-6.4-26.2-6.6-39.4-0.7c-1.1,0.5-2.1,1.1-3.1,1.6c-4.6,2.4-8,2-9.5-1.3c-2-4.5,0.9-6.7,4.4-8.6
			C462.1,46.3,471.3,43.8,480.5,44.2z"/>
		<path class="st0" d="M413,84.6c0-14,0-28,0-42c0-6,2.1-8.5,6.7-8.4c4.4,0.1,6.3,2.6,6.3,8.3c0,25,0,50,0,75c0,3.2-0.2,5.7,4.4,5.7
			c3.8,0,5.5,3.1,5.4,6.5c-0.2,3.2-2.1,5.6-5.6,5.9c-0.3,0-0.7,0.1-1,0.1c-14,0-16.6,1.7-16.2-14.6C413.3,109,413,96.8,413,84.6z"/>
		<path class="st0" d="M234.9,99.9c0-9.1,0-18.3,0-27.4c0-4.8,2.5-7.8,6.3-7.9c3.8,0,6.6,3.1,6.6,7.8c0.1,18.5,0.1,36.9,0,55.4
			c0,5.2-2.6,8.1-6.8,8c-4.1-0.1-6.2-2.7-6.2-7.9C234.9,118.5,234.9,109.2,234.9,99.9z"/>
		<path class="st0" d="M479.7,64.6c13.9-0.2,27.6,8.8,33.2,21.5c1.4,3.2,0.6,4.5-2.5,5c-0.2,0-0.3,0.1-0.5,0.1
			c-5,2.2-8.4,2.6-11.8-3.7c-4.4-7.9-12.5-11.2-21.8-9.5c-2.9,0.5-3.9,0-4.7-3.1C469,65,468.8,65,479.2,64.6
			C479.4,64.6,479.6,64.6,479.7,64.6z"/>
		<path class="st3" d="M480.4,90.1c4.9,0.3,8,3.9,7.7,9c-0.3,4.4-4.2,8-8.6,7.9c-4.7-0.1-8.8-4.6-8.3-9.2
			C471.5,93,475.3,89.9,480.4,90.1z"/>
		<path class="st0" d="M249,52c-0.1,4.2-3.4,7.4-7.7,7.4c-4.6,0-7.7-3.3-7.5-8c0.2-4.3,3.4-7.3,7.8-7.2
			C245.8,44.4,249.1,47.8,249,52z"/>
	</g>
	<polygon class="st4" points="60.8,152.5 76.2,183.7 110.7,188.8 85.7,213 91.6,247.4 60.8,231.2 30,247.4 35.9,213 11,188.8 
		45.4,183.7 	"/>
	<polygon class="st4" points="171.5,152.5 186.9,183.7 221.3,188.8 196.4,213 202.3,247.4 171.5,231.2 140.7,247.4 146.5,213 
		121.6,188.8 156.1,183.7 	"/>
	<polygon class="st4" points="280.4,152.5 295.8,183.7 330.3,188.8 305.4,213 311.2,247.4 280.4,231.2 249.6,247.4 255.5,213 
		230.6,188.8 265,183.7 	"/>
	<polygon class="st4" points="391.1,152.5 406.5,183.7 440.9,188.8 416,213 421.9,247.4 391.1,231.2 360.3,247.4 366.2,213 
		341.2,188.8 375.7,183.7 	"/>
	<polygon class="st4" points="500.5,152.5 515.9,183.7 550.3,188.8 525.4,213 531.3,247.4 500.5,231.2 469.7,247.4 475.6,213 
		450.6,188.8 485.1,183.7 	"/>
</g>
</svg>
