<svg xmlns="http://www.w3.org/2000/svg" width="42.673" height="44.512" viewBox="0 0 42.673 44.512">
  <path id="Path_18993" data-name="Path 18993" d="M-1960.488,270.587c.5-1.214.985-2.4,1.471-3.593.191-.466.372-.937.569-1.4a2.289,2.289,0,0,1,3.049-1.286q1.385.544,2.758,1.121a2.273,2.273,0,0,1,1.274,3.017q-2.849,7.022-5.726,14.033a1.872,1.872,0,0,1-1.061,1.143,3.91,3.91,0,0,0-1.432,1.077c-.221.216-.456.418-.761.695a4.42,4.42,0,0,0,2.237-.079,4.382,4.382,0,0,0,1.969-1.164,5.369,5.369,0,0,1,4.566-1.362.734.734,0,0,1,.654.774.744.744,0,0,1-.719.712c-.4.019-.8,0-1.2.007a2.988,2.988,0,0,0-2.135.853,6.365,6.365,0,0,1-5.1,1.85c-1.627-.1-3.261-.116-4.892-.118q-12.194-.016-24.388-.006a4.132,4.132,0,0,1-4.238-4.03,19.333,19.333,0,0,1,.138-2.173c.2-2.528.363-5.059.609-7.583a3.877,3.877,0,0,1,2.691-3.392q2.734-1.058,5.462-2.133c.234-.092.45-.228.684-.32a4.591,4.591,0,0,0,2.6-3.24.461.461,0,0,0-.1-.377,13.172,13.172,0,0,1-3.252-6.232.452.452,0,0,0-.389-.4,2.655,2.655,0,0,1-1.712-1.383,1.96,1.96,0,0,0-.387-.471,2.716,2.716,0,0,1-.713-2.934,3.6,3.6,0,0,0,.116-.766,17.956,17.956,0,0,0,.02-2.364,2.45,2.45,0,0,1,1.135-2.016,1.562,1.562,0,0,0,.443-.516,2.887,2.887,0,0,1,1.59-1.412.988.988,0,0,0,.456-.357,2.818,2.818,0,0,1,2.2-1.334,1.044,1.044,0,0,0,.533-.233,2.62,2.62,0,0,1,2.612-.579,5.126,5.126,0,0,0,2.087.2.761.761,0,0,1,.877.515.636.636,0,0,1-.341.86,5.281,5.281,0,0,1-1.289.188,3.124,3.124,0,0,1-.655-.045,2.465,2.465,0,0,1-.792-.142,1.174,1.174,0,0,0-1.67.375.848.848,0,0,1-.977.418,1.113,1.113,0,0,0-1.366.775.938.938,0,0,1-.947.764,1.1,1.1,0,0,0-1.038.942.911.911,0,0,1-.6.7,1.193,1.193,0,0,0-.662,1.649,2.4,2.4,0,0,1,.017.839c-.011.316-.032.633-.064.948a2.37,2.37,0,0,1-.13.836,1.237,1.237,0,0,0,.355,1.72,2.792,2.792,0,0,1,.477.6,2.68,2.68,0,0,0,.38.534c.456.368.671.32.937-.029.357-.467.744-.914,1.142-1.347a1.363,1.363,0,0,1,.517-.316,1.174,1.174,0,0,0,.849-1.336,1.047,1.047,0,0,1,.321-.827,2.025,2.025,0,0,0,.438-.922,1.053,1.053,0,0,1,1.1-1.033,1.371,1.371,0,0,0,1.387-.754,1.052,1.052,0,0,1,.647-.4,6.811,6.811,0,0,1,2.862,0,1.243,1.243,0,0,1,.69.475,1.323,1.323,0,0,0,1.213.672c.769-.026,1.1.32,1.213,1.084a1.692,1.692,0,0,0,.421.844,1.078,1.078,0,0,1,.354.861,1.174,1.174,0,0,0,.9,1.346,1.353,1.353,0,0,1,.5.341c.428.467.831.956,1.247,1.434.266.306.565.139.735-.054a17.289,17.289,0,0,0,1.4-1.774.955.955,0,0,0-.112-1.092,1.057,1.057,0,0,1-.15-.879,4.3,4.3,0,0,0-.052-.943,2.389,2.389,0,0,1,.018-.844,1.19,1.19,0,0,0-.662-1.646.939.939,0,0,1-.607-.7,1.112,1.112,0,0,0-1.123-.95.859.859,0,0,1-.827-.674,1.142,1.142,0,0,0-1.439-.845.8.8,0,0,1-.9-.4.775.775,0,0,1-.047-.915.75.75,0,0,1,.941-.28,3.776,3.776,0,0,0,.659.067,2.715,2.715,0,0,1,1.981,1.291,1.007,1.007,0,0,0,.455.358,2.867,2.867,0,0,1,1.609,1.452,1.257,1.257,0,0,0,.389.45,2.74,2.74,0,0,1,1.143,2.839,3.37,3.37,0,0,0-.01.732c.009.309.023.619.046.927a1.928,1.928,0,0,0,.079.554,2.693,2.693,0,0,1-.732,3.116,1.54,1.54,0,0,0-.323.41,2.63,2.63,0,0,1-1.709,1.383.451.451,0,0,0-.387.4,12.972,12.972,0,0,1-3.2,6.157.511.511,0,0,0-.121.591,4.74,4.74,0,0,0,2.856,3.245c1.9.722,3.775,1.485,5.659,2.235C-1962.106,269.925-1961.315,270.251-1960.488,270.587Zm-16.685,1.035c-1.049-.086-2.054-.137-3.05-.256a16.133,16.133,0,0,1-5.589-1.51.689.689,0,0,0-.491,0c-1.059.38-2.109.785-3.165,1.173a2.658,2.658,0,0,0-1.937,2.631c-.209,2.883-.425,5.766-.672,8.647a2.676,2.676,0,0,0,2.747,3.042q12.458,0,24.916,0h.482c0-1.193,0-2.318,0-3.443a.635.635,0,0,0-.081-.3,2.449,2.449,0,0,1-.052-2.264c.826-1.983,1.631-3.974,2.443-5.963.187-.458.369-.918.575-1.43-1.7-.651-3.346-1.262-4.976-1.925a1.7,1.7,0,0,0-1.528.051,17.355,17.355,0,0,1-5.9,1.374c-.719.067-1.442.1-2.21.147v.545c0,1.453,0,2.907,0,4.36,0,.561-.3.908-.759.908s-.745-.339-.747-.909q0-2.2,0-4.4Zm3.7-20.623a2.716,2.716,0,0,1-1.886-1.065.318.318,0,0,0-.175-.124c-.811-.12-1.632-.342-2.28.457a2.117,2.117,0,0,1-.768.514,2.016,2.016,0,0,0-1.257,1.106,2.972,2.972,0,0,0-.457,1.17,2.1,2.1,0,0,1-.987,1.527,9.992,9.992,0,0,0-1.88,1.735.638.638,0,0,0-.154.531,28.161,28.161,0,0,0,.919,2.776,16.968,16.968,0,0,0,3.722,4.889,3.1,3.1,0,0,0,4.667-.115c.29-.293.526-.641.787-.963a5.479,5.479,0,0,1,.423-.514,11.816,11.816,0,0,0,3.2-5.606,1.116,1.116,0,0,0-.367-1.321,13.744,13.744,0,0,0-1.613-1.431,2.36,2.36,0,0,1-1.038-1.837,1.342,1.342,0,0,0-.133-.452C-1972.967,251.874-1973.2,251.483-1973.474,251Zm-10.545,17.993a26.562,26.562,0,0,0,15.2-.032,6.083,6.083,0,0,1-3.8-3.8A5.275,5.275,0,0,1-1976.43,267a5.268,5.268,0,0,1-3.773-1.8C-1981.481,267.6-1981.481,267.6-1984.018,268.992Zm25.653.388-2.872,7.042,4.222,1.881,2.871-7.041Zm-3.445,8.438c-.337.831-.657,1.595-.955,2.367a.548.548,0,0,0,.357.808c1.035.4,2.064.818,3.083,1.259a.524.524,0,0,0,.778-.253c.341-.748.638-1.516.961-2.3Zm8.239-7.95c.288-.713.571-1.378.823-2.055a.731.731,0,0,0-.413-.96q-1.427-.612-2.876-1.171a.7.7,0,0,0-.943.359c-.3.622-.537,1.271-.815,1.94Zm-8.8,12.769v2.516l1.87-1.757Z" transform="translate(1993.594 -242.488)" fill="#d40c0e"/>
</svg>
