<svg id="Layer_1" data-name="Layer 1" xmlns="http://www.w3.org/2000/svg" viewBox="0 0 50 50"><defs><style>.cls-1{fill:none;stroke:#231f20;stroke-miterlimit:10;stroke-width:0.5px;}</style></defs><path class="cls-1" d="M34,.85c-1.89,1.85-3.77,3.74-5.7,5.55a2.26,2.26,0,0,1-1.33.27H6.69V43.29H43.33V41.9c0-6.26,0-12.51,0-18.77a2.47,2.47,0,0,1,.83-1.95c1.71-1.67,3.35-3.39,5.28-5.34V45.91c0,2.47-1.11,3.57-3.61,3.57H4.15c-2.57,0-3.63-1.07-3.63-3.66V4.16C.52,1.66,1.61.58,4.11.58h29.7Z"/><path class="cls-1" d="M12.78,37.22c0-3,0-5.78,0-8.57a1.75,1.75,0,0,1,.52-1.09Q26.53,14.3,39.77,1.09c.76-.76,3.34-.75,4.11,0l5,5c.76.77.8,3.35,0,4.11Q35.67,23.47,22.38,36.73a1.45,1.45,0,0,1-.88.47C18.64,37.24,15.78,37.22,12.78,37.22Zm13.54-10.8L43,9.71,40.3,7,23.58,23.57ZM18.71,28l-2.43,2.61A5.18,5.18,0,0,0,15.79,34c.05.09.15.24.23.24,1-.06,2.23.18,3.05-.28A15.5,15.5,0,0,0,22,31.24Z"/></svg>