<svg xmlns="http://www.w3.org/2000/svg" width="31.456" height="23.792" viewBox="0 0 31.456 23.792"><path d="M13.412,16.226a2.139,2.139,0,0,1-.472,1.4,1.418,1.418,0,0,1-1.13.576H5.434a1.418,1.418,0,0,1-1.13-.576,2.139,2.139,0,0,1-.472-1.4,9.462,9.462,0,0,1,.112-1.5,6.56,6.56,0,0,1,.367-1.347,2.256,2.256,0,0,1,.763-1.025,1.99,1.99,0,0,1,1.212-.374,3.178,3.178,0,0,0,2.335.958,3.178,3.178,0,0,0,2.335-.958,1.99,1.99,0,0,1,1.212.374,2.256,2.256,0,0,1,.763,1.025,6.56,6.56,0,0,1,.367,1.347A9.462,9.462,0,0,1,13.412,16.226ZM11.5,9.58a2.862,2.862,0,0,1-2.874,2.874A2.862,2.862,0,0,1,5.748,9.58,2.862,2.862,0,0,1,8.622,6.706,2.862,2.862,0,0,1,11.5,9.58Zm15.328,6.227v.958a.461.461,0,0,1-.479.479H15.807a.461.461,0,0,1-.479-.479v-.958a.461.461,0,0,1,.479-.479H26.345a.461.461,0,0,1,.479.479Zm-5.748-3.832v.958a.461.461,0,0,1-.479.479h-4.79a.461.461,0,0,1-.479-.479v-.958a.461.461,0,0,1,.479-.479H20.6a.461.461,0,0,1,.479.479Zm5.748,0v.958a.461.461,0,0,1-.479.479H23.471a.461.461,0,0,1-.479-.479v-.958a.461.461,0,0,1,.479-.479h2.874a.461.461,0,0,1,.479.479Zm0-3.832V9.1a.461.461,0,0,1-.479.479H15.807a.461.461,0,0,1-.479-.479V8.143a.461.461,0,0,1,.479-.479H26.345a.461.461,0,0,1,.479.479ZM28.74,20.6V2.32H1.916V20.6a.486.486,0,0,0,.479.479H28.261a.486.486,0,0,0,.479-.479ZM30.656,2.4V20.6a2.4,2.4,0,0,1-2.4,2.4H2.4a2.306,2.306,0,0,1-1.691-.7A2.306,2.306,0,0,1,0,20.6V2.4A2.306,2.306,0,0,1,.7.7,2.306,2.306,0,0,1,2.4,0H28.261a2.306,2.306,0,0,1,1.691.7A2.306,2.306,0,0,1,30.656,2.4Z" transform="translate(0.4 0.4)" stroke="#dff4fc" stroke-width="0.8"/></svg>