<svg id="Group_187" data-name="Group 187" xmlns="http://www.w3.org/2000/svg" width="260" height="33" viewBox="0 0 260 33">
  <g id="_5f0d7ff1afcb6aa603ccf2c6_payments" data-name="5f0d7ff1afcb6aa603ccf2c6_payments" transform="translate(0)">
    <rect id="Rectangle_236" data-name="Rectangle 236" width="60" height="33" rx="4" transform="translate(67)" fill="#fff" opacity="0.15"/>
    <path id="Path_309" data-name="Path 309" d="M131.106,13.052h-9.172V27.331h9.172Z" transform="translate(-29.775 -3.187)" fill="#ff5f00"/>
    <path id="Path_310" data-name="Path 310" d="M119.38,19.567a8.721,8.721,0,0,1,.956-3.969,9.164,9.164,0,0,1,2.682-3.169,9.785,9.785,0,0,0-4.87-1.889,9.938,9.938,0,0,0-5.18.862,9.38,9.38,0,0,0-3.911,3.35,8.721,8.721,0,0,0,0,9.635,9.381,9.381,0,0,0,3.911,3.35,9.939,9.939,0,0,0,5.18.861,9.785,9.785,0,0,0,4.87-1.889,9.166,9.166,0,0,1-2.682-3.17,8.717,8.717,0,0,1-.956-3.97Z" transform="translate(-26.276 -2.561)" fill="#eb001b"/>
    <path id="Path_311" data-name="Path 311" d="M147.128,29.831v-.293h.132v-.061h-.314v.061h.124v.293Zm.611,0v-.353h-.1l-.111.252-.111-.252h-.1v.353h.069v-.267l.1.23h.071l.1-.23v.267Z" transform="translate(-35.882 -7.198)" fill="#f79e1b"/>
    <path id="Path_312" data-name="Path 312" d="M143.412,19.565a8.768,8.768,0,0,1-1.452,4.818,9.381,9.381,0,0,1-3.911,3.35,9.937,9.937,0,0,1-5.18.861A9.786,9.786,0,0,1,128,26.7a9.172,9.172,0,0,0,2.682-3.17,8.7,8.7,0,0,0,0-7.938A9.171,9.171,0,0,0,128,12.425a9.786,9.786,0,0,1,4.87-1.89,9.938,9.938,0,0,1,5.18.861,9.382,9.382,0,0,1,3.911,3.35,8.768,8.768,0,0,1,1.452,4.817Z" transform="translate(-31.255 -2.56)" fill="#f79e1b"/>
    <rect id="Rectangle_237" data-name="Rectangle 237" width="60" height="33" rx="4" transform="translate(0)" fill="#fff" opacity="0.15"/>
    <path id="Path_314" data-name="Path 314" d="M54.132,26.584H51.4V27.7h2.626a1.672,1.672,0,0,0,1.818-1.717,1.413,1.413,0,0,0-1.616-1.515H53.021a.5.5,0,0,1,0-1.01h2.323l.505-1.111H53.122A1.652,1.652,0,0,0,51.3,23.958a1.413,1.413,0,0,0,1.616,1.515h1.212a.477.477,0,0,1,.5.505c.1.4-.1.606-.5.606Zm-4.949,0H46.456V27.7h2.626A1.672,1.672,0,0,0,50.9,25.978a1.413,1.413,0,0,0-1.616-1.515H48.072a.5.5,0,1,1,0-1.01h2.323l.5-1.111H48.173a1.652,1.652,0,0,0-1.818,1.616,1.413,1.413,0,0,0,1.616,1.515h1.212a.477.477,0,0,1,.505.505.471.471,0,0,1-.505.606Zm-3.535-3.232V22.241H41.406v5.353h4.242V26.483h-3.03V25.372h2.929V24.261H42.618v-1.01h3.03v.1Zm-6.868,0c.5,0,.707.3.707.606s-.2.606-.707.606H37.265V23.251l1.515.1Zm-1.515,2.323h.606l1.616,1.919H41l-1.818-2.02A1.619,1.619,0,0,0,40.6,23.958a1.672,1.672,0,0,0-1.818-1.717H35.952v5.353h1.212Zm-3.232-1.616a.638.638,0,0,1-.707.707H31.71V23.352h1.515a.72.72,0,0,1,.808.707ZM30.5,22.241v5.353H31.71V25.776h1.616a1.777,1.777,0,0,0,1.919-1.818,1.75,1.75,0,0,0-1.818-1.818l-2.929.1ZM28.68,27.594h1.515l-2.121-2.727,2.121-2.626H28.68l-1.313,1.717-1.313-1.717H24.539l2.121,2.626-2.121,2.626h1.515l1.313-1.717,1.313,1.818Zm-4.545-4.242V22.241H19.893v5.353h4.242V26.483H21.1V25.372h2.929V24.261H21.1v-1.01h3.03v.1Zm24.543-9.494L50.8,17.09h1.515V11.737H51.1v3.535l-.3-.505-1.919-3.03H47.264V17.09h1.212V13.454l.2.4Zm-5.252-.1.4-1.111.4,1.111.505,1.212H42.921Zm2.121,3.333H46.86l-2.323-5.353H42.921L40.6,17.09h1.313l.505-1.111h2.626Zm-5.656,0,.505-1.111h-.3a1.355,1.355,0,0,1-1.414-1.515v-.1a1.355,1.355,0,0,1,1.414-1.515h1.313V11.737H39.992a2.413,2.413,0,0,0-2.525,2.626v.1A2.34,2.34,0,0,0,39.891,17.09Zm-4.545,0h1.212V11.838H35.346ZM32.72,12.848c.5,0,.707.3.707.606s-.2.606-.707.606H31.2V12.747l1.515.1ZM31.2,15.171h.606l1.616,1.919h1.515l-1.818-2.02a1.619,1.619,0,0,0,1.414-1.616,1.672,1.672,0,0,0-1.818-1.717H29.892V17.09H31.1Zm-2.222-2.323V11.737H24.741V17.09h4.242V15.979h-3.03V14.868h2.929V13.757H25.953v-1.01h3.03v.1ZM19.792,17.09H20.9l1.515-4.343V17.09H23.63V11.737H21.61L20.4,15.373l-1.212-3.636h-2.02V17.09h1.212V12.747Zm-6.565-3.333.4-1.111.4,1.111.5,1.212H12.722l.5-1.212Zm2.121,3.333h1.313l-2.323-5.353H12.823L10.5,17.09h1.313l.5-1.111h2.626Z" transform="translate(-2.564 -2.866)" fill="#fff"/>
    <rect id="Rectangle_238" data-name="Rectangle 238" width="60" height="33" rx="4" transform="translate(133)" fill="#fff" opacity="0.15"/>
    <path id="Path_315" data-name="Path 315" d="M212.026,18.162c-.016,1.378,1.243,2.145,2.193,2.6.975.469,1.3.77,1.3,1.189-.008.642-.778.925-1.5.936a5.289,5.289,0,0,1-2.572-.6l-.453,2.1a7.665,7.665,0,0,0,2.784.508c2.63,0,4.35-1.284,4.36-3.273.011-2.524-3.533-2.663-3.508-3.791.008-.343.339-.708,1.062-.8a4.78,4.78,0,0,1,2.468.428l.441-2.028A6.8,6.8,0,0,0,216.257,15C213.782,15,212.04,16.3,212.026,18.162Zm10.8-2.987a1.139,1.139,0,0,0-1.066.7l-3.758,8.864h2.629l.522-1.429h3.212l.3,1.429h2.316l-2.022-9.565Zm.367,2.585.759,3.592h-2.077ZM208.84,15.175l-2.071,9.565h2.5l2.071-9.565Zm-3.7,0-2.607,6.51-1.054-5.535a1.164,1.164,0,0,0-1.155-.975h-4.261l-.059.277a10.557,10.557,0,0,1,2.47.814,1.047,1.047,0,0,1,.595.84l2,7.634h2.647l4.056-9.565Z" transform="translate(-47.86 -3.663)" fill="#fff" fill-rule="evenodd"/>
    <rect id="Rectangle_239" data-name="Rectangle 239" width="60" height="33" rx="4" transform="translate(200)" fill="#fff" opacity="0.15"/>
    <path id="Path_316" data-name="Path 316" d="M272.8,11.561H270.52v7.932h2.249a4.064,4.064,0,0,0,2.842-.918,4.013,4.013,0,0,0,1.45-3.049,3.939,3.939,0,0,0-4.263-3.966ZM274.6,17.54a3.1,3.1,0,0,1-2.131.622h-.415V12.922h.415a3.01,3.01,0,0,1,2.131.621,2.679,2.679,0,0,1,.859,1.983A2.745,2.745,0,0,1,274.6,17.54Zm3.168,1.954h1.539V11.561h-1.539Zm5.327-4.884c-.947-.355-1.213-.562-1.213-1.006,0-.5.5-.858,1.154-.858a1.552,1.552,0,0,1,1.243.621l.828-1.036a3.5,3.5,0,0,0-2.338-.888,2.333,2.333,0,0,0-2.487,2.279c0,1.1.5,1.628,1.954,2.161a5.53,5.53,0,0,1,1.066.444.953.953,0,0,1,.473.829,1.129,1.129,0,0,1-1.213,1.125,1.878,1.878,0,0,1-1.688-1.066l-.977.977a3.1,3.1,0,0,0,2.753,1.509,2.55,2.55,0,0,0,2.723-2.6c0-1.273-.533-1.835-2.28-2.487Zm2.753.917a4.114,4.114,0,0,0,4.2,4.144,4.238,4.238,0,0,0,1.924-.444V17.391a2.476,2.476,0,0,1-1.865.888,2.621,2.621,0,0,1-2.664-2.753,2.655,2.655,0,0,1,2.6-2.723,2.547,2.547,0,0,1,1.924.888V11.886a3.713,3.713,0,0,0-1.895-.5,4.2,4.2,0,0,0-4.232,4.144Z" transform="translate(-66.057 -2.78)" fill="#f4f4f4" fill-rule="evenodd"/>
    <path id="Path_317" data-name="Path 317" d="M314.282,16.946l-2.1-5.328h-1.717l3.375,8.14h.829l3.433-8.14h-1.687Zm4.529,2.6h4.381V18.219h-2.841V16.088h2.722V14.726h-2.722V12.98h2.841V11.618h-4.381Zm10.507-5.594c0-1.48-1.006-2.338-2.812-2.338h-2.28v7.932h1.54V16.384h.207l2.131,3.167H330l-2.487-3.345A2.118,2.118,0,0,0,329.319,13.956Zm-3.108,1.332h-.444V12.862h.473c.977,0,1.48.414,1.48,1.184C327.72,14.844,327.217,15.289,326.211,15.289Zm4.013-2.967c0,.061-.042.093-.126.093h-.029v-.182h.031C330.183,12.233,330.223,12.262,330.223,12.322Zm.248.481-.23-.289a.193.193,0,0,0,.155-.2c0-.137-.1-.214-.267-.214h-.222v.7h.165v-.271l.2.271Zm.294-.351a.606.606,0,1,0-.6.61A.609.609,0,0,0,330.765,12.452Zm-.123,0a.484.484,0,1,1-.481-.5A.491.491,0,0,1,330.642,12.453Z" transform="translate(-75.811 -2.837)" fill="#f4f4f4" fill-rule="evenodd"/>
    <path id="Path_318" data-name="Path 318" d="M283.108,29.97V24.928l3.444,3.6V25.249h.713v5.009l-3.443-3.593V29.97Z" transform="translate(-69.131 -6.087)" fill="#f4f4f4"/>
    <path id="Path_319" data-name="Path 319" d="M292.713,26.022h-1.893v1.135h1.837v.67h-1.837V29.4h1.893v.67h-2.605V25.353h2.605Z" transform="translate(-70.84 -6.191)" fill="#f4f4f4"/>
    <path id="Path_320" data-name="Path 320" d="M295.936,26.022v4.052h-.713V26.022h-1.085v-.67h2.88v.67Z" transform="translate(-71.824 -6.191)" fill="#f4f4f4"/>
    <path id="Path_321" data-name="Path 321" d="M299.22,25.278l1.23,3.156,1.284-3.385,1.23,3.385,1.305-3.156h.774l-2.11,5.021-1.214-3.345L300.453,30.3l-2.006-5.024Z" transform="translate(-72.877 -6.117)" fill="#f4f4f4"/>
    <path id="Path_322" data-name="Path 322" d="M307.356,27.663a2.312,2.312,0,0,1,.731-1.713,2.4,2.4,0,0,1,1.749-.716,2.469,2.469,0,0,1,2.456,2.456,2.322,2.322,0,0,1-.728,1.728,2.495,2.495,0,0,1-3.406.08A2.319,2.319,0,0,1,307.356,27.663Zm.719.009a1.707,1.707,0,0,0,.526,1.287,1.742,1.742,0,0,0,2.462-.009,1.832,1.832,0,0,0,.006-2.532,1.76,1.76,0,0,0-2.486,0A1.7,1.7,0,0,0,308.075,27.672Z" transform="translate(-75.052 -6.162)" fill="#f4f4f4"/>
    <path id="Path_323" data-name="Path 323" d="M316.671,28.062l1.462,2.012h-.871l-1.349-1.933h-.128v1.933h-.713V25.353h.834a2.087,2.087,0,0,1,1.352.352,1.293,1.293,0,0,1,.459,1.034,1.34,1.34,0,0,1-.288.862A1.28,1.28,0,0,1,316.671,28.062Zm-.887-.541h.226q1.012,0,1.012-.774,0-.725-.985-.725h-.253Z" transform="translate(-76.936 -6.191)" fill="#f4f4f4"/>
    <path id="Path_324" data-name="Path 324" d="M320.777,27.236l1.838-1.884h.951l-2.134,2.138,2.147,2.584h-.954l-1.7-2.1-.147.147v1.954h-.712V25.353h.712Z" transform="translate(-78.155 -6.191)" fill="#f4f4f4"/>
    <circle id="Ellipse_13" data-name="Ellipse 13" cx="4.144" cy="4.144" r="4.144" transform="translate(226.383 8.603)" fill="#d97b16"/>
  </g>
</svg>
