<svg id="Group_3583" data-name="Group 3583" xmlns="http://www.w3.org/2000/svg" width="38.22" height="38.204" viewBox="0 0 38.22 38.204">
  <path id="Path_24652" data-name="Path 24652" d="M-1233.5,392.372a.928.928,0,0,1,.864-.38c1.79.015,3.579.007,5.369.007.772,0,.9.123.93.9a1.276,1.276,0,0,0,.03.15,3.881,3.881,0,0,0,1.817-2.1c.775-2.591,1.505-5.2,2.253-7.8.183-.637.4-.774,1.059-.674a3.653,3.653,0,0,1,3.127,3.192,12.07,12.07,0,0,1-.193,3.074c-.065.677-.167,1.351-.258,2.066h7.477a2.4,2.4,0,0,1,2.457,1.619,2.361,2.361,0,0,1-.956,2.743.653.653,0,0,0-.073.08,2.451,2.451,0,0,1-.592,3.573,2.464,2.464,0,0,1-.609,3.584,2.424,2.424,0,0,1,.425,2.239,2.336,2.336,0,0,1-2.192,1.671c-3.406.013-6.812.037-10.216-.02a8.768,8.768,0,0,1-2.079-.542c-.477-.133-.951-.274-1.451-.418-.011.108-.024.19-.026.272-.019.511-.222.713-.741.714-1.889,0-3.779-.006-5.668.007a.9.9,0,0,1-.753-.379Zm7.171,11.7c.1.033.187.069.28.1q1.575.45,3.151.9a1.651,1.651,0,0,0,.438.066q4.885.005,9.769,0a1.2,1.2,0,0,0,1.271-1.18,1.2,1.2,0,0,0-1.284-1.2c-.708,0-1.417,0-2.125,0-.493,0-.775-.23-.764-.613s.281-.578.759-.579c.92,0,1.839,0,2.759,0a1.2,1.2,0,0,0,1.251-1.2,1.2,1.2,0,0,0-1.266-1.185c-.721-.005-1.442,0-2.163,0-.471,0-.743-.222-.744-.595s.271-.6.741-.6c.92,0,1.839,0,2.759,0a1.2,1.2,0,0,0,1.269-1.182,1.2,1.2,0,0,0-1.285-1.2c-.708,0-1.417,0-2.125,0-.492,0-.774-.232-.762-.614s.281-.577.761-.578c.92,0,1.839,0,2.759,0a1.2,1.2,0,0,0,1.17-.764A1.2,1.2,0,0,0-1210.9,392c-2.71,0-5.419,0-8.129,0-.567,0-.8-.261-.733-.814.16-1.269.313-2.539.493-3.806a4.1,4.1,0,0,0-.212-2.339,2.247,2.247,0,0,0-1.638-1.33c-.034.1-.061.171-.081.241-.694,2.421-1.382,4.844-2.088,7.261a3.811,3.811,0,0,1-.425.942,4.656,4.656,0,0,1-2.618,2.173Zm-1.229,1.042V393.222h-4.73v11.889Z" transform="translate(1233.5 -368.128)" fill="#1e4454"/>
  <path id="Path_24653" data-name="Path 24653" d="M-1099.236,238.5c.791.146,1.594.249,2.372.446a13.056,13.056,0,0,1,9.608,10.661,16.728,16.728,0,0,1,.03,2.309c.024,5.05-2.43,8.642-6.623,11.186a11.788,11.788,0,0,1-3.827,1.406,1.508,1.508,0,0,1-.258.03.612.612,0,0,1-.686-.537.643.643,0,0,1,.536-.658,21.752,21.752,0,0,0,2.65-.852,11.889,11.889,0,0,0,7.008-11.385,11.945,11.945,0,0,0-10.18-11.274,11.91,11.91,0,0,0-13.5,9.751,17.345,17.345,0,0,0-.177,1.927c-.03.442-.236.708-.595.713s-.6-.275-.6-.737a13.146,13.146,0,0,1,10.767-12.767c.463-.077.927-.146,1.391-.219Z" transform="translate(1125.419 -238.5)" fill="#1e4454"/>
  <path id="Path_24654" data-name="Path 24654" d="M-1028.343,264.858c.615,0,1.173,0,1.732,0a1.793,1.793,0,0,1,1.848,1.79,1.793,1.793,0,0,1-1.849,1.789c-1.33.006-2.66,0-3.99,0a1.2,1.2,0,0,0-1.32,1.2,1.225,1.225,0,0,0,1.307,1.187,12.4,12.4,0,0,1,2.184.148,4.706,4.706,0,0,1,3.663,4.354,4.759,4.759,0,0,1-3.224,4.77c-.266.09-.375.2-.359.487.028.483.011.969.007,1.454s-.217.713-.7.717q-1.1.009-2.2,0c-.459,0-.675-.229-.679-.7-.006-.545,0-1.091,0-1.689-.624,0-1.228.013-1.831,0a1.789,1.789,0,0,1-1.667-2.325,1.787,1.787,0,0,1,1.717-1.25c1.38-.008,2.759,0,4.139,0a1.154,1.154,0,0,0,1.1-.69,1.116,1.116,0,0,0-.159-1.256,1.239,1.239,0,0,0-.983-.444,13.323,13.323,0,0,1-2.221-.151,4.7,4.7,0,0,1-3.667-4.429,4.749,4.749,0,0,1,3.2-4.678.462.462,0,0,0,.377-.551c-.022-.484-.012-.969,0-1.454a.6.6,0,0,1,.673-.665q1.119-.01,2.237,0a.6.6,0,0,1,.666.672C-1028.337,263.7-1028.343,264.258-1028.343,264.858Zm-1.193,16.7c0-.561,0-1.082,0-1.6,0-.586.118-.726.707-.849a3.575,3.575,0,0,0,2.832-3.319,3.49,3.49,0,0,0-2.377-3.535,8.692,8.692,0,0,0-1.721-.227,8.738,8.738,0,0,1-1.327-.12,2.354,2.354,0,0,1-1.681-2.544,2.375,2.375,0,0,1,2.29-2.106c1.354-.021,2.709-.005,4.063-.007.508,0,.784-.207.791-.586s-.276-.606-.807-.607c-.671,0-1.342,0-2.013,0-.554,0-.755-.208-.757-.771,0-.53,0-1.06,0-1.588h-1.193c0,.548,0,1.069,0,1.59,0,.584-.122.727-.708.849a3.581,3.581,0,0,0-2.8,2.985,3.576,3.576,0,0,0,2,3.744,4.741,4.741,0,0,0,2.107.361,4.939,4.939,0,0,1,1.325.124,2.346,2.346,0,0,1,1.641,2.567,2.378,2.378,0,0,1-2.323,2.071c-1.342.016-2.684,0-4.026.005-.51,0-.783.205-.79.586s.276.606.807.607c.671,0,1.342,0,2.013,0,.554,0,.755.207.757.771,0,.53,0,1.06,0,1.6Z" transform="translate(1055.198 -260.083)" fill="#1e4454"/>
  <path id="Path_24655" data-name="Path 24655" d="M-1158.872,307.1c-.138.992-.255,1.2-.66,1.18s-.528-.253-.592-1.179c-.464-.056-1.177.151-1.151-.642.023-.713.672-.526,1.151-.578.07-.475-.144-1.191.658-1.156.7.031.523.678.564,1.149.479.069,1.175-.141,1.163.632C-1157.751,307.244-1158.421,307.049-1158.872,307.1Z" transform="translate(1168.459 -298.137)" fill="#1e4454"/>
  <path id="Path_24656" data-name="Path 24656" d="M-938.31,527.72c.1-.973.219-1.19.626-1.191s.53.218.625,1.169c.452.074,1.151-.142,1.144.627-.007.741-.674.551-1.158.6-.052.483.142,1.12-.629,1.169-.413.026-.544-.254-.592-1.162-.1-.007-.207-.019-.313-.021-.582-.007-.856-.193-.863-.589s.275-.6.881-.606Z" transform="translate(968.715 -497.881)" fill="#1e4454"/>
</svg>
