<?xml version="1.0" encoding="utf-8"?>
<!-- Generator: Adobe Illustrator 21.1.0, SVG Export Plug-In . SVG Version: 6.00 Build 0)  -->
<svg version="1.1" id="Layer_1" xmlns="http://www.w3.org/2000/svg" xmlns:xlink="http://www.w3.org/1999/xlink" x="0px" y="0px"
	 viewBox="0 0 48 48" style="enable-background:new 0 0 48 48;" xml:space="preserve">
<style type="text/css">
	.st0{fill:#B3001B;}
</style>
<g>
	<path class="st0" d="M4,17c0-2.7,0-5.4,0-8.1c0-1.5,0.8-2.5,2.3-2.7c3.8-0.6,7.3-2.1,10.4-4.2c1-0.7,2-1,3.2-0.9c3,0.1,6.1,0,9.1,0
		c0.6,0,1.1,0.1,1.5,0.5c3,2.1,6.2,3.6,9.7,4.4c0.6,0.1,1.1,0.2,1.7,0.3c1.1,0.2,1.9,1.1,2,2.2c0,0.2,0,0.5,0,0.7
		c0,4.6-0.1,9.2,0,13.8c0.1,4.7-1.3,8.8-4,12.6c-3.6,5-8.3,8.6-14,10.8c-2.4,0.9-1.6,0.9-3.9,0c-6.7-2.6-12-6.9-15.6-13.2
		C4.8,30.2,4,27,4,23.5C4,21.4,4,19.2,4,17z M42.7,17.1c0-2.7,0-5.4,0-8.1c0-1-0.3-1.4-1.3-1.5c-0.4-0.1-0.9-0.1-1.3-0.2
		C36.4,6.4,33,4.8,29.9,2.7c-0.3-0.2-0.6-0.3-1-0.3c-3.2,0-6.5,0-9.7,0c-0.4,0-0.8,0.1-1.2,0.4c-3.4,2.3-7.1,4-11.3,4.7
		C5.6,7.7,5.3,8,5.3,9.2c0,4.8,0,9.6,0,14.5c0,2.9,0.7,5.6,2,8.1c1.8,3.6,4.4,6.5,7.5,8.9c2.7,2.1,5.6,3.8,8.8,4.8
		c0.2,0.1,0.6,0.1,0.8,0C31.1,43.1,36.3,39,40,33c1.9-3,2.8-6.3,2.7-9.9C42.6,21.1,42.7,19.1,42.7,17.1z"/>
	<path class="st0" d="M34.8,23.6c-7.2,0-14.4,0-21.6,0c0,0.2,0,0.4,0,0.5c0,2.5,0,5.1,0,7.6c0,1.7,0.3,3.4,1.1,4.9
		c0.2,0.4,0.3,0.7-0.1,1c-0.4,0.3-0.7,0.1-1-0.2c-2.6-2.6-4.6-5.4-5.8-8.9c-0.5-1.6-0.8-3.2-0.8-4.8c0-4.7,0-9.4,0-14.1
		c0-0.8,0.1-0.9,0.9-1c4-0.8,7.7-2.4,11.1-4.7c0.3-0.2,0.6-0.3,0.9-0.3c2.9,0,5.9,0,8.8,0c0.5,0,1,0.1,1.4,0.4
		c3.2,2.1,6.6,3.6,10.3,4.4c0.2,0,0.4,0.1,0.6,0.1c0.7,0.1,0.8,0.3,0.8,1c0,4.8,0,9.5,0,14.3c0,3.9-1.4,7.3-3.7,10.4
		c-0.9,1.1-1.9,2.2-2.8,3.3c-0.3,0.3-0.6,0.5-1,0.2c-0.3-0.2-0.4-0.5-0.1-1c0.7-1.5,1.1-3,1.1-4.7c0-2.7,0-5.4,0-8.1
		C34.8,23.9,34.8,23.8,34.8,23.6z M14.4,22.3c0-1,0-1.9,0-2.8c0-1,0-2.1,0.2-3c1-5.1,5.7-8.4,10.9-7.6c4.3,0.6,7.8,4.4,8,8.8
		c0.1,1.4,0,2.8,0,4.2c0,0.2,0,0.3,0,0.5c0.6,0,1.2,0,1.7,0c0.5,0,0.8,0.2,0.8,0.8c0,3.3,0,6.6-0.1,10c0,0.4-0.1,0.8-0.1,1.2
		c0,0,0.1,0,0.1,0c0.5-0.7,1-1.5,1.5-2.2c1.4-2.3,2.4-4.7,2.5-7.4c0.1-4.8,0-9.6,0.1-14.5c0-0.3-0.1-0.3-0.3-0.4
		C35.9,9,32.3,7.4,29,5.2C28.8,5.1,28.5,5,28.2,5c-2.8,0-5.6,0-8.3,0c-0.3,0-0.6,0.1-0.9,0.3c-3.2,2.1-6.7,3.7-10.5,4.5
		C8,9.9,7.9,10,7.9,10.5c0,4.4,0,8.8,0,13.2c0,0.8,0.1,1.7,0.2,2.5c0.5,3,1.9,5.6,3.7,7.9c0.1,0.1,0.1,0.1,0.3,0.3
		c-0.1-0.4-0.1-0.7-0.1-1c0-3.4-0.1-6.8-0.1-10.2c0-0.5,0.2-0.7,0.8-0.8C13.2,22.3,13.8,22.3,14.4,22.3z M32.3,22.3
		c0-1.3,0-2.6,0-3.9c0-0.5,0-1-0.1-1.4c-0.6-3.8-3.9-6.7-7.7-6.9c-4.1-0.1-7.6,2.5-8.5,6.3c-0.4,1.9-0.2,3.9-0.2,5.8
		c0,0,0,0,0.1,0.1c1,0,1.9,0,2.9,0c0-0.2,0-0.4,0-0.5c0-1.3,0-2.5,0-3.8c0-1.9,0.9-3.3,2.5-4.3c1.1-0.6,2.3-0.7,3.5-0.6
		c2.2,0.1,3.9,1.6,4.4,3.8c0.1,0.4,0.1,0.9,0.1,1.4c0,1.3,0,2.7,0,4C30.3,22.3,31.2,22.3,32.3,22.3z M27.9,22.3c0-1.6,0.1-3.3,0-4.9
		c-0.1-1.5-1.2-2.6-2.7-2.9c-0.6-0.1-1.3-0.1-2-0.1c-1.6,0.1-2.9,1.3-3.1,2.9C20,18.5,20,19.7,20,20.9c0,0.5,0,0.9,0,1.4
		C22.7,22.3,25.3,22.3,27.9,22.3z"/>
	<path class="st0" d="M21.4,34.8c0-0.2,0-0.4,0-0.6c0-0.8-0.1-1.6-0.6-2.3c-1.1-1.6-0.6-3.8,0.9-4.9c1.5-1.2,3.7-1.1,5.1,0.3
		c1.4,1.3,1.5,3.5,0.3,5c-0.3,0.4-0.4,0.7-0.4,1.2c0,1,0,2.1,0,3.1c0,1.3-1,2.4-2.3,2.5c-1.4,0.1-2.6-0.7-2.9-2
		C21.3,36.4,21.4,35.6,21.4,34.8C21.4,34.8,21.4,34.8,21.4,34.8z M22.7,34.5C22.7,34.5,22.7,34.5,22.7,34.5c0,0.7-0.1,1.3,0,2
		c0,0.4,0.2,0.8,0.5,1c0.4,0.4,0.9,0.4,1.3,0.2c0.5-0.2,0.8-0.6,0.8-1.2c0-1.2,0-2.5,0-3.7c0-0.4,0.1-0.7,0.4-1
		c0.7-0.6,0.9-1.5,0.7-2.4c-0.2-1-1.1-1.8-2.1-1.9c-1.1-0.1-2.2,0.4-2.6,1.4c-0.5,1-0.3,2.1,0.5,2.9c0.3,0.3,0.4,0.6,0.4,1
		C22.7,33.3,22.7,33.9,22.7,34.5z"/>
</g>
</svg>
