<svg id="Group_3584" data-name="Group 3584" xmlns="http://www.w3.org/2000/svg" width="31.229" height="44.615" viewBox="0 0 31.229 44.615">
  <path id="Path_24657" data-name="Path 24657" d="M-1626.608,284.864v-2.206h-10.352v2.206c.44,0,.883,0,1.327,0a1.491,1.491,0,0,1,1.61,1.584q.01,2.137,0,4.274a1.48,1.48,0,0,1-1.574,1.573q-2.137.011-4.274,0a1.481,1.481,0,0,1-1.582-1.565q-.011-2.16,0-4.321a1.488,1.488,0,0,1,1.556-1.545c.448-.006.9,0,1.38,0v-2.2h-10.348v2.2c.439,0,.882,0,1.323,0a1.494,1.494,0,0,1,1.625,1.616q.008,2.114,0,4.228a1.488,1.488,0,0,1-1.606,1.588q-2.114.008-4.228,0a1.486,1.486,0,0,1-1.6-1.6q-.008-2.114,0-4.228a1.5,1.5,0,0,1,1.589-1.606c.445,0,.891,0,1.383,0,0-.935,0-1.829,0-2.722,0-.757.239-.994,1-.994h10.856V277.43h-.491q-3.717,0-7.434,0a2.247,2.247,0,0,1-2.447-2.459q0-12.405,0-24.81a2.247,2.247,0,0,1,2.441-2.465c4.042,0,8.084,0,12.126-.008a1.381,1.381,0,0,1,1.063.451q3.109,3.134,6.243,6.241a1.384,1.384,0,0,1,.436,1.069q-.015,9.757-.007,19.514a2.252,2.252,0,0,1-2.485,2.468h-7.885v3.717h10.754c.908,0,1.1.2,1.1,1.126,0,.848,0,1.7,0,2.591.5,0,.962-.005,1.422,0a1.48,1.48,0,0,1,1.549,1.551q.013,2.16,0,4.321a1.477,1.477,0,0,1-1.541,1.558q-2.184.014-4.367,0a1.47,1.47,0,0,1-1.52-1.531q-.014-2.184,0-4.367a1.483,1.483,0,0,1,1.523-1.53C-1627.573,284.857-1627.11,284.864-1626.608,284.864Zm-8.156-35.683h-11.58c-.844,0-1.057.218-1.057,1.079q0,12.307,0,24.615c0,.852.216,1.068,1.069,1.068h17.184c.857,0,1.075-.215,1.075-1.063q0-9.242,0-18.484v-.524h-.561c-1.749,0-3.5,0-5.248,0-.606,0-.872-.274-.88-.882-.006-.387,0-.774,0-1.161Zm-17.065,37.19v4.4h4.4v-4.4Zm11.882,4.407h4.4v-4.4h-4.4Zm16.307.01v-4.406h-4.4v4.406Zm-9.6-40.383v3.955h3.975Z" transform="translate(1653.352 -247.687)" fill="#1e4454"/>
  <path id="Path_24658" data-name="Path 24658" d="M-1590.049,318.511c1.8,0,3.593,0,5.389,0,.529,0,.85.264.878.7a.754.754,0,0,1-.833.787c-.821.009-1.641,0-2.462,0-2.787,0-5.575,0-8.362-.008a1,1,0,0,1-.681-.187,1.076,1.076,0,0,1-.231-.774c.057-.378.392-.52.774-.519,1.316,0,2.633,0,3.949,0Z" transform="translate(1605.338 -307.353)" fill="#1e4454"/>
  <path id="Path_24659" data-name="Path 24659" d="M-1590.049,351.543c1.8,0,3.593,0,5.389,0,.529,0,.85.264.878.7a.754.754,0,0,1-.833.787c-.821.009-1.641,0-2.462,0-2.787,0-5.575,0-8.362-.008a1,1,0,0,1-.681-.187,1.075,1.075,0,0,1-.231-.774c.057-.378.393-.52.774-.519q1.975,0,3.949,0Z" transform="translate(1605.338 -335.181)" fill="#1e4454"/>
  <path id="Path_24660" data-name="Path 24660" d="M-1590.049,384.574c1.8,0,3.593,0,5.389,0,.529,0,.85.264.878.7a.754.754,0,0,1-.833.787c-.821.009-1.641,0-2.462,0-2.787,0-5.575,0-8.362-.008a1,1,0,0,1-.681-.186,1.077,1.077,0,0,1-.231-.774c.057-.378.392-.52.774-.519q1.974,0,3.949,0Z" transform="translate(1605.338 -363.008)" fill="#1e4454"/>
</svg>
