<svg id="Layer_1" data-name="Layer 1" xmlns="http://www.w3.org/2000/svg" viewBox="0 0 50 50"><defs><style>.cls-1{fill:none;stroke:#231f20;stroke-miterlimit:10;stroke-width:0.5px;}</style></defs><path class="cls-1" d="M30.45,48.37c-.81-.32-1.54-.59-2.26-.9a.59.59,0,0,0-.76.15c-.53.55-1.1,1.06-1.74,1.67l-1-4.9-.09,0-1,4.92c-.62-.58-1.19-1.09-1.71-1.63a.65.65,0,0,0-.85-.17c-.7.3-1.42.57-2.21.88.21-1.09.41-2.12.6-3.15.07-.32.13-.64.18-.95.13-.72.13-.72-.63-.72H8.74c-1.08,0-1.47-.39-1.47-1.45q.06-12.56.11-25.1c0-5,.06-9.95.09-14.92,0-1,.4-1.36,1.38-1.36H32.34a1.64,1.64,0,0,1,1.25.5c2.08,2.1,4.19,4.19,6.29,6.28l2.37,2.35A1.48,1.48,0,0,1,42.73,11c0,3.86,0,7.72-.06,11.58q0,6.8-.07,13.58,0,3-.08,6.08c0,1-.38,1.33-1.34,1.33H30.72c-1.22,0-1.21,0-1,1.2S30.2,47.1,30.45,48.37Z"/><path class="cls-1" d="M40.33,31.46c0,3.12-.06,6.25-.07,9.37,0,.34-.08.45-.44.45H29.53c-.36,0-.52-.1-.55-.46a5.38,5.38,0,0,0-.17-.89c-.12-.56-.36-1.12.55-1.3.4-.08.55-.55.62-.94a2.36,2.36,0,0,1,.89-1.48,1.43,1.43,0,0,0,.53-1.76,2.49,2.49,0,0,1,.05-1.82A1.45,1.45,0,0,0,31,30.88a2.42,2.42,0,0,1-.87-1.6A1.35,1.35,0,0,0,29,28.09a2.62,2.62,0,0,1-1.6-1,1.38,1.38,0,0,0-1.67-.53,2.66,2.66,0,0,1-2,0,1.28,1.28,0,0,0-1.51.4,2.72,2.72,0,0,1-1.7.92A1.37,1.37,0,0,0,19.32,29a2.57,2.57,0,0,1-1,1.61,1.37,1.37,0,0,0-.49,1.64,2.65,2.65,0,0,1,0,1.88,1.41,1.41,0,0,0,.42,1.7,2.38,2.38,0,0,1,.86,1.55,1.45,1.45,0,0,0,1.26,1.34c.28,0,.38.14.3.46a13.64,13.64,0,0,0-.33,1.69c0,.29-.14.39-.44.39H10c-.36,0-.4-.15-.4-.45,0-3.68,0-7.36.05-11,0-2.06,0-4.13,0-6.19,0-3.41,0-6.82,0-10.24s0-6.6,0-9.9c0-.37.09-.48.47-.48Q20.6,3,31,3c.41,0,.5.11.5.51,0,2.39,0,4.78,0,7.16,0,.89.39,1.28,1.28,1.28,2.41,0,4.81,0,7.22,0,.38,0,.47.1.47.48q0,7.11,0,14.21Z"/><path class="cls-1" d="M24.66,38.25a4.86,4.86,0,1,1,4.81-4.89A4.84,4.84,0,0,1,24.66,38.25Z"/><path class="cls-1" d="M38.62,9.66H34.11c-.18,0-.35,0-.35-.26,0-1.55,0-3.1,0-4.67Z"/><path class="cls-1" d="M25.1,16.46H15.73a1.08,1.08,0,0,1-1.13-.8,1.15,1.15,0,0,1,.51-1.3,1.31,1.31,0,0,1,.67-.17H34.35a1.13,1.13,0,1,1,0,2.26Z"/><path class="cls-1" d="M25.1,21.94H15.89c-.86,0-1.32-.4-1.32-1.13s.47-1.14,1.32-1.14H34.31a1.15,1.15,0,0,1,.77,2.09,1.31,1.31,0,0,1-.77.18C31.24,21.93,28.17,21.94,25.1,21.94Z"/><path class="cls-1" d="M21.17,11H15.84c-.83,0-1.27-.39-1.27-1.11a1.14,1.14,0,0,1,1.26-1.16H26.6a1.15,1.15,0,0,1,1.17,1.6,1.08,1.08,0,0,1-1.11.68C24.83,11,23,11,21.17,11Z"/><path class="cls-1" d="M22,33.38a2.59,2.59,0,0,1,2.68-2.61,2.62,2.62,0,0,1,2.6,2.65A2.66,2.66,0,0,1,24.6,36,2.63,2.63,0,0,1,22,33.38Z"/><line class="cls-1" x1="20.33" y1="40.89" x2="19.7" y2="44.02"/><line class="cls-1" x1="29.02" y1="41.02" x2="29.8" y2="45.01"/></svg>