<svg id="Layer_1" data-name="Layer 1" xmlns="http://www.w3.org/2000/svg" viewBox="0 0 50 50"><defs><style>.cls-1{fill:none;stroke:#231f20;stroke-miterlimit:10;stroke-width:0.5px;}</style></defs><path class="cls-1" d="M43,20.31V38a.56.56,0,0,1-.49.6c-.06,0-.08,0-.08.09a.2.2,0,0,1,0,.07c0,1.46,0,2.93,0,4.39,0,.09,0,.14.13.16a.56.56,0,0,1,.44.53v2a.57.57,0,0,1-.58.55H31.14c-.21,0-.21,0-.21.21,0,.67,0,1.35,0,2a.57.57,0,0,1-.87.56c-1.07-.49-2.14-1-3.2-1.47a.29.29,0,0,0-.24,0L23.4,49.14a.57.57,0,0,1-.77-.21.64.64,0,0,1-.08-.36v-2.1c0-.12,0-.15-.14-.15H12.35a5.34,5.34,0,0,1-5.26-4.46,5.4,5.4,0,0,1-.08-1V6.19A5.37,5.37,0,0,1,11,1,5.07,5.07,0,0,1,12.33.8H41a2,2,0,0,1,2,2C43,8.2,43,13.6,43,19v1.3Z"/><path class="cls-1" d="M8.15,37.6V6.28A4.18,4.18,0,0,1,9.81,2.8a4,4,0,0,1,2.57-.86H41a.77.77,0,0,1,.84.83v32.6c0,.21,0,.19-.18.19H12.4a5.27,5.27,0,0,0-3.85,1.59C8.42,37.28,8.3,37.44,8.15,37.6Z"/><path class="cls-1" d="M26.72,38.6h14.4c.13,0,.17,0,.17.16,0,1.46,0,2.92,0,4.37,0,.11,0,.15-.14.15H31.08c-.12,0-.15,0-.15-.14,0-.89,0-1.77,0-2.65,0-.12,0-.14.14-.14h7.31a.58.58,0,0,0,.63-.45.57.57,0,0,0-.52-.7H15.09a.58.58,0,0,0-.6.79.6.6,0,0,0,.57.36H22.4c.12,0,.16,0,.15.15v2.64c0,.12,0,.14-.14.14h-10A2.34,2.34,0,0,1,12,38.63a2.6,2.6,0,0,1,.4,0Z"/><path class="cls-1" d="M26.91,37.47H12.4a3.47,3.47,0,0,0-.6,6.9,4,4,0,0,0,.6.05h10c.2,0,.18,0,.18.18s0,.33,0,.49,0,.1-.1.1H22.2c-3.26,0-6.53,0-9.79,0a4.25,4.25,0,0,1-.93-8.41,4.6,4.6,0,0,1,.91-.09H41.71c.11,0,.15,0,.14.15s0,.35,0,.53,0,.11-.1.1H26.91Z"/><path class="cls-1" d="M36.4,45.19H31.11c-.15,0-.19,0-.18-.18a1.69,1.69,0,0,0,0-.45c0-.13,0-.16.15-.14H41.65c.2,0,.2,0,.2.2s0,.26,0,.39,0,.18-.17.18H36.4Z"/><path class="cls-1" d="M32.68,17.89a.6.6,0,0,1,.67-.44h1.7a.58.58,0,0,1,.65.65,9,9,0,0,1-17.7,2,8.86,8.86,0,0,1,2.69-8.74A8.54,8.54,0,0,1,25.59,9a8.89,8.89,0,0,1,7.49,2.57.56.56,0,0,1,0,.85c-.42.42-.84.84-1.27,1.25a.57.57,0,0,1-.81.11c-.07,0-.11-.05-.15-.09a5.89,5.89,0,0,0-6.55-1.16,5.72,5.72,0,0,0-1.77,1.26,5.93,5.93,0,0,0-1.66,3.49,5.71,5.71,0,0,0,.61,3.42,5.77,5.77,0,0,0,4.23,3.15,5.64,5.64,0,0,0,4.65-1.16,5.76,5.76,0,0,0,2.22-3.92,4.74,4.74,0,0,0,.06-.75A.2.2,0,0,1,32.68,17.89Z"/><path class="cls-1" d="M11.77,17.82V3.45a.58.58,0,0,1,.74-.61.59.59,0,0,1,.41.52V32.17a.58.58,0,0,1-.59.66.55.55,0,0,1-.55-.54.76.76,0,0,1,0-.15Z"/><path class="cls-1" d="M37.18,11.49s-.06.07-.08.1l-2.21,2.14-7.64,7.42c-.07.07-.11.07-.17,0l-3.22-3.39c-.06-.06-.06-.09,0-.15a4.68,4.68,0,0,0,.39-.38c.07-.07.11,0,.17,0l2.23,2.36.11.12a.57.57,0,0,0,.85,0l2.3-2.23L36.58,11c.07-.07.1-.07.17,0s.24.26.36.39Z"/><path class="cls-1" d="M12.58.79H40.93A2.06,2.06,0,0,1,43,2.85V46.15a.3.3,0,0,1-.3.3H12.58A5.58,5.58,0,0,1,7,40.87V6.37A5.58,5.58,0,0,1,12.58.79Z"/></svg>