<svg xmlns="http://www.w3.org/2000/svg" width="25.211" height="25.444" viewBox="0 0 25.211 25.444"><g transform="translate(0)"><path d="M-2613.728,1294.4a4.136,4.136,0,0,0-4.146-4.036c-3.6.013-7.261.01-10.8.009h-5.9a4.276,4.276,0,0,0-.812.066,4.234,4.234,0,0,0-3.455,4.188c-.006,1.151,0,2.322,0,3.455q0,.758,0,1.516,0,1.735,0,3.47c0,2.761,0,5.617,0,8.425a4.118,4.118,0,0,0,3.459,4.215,14.506,14.506,0,0,0,2.555.082c.235-.007.468-.013.7-.016a.631.631,0,0,0,.6-.617.7.7,0,0,0-.174-.524.725.725,0,0,0-.53-.221c-.522-.008-1.053-.007-1.567-.005h-.683a2.875,2.875,0,0,1-2.967-2.971q0-4.445,0-8.889v-4.033h22.346v.183c0,.071,0,.138,0,.205,0,.133,0,.259,0,.382a.694.694,0,0,0,.712.709.677.677,0,0,0,.674-.734q0-.445,0-.889C-2613.712,1297.064-2613.707,1295.718-2613.728,1294.4Zm-1.391,1.673c-.006.278-.012.566-.012.85v.183H-2637.3l-.059-.063a.218.218,0,0,1-.083-.166c0-.258,0-.522-.007-.777-.008-.595-.017-1.211.034-1.816a2.836,2.836,0,0,1,2.794-2.519c5.09-.005,10.579-.005,16.782,0a2.673,2.673,0,0,1,2.69,2.433A17.092,17.092,0,0,1-2615.119,1296.069Z" transform="translate(2638.848 -1290.36)"/></g><g transform="translate(11.695 11.544)"><path d="M-2466.336,1449.947c-.414-.443-.854-.882-1.343-1.345a2.228,2.228,0,0,0-3.19.026c-2.486,2.471-4.993,4.982-7.666,7.675a.885.885,0,0,0-.25.449c-.121.941-.22,1.888-.315,2.8l-.006.052c-.031.311-.063.617-.1.919a1.116,1.116,0,0,0,.353.9,1.019,1.019,0,0,0,.869.224c.351-.062.7-.122,1.052-.181l.086-.015c.734-.125,1.493-.255,2.233-.4a1.107,1.107,0,0,0,.532-.253c2.129-2.109,4.93-4.894,7.731-7.726A2.2,2.2,0,0,0-2466.336,1449.947Zm-2.95,4.3c-.035.038-.075.081-.118.124l-.8.8c-1.443,1.443-2.934,2.936-4.412,4.4a1.222,1.222,0,0,1-.606.323c-.527.1-1.042.188-1.613.283l-.21.035-.4.067-.476.082.052-.482c.02-.2.042-.385.064-.574l.01-.088c.056-.483.116-.982.145-1.468a1.643,1.643,0,0,1,.553-1.128c1.169-1.157,2.353-2.342,3.5-3.489l.172-.172.651-.651.634-.635c.049-.048.1-.094.142-.135l.31-.294,2.683,2.7Zm2.077-2.081c-.123.14-.25.271-.393.415l-.007.008-.159.162-.259.27-2.721-2.722.259-.259c.052-.052.1-.106.157-.161l.007-.007c.13-.135.278-.289.44-.428a.951.951,0,0,1,1.295.036c.476.457.937.917,1.371,1.371A.959.959,0,0,1-2467.21,1452.162Z" transform="translate(2479.203 -1447.943)"/></g><g transform="translate(19.415 3.786)"><path d="M-2372.623,1343.5a1.521,1.521,0,0,1-.18.011h-.023c-.732,0-.9-.3-.974-.554a.722.722,0,0,1,.1-.592.7.7,0,0,1,.5-.306,2.339,2.339,0,0,1,.279-.014c.073,0,.145,0,.219,0a.733.733,0,0,1,.752.689A.742.742,0,0,1-2372.623,1343.5Z" transform="translate(2373.825 -1342.04)"/></g><g transform="translate(16.334 3.774)"><path d="M-2414.036,1342.814c-.063.221-.225.519-.913.58-.064-.018-.128-.034-.191-.05a1.772,1.772,0,0,1-.418-.141.663.663,0,0,1-.289-.8.752.752,0,0,1,.818-.534,2.687,2.687,0,0,1,.511.057.607.607,0,0,1,.4.284A.761.761,0,0,1-2414.036,1342.814Z" transform="translate(2415.885 -1341.87)"/></g><g transform="translate(13.081 3.788)"><path d="M-2458.425,1342.918c-.066.433-.407.636-1.042.619a.759.759,0,0,1-.817-.657.734.734,0,0,1,.165-.546.727.727,0,0,1,.5-.255c.032,0,.065,0,.1,0l.086,0h.041a.944.944,0,0,1,.795.247A.706.706,0,0,1-2458.425,1342.918Z" transform="translate(2460.288 -1342.073)"/></g></svg>