<svg xmlns="http://www.w3.org/2000/svg" width="42.505" height="50.667" viewBox="0 0 42.505 50.667">
  <g id="Group_2698" data-name="Group 2698" transform="translate(776.105 -332.431)">
    <path id="Path_18991" data-name="Path 18991" d="M-767.03,376.768c0-.077,0-.155,0-.232,0-1.628.416-3.411-.12-4.838-.5-1.326-2.039-2.246-3.068-3.391-5.459-6.073-7.253-13.117-4.832-20.9s7.866-12.645,15.834-14.463a21.157,21.157,0,0,1,25.5,18.463c.731,7.864-2.092,14.226-8.178,19.207a1.96,1.96,0,0,0-.651,1.314c-.054,3.255-.023,6.511-.028,9.766,0,1.4-.34,1.651-1.7,1.2-3.193-1.053-6.369-2.157-9.573-3.176a3.281,3.281,0,0,0-1.857-.032c-3.208,1.005-6.389,2.1-9.58,3.154-1.464.485-1.747.293-1.752-1.191C-767.037,380.023-767.032,378.4-767.03,376.768Zm12.235-3.41a19.706,19.706,0,0,0,19.64-19.57,19.709,19.709,0,0,0-19.6-19.736,19.693,19.693,0,0,0-19.693,19.75A19.69,19.69,0,0,0-754.8,373.358Zm10.591-1.2a21.545,21.545,0,0,1-21.146.046v8.969c1.6-.532,3.1-1.036,4.6-1.527,1.982-.648,3.967-1.788,5.951-1.786s3.967,1.147,5.95,1.794c1.52.5,3.039,1,4.644,1.523Z" transform="translate(0 0)" fill="#d40c0e"/>
    <path id="Path_18992" data-name="Path 18992" d="M-745.069,356.672c2.981,0,5.884-.024,8.786.025a4.4,4.4,0,0,1,1.379.53,4.319,4.319,0,0,1-.806,1.26c-2.3,1.705-4.643,3.347-7.079,5.086q1.056,3.234,2.11,6.461a16.41,16.41,0,0,1,.635,1.981,4.01,4.01,0,0,1-.167,1.258,3.29,3.29,0,0,1-1.25-.235c-2.2-1.516-4.352-3.09-6.522-4.644-.249-.178-.508-.342-.785-.527-2.285,1.629-4.533,3.272-6.833,4.84a6.193,6.193,0,0,1-1.713.536,6.2,6.2,0,0,1,.033-1.713c.813-2.651,1.7-5.279,2.578-7.952-2.371-1.7-4.714-3.339-7.006-5.051a4.575,4.575,0,0,1-.847-1.337,4.831,4.831,0,0,1,1.417-.5c2.595-.05,5.191-.047,7.786-.009a1.064,1.064,0,0,0,1.233-.863c.742-2.358,1.516-4.707,2.36-7.03a6.088,6.088,0,0,1,1.086-1.433,6.047,6.047,0,0,1,.987,1.388C-746.775,351.362-745.94,354.006-745.069,356.672Zm-3.679-5.992c-.738,2.267-1.418,4.157-1.956,6.086a1.8,1.8,0,0,1-2.113,1.571c-2.023-.107-4.057-.029-6.086-.029a44.457,44.457,0,0,0,3.936,3.114c2.271,1.713,2.379.971,1.319,4.055-.54,1.571-1.023,3.161-1.627,5.04,1.954-1.392,3.669-2.52,5.27-3.791a1.751,1.751,0,0,1,2.535,0c1.622,1.259,3.327,2.412,5.266,3.8-.681-2.088-1.245-3.843-1.827-5.593-.663-1.993-.663-1.981,1.013-3.162,1.523-1.072,3.028-2.167,4.541-3.252a51.34,51.34,0,0,0-6.458-.189,1.514,1.514,0,0,1-1.736-1.274C-747.274,355.025-747.976,353.026-748.747,350.68Z" transform="translate(-6.052 -6.668)" fill="#d40c0e"/>
  </g>
</svg>
