<svg id="Layer_1" data-name="Layer 1" xmlns="http://www.w3.org/2000/svg" viewBox="0 0 50 50"><defs><style>.cls-1{fill:none;stroke:#231f20;stroke-miterlimit:10;stroke-width:0.5px;}</style></defs><path class="cls-1" d="M24.3.43c.82.12,1.64.21,2.45.38C34.91,2.52,40.55,7.26,43.56,15a21.41,21.41,0,0,1,.57,13.65,1.15,1.15,0,0,1-.39.67,1.11,1.11,0,0,1-.84,0c-.36-.16-.41-.53-.32-.91.19-.84.42-1.68.55-2.53a20.14,20.14,0,0,0-3.59-15.26,20.24,20.24,0,0,0-13.26-8.4A20.69,20.69,0,0,0,2.53,17.9,20.34,20.34,0,0,0,7.87,37.18a2.38,2.38,0,0,0,.44.51,15.4,15.4,0,0,1,3.43-7.62,14.35,14.35,0,0,1,6.91-4.5,8.32,8.32,0,1,1,8,0l.39.15a14.43,14.43,0,0,1,7.44,5.55c.22.33.37.7.07,1a1.07,1.07,0,0,1-.78.29c-.24,0-.48-.3-.64-.52a12.79,12.79,0,0,0-23.09,5.11,13.26,13.26,0,0,0-.17,1.53.77.77,0,0,0,.27.54,20.56,20.56,0,0,0,10,4.06,20.79,20.79,0,0,0,9-.89c.71-.22,1.28.16,1.13.79a1.06,1.06,0,0,1-.59.64,21.12,21.12,0,0,1-8.49,1.13A21.77,21.77,0,0,1,9,40.23,21.16,21.16,0,0,1,.62,25.54C-.4,16,3.28,8.67,11.33,3.55a20.47,20.47,0,0,1,9.34-3A2.22,2.22,0,0,0,21,.43Zm5.1,17.84A6.73,6.73,0,1,0,22.65,25,6.71,6.71,0,0,0,29.4,18.27Z"/><path class="cls-1" d="M49.54,43.62c-.45.77-.89,1.54-1.35,2.3a.82.82,0,0,1-1,.39,3.09,3.09,0,0,0-2.88.41,2.75,2.75,0,0,0-1.37,1.76c-.26,1-.44,1.09-1.45,1.09H39.59a.93.93,0,0,1-1-.8,2.29,2.29,0,0,0-1.68-2.1l0,0a2.05,2.05,0,0,0-2.37-.37,1.06,1.06,0,0,1-1.41-.53c-.37-.67-.76-1.33-1.12-2a.76.76,0,0,1,.17-1,3.05,3.05,0,0,0,1.13-2.83A2.27,2.27,0,0,0,32.54,38a1.24,1.24,0,0,1-.44-.5,1.27,1.27,0,0,1-.13-.83,20.9,20.9,0,0,1,1.38-2.39,1,1,0,0,1,.79-.29,7.79,7.79,0,0,0,1.73.28c.54-.1,1-.65,1.52-.85a1.6,1.6,0,0,0,1-1.24c.41-1.41.43-1.42,1.9-1.47.57,0,1.15,0,1.72.07a.73.73,0,0,1,.75.63,3,3,0,0,0,1.87,2.39,2.24,2.24,0,0,0,2,.3,5.54,5.54,0,0,1,.56-.11.84.84,0,0,1,1,.39c.46.76.91,1.53,1.36,2.29v.58c-.41.46-.83.92-1.22,1.4a.76.76,0,0,0-.17.46c0,.68,0,1.36,0,2.05a.75.75,0,0,0,.16.45c.4.48.82.93,1.23,1.4Zm-4.29.65,1,.22c1,.22,1,.21,1.46-.72a.41.41,0,0,0-.08-.58,6.49,6.49,0,0,1-.86-1,1.59,1.59,0,0,1-.22-.83c0-.52.23-1.09.08-1.56a2.47,2.47,0,0,1,1-2.73c.09-.08.22-.24.2-.29a4.77,4.77,0,0,0-.61-1.08c-.08-.1-.4,0-.61,0a6.92,6.92,0,0,0-.88.19,1.17,1.17,0,0,1-1.11-.27,6.13,6.13,0,0,0-1.58-1,1.86,1.86,0,0,1-1.29-1.43c-.27-1.07-.31-1.06-1.42-1a.56.56,0,0,0-.38.3c-.16.39-.22.84-.41,1.21a1.9,1.9,0,0,1-.66.69c-.68.43-1.41.8-2.09,1.23a1,1,0,0,1-.93.23c-.21-.07-.43-.09-.65-.14-1-.22-1-.22-1.45.67a.48.48,0,0,0,.1.67,6.06,6.06,0,0,1,.83.92,1.58,1.58,0,0,1,.21.83,6.52,6.52,0,0,0-.08,1.51,2.51,2.51,0,0,1-1,2.8c-.08.07-.19.25-.16.31a4,4,0,0,0,.64,1.06c.11.11.49,0,.75-.07a6.24,6.24,0,0,0,.75-.16,1,1,0,0,1,1,.23,6.81,6.81,0,0,0,1.66,1A1.64,1.64,0,0,1,39.68,47a3,3,0,0,0,.1.32c.23.71.23.71,1,.71H41a.51.51,0,0,0,.6-.46,5,5,0,0,1,.37-1.13,1.62,1.62,0,0,1,.6-.62c.71-.44,1.44-.85,2.17-1.27C44.9,44.44,45.09,44.35,45.25,44.27Z"/><path class="cls-1" d="M44.55,40.17a3.84,3.84,0,1,1-3.8-3.85A3.83,3.83,0,0,1,44.55,40.17Zm-3.82-2.31A2.3,2.3,0,1,0,43,40.15,2.33,2.33,0,0,0,40.73,37.86Z"/></svg>