<svg xmlns="http://www.w3.org/2000/svg" width="44.06" height="34.495" viewBox="0 0 44.06 34.495">
  <path id="Path_644" data-name="Path 644" d="M-325.744,429.9h-6.632v-1.661a2.012,2.012,0,0,0-.717-1.517,2.45,2.45,0,0,0-1.6-.58,2.5,2.5,0,0,0-1.189.3,2.348,2.348,0,0,0-.878-.879,2.35,2.35,0,0,0-1.2-.307,2.524,2.524,0,0,0-.978.2,2.25,2.25,0,0,0-.805-1.344,2.249,2.249,0,0,0-1.487-.491,2.452,2.452,0,0,0-1.6.579,2.02,2.02,0,0,0-.687,1.255,2.522,2.522,0,0,0-.978-.2,2.453,2.453,0,0,0-1.605.58,2,2,0,0,0-.717,1.518v.743h-1.349a2.447,2.447,0,0,0-1.535.521,1.846,1.846,0,0,0-.7,1.283h-12.3v5.522h5.522v0h6.764v2.89a2.821,2.821,0,0,0,.5,1.541,2.822,2.822,0,0,0,1.266,1.011l.879.391a1.467,1.467,0,0,1,.669.506,1.466,1.466,0,0,1,.283.791v.9h-.946V458.12h15.273V443.451h-.946v-1.174h0a2.662,2.662,0,0,1,.429-1.431,4.031,4.031,0,0,0,.646-2.171v-3.249h6.762l6.959-2.726-1.519-.663a35.157,35.157,0,0,0-5.57-2.132Zm-32.825,4.151h-2.774v-2.776h2.774Zm1.375,0v-2.775h6.764v2.775Zm23.316,22.695h-12.528v-8.861h12.528Zm0-10.234h-12.528v-1.689h12.528Zm.128-7.839a2.661,2.661,0,0,1-.429,1.432,4.03,4.03,0,0,0-.646,2.171v1.174H-345.46v-.9h0a2.814,2.814,0,0,0-.5-1.541A2.819,2.819,0,0,0-347.227,440l-.878-.391h0a1.468,1.468,0,0,1-.67-.507,1.469,1.469,0,0,1-.283-.791v-8.27a.485.485,0,0,1,.2-.356,1.084,1.084,0,0,1,.673-.216h1.35v6.434h1.373v-8.552h0a.648.648,0,0,1,.241-.478,1.14,1.14,0,0,1,1.416,0,.645.645,0,0,1,.241.477v5.54h1.373v-7.173h0a.65.65,0,0,1,.241-.477,1.089,1.089,0,0,1,.708-.247.872.872,0,0,1,.949.724V432.9h1.373v-5.54a.648.648,0,0,1,.241-.478,1.141,1.141,0,0,1,1.416,0,.649.649,0,0,1,.241.478v5.54h1.373v-4.654a.649.649,0,0,1,.241-.478,1.14,1.14,0,0,1,1.416,0,.65.65,0,0,1,.241.477Zm1.373-4.622v-2.775l5.945,0v2.777Zm7.318-.32v-2.225c.675.248,1.708.666,2.8,1.128Z" transform="translate(362.717 -423.625)" fill="#1e4454"/>
</svg>
