<svg id="Layer_1" data-name="Layer 1" xmlns="http://www.w3.org/2000/svg" viewBox="0 0 50 50"><defs><style>.cls-1{fill:none;stroke:#231f20;stroke-miterlimit:10;stroke-width:0.5px;}</style></defs><path class="cls-1" d="M49.1,29.82c-.47,7-6.41,14-13.69,15.93a18.83,18.83,0,0,1-17.9-4c-.28-.24-.53-.49-.8-.75s-.58-.79-.12-1.24.8-.26,1.16.09c.12.11.23.23.35.33,5.23,4.62,11.22,6,17.8,3.7s10.42-7.12,11.64-13.94a15.59,15.59,0,0,0-1-8.92c-.46-1.09-.31-1.72.74-2.26C47.29,18.76,50.09,22.87,49.1,29.82Z"/><path class="cls-1" d="M29.55,33.46a2,2,0,0,1-1.3-.59c-2.06-1.76-4.14-3.5-6.2-5.26-1.06-.9-1.22-1.8-.52-2.59s1.55-.77,2.64.16c1.52,1.27,3.07,2.51,4.53,3.85.63.56.95.54,1.53-.07,4.3-4.51,8.64-9,13-13.46a5.67,5.67,0,0,1,.89-.81,1.43,1.43,0,0,1,1.89.16,1.45,1.45,0,0,1,.38,1.86,3,3,0,0,1-.51.67L31.18,32.58A2.09,2.09,0,0,1,29.55,33.46Z"/><path class="cls-1" d="M30.12,3.5c1.09,0,2.19,0,3.28,0,.56,0,1,.15,1,.76S34,5,33.41,5h-.48c-2.05,0-2,0-2.06,2,0,.94.32,1.14,1.14,1.21a18.18,18.18,0,0,1,10.15,4.14c.27.22,1.07.36.44,1-.42.44-.66.86-1.42.27C33.83,8,24.5,8.48,17.69,14.89c-.44.42-.89,1-1.51.35s0-1,.37-1.43A18.83,18.83,0,0,1,27.76,8.33c.53-.06,1.39.11,1.52-.4a8.33,8.33,0,0,0,0-2.64c0-.39-.45-.25-.7-.26-.65,0-1.3,0-1.94,0A.68.68,0,0,1,26,4.23a.68.68,0,0,1,.77-.73Z"/><path class="cls-1" d="M44.9,21.2a10,10,0,0,1,1.18,4.14c.59,6.5-1.65,11.82-7.17,15.41s-11.25,3.52-17,.33c-.18-.1-.34-.23-.51-.33-.53-.29-.87-.71-.49-1.27s.86-.35,1.3-.06a15.17,15.17,0,0,0,5.11,2.1A14.44,14.44,0,0,0,44.51,25.76a7.94,7.94,0,0,0-.43-2.25C43.59,22.43,44,21.79,44.9,21.2Z"/><path class="cls-1" d="M40.63,15.28a1,1,0,0,1-1.54.73c-5.45-3.93-11.26-4.11-17-.52-.48.29-1,.59-1.36,0s0-.94.46-1.31c5.32-4,14.15-3.64,19.05.71Z"/><path class="cls-1" d="M12.48,19.8c2,0,4.05,0,6.07,0,.62,0,1.23.07,1.25.8s-.59.85-1.21.85H6.33c-.6,0-1.23,0-1.25-.8s.6-.84,1.21-.83Z"/><path class="cls-1" d="M8.1,27.79H1.91c-.57,0-1.21.06-1.22-.78s.62-.82,1.2-.83H14.14c.6,0,1.23.05,1.23.81s-.59.81-1.21.81C12.14,27.78,10.12,27.79,8.1,27.79Z"/><path class="cls-1" d="M12.34,32.63h6.31c.56,0,1.13,0,1.15.74s-.52.79-1.1.79H6.22c-.54,0-1.13,0-1.14-.74s.63-.78,1.21-.78C8.31,32.62,10.32,32.63,12.34,32.63Z"/></svg>