<svg xmlns="http://www.w3.org/2000/svg" width="50.603" height="36.218" viewBox="0 0 50.603 36.218">
  <g id="Group_2656" data-name="Group 2656" transform="translate(-5234.41 -329.324)">
    <path id="Path_18973" data-name="Path 18973" d="M5288.129,364.2c-.418.387-.843,1.054-1.428,1.254-.843.289-1.486-.254-1.8-1.1q-1.329-3.547-2.668-7.09c-1.036-2.741-1.038-2.741-3.936-2.741-3.44,0-6.882.03-10.322-.02a1.349,1.349,0,0,0-1.514,1.073c-1.03,2.885-2.122,5.748-3.213,8.61-.456,1.2-1.4,1.67-2.3,1.163-.988-.555-1-1.383-.629-2.358q3.447-9.121,6.854-18.257,2.573-6.863,5.137-13.728c.317-.851.68-1.663,1.755-1.647,1,.016,1.371.764,1.678,1.582q5.966,15.939,11.944,31.872C5287.813,363.155,5287.911,363.513,5288.129,364.2Zm-8.122-12.868c-1.99-5.3-3.922-10.437-5.976-15.906l-5.958,15.906Z" transform="translate(-3.116 -0.004)" fill="#ef323c"/>
    <path id="Path_18974" data-name="Path 18974" d="M5234.41,365.841c.211-.663.309-1.022.438-1.367q3.746-10,7.5-20c.312-.833.621-1.676,1.726-1.678s1.42.8,1.737,1.653q3.716,9.947,7.454,19.886c.087.232.18.463.25.7a1.477,1.477,0,0,1-.939,2.006,1.453,1.453,0,0,1-2-.946c-.643-1.57-1.245-3.16-1.787-4.767a1.091,1.091,0,0,0-1.258-.858c-2.278.041-4.56.05-6.838,0a1.174,1.174,0,0,0-1.333.947c-.534,1.566-1.136,3.111-1.742,4.651-.328.831-1,1.344-1.854,1C5235.2,366.837,5234.805,366.216,5234.41,365.841Zm12.821-8.6-3.148-8.39-3.132,8.39Z" transform="translate(0 -1.634)" fill="#ef323c"/>
    <path id="Path_18975" data-name="Path 18975" d="M5244.617,337.207c-1.451,0-2.9.032-4.35-.011-1.077-.032-1.385-.565-.791-1.427q2.008-2.915,4.129-5.753c.684-.916,1.462-.924,2.135-.021q2.117,2.838,4.126,5.755c.594.863.28,1.42-.776,1.45-1.49.042-2.982.011-4.474.011Z" transform="translate(-0.579 0)" fill="#ef323c"/>
  </g>
</svg>
