<svg xmlns="http://www.w3.org/2000/svg" width="41.955" height="56.435" viewBox="0 0 41.955 56.435">
  <g id="location-pin" transform="translate(-5.627 -1.238)">
    <path id="Path_18994" data-name="Path 18994" d="M21.074,8.971a7.72,7.72,0,1,0,7.72,7.72A7.72,7.72,0,0,0,21.074,8.971Zm0,11.58a3.86,3.86,0,1,1,3.86-3.86,3.86,3.86,0,0,1-3.86,3.86Z" transform="translate(5.529 5.533)" fill="#d40c0e"/>
    <path id="Path_18995" data-name="Path 18995" d="M41.436,7.378A20.979,20.979,0,0,0,9.025,33.662L23.609,56.051a3.573,3.573,0,0,0,5.987,0L44.181,33.662A20.979,20.979,0,0,0,41.438,7.378Zm-.491,24.178L26.6,53.576,12.259,31.556a17.118,17.118,0,1,1,28.686,0Z" transform="translate(0 0)" fill="#d40c0e"/>
  </g>
</svg>
