<svg id="Layer_1" data-name="Layer 1" xmlns="http://www.w3.org/2000/svg" viewBox="0 0 50 50"><defs><style>.cls-1{fill:none;stroke:#231f20;stroke-miterlimit:10;stroke-width:0.5px;}</style></defs><path class="cls-1" d="M25,3.61H46.25c2.16,0,3.2,1.05,3.2,3.22V37.88c0,2.19-1,3.23-3.25,3.24-1.46,0-2.92,0-4.37,0a1.37,1.37,0,0,0-.91.38,14.17,14.17,0,0,1-21.3.07,1.55,1.55,0,0,0-1-.45q-7.32,0-14.63,0c-2.37,0-3.42-1-3.42-3.38V6.85c0-2.18,1.06-3.24,3.26-3.24Zm23.33,7.56H1.65V38c0,1.45.63,2.07,2.11,2.07H17.6c.22,0,.45,0,.79,0A14.19,14.19,0,0,1,16.3,29.91a13.73,13.73,0,0,1,5.2-8.79,14.06,14.06,0,0,1,16.77-.53,13.52,13.52,0,0,1,5.28,6.88,14.24,14.24,0,0,1-1.47,12.58H46c1.84,0,2.36-.51,2.36-2.33V11.17ZM30.22,45.26a13.05,13.05,0,0,0,.07-26.1,13.05,13.05,0,1,0-.07,26.1ZM1.66,10.06H24.4c7.69,0,15.38,0,23.08,0,.75,0,.94-.22.89-.92,0-.86,0-1.72,0-2.58A1.69,1.69,0,0,0,46.51,4.7H3.86a5.77,5.77,0,0,0-.72,0A1.61,1.61,0,0,0,1.67,6.23C1.63,7.47,1.66,8.71,1.66,10.06Z"/><path class="cls-1" d="M48.36,11.17V37.72c0,1.82-.52,2.33-2.36,2.33H42.08a14.24,14.24,0,0,0,1.47-12.58,13.52,13.52,0,0,0-5.28-6.88,14.06,14.06,0,0,0-16.77.53,13.73,13.73,0,0,0-5.2,8.79A14.19,14.19,0,0,0,18.39,40c-.34,0-.57,0-.79,0H3.76C2.28,40,1.65,39.42,1.65,38V11.17Z"/><path class="cls-1" d="M30.22,45.26A13.05,13.05,0,1,1,43.29,32.41,13.07,13.07,0,0,1,30.22,45.26ZM40.56,32.13A9.81,9.81,0,0,0,39.17,27c-.5-.87-.74-.91-1.44-.21L24.88,39.67c-.78.78-.75,1,.2,1.52A10.34,10.34,0,0,0,40.56,32.13ZM19.9,32.8a10.13,10.13,0,0,0,1.44,4.71c.47.79.74.82,1.36.2L35.62,24.78c.73-.73.7-1-.19-1.5C28.59,19.31,19.93,24.28,19.9,32.8Z"/><path class="cls-1" d="M1.66,10.06c0-1.35,0-2.59,0-3.83A1.61,1.61,0,0,1,3.14,4.72a5.77,5.77,0,0,1,.72,0H46.51a1.69,1.69,0,0,1,1.85,1.88c0,.86,0,1.72,0,2.58.05.7-.14.92-.89.92-7.7,0-15.39,0-23.08,0H1.66ZM7,7.38A1.72,1.72,0,0,0,5.3,5.68,1.74,1.74,0,0,0,3.57,7.41,1.68,1.68,0,0,0,5.32,9.08,1.66,1.66,0,0,0,7,7.38Zm5,0a1.71,1.71,0,0,0-1.7-1.73,1.76,1.76,0,0,0-1.69,1.7,1.69,1.69,0,0,0,1.73,1.7A1.63,1.63,0,0,0,12,7.41Zm5.06,0a1.71,1.71,0,0,0-1.69-1.69,1.69,1.69,0,0,0-1.67,1.7,1.68,1.68,0,1,0,3.36,0Z"/><path class="cls-1" d="M40.56,32.13a10.34,10.34,0,0,1-15.48,9.06c-.95-.55-1-.74-.2-1.52L37.73,26.8c.7-.7.94-.66,1.44.21A9.81,9.81,0,0,1,40.56,32.13ZM25.87,40.31a9.11,9.11,0,0,0,11.38-2c3-3.49,2.58-8.37,1-10.37Z"/><path class="cls-1" d="M19.9,32.8c0-8.52,8.69-13.49,15.53-9.52.89.52.92.77.19,1.5L22.7,37.71c-.62.62-.89.59-1.36-.2A10.13,10.13,0,0,1,19.9,32.8Zm14.72-8.66a9.19,9.19,0,0,0-11.54,2.18c-2.32,2.71-2.81,8-.9,10.24Z"/><path class="cls-1" d="M25.87,40.31,38.3,27.9c1.53,2,2,6.88-1,10.37A9.11,9.11,0,0,1,25.87,40.31Z"/><path class="cls-1" d="M34.62,24.14,22.18,36.56c-1.91-2.21-1.42-7.53.9-10.24A9.19,9.19,0,0,1,34.62,24.14Z"/><circle class="cls-1" cx="5.27" cy="7.38" r="1.68"/><circle class="cls-1" cx="10.33" cy="7.38" r="1.68"/><circle class="cls-1" cx="15.39" cy="7.38" r="1.68"/></svg>