<svg xmlns="http://www.w3.org/2000/svg" width="26.435" height="26.436" viewBox="0 0 26.435 26.436"><path d="M-1954.5,674.706q0,4.414,0,8.828a2.65,2.65,0,0,1-2.833,2.833q-7.087,0-14.173,0a9.354,9.354,0,0,1-9.195-7.336,9.353,9.353,0,0,1,5.252-10.548.424.424,0,0,0,.291-.468c-.009-1.762-.006-3.523,0-5.285a2.642,2.642,0,0,1,2.785-2.79q6.081,0,12.161,0a1.082,1.082,0,0,1,.827.338q2.275,2.29,4.565,4.565a1.051,1.051,0,0,1,.329.8Q-1954.5,670.172-1954.5,674.706Zm-12.045,10.219h9.25a1.22,1.22,0,0,0,1.353-1.355q0-8.527,0-17.053v-.331c-1.053,0-2.063,0-3.072,0a1.683,1.683,0,0,1-1.732-1.722c0-.641,0-1.281,0-1.922v-1.16h-11.641a1.214,1.214,0,0,0-1.333,1.344q0,2.417,0,4.834v.326a9.212,9.212,0,0,1,6.463.794,9.226,9.226,0,0,1,4.391,4.821A9.411,9.411,0,0,1-1966.542,684.926Zm-5.02,0a7.942,7.942,0,0,0,7.935-7.923,7.939,7.939,0,0,0-7.923-7.934,7.939,7.939,0,0,0-7.934,7.922A7.94,7.94,0,0,0-1971.562,684.926Zm12.26-22.429c0,.64-.01,1.3.011,1.957,0,.1.147.272.23.275.676.023,1.352.013,2.008.013Z" transform="translate(1980.927 -659.934)"/><path d="M-1907.285,911.023c-.007.114-.009.2-.019.287a.731.731,0,0,1-.733.657.705.705,0,0,1-.694-.66q-.029-1.02,0-2.041a.686.686,0,0,1,.7-.655q.975-.018,1.951,0a.72.72,0,0,1,.7.595.715.715,0,0,1-.434.776l-.164.08a3.951,3.951,0,0,0,4.416-.491,3.953,3.953,0,0,0,1.46-3.01.768.768,0,0,1,.784-.829c.395,0,.688.379.67.878a5.4,5.4,0,0,1-1.659,3.776,5.486,5.486,0,0,1-6.77.748C-1907.142,911.1-1907.2,911.069-1907.285,911.023Z" transform="translate(1913.547 -889.38)"/><path d="M-1915.781,835.226a4.054,4.054,0,0,0-5.827,2.953c-.03.207-.047.417-.058.627a.74.74,0,0,1-.72.766.736.736,0,0,1-.723-.791,5.534,5.534,0,0,1,4.133-5.274,5.412,5.412,0,0,1,4.294.658l.208.126c.007-.116.009-.2.017-.284a.73.73,0,0,1,.712-.678.707.707,0,0,1,.717.668q.029,1,0,2.011a.7.7,0,0,1-.736.679c-.61.009-1.221.006-1.832,0a.742.742,0,0,1-.773-.578.715.715,0,0,1,.493-.82A.755.755,0,0,0-1915.781,835.226Z" transform="translate(1926.955 -821.79)"/></svg>