<svg xmlns="http://www.w3.org/2000/svg" width="44.298" height="44.282" viewBox="0 0 44.298 44.282">
  <path id="phone" d="M42.553,47.657h-.289C8.8,45.732,4.045,17.494,3.381,8.877a5.109,5.109,0,0,1,4.7-5.5h9.385A3.406,3.406,0,0,1,20.634,5.52l2.587,6.37a3.406,3.406,0,0,1-.749,3.679l-3.627,3.662A15.958,15.958,0,0,0,31.754,32.175l3.7-3.662a3.406,3.406,0,0,1,3.7-.7l6.42,2.572a3.406,3.406,0,0,1,2.1,3.167v8.993a5.109,5.109,0,0,1-5.109,5.109ZM8.49,6.781a1.7,1.7,0,0,0-1.7,1.7v.136C7.571,18.7,12.594,42.547,42.451,44.25a1.7,1.7,0,0,0,1.806-1.6v-9.1l-6.42-2.572-4.888,4.854-.818-.1C17.314,33.877,15.3,19.059,15.3,18.906l-.1-.818L20.038,13.2,17.482,6.781Z" transform="translate(-3.364 -3.375)" fill="#d40c0e"/>
</svg>
