<svg id="Layer_1" data-name="Layer 1" xmlns="http://www.w3.org/2000/svg" viewBox="0 0 50 50"><defs><style>.cls-1,.cls-2{fill:none;stroke:#231f20;stroke-miterlimit:10;}.cls-1{stroke-width:0.5px;}.cls-2{stroke-width:0.25px;}</style></defs><path class="cls-1" d="M21.91,20l-1.52-.21a1.27,1.27,0,0,1-1.14-.87,1.25,1.25,0,0,1,.4-1.41l.18-.19c-.89-.15-1.75-.28-2.6-.45A15.54,15.54,0,0,1,14.09,16a3.37,3.37,0,0,1-1-.58,1.11,1.11,0,0,1,.08-1.9,6.56,6.56,0,0,1,2.64-.95A37.55,37.55,0,0,1,20.17,12a.59.59,0,0,1,.71.55c0,.39-.21.63-.68.66-1,.07-1.95.16-2.92.32a10.85,10.85,0,0,0-3.41.91,1.34,1.34,0,0,0,.73.46A22.53,22.53,0,0,0,19.26,16a5.06,5.06,0,0,1,.87.12,1.35,1.35,0,0,0,1.52-.54c.88-.91.9-.89.68-2.13-.16-.88-.31-1.77-.45-2.65a1.26,1.26,0,0,1,.52-1.38,1.25,1.25,0,0,1,1.42,0c1,.55,2.08,1.08,3.11,1.64a.68.68,0,0,0,.76,0c1-.57,2.1-1.11,3.15-1.67a1.22,1.22,0,0,1,1.42,0,1.26,1.26,0,0,1,.5,1.38c-.23,1.2-.41,2.41-.65,3.61a.53.53,0,0,0,.17.55,9.54,9.54,0,0,1,1,1,1.73,1.73,0,0,0,1.65.67,33.7,33.7,0,0,0,6-.89A3.38,3.38,0,0,0,42,15.22a7.17,7.17,0,0,0-2.48-.71,18.66,18.66,0,0,0-4.35-.28.59.59,0,0,1-.72-.55.61.61,0,0,1,.65-.64,19.84,19.84,0,0,1,6.68.77,3,3,0,0,1,1,.47,1.1,1.1,0,0,1,0,1.86,5.39,5.39,0,0,1-2.25.9,35.83,35.83,0,0,1-5.28.7c-.07.17.06.28.09.42a1.27,1.27,0,0,1-1.07,1.53c-1.24.2-2.48.39-3.73.56a.57.57,0,0,0-.49.38l-1.59,3.19a1.29,1.29,0,0,1-2.45,0c-.17-.38-.37-.75-.58-1.2l-2,2.67L6.8,48A2.46,2.46,0,0,1,4.26,49.1a2.35,2.35,0,0,1-2-1.88,2.47,2.47,0,0,1,.51-2.15l8.4-11L21.68,20.28A3.54,3.54,0,0,0,21.91,20Z"/><path class="cls-1" d="M45.13,22.93a3.17,3.17,0,0,0-1.79.71.73.73,0,0,1-.76.19c-.43-.17-.55-.57-.29-1a3.14,3.14,0,0,0,.37-2.44,3.23,3.23,0,0,0-.52-1,.62.62,0,0,1,.81-.92,2.89,2.89,0,0,0,3.42-.26.68.68,0,0,1,1,.93,2.7,2.7,0,0,0,.21,3.43.61.61,0,0,1,0,.88.62.62,0,0,1-.89.05A3,3,0,0,0,45.13,22.93Z"/><path class="cls-1" d="M6.89,22.83a2.72,2.72,0,0,0-1.67.61c-.35.26-.7.48-1.09.14s-.2-.69,0-1.06a2.85,2.85,0,0,0-.18-3.22.63.63,0,0,1,0-.84.6.6,0,0,1,.84-.13,2.91,2.91,0,0,0,3.38-.26,1.47,1.47,0,0,1,.39-.21.66.66,0,0,1,.75.85,2.26,2.26,0,0,1-.22.44,2.6,2.6,0,0,0,.24,3.18l.11.16a.62.62,0,0,1-.82.91A3,3,0,0,0,6.89,22.83Z"/><path class="cls-2" d="M30.2,36.38a.47.47,0,0,1,.35.11c.3.26.62.52.91.81a.53.53,0,0,1,0,.78.54.54,0,0,1-.82.09,11.69,11.69,0,0,1-.91-.81.58.58,0,0,1,.44-1Z"/><path class="cls-2" d="M29.51,35.41a.43.43,0,0,1,.1-.29c.28-.32.55-.65.85-.95a.59.59,0,0,1,.87.77,8.39,8.39,0,0,1-.84,1,.5.5,0,0,1-.63.09A.58.58,0,0,1,29.51,35.41Z"/><path class="cls-2" d="M19.61,3.32a.56.56,0,0,1,.61.28.51.51,0,0,1,0,.6,11.62,11.62,0,0,1-.87,1,.54.54,0,0,1-.72,0,.5.5,0,0,1-.2-.65,3.89,3.89,0,0,1,1.05-1.2A.25.25,0,0,1,19.61,3.32Z"/><path class="cls-2" d="M27.79,34.21a.51.51,0,0,1,.24.08,9,9,0,0,1,1,.87.52.52,0,0,1,0,.78.53.53,0,0,1-.75.08,11.31,11.31,0,0,1-1-.87.54.54,0,0,1-.06-.64A.55.55,0,0,1,27.79,34.21Z"/><path class="cls-2" d="M27.35,37.87a.48.48,0,0,1,.15-.39c.23-.27.47-.55.72-.81a.57.57,0,0,1,.83-.07.55.55,0,0,1,.08.83c-.25.31-.53.62-.81.91a.53.53,0,0,1-.64.09A.54.54,0,0,1,27.35,37.87Z"/><path class="cls-2" d="M21.83.86a.58.58,0,0,1,.53.91,8.39,8.39,0,0,1-.84,1,.54.54,0,0,1-.72,0,.52.52,0,0,1-.21-.69,4,4,0,0,1,1-1.16A.52.52,0,0,1,21.83.86Z"/><path class="cls-2" d="M20.19,2.33a.59.59,0,0,1-.88.54,7.37,7.37,0,0,1-1-.91.5.5,0,0,1,0-.67A.52.52,0,0,1,19,1.07a3.67,3.67,0,0,1,1.19,1.06C20.19,2.19,20.18,2.29,20.19,2.33Z"/><path class="cls-2" d="M22.65,4.5a.58.58,0,0,1-.89.54,7.35,7.35,0,0,1-1-.87.53.53,0,0,1,0-.68.5.5,0,0,1,.63-.26A3.63,3.63,0,0,1,22.61,4.3S22.64,4.45,22.65,4.5Z"/><path class="cls-1" d="M11.35,37.81c-.3,0-.59-.09-.88-.11s-.47-.12-.2-.48q6.4-8.37,12.8-16.78a1,1,0,0,1,1.35.11,1.14,1.14,0,0,1-.11,1.53c-3.71,5-7.38,10-11.06,15.07C12.76,37.82,12,37.73,11.35,37.81Z"/><path class="cls-1" d="M32.33,16.65a88.42,88.42,0,0,1-9.77-.3c.24-.24.42-.45.63-.64a1.5,1.5,0,0,0,.48-1.5c-.24-1.26-.42-2.53-.62-3.81.2-.06.32.08.45.15,1,.53,2.05,1.06,3.07,1.61a1.41,1.41,0,0,0,1.48,0c1-.56,2.07-1.09,3.1-1.64l.46-.22c-.16.95-.31,1.81-.46,2.67-.08.43-.17.86-.25,1.3a1.43,1.43,0,0,0,.47,1.41C31.69,16,32,16.29,32.33,16.65Z"/><path class="cls-1" d="M34.14,18.49c-1.36.21-2.67.42-4,.61a1.38,1.38,0,0,0-1.12.83C28.51,21,28,22,27.46,23.07c-.07.15-.15.29-.25.49-.59-1.21-1.17-2.35-1.7-3.51a1.5,1.5,0,0,0-1.29-1c-1.28-.16-2.55-.37-3.89-.57.36-.36.67-.66,1-1a.37.37,0,0,1,.36-.07,81.43,81.43,0,0,0,11.15.36h.32A1.13,1.13,0,0,1,34.14,18.49Z"/><path class="cls-1" d="M8.34,43.85c-.93,1.26-1.81,2.51-2.75,3.71A1.18,1.18,0,0,1,4,47.69a1.19,1.19,0,0,1-.38-1.6c.62-.91,1.32-1.77,2-2.66.12-.16.26-.1.4,0A10,10,0,0,0,8.34,43.85Z"/><path class="cls-1" d="M6.44,42.27l2.61-3.43c.11-.14.19-.24.4-.17a7.35,7.35,0,0,0,2.42.35L9.34,42.47a.5.5,0,0,1-.44.17A7.11,7.11,0,0,1,6.44,42.27Z"/><path class="cls-1" d="M43.92,22a5,5,0,0,0-.09-1.89,4.73,4.73,0,0,0,1.89-.21,4,4,0,0,0,.09,1.89A4.56,4.56,0,0,0,43.92,22Z"/><path class="cls-1" d="M5.63,21.84a3.75,3.75,0,0,0,0-1.91,4,4,0,0,0,1.85-.17,5,5,0,0,0,.06,1.69c.07.24-.1.22-.25.2A3.67,3.67,0,0,0,5.63,21.84Z"/><path class="cls-1" d="M20.42,16.16a17.34,17.34,0,0,0,2.52.23"/><line class="cls-1" x1="19.7" y1="17.27" x2="22.09" y2="17.51"/><line class="cls-1" x1="32.16" y1="16.66" x2="35.09" y2="16.55"/><line class="cls-1" x1="35.73" y1="17.7" x2="33.13" y2="17.83"/></svg>