<svg id="Group_3582" data-name="Group 3582" xmlns="http://www.w3.org/2000/svg" width="42.325" height="34.945" viewBox="0 0 42.325 34.945">
  <path id="Path_24637" data-name="Path 24637" d="M-1603.427,700.141c-.14.881-.236,1.772-.426,2.642a17.466,17.466,0,0,1-14.294,13.459,17.432,17.432,0,0,1-9.361-1.076.844.844,0,0,1-.587-1.1.839.839,0,0,1,1.2-.433,15.005,15.005,0,0,0,6.618,1.153,15.307,15.307,0,0,0,13.413-8.541,15.785,15.785,0,0,0-10.517-22.688A15.829,15.829,0,0,0-1636.5,696.4c-.128.8-.17,1.615-.224,2.424-.041.615-.325.979-.826.981s-.834-.4-.832-1.017a17.507,17.507,0,0,1,11.028-16.044,17.446,17.446,0,0,1,23.282,11.6c.281,1.015.385,2.079.572,3.121.022.121.048.24.073.36Z" transform="translate(1645.751 -681.516)" fill="#1e4454"/>
  <path id="Path_24638" data-name="Path 24638" d="M-1705.25,972.49a1.072,1.072,0,0,1,1.076-.59c4.142.014,8.284.008,12.426.008.1,0,.193,0,.289,0a.8.8,0,0,1,.766.772.805.805,0,0,1-.675.856,2.515,2.515,0,0,1-.453.02c-4.1,0-8.2-.006-12.3.009a1.145,1.145,0,0,1-1.128-.584Z" transform="translate(1705.25 -939.894)" fill="#1e4454"/>
  <path id="Path_24639" data-name="Path 24639" d="M-1547.376,771.528a3.3,3.3,0,0,1,.567.4q2.96,2.937,5.894,5.9a.714.714,0,0,0,.823.205c1.109-.318,2.227-.6,3.343-.9.591-.157,1.043.046,1.172.519.138.508-.136.917-.742,1.08-1.393.375-2.789.736-4.18,1.118a.922.922,0,0,1-.975-.261q-3.3-3.3-6.6-6.6a.813.813,0,0,1-.224-.974C-1548.152,771.7-1547.9,771.533-1547.376,771.528Z" transform="translate(1565.666 -761.607)" fill="#1e4454"/>
  <path id="Path_24640" data-name="Path 24640" d="M-1661.193,921.928q-2.065,0-4.131,0c-.622,0-.976-.3-.983-.809s.356-.841.958-.842q4.194-.005,8.387,0c.373,0,.728.114.825.484a1.116,1.116,0,0,1-.1.834,1.036,1.036,0,0,1-.743.321C-1658.383,921.944-1659.788,921.928-1661.193,921.928Z" transform="translate(1670.6 -893.958)" fill="#1e4454"/>
  <path id="Path_24641" data-name="Path 24641" d="M-1632.335,871.883c-.826,0-1.652,0-2.478,0-.611,0-.969-.318-.963-.829a.829.829,0,0,1,.941-.818q2.519-.013,5.039,0a.852.852,0,0,1,.9.632.788.788,0,0,1-.408.907,1.414,1.414,0,0,1-.558.105C-1630.683,871.889-1631.509,871.883-1632.335,871.883Z" transform="translate(1643.434 -849.427)" fill="#1e4454"/>
  <path id="Path_24642" data-name="Path 24642" d="M-1429.031,931.534a2.2,2.2,0,0,1,.567.451,13.24,13.24,0,0,1,.813,1.388.815.815,0,0,1-.284,1.147.819.819,0,0,1-1.14-.322c-.287-.469-.569-.943-.822-1.432C-1430.19,932.2-1429.813,931.554-1429.031,931.534Z" transform="translate(1460.334 -903.977)" fill="#1e4454"/>
  <path id="Path_24643" data-name="Path 24643" d="M-1429.116,723.416c-.712,0-1.14-.607-.886-1.131a14.846,14.846,0,0,1,.946-1.641.78.78,0,0,1,1.069-.2.771.771,0,0,1,.32,1,15.945,15.945,0,0,1-.952,1.637C-1428.74,723.269-1429.01,723.35-1429.116,723.416Z" transform="translate(1460.405 -716.043)" fill="#1e4454"/>
  <path id="Path_24644" data-name="Path 24644" d="M-1598.61,767.832a1.143,1.143,0,0,1,.285.087c.505.28,1.013.556,1.5.863a.813.813,0,0,1,.277,1.119.81.81,0,0,1-1.114.287q-.745-.4-1.464-.846a.776.776,0,0,1-.361-.927A.825.825,0,0,1-1598.61,767.832Z" transform="translate(1611.176 -758.318)" fill="#1e4454"/>
  <path id="Path_24645" data-name="Path 24645" d="M-1615.151,834.1c-.261,0-.523.01-.783,0a.817.817,0,0,1-.837-.833.805.805,0,0,1,.815-.811c.563-.016,1.128-.018,1.691,0a.814.814,0,0,1,.8.829.826.826,0,0,1-.819.813C-1614.573,834.107-1614.863,834.095-1615.151,834.1Z" transform="translate(1626.524 -815.802)" fill="#1e4454"/>
  <path id="Path_24646" data-name="Path 24646" d="M-1371.206,832.481c.289,0,.578-.015.866,0a.8.8,0,0,1,.783.8.792.792,0,0,1-.778.841c-.577.022-1.155.021-1.731,0a.825.825,0,0,1-.8-.837.835.835,0,0,1,.791-.8C-1371.784,832.467-1371.495,832.481-1371.206,832.481Z" transform="translate(1409.499 -815.836)" fill="#1e4454"/>
  <path id="Path_24647" data-name="Path 24647" d="M-1549.618,722.6a.785.785,0,0,1-.568.767.711.711,0,0,1-.879-.266,17.3,17.3,0,0,1-.962-1.675.759.759,0,0,1,.286-.945.74.74,0,0,1,.983.047c.416.605.756,1.263,1.124,1.9A.452.452,0,0,1-1549.618,722.6Z" transform="translate(1568.977 -716.042)" fill="#1e4454"/>
  <path id="Path_24648" data-name="Path 24648" d="M-1388.823,769.361a2.512,2.512,0,0,1,.473-.618,15.18,15.18,0,0,1,1.459-.852.816.816,0,0,1,1.117.29.8.8,0,0,1-.282,1.117c-.488.308-.985.606-1.5.865A.893.893,0,0,1-1388.823,769.361Z" transform="translate(1423.7 -758.272)" fill="#1e4454"/>
  <path id="Path_24649" data-name="Path 24649" d="M-1487.225,704.582c0-.288-.017-.578,0-.864a.808.808,0,0,1,.782-.756.761.761,0,0,1,.814.665,14.492,14.492,0,0,1,0,1.971.747.747,0,0,1-.847.665.793.793,0,0,1-.755-.733,1.154,1.154,0,0,1-.009-.123c0-.275,0-.549,0-.824Z" transform="translate(1511.263 -700.597)" fill="#1e4454"/>
  <path id="Path_24650" data-name="Path 24650" d="M-1386.038,892.263a1.72,1.72,0,0,1-.339-.121c-.456-.253-.909-.513-1.355-.783a.813.813,0,0,1-.361-1.126.815.815,0,0,1,1.169-.305c.482.262.96.535,1.425.827a.8.8,0,0,1,.347.968A.851.851,0,0,1-1386.038,892.263Z" transform="translate(1423.143 -866.842)" fill="#1e4454"/>
  <path id="Path_24651" data-name="Path 24651" d="M-1487.219,948.7c0-.3-.02-.605,0-.906a.773.773,0,0,1,.761-.722.738.738,0,0,1,.828.636,14.607,14.607,0,0,1,0,2.011.761.761,0,0,1-.822.654.811.811,0,0,1-.771-.768c-.021-.3,0-.6,0-.906Z" transform="translate(1511.259 -917.798)" fill="#1e4454"/>
</svg>
