<?xml version="1.0" encoding="utf-8"?>
<!-- Generator: Adobe Illustrator 21.1.0, SVG Export Plug-In . SVG Version: 6.00 Build 0)  -->
<svg version="1.1" id="Layer_1" xmlns="http://www.w3.org/2000/svg" xmlns:xlink="http://www.w3.org/1999/xlink" x="0px" y="0px"
	 viewBox="0 0 48 48" style="enable-background:new 0 0 48 48;" xml:space="preserve">
<style type="text/css">
	.st0{fill:#B3001B;}
</style>
<g>
	<path class="st0" d="M0.5,33.6c0-8.3,0-16.5,0-24.8C1,7.1,2.2,6.5,3.9,6.5c8.5,0,16.9,0,25.4,0c1.9,0,3,1.1,3,3c0,1.9,0,3.8,0,5.6
		c0,0.2,0,0.3,0,0.5c0.2,0,0.4,0,0.6,0c2.3,0,4.6,0,6.8,0c1.3,0,2.3,0.6,2.9,1.8c1.7,3.3,3.3,6.7,5,10c0,2.1,0,4.1,0,6.2
		c-0.3,0.9-0.8,1.7-1.7,2.1c-0.1,0-0.1,0.2-0.1,0.4c-0.1,1.2-0.4,2.2-1.1,3.2c-0.1,0.1-0.1,0.2-0.2,0.3c0.7,0,1.3,0,1.9,0
		c0.6,0,1,0.2,1.2,0.7c0,0.2,0,0.4,0,0.6c-0.3,0.5-0.7,0.7-1.2,0.7c-14.8,0-29.7,0-44.5,0c-0.6,0-1-0.2-1.2-0.7c0-0.2,0-0.4,0-0.6
		c0.3-0.5,0.7-0.7,1.2-0.7c1.7,0,3.4,0,5.1,0c0.2,0,0.3,0,0.6,0C6.5,38.5,6,37.3,6,35.9c-0.9,0-1.9,0-2.8,0c-1,0-1.8-0.4-2.3-1.3
		C0.7,34.3,0.6,34,0.5,33.6z M2.3,32.3c0,0.3,0,0.5,0,0.7c0,0.8,0.3,1.1,1.1,1.1c0.8,0,1.6,0,2.4,0c0.3,0,0.4-0.1,0.6-0.4
		c1-2.1,2.7-3.3,5-3.3c2.3,0,4,1.1,5.1,3.2c0.1,0.3,0.3,0.4,0.6,0.4c4.3,0,8.5,0,12.8,0c0.1,0,0.3,0,0.5,0c0-0.2,0-0.3,0-0.4
		c0-8,0-16.1,0-24.1c0-0.8-0.3-1.1-1.2-1.1c-8.6,0-17.2,0-25.7,0c-0.9,0-1.2,0.3-1.2,1.2c0,5.6,0,11.1,0,16.7c0,0.2,0,0.3,0,0.5
		c0.9,0,1.7,0,2.5,0c0.8,0,1.1,0.3,1.1,1.1c0,1.1,0,2.2,0,3.3c0,0.8-0.3,1.1-1.1,1.1C4.1,32.3,3.2,32.3,2.3,32.3z M45.7,28.6
		c-0.2,0-0.4,0-0.5,0c-3.3,0-6.6,0-9.9,0c-0.8,0-1.1-0.3-1.1-1.1c0-2.3,0-4.7,0-7c0-0.8,0.3-1.1,1.1-1.1c1.9,0,3.8,0,5.7,0
		c0.1,0,0.3,0,0.5,0c-0.2-0.4-0.4-0.8-0.5-1.1c-0.2-0.5-0.6-0.7-1.2-0.7c-2.3,0-4.7,0-7,0c-0.1,0-0.3,0-0.4,0c0,5.5,0,11,0,16.5
		c0.8,0,1.5,0,2.3,0c0.3,0,0.4-0.1,0.5-0.4c1-2.1,2.6-3.2,4.8-3.3c2.3-0.1,4,1,5.1,3c0.1,0.1,0.1,0.2,0.3,0.5
		c0.1-0.3,0.3-0.6,0.3-0.8C45.7,31.7,45.7,30.2,45.7,28.6z M15.6,39.6c6.8,0,13.6,0,20.4,0c-0.9-1.1-1.3-2.3-1.4-3.6
		c-5.9,0-11.7,0-17.6,0C17,37.3,16.6,38.5,15.6,39.6z M36,26.7c3.1,0,6.1,0,9.1,0c0-0.1,0-0.1-0.1-0.2c-0.8-1.7-1.7-3.4-2.5-5
		c-0.1-0.3-0.3-0.2-0.5-0.2c-1.9,0-3.7,0-5.6,0c-0.1,0-0.3,0-0.4,0C36,23.1,36,24.9,36,26.7z M7.8,35.9c0,2,1.7,3.7,3.7,3.7
		c2,0,3.7-1.6,3.7-3.6c0-2-1.6-3.7-3.7-3.7C9.5,32.3,7.8,33.9,7.8,35.9z M40.2,32.3c-2,0-3.7,1.6-3.7,3.7c0,2,1.6,3.7,3.6,3.7
		c2,0,3.7-1.6,3.7-3.6C43.8,33.9,42.2,32.3,40.2,32.3z M2.4,28.6c0,0.6,0,1.2,0,1.8c0.6,0,1.2,0,1.8,0c0-0.6,0-1.2,0-1.8
		C3.5,28.6,3,28.6,2.4,28.6z"/>
	<path class="st0" d="M20.1,13.9c-1.9,0-3.7,0-5.6,0c-0.3,0-0.6-0.1-0.8-0.3c-0.2-0.2-0.3-0.6-0.3-0.9c0-0.4,0.3-0.6,0.7-0.7
		c0.1,0,0.3,0,0.5,0c3.6,0,7.3,0,10.9,0c0.1,0,0.2,0,0.3,0c0.5,0,0.9,0.4,0.9,0.9c0,0.5-0.4,0.9-0.9,0.9c-0.9,0-1.8,0-2.7,0
		C22.1,13.9,21.1,13.9,20.1,13.9z"/>
	<path class="st0" d="M21.9,15.7c1.3,0,2.5,0,3.8,0c0.7,0,1.1,0.4,1.1,0.9c0,0.6-0.4,0.9-1.1,0.9c-2.5,0-5,0-7.5,0
		c-0.7,0-1.1-0.4-1.1-0.9c0-0.6,0.4-0.9,1.1-0.9C19.4,15.7,20.6,15.7,21.9,15.7z"/>
	<path class="st0" d="M11.5,13c0,0.5-0.5,0.9-1,0.9c-0.5,0-0.9-0.4-0.9-0.9c0-0.5,0.5-0.9,1-0.9C11.1,12.1,11.5,12.5,11.5,13z"/>
	
		<ellipse transform="matrix(1 -5.776024e-03 5.776024e-03 1 -0.2074 6.711003e-02)" class="st0" cx="11.5" cy="35.9" rx="1.8" ry="1.8"/>
	<ellipse transform="matrix(5.071290e-03 -1 1 5.071290e-03 4.0147 75.9089)" class="st0" cx="40.2" cy="35.9" rx="1.8" ry="1.8"/>
</g>
</svg>
