<svg xmlns="http://www.w3.org/2000/svg" width="38.22" height="31.671" viewBox="0 0 38.22 31.671">
  <g id="Group_3585" data-name="Group 3585" transform="translate(-562 -3927)">
    <path id="Path_615" data-name="Path 615" d="M233.228,268.788H214.082a.477.477,0,0,1-.476-.476V243.977a.476.476,0,0,1,.476-.476h19.146a.476.476,0,0,1,.476.476v9.173a.476.476,0,1,1-.953,0v-8.7H214.559v23.382h18.194v-2.465a.476.476,0,1,1,.953,0v2.941a.476.476,0,0,1-.476.476Z" transform="translate(351.167 3686.005)" fill="#1e4454"/>
    <path id="Path_616" data-name="Path 616" d="M189.272,243.879H186.52a.476.476,0,0,1-.476-.476V219.067a.476.476,0,0,1,.476-.476h19.147a.476.476,0,0,1,.476.476v2.461a.476.476,0,0,1-.953,0v-1.985H187v23.383h2.275a.476.476,0,0,1,0,.953Z" transform="translate(375.956 3708.409)" fill="#1e4454"/>
    <path id="Path_617" data-name="Path 617" d="M240,270.959h-6.8a.476.476,0,0,1-.476-.476v-6.949a.476.476,0,0,1,.476-.476H240a.476.476,0,0,1,.476.476v6.949A.476.476,0,0,1,240,270.959Zm-6.323-.953h5.847v-6h-5.847Z" transform="translate(333.97 3668.416)" fill="#1e4454"/>
    <path id="Path_618" data-name="Path 618" d="M328.127,266.234h-5.995a.476.476,0,0,1,0-.953h5.995a.476.476,0,0,1,0,.953Z" transform="translate(253.987 3666.416)" fill="#1e4454"/>
    <path id="Path_619" data-name="Path 619" d="M328.127,283.874h-5.995a.476.476,0,0,1,0-.953h5.995a.476.476,0,0,1,0,.953Z" transform="translate(253.987 3650.551)" fill="#1e4454"/>
    <path id="Path_620" data-name="Path 620" d="M242.62,385.4h-8.072a.476.476,0,0,1,0-.953h8.072a.476.476,0,1,1,0,.953Z" transform="translate(332.76 3559.234)" fill="#1e4454"/>
    <path id="Path_621" data-name="Path 621" d="M242.62,422.314h-8.072a.476.476,0,0,1,0-.953h8.072a.476.476,0,1,1,0,.953Z" transform="translate(332.76 3526.038)" fill="#1e4454"/>
    <path id="Path_622" data-name="Path 622" d="M242.62,403.854h-8.072a.476.476,0,1,1,0-.953h8.072a.476.476,0,1,1,0,.953Z" transform="translate(332.76 3542.64)" fill="#1e4454"/>
    <path id="Path_623" data-name="Path 623" d="M484.535,454.361a1.173,1.173,0,0,1-.833-.345l-5.392-5.391a1.179,1.179,0,0,1,0-1.665l1.107-1.107a1.206,1.206,0,0,1,1.665,0l5.391,5.391a1.18,1.18,0,0,1,0,1.666l-1.106,1.107a1.175,1.175,0,0,1-.833.345Zm-4.284-7.9a.226.226,0,0,0-.16.066l-1.106,1.106a.225.225,0,0,0,0,.318l5.391,5.391a.226.226,0,0,0,.318,0l1.106-1.107a.225.225,0,0,0,0-.318l-5.391-5.391A.223.223,0,0,0,480.251,446.461Z" transform="translate(113.401 3504.31)" fill="#1e4454"/>
    <path id="Path_624" data-name="Path 624" d="M481.947,437.949a.475.475,0,0,1-.337-.14l-1.055-1.055a.476.476,0,0,1,.674-.673l1.055,1.055a.476.476,0,0,1-.337.813Z" transform="translate(111.199 3512.925)" fill="#1e4454"/>
    <path id="Path_625" data-name="Path 625" d="M470.02,449.868a.477.477,0,0,1-.337-.139l-1.055-1.055A.477.477,0,0,1,469.3,448l1.055,1.055a.476.476,0,0,1-.337.813Z" transform="translate(121.926 3502.204)" fill="#1e4454"/>
    <path id="Path_626" data-name="Path 626" d="M373.358,347.6a6.828,6.828,0,1,1,4.827-2,6.778,6.778,0,0,1-4.827,2Zm0-12.7a5.874,5.874,0,1,0,4.153,1.721A5.835,5.835,0,0,0,373.359,334.9Z" transform="translate(213.622 3604.655)" fill="#1e4454"/>
    <path id="Path_627" data-name="Path 627" d="M398.68,354.931a.476.476,0,0,1-.337-.813,4.95,4.95,0,0,1,6.993,0,.476.476,0,0,1-.674.674,4,4,0,0,0-5.646,0,.471.471,0,0,1-.337.14Z" transform="translate(185.14 3587.817)" fill="#1e4454"/>
  </g>
</svg>
