<svg xmlns="http://www.w3.org/2000/svg" width="28.021" height="28.021" viewBox="0 0 28.021 28.021"><g transform="translate(0)"><path d="M-3505,751.35c.481-.344.506-.644.085-1.064q-3.957-3.957-7.914-7.913c-.077-.077-.165-.144-.218-.19l3.834-3.837a.958.958,0,0,0,.141.23q3.962,3.971,7.93,7.936c.173.173.359.36.613.268a1.833,1.833,0,0,0,.453-.355V746.1c-.115-.139-.22-.288-.347-.415q-4.165-4.171-8.337-8.333a1.829,1.829,0,0,0-.532-.366q-3.891-1.734-7.79-3.448a.992.992,0,0,0-.441-.11.541.541,0,0,0-.412.82c.355.818.717,1.633,1.078,2.449.8,1.807,1.593,3.614,2.4,5.417a1.912,1.912,0,0,0,.379.557q4.18,4.194,8.373,8.375a4.81,4.81,0,0,0,.376.309Zm-8.705-10.242c-.535-1.209-1.079-2.43-1.611-3.657a.3.3,0,0,1,.069-.252c.333-.35.674-.693,1.026-1.024a.32.32,0,0,1,.276-.049c.314.119.62.262.928.4l2.7,1.2Zm-2.156-4.871-.487-1.116.049-.045,1.1.488Z" transform="translate(3528.097 -723.329)"/><path d="M-3057.589,828.858a.713.713,0,0,0,.836.378c.111.683.253.886.6.875s.506-.249.548-.857c.409,0,.832-.029.844-.584.008-.338-.219-.472-.769-.535a5.284,5.284,0,0,0-.307-.719.467.467,0,0,0-.342-.128c-.338-.011-.468.194-.566.86a.749.749,0,0,0-.84.382Z" transform="translate(3057.59 -812.056)"/><path d="M-3334.645,549a.75.75,0,0,0-.383.841c-.671.1-.88.246-.865.593s.246.5.764.54a5.661,5.661,0,0,0,.334.735c.05.08.228.113.346.112.334,0,.455-.2.541-.827.645-.1.853-.246.844-.593s-.241-.5-.868-.543a.756.756,0,0,0-.385-.858Z" transform="translate(3351.119 -549)"/><path d="M-3055.542,549.711c.322.344.64.692.968,1.03.272.281.547.562.836.824a.534.534,0,0,0,.742-.02.516.516,0,0,0,.036-.719c-.613-.62-1.246-1.22-1.871-1.827h-.711Z" transform="translate(3055.543 -549)"/><path d="M-3180.631,549a.686.686,0,0,0-.388.741c.017.171,0,.346.007.518a.547.547,0,0,0,.527.526.545.545,0,0,0,.559-.522c.014-.245.006-.492,0-.737a.653.653,0,0,0-.378-.526Z" transform="translate(3189.498 -549)"/><path d="M-3038.632,704.641a.7.7,0,0,0,.745.384c.171-.017.346.005.519-.007a.548.548,0,0,0,.522-.56.544.544,0,0,0-.526-.526c-.246-.012-.492,0-.738,0-.263,0-.4.187-.522.382Z" transform="translate(3038.632 -695.446)"/><path d="M-3145.459,607.943a.562.562,0,0,0,.556-.832,1.478,1.478,0,0,0-.215-.246q-1.767-1.769-3.536-3.536a2.169,2.169,0,0,0-.178-.169.533.533,0,0,0-.741.03.531.531,0,0,0-.037.72,1.8,1.8,0,0,0,.167.18q1.787,1.788,3.578,3.571A2.361,2.361,0,0,0-3145.459,607.943Z" transform="translate(3152.689 -600.067)"/><path d="M-3149.286,739.815a1.42,1.42,0,0,0,.335-.2q1.834-1.817,3.653-3.648a.532.532,0,0,0,.036-.8.534.534,0,0,0-.8.023q-1.841,1.83-3.67,3.67a.521.521,0,0,0-.124.626A.6.6,0,0,0-3149.286,739.815Z" transform="translate(3152.974 -724.816)"/><path d="M-3271.986,616.771c.136.177.219.378.365.448a.958.958,0,0,0,.537,0c.084-.015.156-.119.227-.189q1.528-1.525,3.053-3.053a1.392,1.392,0,0,0,.18-.2.526.526,0,0,0-.069-.675.534.534,0,0,0-.676-.075,1.309,1.309,0,0,0-.206.178q-1.537,1.535-3.07,3.075A3.613,3.613,0,0,0-3271.986,616.771Z" transform="translate(3282.091 -609.436)"/><path d="M-3181.076,610.684c0,.118-.008.237,0,.355a.53.53,0,0,0,.507.511.521.521,0,0,0,.572-.467,4.809,4.809,0,0,0,0-.845.517.517,0,0,0-.554-.457.528.528,0,0,0-.522.494c-.012.135,0,.273,0,.409Z" transform="translate(3189.561 -606.454)"/><path d="M-3098.251,704.985c.127,0,.256.01.382,0a.536.536,0,0,0,.506-.568.526.526,0,0,0-.527-.518c-.236-.011-.473-.01-.709,0a.528.528,0,0,0-.534.539.535.535,0,0,0,.527.549c.118.009.236,0,.354,0Z" transform="translate(3102.46 -695.411)"/><path d="M-3062.6,668.216c0,.127-.009.256,0,.382a.532.532,0,0,0,.518.5.512.512,0,0,0,.541-.44,4.4,4.4,0,0,0-.005-.923.509.509,0,0,0-.555-.42.531.531,0,0,0-.5.492C-3062.609,667.942-3062.6,668.079-3062.6,668.216Z" transform="translate(3064.615 -660.838)"/><path d="M-3062.561,728.863c0,.136-.01.274,0,.409a.525.525,0,0,0,.5.489.5.5,0,0,0,.554-.418,4.279,4.279,0,0,0,0-.949.5.5,0,0,0-.561-.41.523.523,0,0,0-.487.47,3.931,3.931,0,0,0,0,.409Z" transform="translate(3064.577 -718.187)"/><path d="M-3216.628,585.768c-.127,0-.256-.009-.382,0a.527.527,0,0,0-.491.5.493.493,0,0,0,.39.549,4.363,4.363,0,0,0,1,0,.489.489,0,0,0,.386-.55.524.524,0,0,0-.494-.493C-3216.355,585.759-3216.492,585.768-3216.628,585.768Z" transform="translate(3227.3 -583.752)"/><path d="M-3156,586.794a3.193,3.193,0,0,0,.419-.036.531.531,0,0,0,.432-.551.528.528,0,0,0-.508-.509c-.245-.013-.492-.011-.737,0a.535.535,0,0,0-.539.509.543.543,0,0,0,.482.566C-3156.321,586.792-3156.183,586.786-3156,586.794Z" transform="translate(3163.414 -583.681)"/><path d="M-3180.925,704.545a.552.552,0,0,0,.529.555.558.558,0,0,0,.562-.552.55.55,0,0,0-.545-.538A.545.545,0,0,0-3180.925,704.545Z" transform="translate(3189.409 -695.527)"/><path d="M-3469.3,903.2c.18-.137.381-.218.451-.363a.967.967,0,0,0,0-.538c-.015-.084-.118-.157-.188-.227q-2.7-2.707-5.41-5.412a.646.646,0,0,0-.6-.26.539.539,0,0,0-.35.845,1.638,1.638,0,0,0,.2.223q2.686,2.687,5.376,5.369A3.966,3.966,0,0,0-3469.3,903.2Z" transform="translate(3494.502 -877.376)"/><path d="M-3347.726,872.536a.528.528,0,0,0,.551-.52.539.539,0,0,0-.54-.564.548.548,0,0,0-.543.539A.538.538,0,0,0-3347.726,872.536Z" transform="translate(3365.906 -853.804)"/></g></svg>