<svg xmlns="http://www.w3.org/2000/svg" width="48.63" height="38" viewBox="0 0 48.63 38">
  <g id="Group_2653" data-name="Group 2653" transform="translate(-2581.035 -487)">
    <path id="Path_18945" data-name="Path 18945" d="M2582.658,516.234a1.428,1.428,0,0,0,1.3,1.145c.2.016.411.009.617.009q14.956,0,29.912-.009a.973.973,0,0,1,.851.388c.29.364.617.7,1.009,1.133h-5.268v1.5c.153.008.32.022.486.022,1.044,0,2.089,0,3.134,0,.559,0,.9.294.9.754s-.337.762-.893.763q-9.353,0-18.707,0c-.563,0-.9-.288-.907-.749s.342-.767.934-.768c1.184,0,2.368,0,3.585,0v-1.519h-.542q-7.383,0-14.766,0a3.036,3.036,0,0,1-3.269-3.254q0-12.7,0-25.4a3.035,3.035,0,0,1,3.27-3.252h42.066a3.039,3.039,0,0,1,3.283,3.286q0,12.7,0,25.4c0,.4-.081.8-.139,1.335l-2.543-2.291h1.165V490.3a1.556,1.556,0,0,0-1.773-1.777h-42.019a1.555,1.555,0,0,0-1.783,1.769v24.44h.563q14.577,0,29.152-.008a.776.776,0,0,1,.826.446,8.086,8.086,0,0,0,.8,1.067Zm18.546,2.7v1.449h8.281v-1.449Z" transform="translate(0)" fill="#ef323c"/>
    <path id="Path_18946" data-name="Path 18946" d="M2619.631,508.681c.472.461.927.921,1.4,1.357a.685.685,0,0,0,.422.134,3.078,3.078,0,0,1,2.118.807c3.039,2.747,6.094,5.479,9.133,8.225a2.811,2.811,0,0,1,.119,4.175q-.81.834-1.644,1.644a2.783,2.783,0,0,1-4.1-.067c-2.821-3.1-5.616-6.224-8.416-9.345a2.736,2.736,0,0,1-.68-1.924.678.678,0,0,0-.106-.432c-.449-.487-.924-.95-1.382-1.415a11.449,11.449,0,1,1,3.136-3.16Zm-9.5,3.52a9.872,9.872,0,1,0-9.869-9.875A9.87,9.87,0,0,0,2610.132,512.2Zm11.444-.6a5.989,5.989,0,0,0-.858.443,6.1,6.1,0,0,0-.713.694,1.314,1.314,0,0,0-.041,2.044c.77.861,1.546,1.716,2.319,2.575q2.889,3.213,5.778,6.424a1.321,1.321,0,0,0,2.165.037c.5-.5,1.013-1,1.509-1.511a1.279,1.279,0,0,0-.045-1.966q-4.6-4.151-9.218-8.279A4.123,4.123,0,0,0,2621.577,511.6Zm-2-.687-.774-.922-1.022.819.893.992Z" transform="translate(-4.031 -0.894)" fill="#ef323c"/>
    <path id="Path_18947" data-name="Path 18947" d="M2591.315,505.733a3.1,3.1,0,0,1,2.725-.655.6.6,0,0,1,.462.456c.431,1.117.877,2.231,1.376,3.318a.811.811,0,0,1-.046.906,3.061,3.061,0,0,1-3.666,1.082,3,3,0,0,1-1.82-3.347.684.684,0,0,0-.283-.8c-1.051-.839-2.08-1.7-3.118-2.56-.119-.1-.244-.188-.421-.324v8.775h.564c3.8,0,7.6.006,11.395-.008a1.892,1.892,0,0,1,1.18.363c.571.407,1.193.741,1.891,1.165h-.513q-7.5,0-15,0c-.848,0-1.071-.22-1.071-1.061q0-10.517,0-21.032a2.254,2.254,0,0,1,.015-.426.711.711,0,0,1,.758-.641.7.7,0,0,1,.728.619,2.658,2.658,0,0,1,.021.521c0,3.086.006,6.173-.006,9.258a.827.827,0,0,0,.341.72c1.387,1.127,2.761,2.271,4.141,3.408C2591.074,505.56,2591.19,505.64,2591.315,505.733Zm3.533,2.318a1.518,1.518,0,1,0-1.527,1.506A1.558,1.558,0,0,0,2594.848,508.051Z" transform="translate(-0.895 -0.898)" fill="#ef323c"/>
    <path id="Path_18948" data-name="Path 18948" d="M2619.141,505.318a8.5,8.5,0,0,1-2.2,3.952,2.982,2.982,0,0,1,.065-2.257.511.511,0,0,0-.016-.432q-2.869-2.9-5.765-5.775a.5.5,0,0,0-.119-.055,3.132,3.132,0,0,1-3.994-.059l-4.167,4.245-.147-.045c-.031-.592-.08-1.184-.082-1.776,0-.125.15-.266.256-.375,1-1.011,2-2.023,3.02-3.02a.616.616,0,0,0,.2-.663,3,3,0,0,1,1.225-3.16,3.048,3.048,0,0,1,3.438-.016,3,3,0,0,1,1.252,3.15.657.657,0,0,0,.206.706q2.733,2.7,5.435,5.437c.319.324.591.548,1.031.242A1.448,1.448,0,0,1,2619.141,505.318Zm-10-5.4a1.516,1.516,0,1,0-1.517-1.5A1.527,1.527,0,0,0,2609.142,499.915Z" transform="translate(-4.935 -1.903)" fill="#ef323c"/>
  </g>
</svg>
