<svg xmlns="http://www.w3.org/2000/svg" width="45.667" height="45.043" viewBox="0 0 45.667 45.043">
  <g id="Group_2655" data-name="Group 2655" transform="translate(-4364.676 -407.7)">
    <path id="Path_18952" data-name="Path 18952" d="M4382.324,437.418c.326.354.213.722-.107,1.041q-1.119,1.116-2.233,2.233a.815.815,0,0,1-.544.285c-.437.024-1.8-1.288-1.78-1.734a.658.658,0,0,1,.413-.618.683.683,0,0,1,.853.214c.348.454.616.392.967-.019.406-.48.883-.9,1.331-1.344C4381.572,437.13,4381.963,437.027,4382.324,437.418Z" transform="translate(-8.788 -19.946)" fill="#ef323c"/>
    <path id="Path_18953" data-name="Path 18953" d="M4382.313,458.09a.687.687,0,0,1-.945.987c-.457-.388-.859-1.085-1.331-1.125-.38-.033-.817.722-1.249,1.1a.627.627,0,0,1-.922-.017.654.654,0,0,1-.017-.984c.37-.434,1.1-.769,1.082-1.256-.018-.413-.693-.791-1.065-1.2a.7.7,0,1,1,.967-1c.16.134.3.294.45.441.789.788.788.786,1.606-.028a3.065,3.065,0,0,1,.584-.521.7.7,0,0,1,1.02.644c-.058.475-.479.756-.829,1.048-.53.443-.618.8-.016,1.241A4.053,4.053,0,0,1,4382.313,458.09Z" transform="translate(-8.771 -31.598)" fill="#ef323c"/>
    <path id="Path_18954" data-name="Path 18954" d="M4376.959,422.762c.013-.594.452-.685.947-.684q5.168.007,10.335,0c.531,0,1,.1.984.728s-.519.683-1.028.68c-1.709-.008-3.418,0-5.128,0s-3.418,0-5.127,0C4377.422,423.488,4376.946,423.416,4376.959,422.762Z" transform="translate(-8.314 -9.731)" fill="#ef323c"/>
    <path id="Path_18955" data-name="Path 18955" d="M4406.593,460.4c.022.611-.437.752-.975.75q-4.46-.01-8.92,0c-.511,0-.929-.149-.93-.712s.422-.7.932-.7c1.473.013,2.946,0,4.419,0,1.5,0,3,.009,4.5-.006C4406.125,459.732,4406.572,459.837,4406.593,460.4Z" transform="translate(-21.045 -35.223)" fill="#ef323c"/>
    <path id="Path_18956" data-name="Path 18956" d="M4405.617,440.945c.491,0,.962.089.973.666.015.635-.473.714-1,.709-1.5-.013-3.007,0-4.51,0-1.451,0-2.9-.01-4.352,0-.5,0-.946-.071-.969-.657s.407-.718.915-.717Q4401.147,440.953,4405.617,440.945Z" transform="translate(-21.041 -22.502)" fill="#ef323c"/>
    <path id="Path_18957" data-name="Path 18957" d="M4393.862,516.871c.016.612-.466.717-1,.714-2.475-.013-4.948,0-7.423,0q-3.75,0-7.5,0c-.443,0-.9-.011-.975-.562-.09-.681.357-.842.938-.84,2.921.006,5.842,0,8.765,0,2.052,0,4.1.01,6.159,0C4393.35,516.178,4393.846,516.268,4393.862,516.871Z" transform="translate(-8.309 -73.427)" fill="#ef323c"/>
    <path id="Path_18958" data-name="Path 18958" d="M4392.422,427.864a6.915,6.915,0,1,0,6.852,6.926A6.916,6.916,0,0,0,4392.422,427.864Zm-.082,12.451a5.526,5.526,0,1,1,5.562-5.579A5.526,5.526,0,0,1,4392.34,440.315Zm.082-12.451a6.915,6.915,0,1,0,6.852,6.926A6.916,6.916,0,0,0,4392.422,427.864Zm-.082,12.451a5.526,5.526,0,1,1,5.562-5.579A5.526,5.526,0,0,1,4392.34,440.315Zm17.093,6.76c-2.086-2.163-4.239-4.263-6.363-6.39a.76.76,0,0,0-1.231-.038c-.1.1-.169.267-.367.217a1.377,1.377,0,0,1-.731-1.587,9.439,9.439,0,0,0-3.341-12.537,1.026,1.026,0,0,1-.522-1.019c.019-2.638,0-5.274.018-7.912a1.687,1.687,0,0,0-.551-1.316q-4.128-4.092-8.218-8.227a1.78,1.78,0,0,0-1.391-.566c-6.169.017-12.341.008-18.512.013a3.158,3.158,0,0,0-3.515,3.514q-.007,8.507,0,17.011c0,5.617.064,11.234-.031,16.85a3.477,3.477,0,0,0,3.749,3.758c8.016-.065,16.032-.026,24.05-.026.475,0,.951.011,1.423-.022a3.1,3.1,0,0,0,2.979-3.094c.021-.66.014-1.32,0-1.978,0-.326-.033-.709.357-.774.566-.093.712.517,1.071.78.326.239.028.4-.117.558a.744.744,0,0,0,.073,1.169c2.128,2.122,4.226,4.274,6.383,6.366a3.373,3.373,0,0,0,4.782-4.752Zm-21.465-36.867c2.171,2.174,4.248,4.255,6.429,6.437-1.189,0-2.3,0-3.417,0-.475,0-.951.019-1.424-.017a1.662,1.662,0,0,1-1.576-1.584C4387.94,413.468,4387.968,411.892,4387.968,410.208Zm7.556,34.312a7.74,7.74,0,0,0-.006.79,1.876,1.876,0,0,1-2.143,2.128q-7.911.007-15.819,0-4.669,0-9.334,0c-1.459,0-2.116-.663-2.117-2.13q-.006-8.542,0-17.085h0V411.3c0-1.579.615-2.207,2.193-2.209,5.828,0,11.654.011,17.48-.017.686,0,.821.209.8.842-.047,1.475.068,2.959-.034,4.427a3.363,3.363,0,0,0,3.758,3.724c1.5-.1,3,0,4.508-.028.518-.011.739.08.728.674-.037,2.161-.03,4.323,0,6.486.006.529-.109.581-.612.454a9.361,9.361,0,0,0-10.812,4.493.909.909,0,0,1-.96.467q-6.524-.012-13.05,0c-.264,0-.528-.006-.791.013a.635.635,0,0,0-.66.723.62.62,0,0,0,.658.641c.211.011.423,0,.633,0,4.167,0,8.331.011,12.5-.009.6,0,.915.006.68.776a6.8,6.8,0,0,0-.141,3.215c.14.75-.154.737-.7.734-4.087-.013-8.173-.008-12.26-.008-.211,0-.421,0-.633,0a.643.643,0,0,0-.736.649c-.026.494.273.728.732.737.9.017,1.793.008,2.689.008,3.585,0,7.171.006,10.757-.008a.8.8,0,0,1,.886.536,9.358,9.358,0,0,0,11.1,5.326C4395.473,443.767,4395.588,443.927,4395.523,444.52Zm-3.157-1.636a8.1,8.1,0,1,1,8.12-8.057A8.1,8.1,0,0,1,4392.366,442.884Zm6.268-.854c.3-.35.593-.8.986-.938.179-.063.584.5.935.824-.345.342-.646.658-.968.948C4399.51,442.935,4398.569,442.1,4398.634,442.029Zm9.176,9.1a1.749,1.749,0,0,1-2.066-.217c-1.991-1.913-3.926-3.885-5.889-5.826-.2-.2-.166-.331.018-.511.768-.756,1.532-1.517,2.285-2.29.222-.228.357-.188.566.022,1.905,1.924,3.824,3.836,5.734,5.757a1.863,1.863,0,0,1,.462,1.426A1.836,1.836,0,0,1,4407.811,451.133Zm-15.389-23.269a6.915,6.915,0,1,0,6.852,6.926A6.916,6.916,0,0,0,4392.422,427.864Zm-.082,12.451a5.526,5.526,0,1,1,5.562-5.579A5.526,5.526,0,0,1,4392.34,440.315Zm.082-12.451a6.915,6.915,0,1,0,6.852,6.926A6.916,6.916,0,0,0,4392.422,427.864Zm-.082,12.451a5.526,5.526,0,1,1,5.562-5.579A5.526,5.526,0,0,1,4392.34,440.315Zm.082-12.451a6.915,6.915,0,1,0,6.852,6.926A6.916,6.916,0,0,0,4392.422,427.864Zm-.082,12.451a5.526,5.526,0,1,1,5.562-5.579A5.526,5.526,0,0,1,4392.34,440.315Z" transform="translate(0 0)" fill="#ef323c"/>
    <path id="Path_18959" data-name="Path 18959" d="M4382.217,438.459q-1.119,1.116-2.233,2.233a.815.815,0,0,1-.544.285c-.437.024-1.8-1.288-1.78-1.734a.658.658,0,0,1,.413-.618.683.683,0,0,1,.853.214c.348.454.616.392.967-.019.406-.48.883-.9,1.331-1.344.35-.345.74-.448,1.1-.057C4382.649,437.773,4382.537,438.14,4382.217,438.459Z" transform="translate(-8.788 -19.946)" fill="#ef323c"/>
    <path id="Path_18960" data-name="Path 18960" d="M4378.932,456.8c-.018-.413-.693-.791-1.065-1.2a.7.7,0,1,1,.967-1c.16.134.3.294.45.441.789.788.788.786,1.606-.028a3.065,3.065,0,0,1,.584-.521.7.7,0,0,1,1.02.644c-.058.475-.479.756-.829,1.048-.53.443-.618.8-.016,1.241a4.053,4.053,0,0,1,.665.669.687.687,0,0,1-.945.987c-.457-.388-.859-1.085-1.331-1.125-.38-.033-.817.722-1.249,1.1a.627.627,0,0,1-.922-.017.654.654,0,0,1-.017-.984C4378.22,457.62,4378.954,457.285,4378.932,456.8Z" transform="translate(-8.771 -31.598)" fill="#ef323c"/>
    <path id="Path_18961" data-name="Path 18961" d="M4376.959,422.762c.013-.594.452-.685.947-.684q5.168.007,10.335,0c.531,0,1,.1.984.728s-.519.683-1.028.68c-1.709-.008-3.418,0-5.128,0s-3.418,0-5.127,0C4377.422,423.488,4376.946,423.416,4376.959,422.762Z" transform="translate(-8.314 -9.731)" fill="#ef323c"/>
    <path id="Path_18962" data-name="Path 18962" d="M4406.593,460.4c.022.611-.437.752-.975.75q-4.46-.01-8.92,0c-.511,0-.929-.149-.93-.712s.422-.7.932-.7c1.473.013,2.946,0,4.419,0,1.5,0,3,.009,4.5-.006C4406.125,459.732,4406.572,459.837,4406.593,460.4Z" transform="translate(-21.045 -35.223)" fill="#ef323c"/>
    <path id="Path_18963" data-name="Path 18963" d="M4405.617,440.945c.491,0,.962.089.973.666.015.635-.473.714-1,.709-1.5-.013-3.007,0-4.51,0-1.451,0-2.9-.01-4.352,0-.5,0-.946-.071-.969-.657s.407-.718.915-.717Q4401.147,440.953,4405.617,440.945Z" transform="translate(-21.041 -22.502)" fill="#ef323c"/>
    <path id="Path_18964" data-name="Path 18964" d="M4393.862,516.871c.016.612-.466.717-1,.714-2.475-.013-4.948,0-7.423,0q-3.75,0-7.5,0c-.443,0-.9-.011-.975-.562-.09-.681.357-.842.938-.84,2.921.006,5.842,0,8.765,0,2.052,0,4.1.01,6.159,0C4393.35,516.178,4393.846,516.268,4393.862,516.871Z" transform="translate(-8.309 -73.427)" fill="#ef323c"/>
    <path id="Path_18965" data-name="Path 18965" d="M4435.949,470.1a6.915,6.915,0,1,0,6.852,6.926A6.916,6.916,0,0,0,4435.949,470.1Zm-.082,12.451a5.526,5.526,0,1,1,5.562-5.579A5.526,5.526,0,0,1,4435.867,482.552Z" transform="translate(-43.528 -42.237)" fill="#ef323c"/>
    <path id="Path_18966" data-name="Path 18966" d="M4393.862,516.871c.016.612-.466.717-1,.714-2.475-.013-4.948,0-7.423,0q-3.75,0-7.5,0c-.443,0-.9-.011-.975-.562-.09-.681.357-.842.938-.84,2.921.006,5.842,0,8.765,0,2.052,0,4.1.01,6.159,0C4393.35,516.178,4393.846,516.268,4393.862,516.871Z" transform="translate(-8.309 -73.427)" fill="#ef323c"/>
    <path id="Path_18967" data-name="Path 18967" d="M4389.225,422.8c-.013.639-.519.683-1.028.68-1.709-.008-3.418,0-5.128,0s-3.418,0-5.127,0c-.519,0-1-.069-.982-.723.013-.594.452-.685.947-.684q5.168.007,10.335,0C4388.772,422.075,4389.239,422.178,4389.225,422.8Z" transform="translate(-8.314 -9.731)" fill="#ef323c"/>
    <path id="Path_18968" data-name="Path 18968" d="M4382.288,459.013a.624.624,0,0,1-.919.065c-.457-.388-.859-1.085-1.331-1.125-.38-.033-.817.722-1.249,1.1a.627.627,0,0,1-.922-.017.654.654,0,0,1-.017-.984c.37-.434,1.1-.769,1.082-1.256-.018-.413-.693-.791-1.065-1.2a.7.7,0,1,1,.967-1c.16.134.3.294.45.441.789.788.788.786,1.606-.028a3.065,3.065,0,0,1,.584-.521.7.7,0,0,1,1.02.644c-.058.475-.479.756-.829,1.048-.53.443-.618.8-.016,1.241a4.053,4.053,0,0,1,.665.669A.63.63,0,0,1,4382.288,459.013Z" transform="translate(-8.771 -31.598)" fill="#ef323c"/>
    <path id="Path_18969" data-name="Path 18969" d="M4406.593,460.4c.022.611-.437.752-.975.75q-4.46-.01-8.92,0c-.511,0-.929-.149-.93-.712s.422-.7.932-.7c1.473.013,2.946,0,4.419,0,1.5,0,3,.009,4.5-.006C4406.125,459.732,4406.572,459.837,4406.593,460.4Z" transform="translate(-21.045 -35.223)" fill="#ef323c"/>
    <path id="Path_18970" data-name="Path 18970" d="M4406.59,441.611c.015.635-.473.714-1,.709-1.5-.013-3.007,0-4.51,0-1.451,0-2.9-.01-4.352,0-.5,0-.946-.071-.969-.657s.407-.718.915-.717q4.471.007,8.94,0C4406.107,440.943,4406.579,441.034,4406.59,441.611Z" transform="translate(-21.041 -22.502)" fill="#ef323c"/>
    <path id="Path_18971" data-name="Path 18971" d="M4382.217,438.459q-1.119,1.116-2.233,2.233a.815.815,0,0,1-.544.285c-.437.024-1.8-1.288-1.78-1.734a.658.658,0,0,1,.413-.618.683.683,0,0,1,.853.214c.348.454.616.392.967-.019.406-.48.883-.9,1.331-1.344.35-.345.74-.448,1.1-.057C4382.649,437.773,4382.537,438.14,4382.217,438.459Z" transform="translate(-8.788 -19.946)" fill="#ef323c"/>
    <path id="Path_18972" data-name="Path 18972" d="M4435.949,470.1a6.915,6.915,0,1,0,6.852,6.926A6.916,6.916,0,0,0,4435.949,470.1Zm-.082,12.451a5.526,5.526,0,1,1,5.562-5.579A5.526,5.526,0,0,1,4435.867,482.552Z" transform="translate(-43.528 -42.237)" fill="#ef323c"/>
  </g>
</svg>
