<?xml version="1.0" encoding="utf-8"?>
<!-- Generator: Adobe Illustrator 21.1.0, SVG Export Plug-In . SVG Version: 6.00 Build 0)  -->
<svg version="1.1" id="Layer_1" xmlns="http://www.w3.org/2000/svg" xmlns:xlink="http://www.w3.org/1999/xlink" x="0px" y="0px"
	 viewBox="0 0 48 48" style="enable-background:new 0 0 48 48;" xml:space="preserve">
<style type="text/css">
	.st0{fill:#B3001B;}
</style>
<g>
	<path class="st0" d="M46.7,41.8c-0.2,0.6-0.7,0.9-1.3,1.1c-1,0.2-2,0.5-2.9,0.8c-1,0.3-1.6-0.1-1.9-1.1c0-0.1-0.1-0.2-0.1-0.3
		c-0.6,0.3-1.1,0.5-1.6,0.9c-1.3,1.1-2.9,1.7-4.5,2.1c-0.9,0.2-1.9,0.4-2.8,0.8c-1.5,0.6-3.2-0.5-3-2.4c-1.4-0.6-1.9-1.4-1.7-2.7
		c-0.7-0.2-1.2-0.7-1.4-1.4c-0.3-0.7-0.1-1.4,0.3-2c-0.5-0.5-0.8-1.1-0.8-1.8c0.1-0.9,0.7-1.7,1.6-1.9c1-0.3,2-0.5,3-0.8
		c0.1,0,0.2-0.1,0.4-0.1c-0.1-0.5-0.2-0.9-0.3-1.3c-0.2-0.8-0.4-1.5-0.6-2.3c-0.3-1.2,0.3-2.2,1.5-2.6c0.3-0.1,0.7-0.2,1-0.3
		c0.6-0.1,1.1,0.1,1.2,0.7c0.2,0.8,0.4,1.5,0.6,2.3c0.4,1.3,1.1,1.9,2.4,1.9c0.5,0,1.1,0,1.6-0.1c0-0.1,0.1-0.1,0.1-0.2
		c-0.1-1.1,0.2-1.4,1.3-1.7c1-0.3,1.9-0.5,2.9-0.8c1.1-0.3,1.6,0,1.9,1.1c1,3.7,2,7.3,2.9,11c0,0.2,0.1,0.3,0.2,0.4
		C46.7,41.4,46.7,41.6,46.7,41.8z M40.1,40.9c-0.7-2.8-1.5-5.6-2.3-8.5c-0.4,0-0.7,0.1-1,0.1c-2.4,0.2-4.2-0.5-4.8-3.2
		c-0.1-0.5-0.3-1.1-0.4-1.6c-0.2,0-0.4,0.1-0.5,0.1c-0.9,0.2-1.1,0.5-0.8,1.4c0.3,1.1,0.6,2.1,0.8,3.2c0.2,0.9-0.1,1.6-1.1,1.8
		c-0.2,0.1-0.4,0.1-0.6,0.2c-0.9,0.2-1.7,0.5-2.6,0.7c-0.5,0.1-0.7,0.6-0.6,1c0.1,0.5,0.5,0.7,1,0.6c0.1,0,0.2-0.1,0.3-0.1
		c0.9-0.2,1.8-0.5,2.6-0.7c0.4-0.1,0.6,0,0.8,0.4c0.1,0.3-0.1,0.7-0.4,0.8c-0.1,0-0.3,0.1-0.4,0.1c-1,0.3-1.9,0.5-2.9,0.8
		c-0.6,0.2-0.8,0.6-0.7,1c0.1,0.5,0.6,0.8,1.2,0.6c1.1-0.3,2.1-0.6,3.2-0.8c0.5-0.1,0.8,0,0.9,0.4c0.1,0.4-0.1,0.7-0.6,0.8
		c-0.8,0.2-1.6,0.4-2.5,0.7c-0.6,0.2-0.8,0.6-0.7,1c0.1,0.5,0.6,0.7,1.1,0.6c0.8-0.2,1.7-0.4,2.5-0.7c0.5-0.1,0.8,0,0.9,0.4
		c0.1,0.4-0.1,0.6-0.6,0.8c-0.5,0.1-1,0.3-1.5,0.4c-0.6,0.2-0.9,0.6-0.7,1.1c0.1,0.5,0.6,0.7,1.2,0.6c1.5-0.4,2.9-0.8,4.4-1.2
		c0.6-0.2,1.2-0.4,1.7-0.8C38.1,42.3,39.1,41.6,40.1,40.9z M38.7,30.7c1.1,4,2.1,7.9,3.2,11.9c1.2-0.3,2.4-0.6,3.6-1
		c-1.1-4-2.1-7.9-3.2-11.9C41.1,30,39.9,30.3,38.7,30.7z"/>
	<path class="st0" d="M22.2,37.5c0.8,1.3,0.4,2.8-1.1,3.4c0.2,1.5-0.2,2.1-1.7,2.7c0.1,1.4-0.5,2.3-1.7,2.5c-0.3,0.1-0.7,0-1.1-0.1
		c-1.5-0.4-2.9-0.8-4.4-1.2c-1-0.3-1.8-0.8-2.7-1.4C9,43,8.3,42.7,7.6,42.2c-0.1,0.3-0.2,0.5-0.2,0.7c-0.2,0.7-0.8,1-1.5,0.9
		c-1.2-0.3-2.4-0.6-3.6-1c-0.7-0.2-1-0.9-0.9-1.5c1-3.9,2.1-7.8,3.1-11.7c0.2-0.8,0.8-1.1,1.6-0.9c1.2,0.3,2.3,0.6,3.5,0.9
		c0.7,0.2,1,0.7,0.9,1.4c0,0.1,0,0.2,0,0.3c0.9,0.2,1.7,0.2,2.6,0c0.7-0.2,1.2-0.8,1.4-1.5c0.2-0.8,0.5-1.7,0.7-2.5
		c0.2-0.7,0.6-0.9,1.3-0.8c0.4,0.1,0.7,0.2,1.1,0.3c1.1,0.4,1.7,1.4,1.4,2.5c-0.3,1.1-0.6,2.2-0.9,3.2c0,0.1-0.1,0.3-0.1,0.4
		c0.2,0.1,0.4,0.1,0.6,0.2c0.9,0.2,1.7,0.5,2.6,0.7C23.1,34.3,23.6,36.1,22.2,37.5z M7.9,40.9c1,0.7,2,1.3,2.9,1.9
		c0.5,0.3,1.1,0.6,1.6,0.8c1.5,0.5,3.1,0.9,4.6,1.3c0.5,0.1,1-0.1,1.1-0.6c0.1-0.5-0.1-0.9-0.7-1c-0.5-0.1-1-0.3-1.5-0.4
		c-0.6-0.2-0.8-0.4-0.7-0.8c0.1-0.4,0.4-0.5,1-0.4c0.9,0.2,1.7,0.5,2.6,0.7c0.4,0.1,0.8-0.1,1-0.6c0.1-0.4-0.1-0.8-0.5-1
		c-0.1-0.1-0.3-0.1-0.4-0.1c-0.8-0.2-1.5-0.4-2.3-0.6c-0.5-0.1-0.7-0.4-0.6-0.8c0.1-0.4,0.4-0.5,0.9-0.4c1.1,0.3,2.1,0.6,3.2,0.8
		c0.6,0.2,1.1,0,1.2-0.6c0.1-0.5-0.1-0.9-0.7-1.1c-1.1-0.3-2.1-0.6-3.2-0.9c-0.5-0.1-0.7-0.4-0.6-0.8c0.1-0.4,0.4-0.5,0.9-0.4
		c0.9,0.2,1.9,0.5,2.8,0.7c0.5,0.1,0.9-0.1,1.1-0.5c0.2-0.5-0.1-1-0.6-1.1c-1-0.3-2-0.6-3.1-0.8c-1-0.3-1.4-0.9-1.1-1.9
		c0.3-1.1,0.6-2.2,0.9-3.2c0.1-0.5,0-0.9-0.4-1.1c-0.3-0.1-0.6-0.2-0.9-0.3c-0.2,0.8-0.4,1.5-0.6,2.3c-0.4,1.4-1.3,2.3-2.7,2.5
		c-0.6,0.1-1.3,0.1-1.9,0.1c-0.3,0-0.6-0.1-0.9-0.1C9.4,35.3,8.6,38.2,7.9,40.9z M9.3,30.7c-1.1-0.3-2.1-0.5-3.1-0.8
		c-0.4-0.1-0.6,0-0.7,0.4c-0.7,2.7-1.4,5.3-2.1,8c-0.3,1.1-0.6,2.2-0.9,3.4c1.2,0.3,2.4,0.6,3.6,1C7.2,38.6,8.3,34.6,9.3,30.7z"/>
	<path class="st0" d="M18.7,14.9c0.8,0,1.6,0,2.4,0c0.4,0,0.5-0.1,0.6-0.5c0.5-1.5,1-3.1,1.5-4.6c0.1-0.4,0.3-0.7,0.8-0.8
		c0.4,0,0.7,0.2,0.8,0.8c0.5,1.5,1,3.1,1.5,4.6c0.1,0.3,0.2,0.4,0.6,0.4c1.6,0,3.2,0,4.7,0c0.2,0,0.5,0,0.7,0.1
		c0.6,0.2,0.7,1,0.1,1.4c-0.9,0.7-1.8,1.3-2.7,1.9c-0.5,0.4-1,0.7-1.5,1.1C28,19.5,28,19.6,28,19.9c0.5,1.6,1,3.2,1.5,4.8
		c0.1,0.2,0.1,0.5,0,0.7c-0.2,0.5-0.8,0.6-1.3,0.2c-1.2-0.9-2.5-1.8-3.7-2.7c-0.7-0.5-0.7-0.5-1.4,0c-1.2,0.9-2.4,1.7-3.6,2.6
		c-0.4,0.3-0.7,0.4-1.1,0.1c-0.4-0.3-0.3-0.7-0.2-1.1c0.5-1.5,1-3.1,1.5-4.6c0.1-0.3,0.1-0.5-0.2-0.7c-1.3-0.9-2.7-1.9-4-2.9
		c-0.4-0.3-0.6-0.7-0.3-1.1c0.2-0.3,0.5-0.4,0.8-0.4C17,14.9,17.8,14.9,18.7,14.9C18.7,14.9,18.7,14.9,18.7,14.9z M17.6,16.2
		C17.6,16.2,17.6,16.2,17.6,16.2c1.1,0.9,2.2,1.7,3.3,2.5c0.5,0.4,0.5,0.5,0.3,1.1c-0.4,1.2-0.8,2.4-1.2,3.5c0,0.1-0.1,0.3-0.2,0.5
		c1.2-0.9,2.4-1.7,3.5-2.6c0.4-0.3,0.7-0.3,1,0c0.6,0.4,1.1,0.8,1.7,1.3c0.6,0.4,1.1,0.8,1.8,1.3c-0.1-0.2-0.1-0.4-0.2-0.5
		c-0.4-1.2-0.8-2.4-1.2-3.5c-0.2-0.6-0.2-0.7,0.3-1.1c0.9-0.7,1.9-1.4,2.8-2c0.2-0.1,0.3-0.3,0.6-0.5c-0.3,0-0.4,0-0.6,0
		c-1.2,0-2.5,0-3.7,0c-0.6,0-0.7-0.1-0.9-0.7c-0.2-0.7-0.5-1.5-0.7-2.2c-0.2-0.6-0.4-1.1-0.6-1.8c-0.1,0.2-0.1,0.4-0.2,0.5
		c-0.3,0.9-0.6,1.8-0.9,2.7c-0.5,1.6-0.3,1.5-2,1.5C19.8,16.2,18.7,16.2,17.6,16.2z"/>
	<path class="st0" d="M9.3,23.9c-1,0.7-2,1.4-3,2.2c-0.3,0.3-0.7,0.4-1.1,0.1c-0.4-0.3-0.3-0.6-0.2-1c0.4-1.1,0.8-2.3,1.1-3.5
		c-1-0.7-2-1.5-3-2.2c-0.3-0.2-0.5-0.5-0.4-0.9c0.1-0.4,0.5-0.5,0.9-0.5c1.1,0,2.2,0,3.3,0c0.3,0,0.4-0.1,0.5-0.4
		c0.3-1,0.7-2.1,1-3.1c0.1-0.4,0.3-0.7,0.8-0.7c0.5,0,0.7,0.3,0.8,0.7c0.3,1,0.7,2,1,3.1c0.1,0.3,0.3,0.4,0.6,0.4c1,0,2.1,0,3.1,0
		c0.4,0,0.8,0,1,0.5c0.2,0.5-0.1,0.8-0.5,1c-0.9,0.6-1.7,1.3-2.6,1.9c-0.2,0.2-0.3,0.3-0.2,0.5c0.4,1,0.7,2.1,1,3.2
		c0.1,0.4,0.2,0.8-0.2,1c-0.4,0.2-0.7,0.1-1-0.1C11.3,25.4,10.3,24.6,9.3,23.9z M13.3,19.4C13.3,19.4,13.3,19.3,13.3,19.4
		c-0.6-0.1-1.1-0.1-1.7-0.1c-1.6,0-1.4,0.1-1.8-1.3c-0.1-0.2-0.1-0.4-0.2-0.6c-0.1-0.3-0.2-0.7-0.4-1.1C9,17,8.8,17.6,8.7,18.2
		c-0.4,1.2-0.4,1.2-1.6,1.2c-0.6,0-1.2,0-1.8,0c0.4,0.4,0.8,0.7,1.3,1c1.3,0.9,1.3,0.7,0.7,2.3c-0.2,0.5-0.3,1-0.5,1.5
		c0.1,0,0.1,0,0.1,0c0.5-0.3,1-0.7,1.4-1c1.1-0.8,0.9-0.8,2,0c0.5,0.4,1,0.7,1.5,1.1c-0.2-0.8-0.4-1.6-0.7-2.4
		c-0.2-0.4-0.1-0.7,0.3-1C12,20.4,12.7,19.9,13.3,19.4z"/>
	<path class="st0" d="M38.7,23.9c-1,0.7-2,1.5-3,2.2c-0.2,0.1-0.5,0.2-0.7,0.2c-0.5,0-0.7-0.5-0.5-1c0.3-1.1,0.7-2.1,1-3.2
		c0.1-0.3,0-0.4-0.2-0.6c-0.9-0.6-1.8-1.3-2.7-1.9c-0.3-0.2-0.6-0.5-0.4-1c0.1-0.4,0.5-0.5,0.9-0.5c1.1,0,2.2,0,3.3,0
		c0.3,0,0.4-0.1,0.5-0.3c0.3-1.1,0.7-2.1,1-3.2c0.1-0.4,0.3-0.6,0.7-0.7c0.4,0,0.7,0.3,0.8,0.7c0.3,1.1,0.7,2.1,1,3.2
		c0.1,0.3,0.2,0.3,0.5,0.3c1.1,0,2.2,0,3.3,0c0.4,0,0.8,0.1,1,0.5c0.1,0.5-0.1,0.7-0.5,1c-0.9,0.6-1.7,1.3-2.6,1.9
		c-0.3,0.2-0.3,0.4-0.2,0.7c0.4,1,0.7,2.1,1,3.1c0.1,0.4,0.1,0.7-0.2,1c-0.4,0.3-0.7,0.1-1-0.1C40.7,25.4,39.7,24.6,38.7,23.9z
		 M38.7,16.3c-0.3,0.8-0.5,1.6-0.7,2.3c-0.2,0.7-0.3,0.7-1,0.7c-0.8,0-1.5,0-2.4,0c0.8,0.5,1.4,1,2,1.5c0.5,0.4,0.5,0.5,0.3,1.1
		c-0.2,0.8-0.5,1.5-0.8,2.4c0.7-0.5,1.3-1,2-1.4c0.6-0.4,0.7-0.4,1.3,0c0.6,0.4,1.2,0.9,2,1.4c-0.3-0.8-0.5-1.5-0.7-2.2
		c-0.3-0.8-0.2-0.9,0.4-1.4c0.6-0.4,1.2-0.9,1.8-1.3c-0.8-0.1-1.6-0.1-2.4-0.1c-0.6,0-0.7-0.1-0.9-0.7C39.3,17.9,39,17.1,38.7,16.3z
		"/>
	<path class="st0" d="M28.6,8.9c-0.6,0-0.9-0.5-0.6-1c0.4-0.7,0.8-1.4,1.2-2c0.4-0.7,0.8-1.4,1.2-2.1c0.3-0.4,0.6-0.6,0.9-0.4
		c0.3,0.2,0.4,0.5,0.1,1c-0.8,1.4-1.5,2.7-2.3,4.1C28.9,8.7,28.7,8.8,28.6,8.9z"/>
	<path class="st0" d="M36.7,8.9c-0.1,0.1-0.2,0.3-0.3,0.4c-1.4,0.8-2.8,1.7-4.2,2.5c-0.3,0.2-0.6,0.1-0.9-0.2
		c-0.2-0.3-0.1-0.7,0.2-0.9c1.4-0.8,2.8-1.6,4.2-2.4C36.2,8,36.7,8.3,36.7,8.9z"/>
	<path class="st0" d="M16.8,13c-0.2-0.1-0.4-0.2-0.5-0.2c-1.3-0.8-2.7-1.5-4-2.3c-0.4-0.3-0.6-0.6-0.4-0.9c0.2-0.4,0.5-0.4,1-0.2
		c1.4,0.8,2.7,1.6,4.1,2.3c0.3,0.2,0.5,0.4,0.3,0.8C17.2,12.7,17,12.8,16.8,13z"/>
	<path class="st0" d="M24.6,4.9c0,0.8,0,1.6,0,2.3C24.6,7.8,24.4,8,24,8c-0.4,0-0.6-0.3-0.6-0.7c0-1.6,0-3.2,0-4.7
		c0-0.4,0.2-0.7,0.6-0.7c0.4,0,0.6,0.3,0.6,0.7C24.6,3.4,24.6,4.2,24.6,4.9z"/>
	<path class="st0" d="M20.4,8.9c-0.1,0.2-0.3,0.4-0.4,0.5c-0.2,0.1-0.4,0-0.6-0.1c-0.1,0-0.2-0.2-0.2-0.3c-0.8-1.3-1.5-2.6-2.3-3.9
		c-0.3-0.5-0.2-0.8,0.1-1c0.3-0.2,0.7-0.1,0.9,0.4c0.8,1.3,1.5,2.7,2.3,4C20.3,8.6,20.3,8.7,20.4,8.9z"/>
	<path class="st0" d="M41.5,31.7c0,0.4-0.3,0.6-0.6,0.6c-0.3,0-0.6-0.3-0.6-0.6c0-0.4,0.3-0.6,0.6-0.6
		C41.2,31.1,41.5,31.4,41.5,31.7z"/>
	<path class="st0" d="M7.1,31.1c0.3,0,0.6,0.3,0.6,0.6c0,0.4-0.3,0.7-0.6,0.6c-0.3,0-0.6-0.3-0.6-0.6C6.5,31.4,6.8,31.1,7.1,31.1z"
		/>
</g>
</svg>
