<svg id="Group_3581" data-name="Group 3581" xmlns="http://www.w3.org/2000/svg" width="33.875" height="35.022" viewBox="0 0 33.875 35.022">
  <path id="Path_24628" data-name="Path 24628" d="M-1270.251,782.292c-.133-.058-.269-.11-.4-.175a1.8,1.8,0,0,1-1.009-1.759q0-11.491,0-22.983a1.78,1.78,0,0,1,1.963-1.946q4.326-.006,8.653,0a1.871,1.871,0,0,1,.372.036.539.539,0,0,1,.449.565.55.55,0,0,1-.507.549,3.1,3.1,0,0,1-.409.018h-8.448c-.751,0-.9.151-.9.9,0,.853,0,1.706,0,2.61h8.947c.091,0,.182,0,.274,0,.466.009.731.223.726.586s-.277.579-.741.58q-4.378,0-8.755,0h-.431c-.007.152-.019.274-.019.395q0,9.285,0,18.571c0,.718.167.884.886.884h29.755c.719,0,.886-.165.886-.884q0-9.285,0-18.571v-.395h-.416q-4.326,0-8.653,0a1.66,1.66,0,0,1-.5-.059.515.515,0,0,1-.369-.554.531.531,0,0,1,.45-.528,2.228,2.228,0,0,1,.443-.023h9.022c.01-.135.026-.244.026-.352q0-1.163,0-2.326c0-.652-.182-.834-.834-.834l-8.516,0a2.954,2.954,0,0,1-.443-.023.525.525,0,0,1-.47-.544.518.518,0,0,1,.412-.556,1.854,1.854,0,0,1,.44-.044q4.292,0,8.584,0a1.794,1.794,0,0,1,2,1.981q0,11.457.005,22.914a1.905,1.905,0,0,1-1.411,1.968Z" transform="translate(1271.658 -747.27)" fill="#1e4454"/>
  <path id="Path_24629" data-name="Path 24629" d="M-1163.588,681.683c-.14.358-.287.689-.4,1.031-.138.418-.337.733-.914.635.236.479.444.9.653,1.326.325.658.1,1.032-.638,1.034q-2.12,0-4.24,0c-.737,0-.967-.375-.643-1.031q.295-.6.588-1.195a.522.522,0,0,0,.015-.111c-.584.087-.752-.322-.9-.76-.106-.309-.231-.611-.36-.946l-2.926,1.971c-.1.07-.206.144-.314.206a.549.549,0,0,1-.861-.231c-.423-.994-.831-2-1.2-3.012a.879.879,0,0,1,.2-.645c1.079-1.511,2.182-3.005,3.262-4.516a.87.87,0,0,0,.145-.554,17.958,17.958,0,0,1,4.248-14.167c.118-.139.233-.281.356-.415a.615.615,0,0,1,1.023.006,19.1,19.1,0,0,1,3.459,5.494,18.441,18.441,0,0,1,1.133,9.124.777.777,0,0,0,.135.492q1.613,2.25,3.255,4.478a.909.909,0,0,1,.136,1.006c-.361.835-.681,1.688-1.024,2.531-.23.565-.566.668-1.069.331q-1.419-.951-2.834-1.909C-1163.385,681.8-1163.472,681.753-1163.588,681.683Zm-3.421-20.178a16.652,16.652,0,0,0-4.087,11.253,26.81,26.81,0,0,0,2.052,9.254.388.388,0,0,0,.3.184c1.151.013,2.3,0,3.454.012a.307.307,0,0,0,.345-.236,31.192,31.192,0,0,0,1.861-6.977,17.02,17.02,0,0,0-1.388-9.571A17.584,17.584,0,0,0-1167.009,661.505Zm-6.732,20.983,2.891-1.951-1-3.667c-.872,1.2-1.736,2.383-2.593,3.571a.268.268,0,0,0-.023.218C-1174.234,681.26-1173.993,681.858-1173.741,682.488Zm13.47-.008c.233-.586.442-1.14.676-1.681a.434.434,0,0,0-.067-.493c-.791-1.072-1.571-2.152-2.355-3.229-.049-.068-.11-.127-.158-.182l-.991,3.643,2.688,1.812C-1160.423,682.388-1160.365,682.422-1160.271,682.48Zm-5.358,2.047c-.175-.35-.311-.661-.485-.949a.478.478,0,0,0-.329-.2c-.384-.025-.771-.016-1.156,0a.342.342,0,0,0-.255.1c-.186.332-.347.677-.531,1.048Z" transform="translate(1183.944 -660.033)" fill="#1e4454"/>
  <path id="Path_24630" data-name="Path 24630" d="M-1080.433,989.253c0-.285-.016-.571,0-.854a.556.556,0,0,1,.56-.57.551.551,0,0,1,.586.578c.021.581.021,1.163,0,1.743a.548.548,0,0,1-.559.571.574.574,0,0,1-.592-.579.926.926,0,0,1-.006-.1q0-.393,0-.787Z" transform="translate(1096.791 -959.799)" fill="#1e4454"/>
  <path id="Path_24631" data-name="Path 24631" d="M-1106.591,975.645c0,.285.013.571,0,.855a.556.556,0,0,1-.558.573.534.534,0,0,1-.575-.514c-.03-.624-.03-1.252,0-1.877a.523.523,0,0,1,.581-.5.566.566,0,0,1,.554.577c0,.023,0,.046,0,.068q0,.411,0,.821Z" transform="translate(1121.765 -947.315)" fill="#1e4454"/>
  <path id="Path_24632" data-name="Path 24632" d="M-1053.049,975.612c0-.3-.015-.594,0-.889a.544.544,0,0,1,.545-.545.523.523,0,0,1,.582.5c.032.624.032,1.252,0,1.877a.535.535,0,0,1-.574.516.568.568,0,0,1-.563-.571.672.672,0,0,1,0-.068q0-.411,0-.821Z" transform="translate(1071.749 -947.316)" fill="#1e4454"/>
  <path id="Path_24633" data-name="Path 24633" d="M-1243.557,783.062a.559.559,0,0,1,.572.551.579.579,0,0,1-.58.584.564.564,0,0,1-.564-.593A.545.545,0,0,1-1243.557,783.062Z" transform="translate(1246.484 -772.542)" fill="#1e4454"/>
  <path id="Path_24634" data-name="Path 24634" d="M-1216.3,784.187a.569.569,0,0,1-.562-.6.551.551,0,0,1,.581-.538.565.565,0,0,1,.569.557A.586.586,0,0,1-1216.3,784.187Z" transform="translate(1221.544 -772.532)" fill="#1e4454"/>
  <path id="Path_24635" data-name="Path 24635" d="M-1188.427,783.612a.584.584,0,0,1-.544.587.58.58,0,0,1-.61-.553.555.555,0,0,1,.541-.579A.562.562,0,0,1-1188.427,783.612Z" transform="translate(1196.599 -772.546)" fill="#1e4454"/>
  <path id="Path_24636" data-name="Path 24636" d="M-1104.819,754.584a2.939,2.939,0,0,1-2.932-2.9,2.937,2.937,0,0,1,2.908-2.923,2.938,2.938,0,0,1,2.932,2.9A2.94,2.94,0,0,1-1104.819,754.584Zm-.02-1.166a1.752,1.752,0,0,0,1.755-1.729,1.753,1.753,0,0,0-1.723-1.762,1.754,1.754,0,0,0-1.773,1.747A1.755,1.755,0,0,0-1104.839,753.418Z" transform="translate(1121.767 -741.174)" fill="#1e4454"/>
</svg>
