<svg id="Layer_1" data-name="Layer 1" xmlns="http://www.w3.org/2000/svg" viewBox="0 0 50 50"><defs><style>.cls-1{fill:none;stroke:#231f20;stroke-miterlimit:10;stroke-width:0.5px;}</style></defs><path class="cls-1" d="M31.53,36l9.16-7.9a3.41,3.41,0,0,1,3.66-.78,3.49,3.49,0,0,1,1.09,5.87c-4.1,3.71-8.22,7.4-12.33,11.11a5.14,5.14,0,0,1-3.64,1.26c-3.53,0-7.06,0-10.59,0a5.5,5.5,0,0,0-2.92.74c-1.62.91-3.27,1.75-4.91,2.62-.59.32-1.23.63-1.62-.16s.19-1.12.8-1.44c2-1,4-2.09,5.94-3.17a4,4,0,0,1,2-.41c3.73,0,7.45,0,11.17,0a4.11,4.11,0,0,0,3-1.16c3.79-3.48,7.63-6.9,11.46-10.33.65-.59,1.17-1.19.91-2.14-.36-1.3-1.72-1.59-2.91-.57q-5,4.24-9.91,8.54a3,3,0,0,1-2.21.86c-3-.06-6.08,0-9.11,0-.65,0-1.42.07-1.43-.82s.75-1,1.49-1c2.5,0,5,0,7.5,0,.5,0,1.39.51,1.5-.52s.2-2.24-1.13-2.72a4.31,4.31,0,0,0-1.44-.17c-3.58,0-7.16,0-10.73,0a3.2,3.2,0,0,0-1.92.56c-3,2-6,4-9.07,5.93-.57.37-1.22.93-1.77.11s.15-1.21.74-1.6c3.2-2.07,6.39-4.14,9.57-6.25A3.51,3.51,0,0,1,16,31.82c3.73,0,7.45,0,11.18,0C30,31.84,31.23,32.92,31.53,36Z"/><path class="cls-1" d="M26.3,22.37c-1.17,0-2.35,0-3.52,0-.71,0-1.17-.26-1.25-.95-.32-2.55-1.68-4.65-2.93-6.8A9.08,9.08,0,0,1,23.89,1.19a8.65,8.65,0,0,1,9.51,3,8.52,8.52,0,0,1,1.23,9.61c-1.25,2.63-3.07,5-3.48,8-.08.61-.66.62-1.17.62Z"/><path class="cls-1" d="M26.46,25.46c-1.18,0-2.35,0-3.52,0-.63,0-1.22-.17-1.18-1s.56-.88,1.13-.88c2.39,0,4.79,0,7.18,0,.58,0,1.1.22,1.11.9s-.57.94-1.21.95Z"/><path class="cls-1" d="M26.44,28.32c-.69,0-1.37,0-2.06,0a.81.81,0,0,1-.86-.81.82.82,0,0,1,.77-.91c1.47-.06,2.94-.07,4.4,0a.8.8,0,0,1,.71,1,.83.83,0,0,1-.91.76Z"/><path class="cls-1" d="M25.34,14.9a3.29,3.29,0,0,1-.68-.37c-.84-.81-1.67-1.64-2.49-2.48a.84.84,0,0,1-.08-1.29.9.9,0,0,1,1.31,0l.11.1c.67.55,1.24,1.78,1.91,1.62s1.42-1.26,2.11-2L30,8c.43-.42.9-.59,1.4-.1a.82.82,0,0,1,0,1.29c-1.76,1.77-3.52,3.54-5.29,5.28A2.87,2.87,0,0,1,25.34,14.9Z"/></svg>