<?xml version="1.0" encoding="utf-8"?>
<!-- Generator: Adobe Illustrator 21.1.0, SVG Export Plug-In . SVG Version: 6.00 Build 0)  -->
<svg version="1.1" id="Layer_1" xmlns="http://www.w3.org/2000/svg" xmlns:xlink="http://www.w3.org/1999/xlink" x="0px" y="0px"
	 viewBox="0 0 1116 478" style="enable-background:new 0 0 1116 478;" xml:space="preserve">
<style type="text/css">
	.st0{fill:#FFFFFF;}
	.st1{fill:#00B67A;}
	.st2{fill:#005128;}
</style>
<g>
	<path id="Shape" class="st0" d="M352.6,97.1h84.8v15.8H404v88.9h-18.3v-88.9h-33.2L352.6,97.1L352.6,97.1z M433.7,126h15.7v14.6
		h0.3c0.5-2.1,1.5-4.1,2.9-6c1.4-1.9,3.1-3.8,5.1-5.3c2-1.6,4.2-2.9,6.7-3.9c2.4-1,5-1.5,7.5-1.5c1.9,0,3.3,0.1,4.1,0.1
		c0.7,0.1,1.5,0.2,2.3,0.3v16.1c-1.2-0.2-2.4-0.4-3.6-0.5s-2.4-0.2-3.6-0.2c-2.8,0-5.5,0.6-8,1.7c-2.5,1.1-4.7,2.8-6.5,5
		c-1.8,2.2-3.3,4.9-4.4,8.1c-1.1,3.3-1.6,6.9-1.6,11.2v36.1h-16.7L433.7,126L433.7,126z M554.9,201.8h-16.4v-10.6h-0.3
		c-2.1,3.8-5.1,6.9-9.2,9.2c-4.1,2.3-8.2,3.5-12.4,3.5c-10,0-17.2-2.4-21.7-7.4c-4.4-5-6.7-12.4-6.7-22.4V126h16.7v46.5
		c0,6.7,1.3,11.4,3.8,14.1c2.5,2.7,6.1,4.1,10.7,4.1c3.5,0,6.4-0.5,8.8-1.6c2.4-1.1,4.3-2.5,5.7-4.4c1.5-1.8,2.5-4,3.2-6.5
		c0.7-2.5,1-5.2,1-8.2v-44H555L554.9,201.8L554.9,201.8z M583.4,177.5c0.5,4.9,2.4,8.3,5.5,10.3c3.3,1.9,7.1,3,11.6,3
		c1.6,0,3.3-0.1,5.3-0.4c2-0.2,3.9-0.7,5.6-1.4c1.8-0.7,3.2-1.7,4.4-3c1.1-1.3,1.6-3,1.6-5.2c-0.1-2.1-0.9-3.9-2.4-5.2
		c-1.5-1.4-3.3-2.4-5.6-3.3c-2.3-0.8-4.9-1.6-7.8-2.1c-3-0.6-5.9-1.3-8.9-1.9c-3.1-0.7-6.1-1.6-9-2.5c-2.9-1-5.5-2.3-7.8-4
		c-2.3-1.6-4.1-3.8-5.5-6.4c-1.4-2.6-2.1-5.8-2.1-9.6c0-4.1,1-7.5,3-10.3c2-2.8,4.6-5,7.6-6.7c3.1-1.7,6.5-2.9,10.3-3.6
		c3.8-0.7,7.4-1,10.8-1c3.9,0,7.7,0.4,11.2,1.3c3.5,0.8,6.8,2.1,9.7,4.1c2.9,1.8,5.2,4.3,7.2,7.2s3.1,6.6,3.6,10.8h-17.4
		c-0.8-4-2.6-6.7-5.5-8.1c-2.9-1.4-6.2-2.1-9.9-2.1c-1.2,0-2.6,0.1-4.2,0.3c-1.6,0.2-3.1,0.6-4.6,1.1c-1.4,0.5-2.6,1.3-3.6,2.4
		c-1,1-1.5,2.4-1.5,4.1c0,2.1,0.7,3.7,2.1,5c1.4,1.3,3.3,2.3,5.5,3.2c2.3,0.8,4.9,1.6,7.8,2.1c3,0.6,6,1.3,9.1,1.9
		c3,0.7,6,1.6,8.9,2.5c3,1,5.5,2.3,7.8,4c2.3,1.7,4.1,3.8,5.5,6.3c1.4,2.5,2.1,5.7,2.1,9.4c0,4.5-1,8.3-3.1,11.5
		c-2.1,3.1-4.7,5.7-8,7.6s-6.9,3.4-10.9,4.3c-4,0.9-8,1.3-11.9,1.3c-4.8,0-9.2-0.5-13.3-1.6c-4.1-1.1-7.6-2.7-10.6-4.9
		c-3-2.2-5.3-5-7-8.2c-1.7-3.3-2.6-7.2-2.7-11.7h16.9L583.4,177.5L583.4,177.5z M638.5,126h12.6v-22.8h16.7V126H683v12.5h-15.1V179
		c0,1.8,0.1,3.3,0.2,4.6c0.1,1.3,0.5,2.4,1,3.3c0.5,0.9,1.3,1.6,2.4,2c1.1,0.4,2.5,0.7,4.4,0.7c1.2,0,2.4,0,3.5-0.1
		c1.2-0.1,2.4-0.2,3.5-0.5v12.9c-1.8,0.2-3.7,0.4-5.4,0.6c-1.8,0.2-3.5,0.3-5.4,0.3c-4.4,0-8-0.4-10.6-1.3c-2.7-0.8-4.8-2.1-6.3-3.7
		c-1.6-1.6-2.5-3.6-3.1-6.1c-0.5-2.4-0.9-5.2-1-8.4v-44.7h-12.6V126L638.5,126L638.5,126z M694.8,126h15.8v10.3h0.3
		c2.4-4.4,5.6-7.5,9.8-9.5c4.2-1.9,8.7-2.9,13.7-2.9c6,0,11.2,1,15.6,3.2c4.4,2.1,8.1,5,11.1,8.6c3,3.7,5.1,8,6.6,12.9
		c1.5,4.9,2.2,10.1,2.2,15.7c0,5.1-0.7,10.1-2,14.8c-1.3,4.8-3.3,9-6,12.7c-2.7,3.7-6.1,6.6-10.2,8.8c-4.1,2.2-8.9,3.3-14.6,3.3
		c-2.4,0-4.9-0.2-7.3-0.7c-2.4-0.4-4.8-1.2-7-2.1c-2.2-1-4.4-2.2-6.2-3.8c-1.9-1.6-3.5-3.3-4.8-5.3h-0.3v37.8h-16.7L694.8,126
		L694.8,126z M753.2,164c0-3.4-0.4-6.7-1.3-10c-0.9-3.3-2.2-6.1-4-8.6c-1.8-2.5-4-4.5-6.6-6c-2.7-1.5-5.7-2.3-9.1-2.3
		c-7,0-12.3,2.4-15.9,7.3c-3.5,4.9-5.3,11.4-5.3,19.5c0,3.8,0.4,7.4,1.4,10.6c1,3.3,2.3,6.1,4.2,8.4c1.8,2.4,4.1,4.2,6.7,5.5
		c2.6,1.4,5.6,2.1,9,2.1c3.8,0,7-0.8,9.7-2.4s4.8-3.6,6.5-6.1c1.7-2.5,3-5.3,3.7-8.5C752.8,170.6,753.2,167.3,753.2,164z
		 M782.7,97.1h16.7v15.8h-16.7V97.1z M782.7,126h16.7v75.8h-16.7V126z M814.3,97.1H831v104.7h-16.7V97.1z M882.3,203.9
		c-6.1,0-11.5-1-16.2-3c-4.7-2-8.7-4.8-12-8.3c-3.3-3.5-5.8-7.8-7.5-12.6c-1.7-4.9-2.6-10.3-2.6-16.1c0-5.8,0.9-11.1,2.6-16
		c1.7-4.9,4.2-9.1,7.5-12.6c3.3-3.5,7.3-6.3,12-8.3s10.1-3,16.2-3c6.1,0,11.5,1,16.2,3c4.7,2,8.7,4.8,12,8.3
		c3.3,3.5,5.8,7.8,7.5,12.6c1.7,4.9,2.6,10.2,2.6,16c0,5.8-0.9,11.2-2.6,16.1c-1.7,4.9-4.2,9.1-7.5,12.6c-3.3,3.5-7.3,6.3-12,8.3
		C893.7,202.9,888.3,203.9,882.3,203.9z M882.3,190.7c3.7,0,6.9-0.8,9.7-2.4c2.7-1.6,5-3.6,6.7-6.1c1.8-2.5,3-5.4,3.9-8.6
		c0.8-3.2,1.3-6.4,1.3-9.8c0-3.3-0.4-6.4-1.3-9.7c-0.8-3.3-2.1-6.1-3.9-8.6c-1.8-2.5-4-4.5-6.7-6.1c-2.7-1.6-6-2.4-9.7-2.4
		c-3.7,0-6.9,0.8-9.7,2.4s-5,3.6-6.7,6.1c-1.8,2.5-3,5.3-3.9,8.6c-0.8,3.3-1.3,6.4-1.3,9.7c0,3.3,0.4,6.6,1.3,9.8
		c0.8,3.2,2.1,6.1,3.9,8.6c1.8,2.5,4,4.6,6.7,6.1C875.3,189.9,878.6,190.7,882.3,190.7z M925.4,126h12.6v-22.8h16.7V126h15.1v12.5
		h-15.1V179c0,1.8,0.1,3.3,0.2,4.6c0.1,1.3,0.5,2.4,1,3.3c0.5,0.9,1.3,1.6,2.4,2c1.1,0.4,2.5,0.7,4.4,0.7c1.2,0,2.4,0,3.5-0.1
		c1.2-0.1,2.4-0.2,3.5-0.5v12.9c-1.8,0.2-3.7,0.4-5.4,0.6c-1.8,0.2-3.5,0.3-5.4,0.3c-4.4,0-8-0.4-10.6-1.3c-2.7-0.8-4.8-2.1-6.3-3.7
		c-1.6-1.6-2.5-3.6-3.1-6.1c-0.5-2.4-0.9-5.2-1-8.4v-44.7h-12.6V126L925.4,126L925.4,126z"/>
	<g id="Star">
		<polygon id="Path" class="st1" points="333,97.1 256.5,97.1 232.8,24.2 209.1,97.1 132.5,97 194.5,142.1 170.8,214.9 232.8,169.9 
			294.8,214.9 271.1,142.1 		"/>
		<polygon id="Path_00000139974370896774244940000013599419466242447510_" class="st2" points="276.4,158.6 271.1,142.1 
			232.8,169.9 		"/>
	</g>
	<rect id="Rectangle" x="136.7" y="261.1" class="st1" width="156.2" height="156.2"/>
	
		<rect id="Rectangle_00000119823381696065812290000006309620969489227403_" x="305.9" y="261.1" class="st1" width="156.2" height="156.2"/>
	
		<rect id="Rectangle_00000111193577153650357570000000971353195221845171_" x="475.1" y="261.1" class="st1" width="156.2" height="156.2"/>
	
		<rect id="Rectangle_00000008833768892528033700000000322006702697863864_" x="644.4" y="261.1" class="st1" width="156.2" height="156.2"/>
	
		<rect id="Rectangle_00000134962926880305233990000003318531366453452990_" x="813.6" y="261.1" class="st1" width="156.2" height="156.2"/>
	<polygon id="Rectangle_00000044876543712720924350000008132246518786235026_" class="st1" points="813.6,261.1 891.7,261.1 
		891.4,417.3 813.6,417.3 	"/>
	<path id="Shape_00000004503963772281965500000004689748023012954798_" class="st0" d="M214.8,366.4l23.8-6l9.9,30.6L214.8,366.4z
		 M269.4,326.8h-41.8l-12.9-39.4l-12.9,39.4h-41.8l33.8,24.4l-12.9,39.4l33.8-24.4l20.8-15L269.4,326.8L269.4,326.8L269.4,326.8
		L269.4,326.8z"/>
	<path id="Shape_00000062892359206520126170000006215398374882685355_" class="st0" d="M384,366.4l23.8-6l9.9,30.6L384,366.4z
		 M438.7,326.8h-41.8L384,287.5l-12.9,39.4h-41.8l33.8,24.4l-12.9,39.4l33.8-24.4l20.8-15L438.7,326.8L438.7,326.8L438.7,326.8
		L438.7,326.8z"/>
	<path id="Shape_00000041986034659674372480000017210300048664811149_" class="st0" d="M553.2,366.4l23.8-6l9.9,30.6L553.2,366.4z
		 M607.9,326.8h-41.8l-12.9-39.4l-12.9,39.4h-41.8l33.8,24.4l-12.9,39.4l33.8-24.4l20.8-15L607.9,326.8L607.9,326.8L607.9,326.8
		L607.9,326.8z"/>
	<path id="Shape_00000155124147350657945740000004241176506388462744_" class="st0" d="M722.5,366.4l23.8-6l9.9,30.6L722.5,366.4z
		 M777.1,326.8h-41.8l-12.9-39.4l-12.9,39.4h-41.8l33.8,24.4l-12.9,39.4l33.8-24.4l20.8-15L777.1,326.8L777.1,326.8L777.1,326.8
		L777.1,326.8z"/>
	<path id="Shape_00000131362776327819300620000011855054010791946398_" class="st0" d="M891.7,366.4l23.8-6l9.9,30.6L891.7,366.4z
		 M946.4,326.8h-41.8l-12.9-39.4l-12.9,39.4H837l33.8,24.4L858,390.6l33.8-24.4l20.8-15L946.4,326.8L946.4,326.8L946.4,326.8
		L946.4,326.8z"/>
</g>
</svg>
