<svg xmlns="http://www.w3.org/2000/svg" width="49.219" height="39.247" viewBox="0 0 49.219 39.247">
  <g id="Group_2654" data-name="Group 2654" transform="translate(-3039.797 -304.275)">
    <path id="Path_18949" data-name="Path 18949" d="M3089.016,321.218c.007-1.147-.48-1.47-1.542-1.433-1.7.061-3.4.079-5.1,0-1.153-.058-1.858.245-1.739,1.678-4.316-1.9-8.44-3.75-12.592-5.537-.9-.384-.523-.748-.181-1.228,1.185-1.661,2.312-3.363,3.547-4.986.81-1.064.9-1.817-.4-2.565a27.4,27.4,0,0,1-3.342-2.335c-.967-.773-1.627-.748-2.314.361-.807,1.3-1.906,2.426-2.6,3.775a12.487,12.487,0,0,1-9.906,7.177,6.663,6.663,0,0,0-4.577,3.236c-2.253,3.328-4.608,6.588-6.9,9.893-.889,1.279-2.117,2.474-1.3,4.285.834,1.838,2.529,1.582,4,1.627-.493,1.957-.981,3.873-1.46,5.792a1.732,1.732,0,0,0,2.749,2.012c2.274-1.491,5-2.4,6.4-5.085a6.763,6.763,0,0,1,.16,1.6c.135,3.5,3.114,5.122,6.041,3.226.667-.432.909-.194,1.405.123a3.73,3.73,0,0,0,5.911-3.012c.069-.945.011-1.9.011-3.062,5.169,3.7,10.193,3.11,15.393-.044,0,1.463.007,2.655,0,3.843-.01,1,.306,1.5,1.436,1.187,1.905-.523,3.828-1.018,5.765-1.432.937-.2,1.137-.733,1.134-1.572C3089,332.9,3088.982,327.058,3089.016,321.218Zm-22.408-14.868c.617,0,3.427,2.243,3.288,2.453a23.547,23.547,0,0,1-1.62,2.148,14.548,14.548,0,0,1-3.141-2.39C3065.629,307.768,3066.167,307,3066.608,306.349Zm-6.473,9.215c1.1-1.572,2.219-3.134,3.3-4.723.388-.568.677-.684,1.337-.268,2.739,1.715,2.754,1.68.888,4.335-2.5,3.56-5.031,7.1-7.463,10.7-.8,1.184-1.63,1.888-3.148,1.654a22.308,22.308,0,0,0-3.083-.023C3054.79,323.2,3057.461,319.384,3060.136,315.565Zm-17.077,17.9c-.518.017-1.041.02-1.362-.493a1.314,1.314,0,0,1,.215-1.566q2.338-3.339,4.68-6.678a23.75,23.75,0,0,0,2.12-3.07c1.718-3.532,5-4.254,8.6-5-3.606,5.125-7.062,10.077-10.574,14.987A4.5,4.5,0,0,1,3043.058,333.466Zm1.133,8.24c.143-.664.207-.988.282-1.307.729-3.039.729-3.039,3.3-.857C3046.642,340.225,3045.552,340.885,3044.192,341.706Zm6.875-6.156a10.873,10.873,0,0,1-1.671,2.518c-.221.3-.48.045-.731-.078-2.858-1.4-2.978-1.841-1.157-4.414.323-.46.664-.905,1.028-1.4a9.847,9.847,0,0,0,1.321,2.211C3050.252,334.821,3051.292,334.936,3051.066,335.549Zm6.547,4.887a2.015,2.015,0,0,1-3.873-.079,16.444,16.444,0,0,1-.2-2.279c.224-.862-.406-2.093.371-2.4a9.592,9.592,0,0,1,3.335-.137.482.482,0,0,1,.518.531A18.606,18.606,0,0,1,3057.614,340.437Zm5.837-.028a1.854,1.854,0,0,1-2.036,1.436,1.883,1.883,0,0,1-1.885-1.627,20.034,20.034,0,0,1-.139-2.181c.037-2.416,1.215-3.224,3.676-2.512.3.086.538.194.531.524A18.885,18.885,0,0,1,3063.451,340.409Zm16.462-5.364c-3.679,2.954-9.9,3.992-14.12-.217a3.216,3.216,0,0,0-2.556-1c-3.288.061-6.578.031-9.866.02-1.936-.007-3.022-.874-3.057-2.4-.037-1.61,1.059-2.479,3.108-2.535,3.56-.1,7.13.234,10.683-.185.2-.02.4-.043.6-.065a8.877,8.877,0,0,0,5.37-2.633c.364-.334.578-.746.225-1.195a.816.816,0,0,0-1.331-.058c-2.7,2.7-6.1,2.587-9.529,2.416-.192-.565.275-.837.513-1.181,1.872-2.7,3.778-5.377,5.643-8.083.425-.616.728-.963,1.606-.561,4.165,1.906,8.369,3.733,12.579,5.541a1.4,1.4,0,0,1,.915,1.559q-.052,4.426,0,8.849A1.962,1.962,0,0,1,3079.912,335.045Zm5.976,4.058c-3.532.826-3.519.891-3.522-2.73,0-1.923,0-3.845,0-5.768,0-2.658.03-5.316-.021-7.975-.013-.857.188-1.142,1.11-1.167,3.876-.1,3.876-.139,3.876,3.659,0,4.015-.048,8.032.027,12.043C3087.379,338.326,3087.073,338.823,3085.888,339.1Z" fill="#ef323c"/>
    <path id="Path_18950" data-name="Path 18950" d="M3062.226,326.184c-.2.021-.4.045-.6.065a.458.458,0,0,1,.146-.143A.417.417,0,0,1,3062.226,326.184Z" transform="translate(2.477 2.473)" fill="#ef323c"/>
    <path id="Path_18951" data-name="Path 18951" d="M3063.376,326.207c-.2.021-.4.045-.6.065h-11.289c3.815-.143,7.633-.742,11.435-.143C3063.077,326.152,3063.226,326.18,3063.376,326.207Z" transform="translate(1.327 2.45)" fill="#ef323c"/>
  </g>
</svg>
