<svg id="Layer_1" data-name="Layer 1" xmlns="http://www.w3.org/2000/svg" viewBox="0 0 50 50"><defs><style>.cls-1{fill:none;stroke:#231f20;stroke-miterlimit:10;stroke-width:0.5px;}</style></defs><path class="cls-1" d="M34.2,34.14a6.52,6.52,0,0,1-5.65.49c-.54-.19-1.08-.38-1.62-.55a4.64,4.64,0,0,0-2.1-.36A7.8,7.8,0,0,1,15.88,29a3,3,0,0,0-1.48-1.48A6.91,6.91,0,0,1,12,16a1.67,1.67,0,0,0,.56-1.84A7.16,7.16,0,0,1,22,5.67a2.18,2.18,0,0,0,1.76-.3c4.29-3.29,9.75-2.64,13,1.69a1.41,1.41,0,0,0,1.77.62A6.88,6.88,0,0,1,47,15.1a2.41,2.41,0,0,0,.58,1.58,5.82,5.82,0,0,1-2.16,9.54A3,3,0,0,0,44,27.63a7.09,7.09,0,0,1-6.34,4.45,3.1,3.1,0,0,0-1.91.85A9.76,9.76,0,0,1,34.2,34.14Zm2.71-3.66a5.39,5.39,0,0,0,5.82-4.19c.23-.88.54-1.28,1.47-1.44a3.9,3.9,0,0,0,3.27-3.11A3.86,3.86,0,0,0,46,17.48a1.76,1.76,0,0,1-.73-2.07A5.25,5.25,0,0,0,38,9.52c-1,.43-1.49.28-2-.71-2.52-4.55-8-5.27-11.72-1.57a1.47,1.47,0,0,1-2,.3,5.44,5.44,0,0,0-6.44.77,5.46,5.46,0,0,0-1.34,6.36c.34.86.3,1.37-.54,1.92a5,5,0,0,0-2.33,5.47,5,5,0,0,0,4.08,4.14,1.8,1.8,0,0,1,1.57,1.56A5.87,5.87,0,0,0,25,31.94a2.13,2.13,0,0,1,2.35.45,5.11,5.11,0,0,0,7.4-.86C35.39,30.71,36,30.14,36.91,30.48Z"/><path class="cls-1" d="M13.28,36.29a8.26,8.26,0,0,1,1.94,1.43,4.91,4.91,0,0,0,7.37.84,2.06,2.06,0,0,1,2.46-.48,5.78,5.78,0,0,0,6-1.22h0a.76.76,0,0,1,1.07,1,.58.58,0,0,1-.1.12,7.44,7.44,0,0,1-6.88,1.79,3,3,0,0,0-2,.31,7.06,7.06,0,0,1-9-1.13,3.11,3.11,0,0,0-1.82-.79A7.1,7.1,0,0,1,6,33.8a3.21,3.21,0,0,0-1.48-1.5,5.84,5.84,0,0,1-2.11-9.47A2.82,2.82,0,0,0,3,21a6.82,6.82,0,0,1,6.57-7.3l.17,0a.75.75,0,0,1,0,1.47h0c-3.55.39-5.66,3.08-4.95,6.58a1.51,1.51,0,0,1-.71,1.79,4,4,0,0,0-1.53,4.39A4,4,0,0,0,5.86,31a1.48,1.48,0,0,1,1.39,1.32A5,5,0,0,0,13.28,36.29Z"/><path class="cls-1" d="M38.88,32.94a2.85,2.85,0,0,1,2.94,2.75,2.89,2.89,0,0,1-3,2.72,2.93,2.93,0,0,1-3-2.84A3,3,0,0,1,38.88,32.94Z"/><path class="cls-1" d="M14.2,41.83a2.94,2.94,0,0,1-3,2.71,2.89,2.89,0,0,1-3-2.87,2.82,2.82,0,0,1,3.08-2.57A2.78,2.78,0,0,1,14.2,41.83Z"/><path class="cls-1" d="M46.19,38.48a2.16,2.16,0,0,1-4.31.14,2,2,0,0,1,2-2A2,2,0,0,1,46.19,38.48Z"/><path class="cls-1" d="M6,46.71a2.12,2.12,0,0,1-2.19-1.92,2.06,2.06,0,0,1,2.1-2.15,2.12,2.12,0,0,1,2.2,1.91A2.09,2.09,0,0,1,6,46.71Z"/><path class="cls-1" d="M29.49,16.45c-2.11,0-4.23,0-6.34,0l-.14,0A.74.74,0,0,1,23,15l.11,0q6.4-.07,12.83,0l.24.06a.75.75,0,0,1-.12,1.41H36C33.82,16.49,31.65,16.45,29.49,16.45Z"/><path class="cls-1" d="M29.62,18.43c2.06,0,4.13-.05,6.18,0a.66.66,0,0,1,.27.06A.75.75,0,0,1,36,20h-.11q-6.27.09-12.53,0h-.13a.76.76,0,0,1,0-1.48h.12C25.39,18.38,27.51,18.43,29.62,18.43Z"/><path class="cls-1" d="M26.65,23.57c-1.18,0-2.37.07-3.54,0a.86.86,0,0,1-.3-.09.72.72,0,0,1,.1-1.35H23q3.7-.11,7.41,0h.1a.73.73,0,0,1,.12,1.37.92.92,0,0,1-.27.08C29.13,23.64,27.89,23.57,26.65,23.57Z"/></svg>