<?xml version="1.0" encoding="utf-8"?>
<!-- Generator: Adobe Illustrator 25.0.1, SVG Export Plug-In . SVG Version: 6.00 Build 0)  -->
<svg version="1.1" id="Layer_1" xmlns="http://www.w3.org/2000/svg" xmlns:xlink="http://www.w3.org/1999/xlink" x="0px" y="0px"
	 viewBox="0 0 48 48" style="enable-background:new 0 0 48 48;" xml:space="preserve">
<style type="text/css">
	.st0{fill:#B3001B;}
</style>
<g>
	<path class="st0" d="M0,28.3c0.2-1,0.4-2.1,0.7-3.1c1-2.9,3-5.1,5.7-6.5c0.2-0.1,0.3-0.2,0.4-0.2c-0.5-0.7-1-1.4-1.3-2.1
		C3.4,12,6.3,6.8,11,6.2c1.6-0.2,3.2,0.1,4.6,0.9c0.5,0.3,0.6,0.7,0.4,1.1c-0.2,0.4-0.6,0.5-1.1,0.3c-0.7-0.3-1.3-0.6-2-0.7
		c-2.3-0.4-4.1,0.5-5.4,2.3C6.1,11.9,6,14,7.1,15.9c1.1,2,2.9,3,5.2,2.9c0.4,0,0.7-0.1,1.1-0.2c0.6-0.1,1,0.1,1.1,0.5
		c0.1,0.5-0.2,0.9-0.7,1c-1.7,0.4-3.4,0.3-5-0.5c-0.2-0.1-0.5-0.1-0.7,0c-4,1.8-6.2,4.9-6.4,9.2c-0.1,1.4,0,2.8,0,4.3
		c2.4,0,4.8,0,7.3,0c0.8-5.6,3.7-9.7,8.8-12.2c-3.8-4-2.9-9.7,0.5-12.7c3.2-2.9,8.3-2.9,11.5-0.2c3.5,3,4.5,8.8,0.6,12.9
		c5.1,2.4,8.2,7.2,8.8,12.2c2.4,0,4.8,0,7.3,0c-0.1-2.9,0.3-5.7-1-8.4c-1.2-2.4-3-4.1-5.5-5.1c-0.2-0.1-0.5-0.1-0.7,0
		c-1.6,0.8-3.2,1-4.9,0.5c-0.6-0.1-0.9-0.5-0.8-1c0.1-0.5,0.5-0.7,1.1-0.6c2.8,0.6,5.4-0.7,6.5-3.2c0.9-2.1,0.4-4.6-1.3-6.2
		c-1.7-1.6-4.2-2-6.3-0.9c-0.2,0.1-0.4,0.2-0.5,0.3c-0.4,0.2-0.8,0-1-0.4c-0.2-0.4-0.1-0.8,0.3-1c0.6-0.3,1.2-0.6,1.8-0.8
		c3.1-0.9,6.3,0.5,8,3.3c1.6,2.7,1.3,6.1-0.9,8.5c-0.1,0.1-0.1,0.2-0.2,0.2c0.9,0.6,1.8,1.1,2.6,1.8c2.7,2.2,4.1,5.1,4.2,8.6
		c0.1,1.7,0,3.5,0,5.2c0,0.7-0.3,0.9-1,0.9c-2.4,0-4.8,0-7.2,0c-0.2,0-0.3,0-0.6,0c0,0.2,0,0.4,0,0.5c0,1.9,0,3.7,0,5.6
		c0,0.8-0.3,1.1-1.1,1.1c-9.4,0-18.8,0-28.2,0c-0.8,0-1-0.3-1.1-1c0-2,0-4.1,0-6.2c-0.2,0-0.4,0-0.6,0c-2.4,0-4.8,0-7.2,0
		c-0.5,0-0.8-0.1-1.1-0.6C0,32.3,0,30.3,0,28.3z M37.6,40.4c0-0.1,0-0.2,0-0.3c0-1.8,0.1-3.6,0-5.3c-0.2-5.8-3-9.9-8.3-12.4
		c-0.3-0.1-0.5-0.1-0.8,0c-1.1,0.7-2.2,1.1-3.5,1.2c-2,0.2-3.8-0.2-5.6-1.2c-0.2-0.1-0.4-0.2-0.5-0.1c-1.8,0.7-3.4,1.7-4.7,3.1
		c-2.6,2.7-3.8,6-3.8,9.8c0,1.6,0,3.2,0,4.7c0,0.2,0,0.3,0,0.5C19.5,40.4,28.5,40.4,37.6,40.4z M23.9,22.1c3.9,0.1,7.2-3.1,7.3-7.1
		c0.1-3.9-3.1-7.2-7.1-7.3c-3.9-0.1-7.2,3.1-7.3,7.1C16.7,18.7,19.9,22,23.9,22.1z"/>
</g>
</svg>
