<?xml version="1.0" encoding="utf-8"?>
<!-- Generator: Adobe Illustrator 25.0.1, SVG Export Plug-In . SVG Version: 6.00 Build 0)  -->
<svg version="1.1" id="Layer_1" xmlns="http://www.w3.org/2000/svg" xmlns:xlink="http://www.w3.org/1999/xlink" x="0px" y="0px"
	 viewBox="0 0 48 48" style="enable-background:new 0 0 48 48;" xml:space="preserve">
<style type="text/css">
	.st0{fill:#B3001B;}
</style>
<g>
	<path class="st0" d="M22.6,47c-0.9-0.1-1.7-0.2-2.6-0.4c-6.5-1.2-11.5-4.5-15.2-10C2.7,33.5,1.4,30,1.1,26.3
		C0.5,18.5,3.1,11.9,8.9,6.7c3.6-3.2,7.9-5.1,12.8-5.5C29.5,0.4,36,3,41.3,8.9c3.3,3.6,5.1,8,5.6,12.8c0,0.3,0.1,0.6,0.1,1
		c0,0.9,0,1.8,0,2.7c0,0.1-0.1,0.3-0.1,0.4c-0.2,3.2-1.1,6.2-2.6,9.1c-3.6,6.5-9,10.5-16.3,11.8c-0.9,0.2-1.7,0.2-2.6,0.4
		C24.4,47,23.5,47,22.6,47z M44.6,24c0-11.4-9.2-20.6-20.6-20.7C12.6,3.3,3.3,12.6,3.3,24c0,11.4,9.2,20.6,20.6,20.7
		C35.3,44.7,44.6,35.4,44.6,24z"/>
	<path class="st0" d="M22.4,23.9c-1.9-1.9-3.6-3.6-5.4-5.4c-0.4-0.4-0.9-0.9-1.3-1.3c-0.5-0.5-0.6-1.3-0.1-1.7
		c0.5-0.5,1.2-0.4,1.7,0.1c2.1,2.1,4.2,4.2,6.3,6.3c0.1,0.1,0.2,0.2,0.3,0.3c0.1-0.1,0.2-0.2,0.4-0.3c2.1-2.1,4.1-4.1,6.2-6.2
		c0.3-0.3,0.7-0.5,1.2-0.4c0.8,0.2,1.2,1.1,0.7,1.8c-0.1,0.1-0.2,0.3-0.4,0.4c-2,2-4.1,4.1-6.1,6.1c-0.1,0.1-0.3,0.2-0.5,0.4
		c0.2,0.1,0.4,0.2,0.5,0.3c2.1,2,4.1,4.1,6.2,6.1c0.3,0.3,0.5,0.6,0.5,1.1c-0.1,0.9-1,1.4-1.8,0.8c-0.1-0.1-0.3-0.2-0.4-0.4
		c-2-2-4.1-4.1-6.1-6.1c-0.1-0.1-0.2-0.3-0.3-0.4c-0.2,0.2-0.3,0.3-0.4,0.4c-2.1,2.1-4.1,4.1-6.2,6.2c-0.3,0.3-0.7,0.6-1.2,0.4
		c-0.8-0.2-1.2-1.1-0.7-1.8c0.1-0.1,0.2-0.3,0.4-0.4c2-2,4-4,6.1-6C22.1,24.2,22.2,24.1,22.4,23.9z"/>
</g>
</svg>
