<?xml version="1.0" encoding="utf-8"?>
<!-- Generator: Adobe Illustrator 25.0.1, SVG Export Plug-In . SVG Version: 6.00 Build 0)  -->
<svg version="1.1" id="Layer_1" xmlns="http://www.w3.org/2000/svg" xmlns:xlink="http://www.w3.org/1999/xlink" x="0px" y="0px"
	 viewBox="0 0 48 48" style="enable-background:new 0 0 48 48;" xml:space="preserve">
<style type="text/css">
	.st0{fill:#B3001B;}
</style>
<g>
	<path class="st0" d="M35.5,18.6c0.1,5.2-1.7,9.4-5.7,12.7c-0.8,0.7-1.7,1.3-2.5,2c-0.2,0.1-0.2,0.4-0.3,0.6c0,0.2,0,0.4,0,0.6
		c0,0.6,0,1.1,0.7,1.6c1.3,0.9,1.1,3-0.4,3.7c-0.1,0.1-0.3,0.1-0.4,0.2c0,0.2,0.1,0.4,0.1,0.6c0.1,0.9-0.4,1.8-1.3,2.3
		c-0.2,0.1-0.3,0.3-0.4,0.5c-0.5,2.5-2.7,4.4-5.3,4.4c-2.6,0-4.8-1.9-5.3-4.4c0-0.2-0.1-0.3-0.2-0.4c-1.3-0.8-1.5-1.4-1.3-2.9
		c-0.4-0.3-0.8-0.5-1.1-0.9c-1-1.1-0.6-2.7,0.6-3.4c0.3-0.1,0.3-0.3,0.4-0.6c0.2-1.2-0.3-2-1.3-2.7c-1.7-1.2-3.2-2.5-4.4-4.2
		C2,20.6,5.2,9.5,14,5.9c2.7-1.1,4.8-1.2,7.6-1.1c0,2.3,0,4.5,0,6.9c-0.4,0-0.8,0-1.2,0c-1.1,0-1.9,0.6-1.8,1.5
		c0,0.9,0.7,1.5,1.9,1.5c0.4,0,0.8,0,1.2,0c0,1.3,0,2.5,0,3.8c1,0,2,0,3.1,0c0.1-1,0.5-1.9,1.4-2.5c0.6-0.4,1.3-0.6,2-0.5
		c1.5,0.1,2.6,1.3,2.8,3C32.4,18.6,33.9,18.6,35.5,18.6z M20.1,29.4c-1.9-0.3-3-1.4-3-3c0-1.7,1-2.8,3-3.2c0-1,0-2,0-3
		c-1.5,0-3,0-4.6,0c0-0.5,0-0.9,0-1.4c0-1-0.7-1.7-1.5-1.7c-0.9,0-1.5,0.7-1.5,1.7c0,0.5,0,0.9,0,1.4c-2.1,0-4.1,0-6.1,0
		c0,0.1,0,0.2,0,0.3c0.2,3.1,1.3,5.9,3.5,8.1c1.4,1.5,3.1,2.7,4.6,4c0.2,0.2,0.3,0.4,0.3,0.7c0,0.7,0,1.5,0,2.2c1.8,0,3.6,0,5.3,0
		C20.1,33.4,20.1,31.4,20.1,29.4z M25.5,35.5c0-0.8,0-1.5,0-2.2c0-0.3,0.1-0.5,0.3-0.7c1.1-0.9,2.2-1.8,3.2-2.6
		c2.2-1.8,3.7-4.1,4.4-6.9c0.2-0.9,0.3-1.9,0.5-2.9c-1.6,0-3.1,0-4.7,0c0-0.5,0-1,0-1.5c0-0.9-0.7-1.6-1.5-1.6
		c-0.9,0-1.5,0.7-1.6,1.6c0,0.5,0,1,0,1.5c-1.6,0-3.1,0-4.6,0c0,1.6,0,3.1,0,4.6c-0.5,0-0.9,0-1.4,0c-1,0-1.7,0.6-1.7,1.5
		c0,0.9,0.7,1.5,1.7,1.5c0.5,0,0.9,0,1.4,0c0,2.6,0,5.1,0,7.7c1.2,0,2.3,0,3.4,0C25.2,35.5,25.3,35.5,25.5,35.5z M17.1,18.6
		c0.5,0,1,0,1.5,0c0.5,0,1,0,1.5,0c0-0.8,0-1.5,0-2.3c-2-0.4-3-1.5-3-3.1c0-1.6,1.1-2.8,3-3.1c0-1.3,0-2.5,0-3.8
		C12.7,6,6.7,12.1,6.4,18.6c1.5,0,3,0,4.5,0c0.2-1.9,1.5-3.1,3.1-3C15.7,15.6,16.9,16.8,17.1,18.6z M20.2,37c-0.8,0-1.5,0-2.3,0
		c-1.3,0-2.5,0-3.8,0c-0.4,0-0.7,0.2-0.8,0.5c0,0.3,0.1,0.6,0.2,0.8c0.1,0.2,0.5,0.2,0.7,0.2c3.4,0,6.8,0,10.3,0c0.6,0,1.2,0,1.7,0
		c0.5,0,0.9-0.4,0.8-0.9c-0.1-0.4-0.4-0.7-0.9-0.7C24.2,37,22.2,37,20.2,37z M23.9,43.2c-2.5,0-5,0-7.4,0c0.3,1.7,1.9,3,3.7,3
		C22,46.3,23.6,44.9,23.9,43.2z M20.2,40.1c-1.5,0-3,0-4.5,0c-0.6,0-1,0.3-1,0.8c0,0.5,0.4,0.8,1,0.8c2.9,0,5.9,0,8.8,0
		c0.6,0,1-0.3,1-0.8c0-0.5-0.4-0.8-1-0.8C23.1,40.1,21.7,40.1,20.2,40.1z"/>
	<path class="st0" d="M27.9,10.2C26,10,24.8,8.8,24.8,7.1c0-1.7,1.2-2.9,3.1-3.1c0-0.5,0-0.9,0-1.4c0-1.4,1-2.4,2.4-2.4
		c3.5,0,7.1,0,10.6,0c1.4,0,2.4,1,2.4,2.4c0,3,0,6.1,0,9.1c0,1.3-1,2.3-2.3,2.3c-1.2,0-2.5,0-3.8,0c0-0.5,0-0.9,0-1.4
		c0-1-0.6-1.7-1.5-1.7c-0.9,0-1.5,0.7-1.6,1.7c0,0.4,0,0.9,0,1.4c-1,0-2,0-3.1,0c-1,0-2,0-3.1,0C27.9,12.7,27.9,11.5,27.9,10.2z
		 M38.6,12.5c0.7,0,1.4,0,2,0c0.8,0,1-0.3,1-1c0-2.9,0-5.8,0-8.7c0-0.8-0.3-1-1-1c-2.3,0-4.5,0-6.8,0c-1.2,0-2.4,0-3.6,0
		c-0.6,0-0.8,0.3-0.9,0.9c0,0.3,0,0.5,0,0.8c0,0.7,0,1.5,0,2.2c-0.5,0-1,0-1.4,0c-1,0-1.7,0.6-1.7,1.5C26.3,8,27,8.6,28,8.7
		c0.5,0,0.9,0,1.4,0c0,1.3,0,2.6,0,3.8c1,0,2,0,3,0c0.3-1.9,1.5-3.1,3.2-3C37.2,9.4,38.4,10.6,38.6,12.5z"/>
</g>
</svg>
