<svg id="Layer_1" data-name="Layer 1" xmlns="http://www.w3.org/2000/svg" viewBox="0 0 48 48"><defs><style>.cls-1{fill:#b3001b;}</style></defs><path class="cls-1" d="M47.68,29.79c-.07.31-.14.62-.22.93a7.12,7.12,0,0,1-6.75,5.34H39.8v7.63a.93.93,0,0,1-.39.93.82.82,0,0,1-1.08-.21L35.92,42c-1.87-1.87-3.74-3.73-5.59-5.6a1,1,0,0,0-.81-.33c-1.57,0-3.15.08-4.71-.07a7,7,0,0,1-6.34-7v-.85c-.68,0-1.33,0-2,0-.12,0-.24.17-.35.28-2.14,2.14-4.27,4.28-6.42,6.4a1.36,1.36,0,0,1-.83.36c-.43,0-.67-.37-.67-.94V28.22c-.71-.06-1.38-.07-2-.18A7.06,7.06,0,0,1,.33,21.15c0-3.14,0-6.29,0-9.43A7.07,7.07,0,0,1,7.41,4.49q7.52-.07,15,0a7.08,7.08,0,0,1,7.1,7.24v.65H40.33a7.05,7.05,0,0,1,7.28,6.13,1.22,1.22,0,0,0,.07.17ZM38.05,42l.17-.09v-.4c0-2,0-4,0-6,0-.69.26-1,1-1h1.48a5.54,5.54,0,0,0,5.45-5.57q0-4.71,0-9.43A5.49,5.49,0,0,0,40.58,14q-7.48,0-15,0a5.48,5.48,0,0,0-5.54,5.46q-.06,4.79,0,9.57A5.41,5.41,0,0,0,25,34.42c1.62.15,3.26.07,4.89.06a1.69,1.69,0,0,1,1.31.53c2.13,2.16,4.29,4.3,6.43,6.45A5.52,5.52,0,0,1,38.05,42ZM9.79,32.56l.46-.44c1.69-1.69,3.39-3.37,5.07-5.08a1.42,1.42,0,0,1,1.14-.46c.66,0,1.32,0,2,0V26c0-2.18,0-4.35,0-6.52a7.15,7.15,0,0,1,5.25-6.88,13.94,13.94,0,0,1,3.59-.23H28a17.89,17.89,0,0,0-.19-1.91,5.47,5.47,0,0,0-5.57-4.4q-7,0-14.1,0c-.37,0-.74,0-1.11,0a5.49,5.49,0,0,0-5.13,5.34q0,4.91,0,9.81A5.38,5.38,0,0,0,6,26.36a16.73,16.73,0,0,0,2.75.22c.8,0,1.06.25,1.06,1.05v4.93Z"/><path class="cls-1" d="M33.08,29.75H24.39c-.79,0-1.17-.26-1.17-.79s.38-.8,1.17-.8H41.77c.79,0,1.18.26,1.18.8s-.39.79-1.18.79Z"/><path class="cls-1" d="M33.07,20.27H24.24a.81.81,0,0,1-1-.92c.06-.24.36-.45.59-.62s.3,0,.45,0h17.8a.83.83,0,0,1,.84.81.8.8,0,0,1-.87.76h-9Z"/><path class="cls-1" d="M33.05,25H24.36a2.9,2.9,0,0,1-.51,0,.7.7,0,0,1-.61-.65.71.71,0,0,1,.45-.82,2,2,0,0,1,.64-.08H41.85a2,2,0,0,1,.54.06.72.72,0,0,1,.54.81.73.73,0,0,1-.68.7,4.34,4.34,0,0,1-.51,0Z"/><path class="cls-1" d="M13.37,10.81h7.9a3.49,3.49,0,0,1,.46,0,.73.73,0,0,1,.68.7.7.7,0,0,1-.5.79,2.29,2.29,0,0,1-.64.07H5.42a1.91,1.91,0,0,1-.63-.07A.77.77,0,0,1,5,10.82a3.53,3.53,0,0,1,.46,0Z"/><path class="cls-1" d="M11,17.11H5.21a.85.85,0,0,1-.87-.48A.77.77,0,0,1,5,15.55c.3,0,.61,0,.92,0h11a.79.79,0,1,1,0,1.57c-.4,0-.8,0-1.2,0Z"/><path class="cls-1" d="M10.55,21.84H5.38a2.34,2.34,0,0,1-.46,0,.73.73,0,0,1-.63-.65.71.71,0,0,1,.45-.82,1.43,1.43,0,0,1,.54-.09H15.91a1.43,1.43,0,0,1,.41,0,.76.76,0,0,1,.56.84.72.72,0,0,1-.69.68,3,3,0,0,1-.42,0Z"/></svg>