<svg id="Layer_1" data-name="Layer 1" xmlns="http://www.w3.org/2000/svg" viewBox="0 0 48 48"><defs><style>.cls-1{fill:#b3001b;}</style></defs><path class="cls-1" d="M48,19s0,0-.06.07a3.15,3.15,0,0,1-4,2.4l-.3.44Q40,27.62,36.4,33.35a1.4,1.4,0,0,1-1.33.74q-11.08,0-22.16,0a1.39,1.39,0,0,1-1.3-.73C9.2,29.51,6.77,25.67,4.36,21.82a.56.56,0,0,0-.7-.3A3.12,3.12,0,0,1,0,18.83a3.15,3.15,0,1,1,6.27-.62,3.3,3.3,0,0,1-.58,2.05l5.92,3.85c.32-.7.63-1.36.94-2,.21-.47.42-.94.65-1.4a.88.88,0,0,1,1.15-.53c1.49.65,3,1.34,4.47,2l4-6A3.29,3.29,0,0,1,21,14.1,3.07,3.07,0,0,1,21,12.16a3.15,3.15,0,0,1,6,.32c.36,1.46-.27,2.73-1.89,3.7l4,6,4.15-1.91c.76-.35,1.19-.18,1.55.58.48,1,1,2.09,1.47,3.18l5.94-3.77a3.1,3.1,0,0,1,0-3.67,3,3,0,0,1,3.08-1.26,3,3,0,0,1,2.46,2.12c0,.16.11.32.16.48Zm-8,5c-.24.14-.38.21-.5.29L32.68,28.6c-.83.53-1.24.44-1.78-.37l-6.59-9.9c-.09-.14-.19-.27-.32-.45l-.36.54q-3.31,5-6.61,9.94c-.53.79-1,.88-1.76.36L8.51,24.33l-.4-.24c1.56,2.62,3.17,5.16,4.76,7.72a.72.72,0,0,0,.7.39q10.42,0,20.85,0a.72.72,0,0,0,.71-.39q2.29-3.68,4.61-7.33C39.82,24.35,39.88,24.22,40,24ZM15.78,26.8l2-3-3.21-1.47-1.32,2.84Zm17.65-4.49-3.21,1.48,1.93,2.9,2.56-1.62ZM3.14,17.19a1.25,1.25,0,1,0,1.27,1.23A1.24,1.24,0,0,0,3.14,17.19Zm40.45,1.24a1.26,1.26,0,1,0,1.26-1.24A1.27,1.27,0,0,0,43.59,18.43ZM25.24,13.29a1.24,1.24,0,1,0-1.3,1.18A1.23,1.23,0,0,0,25.24,13.29Z"/><path class="cls-1" d="M24,36.11H35.54a.92.92,0,0,1,.88.87.94.94,0,0,1-.8,1,4.34,4.34,0,0,1-.51,0H12.9c-.87,0-1.33-.33-1.33-1s.46-.94,1.35-.94Z"/></svg>