<svg id="Layer_1" data-name="Layer 1" xmlns="http://www.w3.org/2000/svg" viewBox="0 0 48 48"><defs><style>.cls-1{fill:#b3001b;}</style></defs><path class="cls-1" d="M48,41.11c-.55.72-.84.76-1.66.36a27.13,27.13,0,0,0-7-2.23,34.57,34.57,0,0,0-14.67.42,4.55,4.55,0,0,1-2.11-.17,34,34,0,0,0-17.3.61,36.27,36.27,0,0,0-3.7,1.44c-.92.39-1.55,0-1.55-1V11.38c0-.86.32-1.19,1.18-1.19H4.06c0-.35,0-.65,0-1A1,1,0,0,1,5,8.13a25.35,25.35,0,0,1,9.34-.63,15.57,15.57,0,0,1,9.48,4.31L24,12l.31-.27a15.57,15.57,0,0,1,8.3-4A25.18,25.18,0,0,1,43,8.14a1,1,0,0,1,.85,1.06c0,.31,0,.62,0,1h1.8c.34,0,.69,0,1,0a1.21,1.21,0,0,1,1.27.66ZM5.93,9.84V34.29c5.94-.6,11.74-.52,17.09,2.6,0-.08,0-.11,0-.14q0-11.34,0-22.67a.85.85,0,0,0-.23-.52,12.21,12.21,0,0,0-5-3.26A21.77,21.77,0,0,0,5.93,9.84ZM42,9.87l-.19-.06a23.15,23.15,0,0,0-9-.24A13.48,13.48,0,0,0,25.2,13.5a1.09,1.09,0,0,0-.28.68q0,11.15,0,22.29c0,.13,0,.26,0,.41,5.37-3.1,11.14-3.21,17.06-2.59ZM1.88,39.32A34.64,34.64,0,0,1,18.49,37a1.31,1.31,0,0,0-.37-.15,22.29,22.29,0,0,0-7.39-1c-1.82.07-3.64.26-5.45.41a1,1,0,0,1-1.19-1c0-.17,0-.34,0-.51V12.09H1.88Zm42-27.24V34.89a4.34,4.34,0,0,1,0,.51.91.91,0,0,1-1,.87,5.27,5.27,0,0,1-.56,0,33.35,33.35,0,0,0-9.09-.16c-1.3.18-2.57.51-3.86.77l0,.15a34.29,34.29,0,0,1,16.65,2.34V12.08Z"/></svg>