<?xml version="1.0" encoding="utf-8"?>
<!-- Generator: Adobe Illustrator 25.0.1, SVG Export Plug-In . SVG Version: 6.00 Build 0)  -->
<svg version="1.1" id="Layer_1" xmlns="http://www.w3.org/2000/svg" xmlns:xlink="http://www.w3.org/1999/xlink" x="0px" y="0px"
	 viewBox="0 0 48 48" style="enable-background:new 0 0 48 48;" xml:space="preserve">
<style type="text/css">
	.st0{fill:#B3001B;}
</style>
<g>
	<path class="st0" d="M24.6,0.6c0.9,0.2,1.8,0.3,2.7,0.5c6.6,1.5,11.9,7.1,13,13.8c0.4,2.6,0.2,5.1-0.5,7.6
		c-0.3,0.9-0.5,1.7-0.8,2.6c-0.2,0.6-0.5,0.8-1,0.7c-0.4-0.1-0.5-0.5-0.4-1.1c0.4-1.6,1-3.1,1.2-4.7c0.9-6-1.1-11-5.9-14.6
		c-5.2-4-10.9-4.6-16.8-1.5C11.7,6.2,9.2,10,8.6,15c-0.2,1.8,0,3.6,0.2,5.4c0,0.5,0.1,1,0.1,1.4c0,0.4-0.2,0.9-0.4,1.2
		c-0.7,1.2-1.5,2.3-1.9,3.7c-0.3,1-0.4,2-0.6,3.2c0.9,0,1.6,0,2.3,0c0.8,0,0.9,0.1,1.1,0.9C9.7,32.9,10,35,10.4,37
		c0.2,1.2,0.8,1.8,2.1,1.8c2.2,0,4.3,0,6.5,0c1.8,0,3,1.1,3,2.9c0,1.8,0,3.6,0,5.4c0,0.4-0.1,0.8-0.6,0.9c-0.5,0.1-0.8-0.3-0.8-0.8
		c0-1.7,0-3.5,0-5.2c0-1.3-0.4-1.7-1.7-1.7c-2.1,0-4.2,0-6.3,0c-1.2,0-2.3-0.4-2.9-1.4c-0.3-0.5-0.5-1-0.6-1.6
		c-0.4-1.8-0.7-3.7-1-5.6c0-0.1-0.1-0.2-0.1-0.3c-0.6,0-1.2,0-1.8,0c-0.9,0-1.4-0.5-1.4-1.4c0-2.3,0.6-4.5,1.9-6.4
		c0.7-1,0.9-1.9,0.7-3.1c-0.2-1.8-0.4-3.6-0.2-5.5c0.5-3.9,2.1-7.1,4.9-9.8c2.7-2.6,6-4,9.7-4.4c0.1,0,0.2,0,0.3-0.1
		C22.9,0.6,23.8,0.6,24.6,0.6z"/>
	<path class="st0" d="M11.2,17.4c0.1-7.2,6.2-12.8,13.5-12.3c2.2,0.2,4.3,0.9,6.1,2.1c0.5,0.3,0.6,0.7,0.3,1.1
		c-0.2,0.3-0.6,0.4-1.1,0.1c-1.3-0.9-2.8-1.5-4.4-1.7c-5.8-1.1-11.7,2.9-12.8,8.7c-1.1,6,2.6,11.5,8.5,12.9
		c6.1,1.4,12.3-2.7,13.3-8.8c0.6-3.3-0.2-6.2-2.3-8.8C32,10.1,32,9.7,32.3,9.4c0.3-0.3,0.8-0.2,1.1,0.2c1.2,1.4,2,3,2.5,4.8
		c1.8,7.1-2.9,14.1-10.3,15.3c-6.6,1-13.1-3.6-14.2-10.1C11.3,18.9,11.2,18.1,11.2,17.4z"/>
	<path class="st0" d="M23.7,11.8c1.5-1.5,3.3-1.9,5.2-1.2c2.9,1.1,3.8,4.8,1.8,7.1c-1.7,1.9-3.5,3.8-5.2,5.7c-1.2,1.4-2.4,1.4-3.5,0
		c-0.4-0.5-0.9-1-1.4-1.5c-0.3-0.4-0.4-0.8,0-1.1c0.3-0.3,0.7-0.2,1.1,0.1c0.6,0.6,1.1,1.2,1.7,1.8c0.3,0.3,0.5,0.3,0.8,0
		c1.8-1.9,3.6-3.9,5.4-5.8c1.2-1.4,1.2-3.3-0.1-4.5c-1.3-1.2-3.2-1.2-4.6,0.1c-0.2,0.2-0.4,0.4-0.6,0.6c-0.3,0.3-0.7,0.3-1,0
		c-0.3-0.2-0.5-0.5-0.8-0.7c-1.3-1.2-3.2-1.1-4.4,0c-1.2,1.2-1.3,3-0.2,4.3c0.5,0.6,1.1,1.2,1.6,1.7c0.4,0.4,0.4,0.8,0.1,1.1
		c-0.3,0.3-0.7,0.3-1.1-0.2c-0.6-0.6-1.1-1.2-1.6-1.8c-1.6-1.9-1.5-4.6,0.3-6.2c1.8-1.7,4.5-1.7,6.3-0.1
		C23.5,11.6,23.6,11.7,23.7,11.8z"/>
	<path class="st0" d="M35.2,40.1c0-2.2,0-4.5,0-6.7c0-0.3,0.1-0.7,0.1-1c0.4-1.5,0.9-2.9,1.3-4.4c0.1-0.4,0.3-0.6,0.7-0.6
		c0.5,0,0.8,0.4,0.6,1c-0.4,1.2-0.8,2.4-1.1,3.7c-0.2,0.6-0.3,1.3-0.3,2c0,4.2,0,8.4,0,12.6c0,0.1,0,0.2,0,0.3c0,0.7-0.2,1-0.7,1
		c-0.5,0-0.7-0.3-0.7-1.1C35.2,44.6,35.2,42.3,35.2,40.1z"/>
	<path class="st0" d="M43.8,12.3c-0.3,0-0.5,0-0.8,0c-0.4,0-0.7-0.3-0.7-0.7c0-0.4,0.3-0.7,0.7-0.7c0.5,0,1.1,0,1.6,0
		c0.4,0,0.7,0.3,0.7,0.7c0,0.4-0.3,0.7-0.7,0.7C44.4,12.3,44.1,12.3,43.8,12.3z"/>
	<path class="st0" d="M39,5.5c-0.6,0-0.9-0.4-0.8-0.9c0.1-0.5,0.3-1,0.5-1.5c0.1-0.4,0.5-0.5,0.9-0.4c0.4,0.1,0.5,0.4,0.4,0.8
		c-0.2,0.5-0.3,1.1-0.6,1.6C39.3,5.3,39.1,5.4,39,5.5z"/>
	<path class="st0" d="M43.7,6.5c0,0.6-1.5,1.8-1.9,1.7c-0.2-0.1-0.5-0.2-0.5-0.4c-0.1-0.2,0-0.5,0.1-0.7c0.4-0.4,0.8-0.7,1.3-1.1
		c0.2-0.1,0.5-0.1,0.7,0C43.6,6.2,43.7,6.4,43.7,6.5z"/>
</g>
</svg>
