<?xml version="1.0" encoding="utf-8"?>
<!-- Generator: Adobe Illustrator 25.0.1, SVG Export Plug-In . SVG Version: 6.00 Build 0)  -->
<svg version="1.1" id="Layer_1" xmlns="http://www.w3.org/2000/svg" xmlns:xlink="http://www.w3.org/1999/xlink" x="0px" y="0px"
	 viewBox="0 0 48 48" style="enable-background:new 0 0 48 48;" xml:space="preserve">
<style type="text/css">
	.st0{fill:#B3001B;}
</style>
<g>
	<path class="st0" d="M23.3,0.7c0.5,0,1,0,1.5,0c0.1,0,0.1,0.1,0.2,0.1c2.7,0.5,4.4,2.5,4.6,5.2c0,0.3,0.2,0.3,0.4,0.4
		c5.8,2,9.7,6,11.7,11.7c0.1,0.3,0.2,0.4,0.5,0.4c1.7,0.1,3,0.8,4.1,2.1c0.6,0.8,0.9,1.7,1.2,2.6c0,0.5,0,1,0,1.5
		c0,0.1-0.1,0.1-0.1,0.2c-0.6,2.7-2.5,4.4-5.2,4.6c-0.3,0-0.3,0.2-0.4,0.4c-2,5.8-5.9,9.7-11.7,11.7c-0.3,0.1-0.4,0.2-0.4,0.5
		c-0.1,1.7-0.8,3.1-2.2,4.1c-0.8,0.6-1.6,0.9-2.6,1.1c-0.5,0-1,0-1.5,0c-0.1,0-0.1-0.1-0.2-0.1c-2.7-0.6-4.4-2.5-4.6-5.2
		c0-0.3-0.2-0.3-0.4-0.4c-4-1.3-7.1-3.7-9.5-7.2c-1-1.5-1.8-3.1-2.3-4.9c-0.1,0-0.1,0-0.1,0c-0.1,0-0.1,0-0.2,0
		c-1.8-0.1-3.3-0.8-4.3-2.3c-0.5-0.7-0.7-1.6-1-2.4c0-0.5,0-1,0-1.5c0-0.1,0.1-0.1,0.1-0.2c0.5-2.6,2.6-4.4,5.2-4.5
		c0.3,0,0.4-0.2,0.5-0.4c2-5.8,5.9-9.7,11.7-11.7c0.3-0.1,0.4-0.2,0.4-0.5c0.1-1.7,0.8-3,2.1-4.1C21.4,1.3,22.3,1,23.3,0.7z
		 M18.7,40.3c0.9-2.4,2.5-3.8,5-3.9c2.7-0.1,4.5,1.3,5.5,3.8c4.8-1.4,9.5-5.7,11-11c-2.4-0.9-3.9-2.6-3.9-5.3c0-2.6,1.5-4.3,3.9-5.3
		c-1.5-5.3-6.3-9.7-11-11c-0.9,2.3-2.5,3.7-4.9,3.8c-2.8,0.1-4.6-1.3-5.6-3.9c-5.3,1.5-9.7,6.2-11,11c2.2,0.8,3.6,2.4,3.8,4.8
		c0.2,2.9-1.3,4.7-3.9,5.8C9.7,34.7,13.3,38.4,18.7,40.3z M24.1,2.2c-2.2,0-4.1,1.7-4.1,4c-0.1,2.2,1.7,4.1,4,4.1
		c2.2,0.1,4-1.7,4.1-4C28.1,4.1,26.3,2.2,24.1,2.2z M24,45.9c2.2,0,4-1.8,4-4.1c0-2.2-1.9-4.1-4.1-4c-2.2,0-4,1.9-4,4.1
		C20,44.1,21.8,45.9,24,45.9z M45.8,24c0-2.2-1.8-4-4-4c-2.2,0-4,1.8-4,4c0,2.2,1.8,4,4.1,4C44.1,28,45.9,26.2,45.8,24z M2.2,24
		c0,2.2,1.8,4,4.1,4c2.2,0,4.1-1.9,4-4.1c0-2.2-1.8-4-4.1-4C3.9,20,2.1,21.8,2.2,24z"/>
	<path class="st0" d="M23.3,31.3c0-0.6,0-1,0-1.5c0-0.8,0-1.6,0-2.4c0-0.5,0.3-0.8,0.7-0.8c0.4,0,0.7,0.3,0.7,0.8c0,1.1,0,2.2,0,3.4
		c0,0.1,0,0.3,0,0.5c0.2-0.2,0.4-0.3,0.5-0.4c0.3-0.2,0.7-0.2,0.9,0.1c0.3,0.3,0.3,0.7,0,0.9c-0.6,0.6-1.2,1.1-1.8,1.6
		c-0.3,0.2-0.6,0.2-0.9,0c-0.6-0.5-1.1-1-1.7-1.5c-0.3-0.3-0.3-0.7,0-1c0.3-0.3,0.7-0.3,1-0.1C22.9,31,23.1,31.1,23.3,31.3z"/>
	<path class="st0" d="M24.7,16.7c0,1.2,0,2.3,0,3.5c0,0.2,0,0.3,0,0.5c0,0.4-0.3,0.7-0.7,0.8c-0.4,0-0.7-0.3-0.7-0.8
		c0-0.5,0-1,0-1.5c0-0.8,0-1.6,0-2.5c-0.2,0.2-0.3,0.3-0.4,0.4c-0.3,0.3-0.7,0.3-1,0c-0.3-0.3-0.3-0.7,0.1-1c0.5-0.5,1.1-1,1.6-1.5
		c0.3-0.3,0.7-0.3,1,0c0.5,0.5,1.1,1,1.6,1.5c0.3,0.3,0.3,0.7,0.1,1c-0.3,0.3-0.7,0.3-1,0C25,17,24.9,16.9,24.7,16.7z"/>
	<path class="st0" d="M16.7,24.7c0.2,0.2,0.3,0.4,0.4,0.5c0.2,0.3,0.2,0.7-0.1,0.9c-0.3,0.2-0.6,0.3-0.9,0c-0.6-0.6-1.1-1.2-1.6-1.8
		c-0.3-0.3-0.2-0.6,0.1-0.9c0.5-0.6,1-1.1,1.5-1.6c0.3-0.3,0.7-0.3,1,0c0.3,0.3,0.3,0.7,0,1c-0.1,0.1-0.2,0.2-0.4,0.4
		c0.2,0,0.3,0,0.4,0c1.1,0,2.2,0,3.4,0c0.5,0,0.9,0.3,0.9,0.7c0,0.4-0.3,0.7-0.9,0.7C19.3,24.7,18.1,24.7,16.7,24.7z"/>
	<path class="st0" d="M31.3,24.7c-0.8,0-1.4,0-2.1,0c-0.6,0-1.1,0-1.7,0c-0.6,0-0.9-0.3-0.9-0.7c0-0.4,0.3-0.7,0.9-0.7
		c1.2,0,2.4,0,3.8,0c-0.2-0.2-0.3-0.3-0.4-0.4c-0.3-0.3-0.3-0.7,0-1c0.3-0.3,0.7-0.3,1,0c0.5,0.5,1,1.1,1.5,1.6c0.3,0.3,0.3,0.7,0,1
		c-0.5,0.5-1,1.1-1.5,1.6c-0.3,0.3-0.7,0.3-1,0.1c-0.3-0.3-0.3-0.7,0-1C31,25,31.1,24.9,31.3,24.7z"/>
</g>
</svg>
