<?xml version="1.0" encoding="utf-8"?>
<!-- Generator: Adobe Illustrator 25.0.1, SVG Export Plug-In . SVG Version: 6.00 Build 0)  -->
<svg version="1.1" id="Layer_1" xmlns="http://www.w3.org/2000/svg" xmlns:xlink="http://www.w3.org/1999/xlink" x="0px" y="0px"
	 viewBox="0 0 48 48" style="enable-background:new 0 0 48 48;" xml:space="preserve">
<style type="text/css">
	.st0{fill:#B3001B;}
</style>
<g>
	<path class="st0" d="M8.3,29.9c-0.4,0-0.7,0-1.1,0c-0.5,0-0.7-0.2-0.7-0.7c0-0.9,0-1.9,0-2.8c0-0.5,0.2-0.7,0.7-0.7
		c0.7,0,1.4,0,2.1,0c0.1,0,0.4-0.2,0.4-0.3c1-3.1,3-5.1,6.1-6.1c0.1,0,0.1-0.1,0.2-0.1c-2.2-2.3-2.3-4.7-0.5-6.5
		c1.7-1.6,4.3-1.6,6,0c1.8,1.8,1.6,4.3-0.5,6.4c1.1,0.6,2.3,1.2,3.4,1.8c0-0.1,0-0.2,0-0.3c0-0.8,0-1.5,0-2.3c0-0.8,0.1-0.9,0.9-0.9
		c4.2,0,8.3,0,12.5,0c0.8,0,0.9,0.1,0.9,0.9c0,2.2,0,4.5,0,6.7c0,0.2,0,0.4,0,0.7c0.8,0,1.5,0,2.2,0c0.6,0,0.8,0.2,0.8,0.8
		c0,0.9,0,1.7,0,2.6c0,0.6-0.2,0.8-0.8,0.8c-0.3,0-0.6,0-0.9,0c0,0-0.1,0-0.2,0.1c0,0.2,0,0.3,0,0.5c0,1.8,0,3.6,0,5.4
		c0,0.6-0.1,0.8-0.7,0.8c-10,0-20,0-30,0c-0.6,0-0.7-0.1-0.7-0.8c0-1.8,0-3.6,0-5.4C8.3,30.4,8.3,30.2,8.3,29.9z M38.7,30
		c-9.8,0-19.6,0-29.3,0c0,1.9,0,3.8,0,5.7c9.8,0,19.6,0,29.3,0C38.7,33.8,38.7,31.9,38.7,30z M25.4,25.7c4,0,8.1,0,12.1,0
		c0-2.4,0-4.8,0-7.2c-4,0-8.1,0-12.1,0C25.4,21,25.4,23.3,25.4,25.7z M7.5,28.9c11,0,22,0,32.9,0c0-0.7,0-1.4,0-2
		c-11,0-21.9,0-32.9,0C7.5,27.5,7.5,28.2,7.5,28.9z M24.3,25.7c0-0.9,0-1.8,0-2.6c0-0.3-0.1-0.6-0.3-0.8c-2.6-2.7-6.8-3.1-10-1.1
		c-1.6,1.1-2.8,2.6-3.4,4.5C15.2,25.7,19.7,25.7,24.3,25.7z M15.1,15.7c0,1.8,1.4,3.2,3.2,3.2c1.8,0,3.2-1.4,3.2-3.2
		c0-1.8-1.4-3.2-3.2-3.2C16.6,12.5,15.1,14,15.1,15.7z"/>
	<path class="st0" d="M40.1,10.6c-1.6-1.8-3.5-3.3-5.6-4.5c-0.8,1.4-2.1,2-3.6,2.4c-1.6,0.4-3.2,0.3-4.8-0.4c-0.6-0.3-1.1-0.6-1.6-1
		c-0.6-0.4-1.1-0.9-1.7-1.4c-1.1-0.9-2.5-1.4-3.9-1.6c-0.1,0-0.2,0-0.3,0c-0.2-0.1-0.5-0.3-0.5-0.5c0-0.1,0.1-0.5,0.3-0.6
		c1.3-0.7,2.6-1.4,3.9-1.9c2.6-1,5.3-1.2,7.9-0.3c1.5,0.5,2.8,1.2,3.7,2.6c0.1,0.2,0.2,0.3,0.3,0.5c0.2,1,0.9,1.4,1.7,1.9
		c6,3.9,9.5,9.4,10.4,16.5c1.4,10.9-5.5,21.3-16.1,24.4C17.5,50.5,4.1,42.3,1.8,29.1c-1.6-9.4,1.6-17,9.3-22.7
		c0.1-0.1,0.2-0.1,0.3-0.2c0.3-0.2,0.6-0.1,0.7,0.1c0.1,0.2,0,0.5-0.1,0.7c-0.3,0.3-0.6,0.5-0.9,0.7c-6.1,4.8-9,11.1-8.5,18.8
		c0.6,9.9,8.2,18.1,17.9,19.7c11.6,1.9,22.5-5.6,24.7-17.1c1.2-6.3-0.2-12-3.9-17.2c-0.2-0.2-0.4-0.4-0.7-0.3c-0.2,0-0.3,0-0.5,0
		c-0.8,0-1.4,0.2-1.8,1.1c-1.1,2-2.9,2.5-5,2.3c-1.4-0.1-2.8-0.5-4.2-0.8c-0.4-0.1-0.6-0.4-0.3-0.7c1.4-1.9,3.1-3.5,5.5-4.1
		c1.5-0.3,2.8,0.1,3.9,1c0.3,0.3,0.6,0.4,1.1,0.3C39.4,10.7,39.7,10.7,40.1,10.6z M20.1,3.4c2,0.4,3.5,1.5,4.8,2.8
		c1.1,1,2.3,1.5,3.7,1.6c1.4,0.1,2.8-0.1,4-1c1.4-1,1.3-1.5,0.6-2.8c-0.7-1.1-1.7-1.7-2.9-2.1c-1.9-0.6-3.8-0.7-5.8-0.3
		C23,2,21.5,2.5,20.1,3.4z M30.2,13.3c0,0.1,0,0.1,0,0.2c1.3,0.2,2.6,0.4,3.9,0.5c1.6,0.1,2.8-0.6,3.5-2.1c0.1-0.2,0.1-0.4-0.1-0.6
		c-0.9-0.8-1.9-1.1-3-0.9C32.6,10.8,31.4,12,30.2,13.3z"/>
</g>
</svg>
