<?xml version="1.0" encoding="utf-8"?>
<!-- Generator: Adobe Illustrator 25.0.1, SVG Export Plug-In . SVG Version: 6.00 Build 0)  -->
<svg version="1.1" id="Layer_1" xmlns="http://www.w3.org/2000/svg" xmlns:xlink="http://www.w3.org/1999/xlink" x="0px" y="0px"
	 viewBox="0 0 48 48" style="enable-background:new 0 0 48 48;" xml:space="preserve">
<style type="text/css">
	.st0{fill:#B3001B;}
</style>
<g>
	<path class="st0" d="M28.3,10.2c0-0.6,0-1.2,0-1.8c-0.2,0-0.4,0-0.6,0c-1,0-1.8-0.8-1.8-1.8c0-0.5,0-1,0-1.5c0-1,0.8-1.8,1.7-1.8
		c2,0,4,0,6.1,0c1,0,1.7,0.8,1.8,1.8c0,0.4,0,0.8,0,1.3c0,1.3-0.7,2-2,2c-0.1,0-0.2,0-0.4,0c0,0.6,0,1.2,0,1.8
		c0.7,0.2,1.5,0.2,2.2,0.5c1.3,0.5,2.7,1.1,4,1.6c0.3,0.1,0.5,0.2,0.7-0.1c0.1-0.1,0.2-0.2,0.3-0.3c1.1-1.3,2.9-1.4,4.1-0.3
		c1.3,1.1,1.4,2.9,0.3,4.2c-0.2,0.2-0.3,0.4-0.4,0.5c0.8,1.5,1.7,2.8,2.4,4.2c4.6,10.3-2,22.3-13.1,24.1c-3.2,0.5-6.2,0.2-9.3-0.8
		c-2.5-0.8-4.9-1.7-7.3-2.5c-0.7-0.2-0.8-0.7-0.3-1.2c0.5-0.5,0.9-0.9,1.4-1.4c0.2-0.2,0.5-0.4,0.2-0.8c-0.2-0.3-0.5-0.1-0.8-0.1
		c-1.1,0.2-2.2,0.6-3.4,0.7c-2.2,0.1-3.9-0.8-5.2-2.5c-0.8-1.1-1.3-2.3-1.7-3.5c-0.1-0.2,0-0.6,0.2-0.7c0.1-0.1,0.5-0.1,0.7,0
		c1.6,0.9,3.3,0.7,4.8-0.1c0.4-0.2,0.8-0.7,1.1-1.1c0.3-0.4,0.1-0.7-0.3-0.7c-0.5,0-1.1,0-1.6,0.2c-4.3,1.5-8-0.4-10.2-3.6
		c-0.8-1.2-1.3-2.5-1.9-3.7C0,22.3,0,21.9,0.1,21.8c0.2-0.1,0.6-0.2,0.8-0.1c2.1,1.1,4.1,1,6.1-0.3c0.4-0.2,0.8-0.4,1.1-0.7
		c1.4-0.8,2.9-1.3,4.6-1.2c0.2,0,0.5,0,0.8,0c-0.3-0.3-0.5-0.7-0.9-0.8c-0.7-0.3-1.5-0.5-2.2-0.6C10,18,9.5,18.1,9,18
		c-0.3,0-0.7-0.2-0.8-0.4c-0.1-0.2,0-0.6,0.2-0.8c1.4-1.7,3.2-2.6,5.3-3c1.9-0.3,3.9-0.5,5.8-0.9c0.9-0.2,1.8-0.4,2.6-0.8
		C24.1,11.3,26.1,10.5,28.3,10.2z M9,33.2c0,0-0.1,0.1-0.1,0.1c0.5,0.7,0.9,1.5,1.5,2.1c1.1,1.3,2.5,1.8,4.1,1.6
		c0.9-0.1,1.9-0.4,2.8-0.6c0.9-0.3,1.7-0.1,2.1,0.6c0.5,0.7,0.4,1.6-0.3,2.2c-0.3,0.3-0.6,0.6-1,0.9c0.2,0.1,0.2,0.2,0.3,0.2
		c2.3,0.8,4.5,1.6,6.8,2.3c2.6,0.8,5.3,1.1,8,0.7c8.8-1.4,14.8-9.5,13.5-18.3C45,14.7,34.3,8.5,24.7,12.5c-2.7,1.1-5.4,1.9-8.3,2.2
		c-1.5,0.2-2.9,0.5-4.3,0.9c-0.6,0.2-1.2,0.6-1.8,1c0.4,0.2,0.8,0.2,1.1,0.3c1.8,0.3,3.2,1.2,3.7,3c0.1,0.3,0.1,0.8,0,1
		c-0.2,0.2-0.6,0.2-1,0.1c-1.8-0.4-3.6-0.2-5.2,0.8c-0.7,0.4-1.4,0.8-2.2,1.2c-1.1,0.6-2.3,0.8-3.5,0.7c-0.5-0.1-1-0.2-1.4-0.3
		c0,0-0.1,0.1-0.1,0.1c0.6,0.9,1.1,1.8,1.7,2.6c1.9,2.3,4.8,3.8,8.3,2.6c0.6-0.2,1.3-0.3,1.9-0.3c1.6,0,2.3,1.3,1.5,2.7
		c-0.5,1-1.4,1.5-2.5,1.9C11.5,33.4,10.2,33.5,9,33.2z M30.6,7.1c1,0,1.9,0,2.9,0c0.5,0,0.7-0.2,0.7-0.7c0-0.4,0-0.8,0-1.3
		c0-0.4-0.2-0.6-0.6-0.6c-1.9,0-3.9,0-5.8,0c-0.4,0-0.6,0.2-0.6,0.7c0,0.4,0,0.8,0,1.2c0,0.6,0.2,0.8,0.8,0.8
		C28.8,7.1,29.7,7.1,30.6,7.1z M43.2,15.4c0.6-0.5,1.1-1.1,0.8-2c-0.3-0.7-0.8-1.2-1.6-1.3c-0.9-0.1-1.3,0.5-1.8,1.1
		C41.5,13.9,42.4,14.6,43.2,15.4z M29.6,8.4c0,0.6,0,1.1,0,1.6c0.7,0,1.4,0,2,0c0-0.5,0-1,0-1.6C31,8.4,30.3,8.4,29.6,8.4z"/>
	<path class="st0" d="M18,27.4c0-7,5.7-12.6,12.8-12.6c6.9,0,12.5,5.8,12.5,12.7c0,7-5.8,12.6-12.7,12.6C23.6,40,18,34.3,18,27.4z
		 M30.6,16c-6.3,0-11.4,5.1-11.3,11.4c0,6.3,5.1,11.3,11.4,11.3c6.3,0,11.4-5.1,11.4-11.4C42,21.1,36.9,16,30.6,16z"/>
	<path class="st0" d="M30.6,29.6c-0.8,0-1.5-0.4-1.9-1.3c-0.4-0.8-0.3-1.6,0.3-2.3c0.6-0.7,1.3-1,2.2-0.7c0.3,0.1,0.5,0,0.8-0.2
		c0.8-0.8,1.6-1.6,2.4-2.4c0.4-0.4,0.8-0.5,1-0.1c0.3,0.4,0.2,0.7-0.2,1c-0.8,0.8-1.5,1.6-2.3,2.3c-0.2,0.2-0.3,0.4-0.2,0.8
		C33.3,28.1,32.2,29.6,30.6,29.6z M29.7,27.4c0,0.5,0.4,1,0.9,1c0.5,0,0.9-0.4,0.9-0.9c0-0.5-0.4-1-0.9-1
		C30.2,26.4,29.7,26.8,29.7,27.4z"/>
	<path class="st0" d="M39.7,28c-0.8,0-1.1-0.2-1.1-0.6c0-0.5,0.3-0.6,1.1-0.6c0.2,0,0.3,0,0.5,0c0.4,0,0.6,0.2,0.6,0.6
		c0,0.4-0.3,0.6-0.6,0.6C40,28,39.8,28,39.7,28z"/>
	<path class="st0" d="M21.3,26.8c0.8,0,1.1,0.2,1.1,0.6c0,0.4-0.3,0.6-1.1,0.6c-0.8,0-1.1-0.2-1.1-0.6
		C20.2,26.9,20.5,26.8,21.3,26.8C21.3,26.8,21.3,26.8,21.3,26.8z"/>
	<path class="st0" d="M23.5,19.9c0.5,0,1.4,0.9,1.4,1.3c0,0.2-0.2,0.5-0.3,0.5c-0.2,0.1-0.5,0.1-0.6,0c-0.3-0.2-0.6-0.5-0.8-0.8
		c-0.1-0.1-0.1-0.5,0-0.6C23.2,20.1,23.4,20,23.5,19.9z"/>
	<path class="st0" d="M36.1,21.2c0-0.4,0.9-1.3,1.3-1.3c0.2,0,0.4,0.1,0.5,0.3c0.1,0.2,0.1,0.5,0,0.6c-0.2,0.3-0.5,0.6-0.8,0.9
		C36.6,22,36.1,21.7,36.1,21.2z"/>
	<path class="st0" d="M24.9,33.6c0,0.4-0.9,1.3-1.3,1.3c-0.2,0-0.4-0.2-0.6-0.3c-0.1-0.1-0.1-0.5,0-0.6c0.3-0.3,0.6-0.7,0.9-0.9
		C24.4,32.8,24.9,33.1,24.9,33.6z"/>
	<path class="st0" d="M37.4,34.9c-0.4,0-1.3-0.9-1.3-1.3c0-0.2,0.1-0.4,0.3-0.5c0.2-0.1,0.5-0.1,0.6,0c0.3,0.2,0.6,0.6,0.9,0.9
		C38.1,34.3,37.8,34.9,37.4,34.9z"/>
	<path class="st0" d="M31.1,18.3c0,0.1,0,0.3,0,0.4c0,0.4-0.2,0.6-0.6,0.6c-0.4,0-0.6-0.2-0.6-0.6c0-0.3,0-0.6,0-0.9
		c0-0.4,0.2-0.6,0.6-0.6c0.4,0,0.6,0.2,0.6,0.6C31.1,17.9,31.1,18.1,31.1,18.3C31.1,18.3,31.1,18.3,31.1,18.3z"/>
	<path class="st0" d="M31.1,36.6c0,0.2,0,0.4,0,0.6c-0.1,0.3-0.3,0.6-0.6,0.5c-0.2-0.1-0.5-0.3-0.6-0.5c-0.1-0.3,0-0.7,0-1
		c0-0.4,0.2-0.6,0.6-0.6c0.4,0,0.6,0.2,0.6,0.6C31.1,36.3,31.1,36.5,31.1,36.6C31.1,36.6,31.1,36.6,31.1,36.6z"/>
</g>
</svg>
