<svg xmlns="http://www.w3.org/2000/svg" width="227.57" height="29.801" viewBox="0 0 227.57 29.801">
  <g id="Group_2887" data-name="Group 2887" transform="translate(-999.431 -659)">
    <g id="OXessays_home_desktop" transform="translate(999.431 659)">
      <g id="Oxessays_homepage_calculator_v1" transform="translate(0 0)">
        <g id="footer">
          <g id="block_payments">
            <g id="icon_discover">
              <rect id="Rectangle" width="50.119" height="29.801" rx="3" fill="#5c5c5c"/>
              <g id="Group" transform="translate(5.025 11.814)">
                <path id="Path" d="M24.5,3.414A3.257,3.257,0,0,0,21.2.125h-.012a3.307,3.307,0,0,0,0,6.613A3.285,3.285,0,0,0,24.5,3.432V3.414Z" transform="translate(-0.267 -0.061)" fill="#f26e21"/>
                <g id="Shape" transform="translate(0 0)">
                  <path id="Path_3541" data-name="Path 3541" d="M17.08,4.829a2,2,0,0,1-3.519-1.461,2.4,2.4,0,0,1,.623-1.6,1.942,1.942,0,0,1,1.349-.56,2,2,0,0,1,1.526.7V.442A3.193,3.193,0,0,0,15.533.06a3.685,3.685,0,0,0-2.155.9,3.2,3.2,0,0,0-.467.511,3.221,3.221,0,0,0,2.622,5.206H15.6a3.584,3.584,0,0,0,1.527-.381L17.08,4.83c-.022.021.022.042,0,.061V4.83ZM28.485.97,27.044,4.512,25.391.314H24.055l2.607,6.423h.7L30.1.314H28.761Zm2.121,2.142V6.547h3.5V5.53H31.877V3.813H34.04V2.731H31.877V1.4H34.1V.314h-3.5ZM1.86.314H.079V6.548H1.86a3.449,3.449,0,0,0,2.225-.7A3.144,3.144,0,0,0,5.23,3.431,3.077,3.077,0,0,0,1.86.314ZM3.322,5.021a2.447,2.447,0,0,1-1.653.509H1.287V1.4H1.6A2.158,2.158,0,0,1,3.259,1.9a2.03,2.03,0,0,1,.7,1.527A1.9,1.9,0,0,1,3.322,5.021ZM5.8.314H7.011V6.547H5.8Zm4.26,2.417c-.763-.255-.954-.445-.954-.764a.806.806,0,0,1,.89-.7,1.229,1.229,0,0,1,1.017.51L11.653.95a2.771,2.771,0,0,0-1.844-.7A1.866,1.866,0,0,0,7.837,2.032c0,.89.382,1.271,1.527,1.717a2.476,2.476,0,0,1,.827.382.7.7,0,0,1,.382.635.887.887,0,0,1-.955.89A1.483,1.483,0,0,1,8.282,4.83l-.763.763A2.494,2.494,0,0,0,9.682,6.8a2.005,2.005,0,0,0,2.162-2.035c0-1.08-.382-1.526-1.781-2.034ZM37.538,3.939A1.677,1.677,0,0,0,39,2.159C39,1.014,38.174.314,36.774.314H34.931V6.548h1.207V4.066h.192l1.717,2.481h1.462L37.538,3.94ZM36.52,3.177h-.381V1.267h.381c.764,0,1.209.318,1.209.955s-.445.953-1.209.953Z" transform="translate(-0.079 -0.06)" fill="#e7e8e3"/>
                </g>
              </g>
            </g>
          </g>
        </g>
      </g>
    </g>
    <g id="OXessays_home_desktop-2" data-name="OXessays_home_desktop" transform="translate(1059.032 659)">
      <g id="Oxessays_homepage_calculator_v1-2" data-name="Oxessays_homepage_calculator_v1" transform="translate(0 0)">
        <g id="footer-2" data-name="footer">
          <g id="block_payments-2" data-name="block_payments">
            <g id="icon_mastercaard" transform="translate(0)">
              <rect id="Rectangle-2" data-name="Rectangle" width="48.765" height="29.801" rx="3" fill="#00437c"/>
              <path id="Path-2" data-name="Path" d="M31.25,23.919l.486-.013.48-.035.469-.059.467-.083.454-.1.447-.127.437-.148.427-.168.42-.191.406-.207.394-.228.384-.244.368-.263.355-.28.342-.295.327-.314.315-.327.295-.343.279-.355.263-.368.244-.384.228-.394.207-.406.19-.419.168-.428.149-.438.128-.446.1-.454.083-.466.059-.47.036-.479.012-.485-.012-.483-.035-.475-.06-.47-.083-.461-.1-.453-.128-.444-.149-.437-.168-.425-.19-.416-.206-.406-.229-.391-.244-.383L38.8,8.885l-.279-.351-.295-.342-.315-.327-.327-.312-.342-.295-.356-.28-.367-.262-.384-.244-.394-.226-.406-.206-.42-.191-.427-.168-.437-.148L33.606,5.4l-.454-.1-.467-.082-.469-.059-.48-.036-.485-.013-.482.013-.479.035-.47.06-.464.082-.453.1-.447.128-.435.148-.427.168-.416.191-.4.206-.394.226L26,6.716l-.367.262-.356.28-.339.295-.327.311L24.3,8.19l-.295.343-.279.351-.26.369-.245.383L23,10.027l-.21.406-.187.416-.168.425-.145.437-.127.445-.106.452-.082.461-.059.469-.036.476-.013.482.013.486.036.479.059.47.082.466.106.454.127.446.145.438.168.428.188.419.209.406.225.394.245.384.26.368.279.355.295.342.311.328.327.314.339.295.356.28.367.263.381.243.394.229.4.207.416.19.428.168.434.148.447.129.453.1.465.083.469.059.479.035Z" transform="translate(-0.467 -0.173)" fill="#ffb316"/>
              <path id="Path-3" data-name="Path" d="M18.534,23.919l.482-.013.479-.035.47-.059.463-.083.454-.1.445-.127.435-.148.429-.168.416-.191.4-.207.393-.228.381-.244.368-.263.356-.28.338-.295.327-.314.312-.327.295-.343.279-.355.26-.368.244-.384.225-.394.21-.406.188-.419.168-.428L27.5,17.3l.127-.446.1-.454.082-.466.06-.47.035-.479.013-.485-.013-.483-.035-.475-.06-.47-.082-.461-.1-.453-.127-.444-.146-.437-.168-.425L27,10.433l-.21-.406-.225-.391-.244-.383-.26-.369-.279-.351-.295-.342-.312-.327-.327-.312-.339-.295-.355-.28-.368-.262L23.4,6.471l-.393-.226-.4-.206-.416-.191-.428-.168-.435-.148L20.882,5.4l-.455-.1-.462-.082-.47-.059-.479-.036-.482-.013-.485.013-.48.035-.47.06-.466.082-.453.1-.447.128-.438.148-.428.168-.419.191-.406.206-.394.226-.384.244-.368.262-.356.28-.342.295-.327.311-.314.327-.295.343-.279.351-.264.369-.243.383-.229.391-.206.406-.191.416-.168.425-.148.437-.129.445-.1.452-.082.461-.06.469-.035.476-.013.482.013.486.035.479.059.47L9.3,16.4l.1.454.127.446.15.438.167.428.191.419.206.406.228.394.244.384.264.368.279.355.295.342.314.328.327.314.343.295.355.28.368.263.384.243.394.229.406.207.419.19.428.168.438.148.447.129.453.1.466.083.47.059.479.035Z" transform="translate(-0.332 -0.173)" fill="#ff162a"/>
              <path id="Shape-2" data-name="Shape" d="M23.858,8.751h5V8.239H24.289ZM23.11,9.885h5.746V9.375H23.41Zm-.559,1.133h6.3v-.511H22.773Zm-.385,1.136h6.689v-.511H22.326Zm.224,5.488H28.87v-.511H22.231Zm.479,1.135h6v-.511H22.631Zm.673,1.133H28.87V19.4H23.22Zm.926,1.136h4.4v-.515H24.02Zm-2.525-7.76h6.913v-.511H22.04Zm4.213,3.224h2.636V16H26.249Zm.209-1.133h2.427v-.514H26.459Zm-4.6-.514h.686v.515H21.8Z" transform="translate(-0.466 -0.206)" fill="#ffb316"/>
              <path id="Path-4" data-name="Path" d="M20.447,14.3l-.045,0-.045-.006-.041-.006-.042-.007-.039-.006-.04-.006-.043-.007-.045-.006-.045-.006-.049,0-.058,0-.059,0h-.066l-.074,0-.082.007-.091.006-.064.01-.059.01-.054.018-.049.02-.044.022-.04.025-.033.033-.029.028-.02.036-.016.035-.006.038v.039l.01.042.012.041.026.042.032.042.063.059.077.048.089.041.095.035.1.033.1.035.1.039.1.041.1.053.088.067.079.079.067.1.049.12.033.143.013.171-.013.2-.023.148-.038.131-.05.121-.064.1-.072.093-.082.079-.089.069-.1.061-.1.047-.1.042-.108.032-.111.026-.109.02-.1.009-.1.006-.1,0h-.136l-.128,0h-.111l-.1,0-.095,0-.086-.007-.075-.006-.073-.01-.066-.006-.06-.013-.059-.01-.055-.016-.053-.013-.051-.02-.049-.018-.054-.02.142-.7.03.007.035.01.044.012.054.013.056.013.063.012.069.016.076.013.079.013.083.013.086.01.089.01.092,0,.092,0h.092l.092,0,.092-.019.073-.026.057-.035.044-.045.032-.045.025-.05.017-.05.013-.047.006-.092-.03-.079-.053-.064-.079-.053-.094-.047-.112-.047-.124-.045-.124-.05-.127-.057-.121-.066-.111-.083-.1-.1-.079-.12-.057-.143-.028-.17,0-.2.015-.125.023-.118.032-.107.039-.1.049-.095.058-.083.066-.079.079-.069.093-.059.1-.051.114-.047.128-.036.142-.029.155-.022.171-.013.188,0h.116l.109,0,.1,0,.089,0,.079.006.073.006.063.007.057.006.053.006.045.01.042.007.038.006.032.006.03,0,.028.006.025,0Z" transform="translate(-0.424 -0.261)" fill="#fff"/>
              <path id="Path-5" data-name="Path" d="M20.447,14.3l-.045,0-.045-.006-.041-.006-.042-.007-.039-.006-.04-.006-.043-.007-.045-.006-.045-.006-.049,0-.058,0-.059,0h-.066l-.074,0-.082.007-.091.006-.064.01-.059.01-.054.018-.049.02-.044.022-.04.025-.033.033-.029.028-.02.036-.016.035-.006.038v.039l.01.042.012.041.026.042.032.042.063.059.077.048.089.041.095.035.1.033.1.035.1.039.1.041.1.053.088.067.079.079.067.1.049.12.033.143.013.171-.013.2-.023.148-.038.131-.05.121-.064.1-.072.093-.082.079-.089.069-.1.061-.1.047-.1.042-.108.032-.111.026-.109.02-.1.009-.1.006-.1,0h-.136l-.128,0h-.111l-.1,0-.095,0-.086-.007-.075-.006-.073-.01-.066-.006-.06-.013-.059-.01-.055-.016-.053-.013-.051-.02-.049-.018-.054-.02.142-.7.03.007.035.01.044.012.054.013.056.013.063.012.069.016.076.013.079.013.083.013.086.01.089.01.092,0,.092,0h.092l.092,0,.092-.019.073-.026.057-.035.044-.045.032-.045.025-.05.017-.05.013-.047.006-.092-.03-.079-.053-.064-.079-.053-.094-.047-.112-.047-.124-.045-.124-.05-.127-.057-.121-.066-.111-.083-.1-.1-.079-.12-.057-.143-.028-.17,0-.2.015-.125.023-.118.032-.107.039-.1.049-.095.058-.083.066-.079.079-.069.093-.059.1-.051.114-.047.128-.036.142-.029.155-.022.171-.013.188,0h.116l.109,0,.1,0,.089,0,.079.006.073.006.063.007.057.006.053.006.045.01.042.007.038.006.032.006.03,0,.028.006.025,0-.161.716" transform="translate(-0.424 -0.261)" fill="none" stroke="#fff" stroke-width="0.216" fill-rule="evenodd"/>
              <path id="Path-6" data-name="Path" d="M21.228,12.793h.879l-.13.767h.529l-.114.717-.558-.016-.3,1.77,0,.063.016.054.032.041.042.035.057.023.063.019.069.013.076.007.07,0,.064-.006.055-.01.051-.013.042-.013.029-.009.019-.007.006,0-.111.591-.022.016-.023.012-.023.013-.022.013-.022.01-.026.01-.029.009-.029.01-.032.009-.032.007-.038.006-.039.007-.042.006-.047.006-.049.007-.054.006h-.24l-.129-.01-.11-.013-.1-.018-.085-.023-.073-.03-.059-.03-.054-.04-.042-.041-.032-.045-.023-.053-.016-.055-.01-.059,0-.066v-.069l.01-.073.01-.079Z" transform="translate(-0.453 -0.254)" fill="#fff"/>
              <path id="Path-7" data-name="Path" d="M21.228,12.793h.879l-.13.767h.529l-.114.717-.558-.016-.3,1.77,0,.063.016.054.032.041.042.035.057.023.063.019.069.013.076.007.07,0,.064-.006.055-.01.051-.013.042-.013.029-.009.019-.007.006,0-.111.591-.022.016-.023.012-.023.013-.022.013-.022.01-.026.01-.029.009-.029.01-.032.009-.032.007-.038.006-.039.007-.042.006-.047.006-.049.007-.054.006h-.24l-.129-.01-.11-.013-.1-.018-.085-.023-.073-.03-.059-.03-.054-.04-.042-.041-.032-.045-.023-.053-.016-.055-.01-.059,0-.066v-.069l.01-.073.01-.079.606-3.461" transform="translate(-0.453 -0.254)" fill="none" stroke="#fff" stroke-width="0.216" fill-rule="evenodd"/>
              <path id="Path-8" data-name="Path" d="M23.225,15.481l-.008.053,0,.056,0,.06.014.06.023.061.025.057.035.059.039.054L23.4,16l.047.048.05.047.057.038.056.035.064.029.062.022.064.013.083.013.079.01.081.01.084.006.081,0h.086l.083,0,.085-.007.085-.012.087-.017.088-.019.086-.029.089-.035.092-.039.088-.049.093-.054-.128.781-.05.025-.051.026-.05.019-.047.02-.047.015-.051.017-.049.012-.054.01-.057.01-.063.006-.066.007-.074.006-.082,0h-.086l-.1,0h-.1l-.156,0-.158-.016-.158-.022-.158-.04-.155-.047-.149-.06L22.93,16.7l-.133-.092-.124-.109-.109-.129-.091-.146-.077-.168-.053-.188-.035-.212-.01-.234.016-.26.013-.1.02-.118.025-.123.035-.134.049-.137.055-.137.073-.139.089-.134.1-.128.124-.121.14-.108.159-.095.184-.079.206-.057.229-.038.257-.013.124,0,.131.013.129.022.131.032.128.048.124.056.114.076.1.089.095.109.079.127.064.145.044.168.026.19,0,.216-.022.24L25.3,15.3l-.017.194H22.969l.146-.625H24.5l.007-.079,0-.076-.006-.069-.013-.063-.023-.061-.022-.054-.032-.047-.033-.045-.037-.039-.043-.032-.047-.029-.049-.025-.049-.02-.05-.012-.054-.01-.056-.007-.061,0-.055.01-.054.013-.053.018-.055.026-.047.03-.047.034-.04.039-.043.045-.039.047-.034.051-.03.054-.029.056-.022.063-.02.064-.012.066-.128.657" transform="translate(-0.471 -0.261)" fill="none" stroke="#fff" stroke-width="0.216" fill-rule="evenodd"/>
              <path id="Path-9" data-name="Path" d="M30.848,13.748l-.042-.022-.042-.02-.044-.022-.048-.022-.047-.02-.053-.019-.054-.019-.056-.019-.06-.016-.06-.013-.067-.013-.066-.01-.072-.006-.073-.006h-.234l-.083.006-.085.01-.09.016-.089.025-.088.036-.089.045-.089.056-.086.07-.082.082-.079.1-.076.118-.069.139-.066.158-.059.179-.052.2-.018.114-.014.111-.006.111,0,.109.01.108.022.1.029.1.035.095.047.086.057.081.067.073.075.067.086.056.1.048.107.041.122.03.041.008.047.01.057.007.063.006.069.007h.152l.079-.007.083-.01.082-.016.079-.022.079-.025.079-.036.073-.042.066-.049.064-.057-.143.847-.019.016-.02.019-.025.023-.029.018-.035.026-.045.022-.05.023-.057.019-.072.023-.083.016-.095.013-.111.012-.124.007-.142,0-.162,0-.178-.01-.145-.016-.146-.032-.145-.047-.145-.063-.14-.076-.134-.1-.128-.111-.117-.126-.1-.143-.089-.158-.076-.178-.056-.193-.038-.213-.013-.226.006-.247.035-.263.026-.13.029-.128.031-.124.033-.118.035-.111.041-.111.042-.1.045-.1.048-.1.046-.092.054-.089.057-.082.056-.079.063-.076.063-.069.067-.066.072-.064.074-.059L28.611,13l.08-.051.085-.047.086-.041.089-.039.092-.035.1-.032.1-.026.1-.023.108-.018.108-.017.114-.012.114-.006.122,0,.1,0,.1.006.095.01.095.012.089.013.086.02.081.015.077.02.072.019.063.019.06.02.051.018.044.016.039.013.029.013.02.007Z" transform="translate(-0.527 -0.252)" fill="#fff"/>
              <path id="Path-10" data-name="Path" d="M30.848,13.748l-.042-.022-.042-.02-.044-.022-.048-.022-.047-.02-.053-.019-.054-.019-.056-.019-.06-.016-.06-.013-.067-.013-.066-.01-.072-.006-.073-.006h-.234l-.083.006-.085.01-.09.016-.089.025-.088.036-.089.045-.089.056-.086.07-.082.082-.079.1-.076.118-.069.139-.066.158-.059.179-.052.2-.018.114-.014.111-.006.111,0,.109.01.108.022.1.029.1.035.095.047.086.057.081.067.073.075.067.086.056.1.048.107.041.122.03.041.008.047.01.057.007.063.006.069.007h.152l.079-.007.083-.01.082-.016.079-.022.079-.025.079-.036.073-.042.066-.049.064-.057-.143.847-.019.016-.02.019-.025.023-.029.018-.035.026-.045.022-.05.023-.057.019-.072.023-.083.016-.095.013-.111.012-.124.007-.142,0-.162,0-.178-.01-.145-.016-.146-.032-.145-.047-.145-.063-.14-.076-.134-.1-.128-.111-.117-.126-.1-.143-.089-.158-.076-.178-.056-.193-.038-.213-.013-.226.006-.247.035-.263.026-.13.029-.128.031-.124.033-.118.035-.111.041-.111.042-.1.045-.1.048-.1.046-.092.054-.089.057-.082.056-.079.063-.076.063-.069.067-.066.072-.064.074-.059L28.611,13l.08-.051.085-.047.086-.041.089-.039.092-.035.1-.032.1-.026.1-.023.108-.018.108-.017.114-.012.114-.006.122,0,.1,0,.1.006.095.01.095.012.089.013.086.02.081.015.077.02.072.019.063.019.06.02.051.018.044.016.039.013.029.013.02.007-.159.879" transform="translate(-0.527 -0.252)" fill="none" stroke="#fff" stroke-width="0.216" fill-rule="evenodd"/>
              <path id="Path-11" data-name="Path" d="M38.745,16.958h-.878l.063-.352v-.032l-.051.064-.053.056-.053.05-.057.046-.057.041-.057.035-.057.029-.06.029-.059.022-.06.016-.06.016-.064.01-.063.01L37.115,17l-.063,0h-.064l-.165-.013-.151-.035-.14-.053-.128-.073-.114-.092-.1-.108-.089-.118-.075-.133-.064-.143-.049-.148-.036-.155-.026-.162-.009-.162,0-.164.016-.162.029-.161.047-.188.057-.177.065-.161.08-.152.083-.143.094-.127.1-.114.1-.1.111-.092.118-.079.121-.069.12-.054.127-.045.128-.029.127-.02.131-.006.092,0,.088.01.083.016.076.023.072.026.063.028.064.036.057.035.049.038.048.042.04.041.04.042.032.042.03.041.024.04.02.037.223-1.247h.862Z" transform="translate(-0.614 -0.254)" fill="#fff"/>
              <path id="Path-12" data-name="Path" d="M38.745,16.958h-.878l.063-.352v-.032l-.051.064-.053.056-.053.05-.057.046-.057.041-.057.035-.057.029-.06.029-.059.022-.06.016-.06.016-.064.01-.063.01L37.115,17l-.063,0h-.064l-.165-.013-.151-.035-.14-.053-.128-.073-.114-.092-.1-.108-.089-.118-.075-.133-.064-.143-.049-.148-.036-.155-.026-.162-.009-.162,0-.164.016-.162.029-.161.047-.188.057-.177.065-.161.08-.152.083-.143.094-.127.1-.114.1-.1.111-.092.118-.079.121-.069.12-.054.127-.045.128-.029.127-.02.131-.006.092,0,.088.01.083.016.076.023.072.026.063.028.064.036.057.035.049.038.048.042.04.041.04.042.032.042.03.041.024.04.02.037.223-1.247h.862l-.717,4.15" transform="translate(-0.614 -0.254)" fill="none" stroke="#fff" stroke-width="0.216" fill-rule="evenodd"/>
              <path id="Path-13" data-name="Path" d="M37.319,16.206l.089-.006.082-.02.076-.022.073-.035.066-.038.064-.048.059-.053.054-.057.047-.063.045-.069.042-.073.035-.076.032-.079.026-.083.022-.085.016-.086.016-.089.01-.091v-.087l0-.088-.009-.082-.013-.079-.022-.077-.026-.072-.032-.063-.038-.06-.042-.051-.047-.045-.053-.038-.058-.026-.059-.016-.067-.006-.086.006-.079.013-.072.026-.073.032-.064.042-.062.05-.054.053-.053.061-.048.069-.044.073-.042.075-.036.083-.031.085-.026.086-.025.092-.02.092-.017.14.008.152.022.155.041.148.064.131.082.1.1.069Z" transform="translate(-0.625 -0.27)" fill="#ffb316"/>
              <path id="Path-14" data-name="Path" d="M17.6,16.261l-.127.7h-.8l.022-.13.017-.118.012-.089.013-.047-.044.05-.051.051-.059.047-.067.045-.076.045-.079.038-.083.038-.085.033-.092.028-.092.023-.092.02-.095.012-.092.007-.092,0-.089-.01L15.465,17l-.111-.029-.1-.032-.089-.042-.079-.047-.069-.049-.063-.057-.05-.061-.046-.062-.038-.067-.032-.069-.025-.069-.02-.07-.013-.073-.01-.073-.006-.069v-.07l.01-.124.02-.118.03-.111.043-.109.05-.1.057-.091.066-.089.076-.079.079-.073.089-.067.092-.059.095-.051.1-.044.1-.036.108-.029.111-.02h.007l.015,0,.023,0,.035,0,.039-.006.044,0,.047-.007.055-.006.053-.006.053-.007.057,0,.05-.007.05,0,.047,0,.045,0h.109l.076,0,.069,0h.069l.057,0,.045,0,.032,0h.01l.006-.023.02-.056.016-.067.006-.059-.013-.069-.029-.065-.038-.056-.051-.047-.059-.041-.066-.03-.077-.019-.082-.006-.089,0-.1,0h-.1l-.1,0-.1.006-.1.01-.1.01-.1.012-.095.013-.092.016-.082.016-.076.016-.069.02L15.3,14.4l-.045.023-.036.02.226-.766.07-.028.069-.026.077-.022.075-.017.076-.016.083-.012.082-.013.085-.007.089-.006.092,0,.095,0h.3l.111,0,.111,0,.089.006.1.016.1.023.1.029.1.039.095.044.095.054.089.059.079.07.07.076.063.085.047.1.033.1.018.107v.121l-.018.127Z" transform="translate(-0.391 -0.262)" fill="#fff"/>
              <path id="Path-15" data-name="Path" d="M17.6,16.261l-.127.7h-.8l.022-.13.017-.118.012-.089.013-.047-.044.05-.051.051-.059.047-.067.045-.076.045-.079.038-.083.038-.085.033-.092.028-.092.023-.092.02-.095.012-.092.007-.092,0-.089-.01L15.465,17l-.111-.029-.1-.032-.089-.042-.079-.047-.069-.049-.063-.057-.05-.061-.046-.062-.038-.067-.032-.069-.025-.069-.02-.07-.013-.073-.01-.073-.006-.069v-.07l.01-.124.02-.118.03-.111.043-.109.05-.1.057-.091.066-.089.076-.079.079-.073.089-.067.092-.059.095-.051.1-.044.1-.036.108-.029.111-.02h.007l.015,0,.023,0,.035,0,.039-.006.044,0,.047-.007.055-.006.053-.006.053-.007.057,0,.05-.007.05,0,.047,0,.045,0h.109l.076,0,.069,0h.069l.057,0,.045,0,.032,0h.01l.006-.023.02-.056.016-.067.006-.059-.013-.069-.029-.065-.038-.056-.051-.047-.059-.041-.066-.03-.077-.019-.082-.006-.089,0-.1,0h-.1l-.1,0-.1.006-.1.01-.1.01-.1.012-.095.013-.092.016-.082.016-.076.016-.069.02L15.3,14.4l-.045.023-.036.02.226-.766.07-.028.069-.026.077-.022.075-.017.076-.016.083-.012.082-.013.085-.007.089-.006.092,0,.095,0h.3l.111,0,.111,0,.089.006.1.016.1.023.1.029.1.039.095.044.095.054.089.059.079.07.07.076.063.085.047.1.033.1.018.107v.121l-.018.127L17.6,16.261" transform="translate(-0.391 -0.262)" fill="none" stroke="#fff" stroke-width="0.216" fill-rule="evenodd"/>
              <path id="Path-16" data-name="Path" d="M16.85,15.452l0-.016-.014-.015-.019-.01-.032-.006-.035-.007-.041,0h-.1l-.051,0-.053.007-.051.006-.049.006-.047.007-.046.01-.038.009-.035.01-.022.006-.026.01-.036.012-.035.016-.041.02-.042.022L16,15.561l-.042.025-.044.032-.042.032-.039.039-.035.038-.032.042-.022.045-.02.05-.01.05,0,.109.017.085.031.063.042.047.047.032.054.02.049.01.052,0,.095,0,.086-.01.082-.013.072-.019.064-.022.059-.029.054-.029.047-.035.042-.032.038-.039.033-.035.025-.038.022-.039.02-.038.016-.036.009-.035.026-.091.022-.106.02-.1Z" transform="translate(-0.402 -0.281)" fill="#ff162a"/>
              <path id="Path-17" data-name="Path" d="M10.879,16.958h-.863l.72-4.166h1.5l.142,2.472,1.037-2.471h1.567l-.736,4.165h-.863l.545-3.112H13.9L12.6,16.958h-.974l-.006-.13-.023-.346-.029-.492-.032-.564-.032-.568-.029-.5L11.46,14l-.007-.152h-.047Z" transform="translate(-0.341 -0.254)" fill="#fff"/>
              <path id="Path-18" data-name="Path" d="M10.879,16.958h-.863l.72-4.166h1.5l.142,2.472,1.037-2.471h1.567l-.736,4.165h-.863l.545-3.112H13.9L12.6,16.958h-.974l-.006-.13-.023-.346-.029-.492-.032-.564-.032-.568-.029-.5L11.46,14l-.007-.152h-.047l-.526,3.112" transform="translate(-0.341 -0.254)" fill="none" stroke="#fff" stroke-width="0.216" fill-rule="evenodd"/>
              <path id="Path-19" data-name="Path" d="M33.516,16.261l-.129.7h-.8l.007-.13,0-.115v-.085l.007-.038-.043.047-.047.047-.057.045-.062.046-.067.04-.076.04-.079.038-.079.032-.086.025-.089.026L31.831,17l-.087.013-.093.007-.089,0-.086-.01L31.391,17l-.114-.029-.1-.032-.089-.042L31,16.848l-.069-.049-.061-.057-.049-.061-.046-.062-.038-.067-.03-.069-.025-.069-.015-.07-.014-.073-.01-.073-.006-.069v-.07l.007-.124.02-.118L30.7,15.7l.041-.109.047-.1.061-.091.066-.089.072-.079.083-.073.085-.067.092-.059.1-.051.1-.044.1-.036.1-.029.108-.02h.006l.017,0,.022,0,.032,0,.041-.006.046,0,.047-.007.049-.006.054-.006.057-.007.053,0,.055-.007.049,0,.045,0,.045,0h.111l.076,0,.073,0h.069l.06,0,.051,0,.03,0h.012l.006-.023.01-.056.009-.067.007-.059-.014-.069-.024-.065-.042-.056-.049-.047-.055-.041-.067-.03-.069-.019-.077-.006-.089,0-.094,0h-.1l-.1,0-.106.006-.1.01-.1.01-.1.012-.095.013-.092.016-.081.016-.077.016-.069.02-.058.018-.044.023-.036.02.223-.766.069-.028.073-.026.073-.022.076-.017.079-.016.079-.012.082-.013.086-.007.089-.006.092,0,.092,0h.3l.109,0,.107,0,.089.006.1.016.1.023.1.029.1.039.1.044.1.054.089.059.079.07.073.076.062.085.047.1.035.1.023.107v.121l-.016.127Z" transform="translate(-0.559 -0.262)" fill="#fff"/>
              <path id="Path-20" data-name="Path" d="M33.454,17.017,33.51,17l.382-.7-.114-.006-.381.7.057-.02v.046l.046,0L33.51,17Z" transform="translate(-0.589 -0.291)" fill="#fff"/>
              <path id="Path-21" data-name="Path" d="M32.591,17.045l.02.066h.8v-.133h-.8l.02.066h-.04l0,.066h.022Z" transform="translate(-0.58 -0.298)" fill="#fff"/>
              <path id="Path-22" data-name="Path" d="M32.743,16.65l-.084-.033-.04.066-.01.112v.148l-.019.168H32.7l.02-.168.02-.148-.013-.112V16.65l-.082-.033Z" transform="translate(-0.58 -0.294)" fill="#fff"/>
              <path id="Shape-3" data-name="Shape" d="M31.388,17.069l.088.014.086.01.089,0,.093-.008.091-.014.089-.017.088-.028L32.1,17l.079-.035.082-.042.076-.042.067-.048.066-.049.057-.047.05-.055.042-.052L32.59,16.6l-.042.052L32.5,16.7l-.056.048-.06.048-.067.042-.076.042-.075.042-.079.035-.084.028-.088.028-.089.017-.084.014-.093.008-.089,0-.086-.01-.082-.015Zm-.768-1,0,.069.007.069.009.077.013.073.016.069.026.073.029.073.041.066.045.067.05.059.064.06.072.051.083.05.092.041.1.033.115.029.006-.039-.114-.029-.1-.032L31.1,16.89l-.083-.046-.066-.049-.057-.054-.05-.06-.045-.06-.035-.066-.03-.067-.025-.066-.016-.069-.013-.074-.009-.069-.006-.069,0-.07Zm1.138-1.219-.109.02-.109.029-.1.035-.1.045-.1.05-.095.063-.085.067-.082.076-.076.079-.066.089-.064.095-.047.1-.042.108-.029.114-.018.12-.01.125h.045l0-.125.02-.113.028-.109.041-.108.049-.1.056-.088.066-.089L31,15.259l.082-.069.086-.067.089-.056.1-.051.094-.044.1-.035.1-.03.1-.019Zm.654-.066h-.035l-.045.02-.044.011-.05.008-.055.018-.053.01-.057.02-.053.017-.05.02-.048.02-.046.008-.04.02-.033.008-.026.01-.013.01h-.006v.112h.006l.02-.01.019-.008.032-.01.041-.019.046-.01.048-.019.049-.02.054-.018.057-.019.053-.008.055-.02.049-.009.045-.01h.079Zm.454.1.022-.047h-.014l-.03-.01-.055-.008-.063-.019h-.151l-.081-.02h-.081v.132h.162l.077.019h.138l.054.01.03.01h.015l.02-.047-.02.047.016.008,0-.055Z" transform="translate(-0.559 -0.275)" fill="#fff"/>
              <path id="Path-23" data-name="Path" d="M32.958,14.614h-.01l-.01.141-.028.15-.027.135-.02.052.111.016.02-.053.029-.137.029-.163.03-.141h-.124Z" transform="translate(-0.583 -0.273)" fill="#fff"/>
              <path id="Path-24" data-name="Path" d="M32.515,14.311v0l.087,0,.079.027.075.04.064.053.052.061.046.075.032.079.014.094h.046l-.015-.1-.03-.1-.054-.083-.059-.071-.072-.061-.084-.04-.086-.027-.094-.013v0Z" transform="translate(-0.579 -0.269)" fill="#fff"/>
              <path id="Shape-4" data-name="Shape" d="M31.14,14.694l.031.043L31.2,14.7l.04-.05.054-.044.07-.042.076-.036.083-.037.092-.037.091-.027.1-.031.1-.022.1-.021.106-.014h.295l.089.007v-.086l-.089-.007-.095-.015h-.1l-.1.015-.106.014-.1.022-.1.022-.1.029-.1.028-.092.037-.083.036-.075.037-.069.042-.06.045-.049.049-.038.049.033.044Zm.447-1.033-.025.016-.423.765.073.006.422-.765-.023.017-.024-.039-.019,0-.006.013Z" transform="translate(-0.565 -0.263)" fill="#fff"/>
              <path id="Path-25" data-name="Path" d="M32.788,13.53l-.108-.017-.107-.009h-.3l-.092.017-.092.009L32,13.546l-.086.015-.085.032-.079.034-.079.041-.077.042-.075.055-.073.065-.069.072.012.1.07-.073.073-.064L31.6,13.8l.076-.04.079-.042.079-.033.079-.032L32,13.643l.089-.017.092-.008h.391l.107.008h.109Z" transform="translate(-0.567 -0.261)" fill="#fff"/>
              <path id="Shape-5" data-name="Shape" d="M33.891,14.589l.017-.129v-.122l-.023-.111-.035-.1-.05-.1-.064-.089-.076-.079-.079-.069-.092-.061-.095-.056-.1-.045-.1-.039-.1-.028-.1-.023-.1-.015-.089-.007v.038l.089.007.092.016.1.022.1.029.1.038.095.045.095.051.086.059.079.069.069.074.064.082.045.093.035.1.023.1v.121l-.017.124Zm-.32,1.675.443-1.674-.051-.007-.443,1.675Z" transform="translate(-0.582 -0.261)" fill="#fff"/>
              <path id="Path-26" data-name="Path" d="M32.759,15.452l-.006-.019-.013-.016-.022-.01-.033-.009-.035,0-.041,0h-.048l-.047,0-.05.006-.049.007-.051.006-.048.007-.047.01-.042,0-.04.01-.033.006-.022,0-.026.01-.032.009-.036.013L32,15.507l-.038.02-.045.022-.041.028-.042.03-.041.035-.036.034-.035.043-.028.044-.024.047-.018.051-.01.053,0,.109.016.085.026.063.038.047.047.032.054.02.054.01.053,0,.095,0,.089-.01.082-.016.073-.022.069-.026.061-.028.057-.033.049-.038.046-.035.038-.042.036-.038.028-.042.022-.039.016-.038.013-.039.01-.035.013-.089.016-.092.013-.089Z" transform="translate(-0.57 -0.281)" fill="#ffb316"/>
              <path id="Path-27" data-name="Path" d="M39.376,16.625l.007-.085.025-.1.046-.087.053-.077.066-.062.076-.044.082-.03.089-.01.089.01.082.03.077.044.065.062.054.077.044.087.027.1.007.085h-.1l0-.066-.02-.081-.031-.072-.043-.063-.049-.05-.059-.037-.071-.026-.073-.008-.072.008-.069.026-.062.037-.049.05-.042.063-.032.072-.02.081-.006.066Z" transform="translate(-0.652 -0.289)" fill="#fff"/>
              <path id="Path-28" data-name="Path" d="M39.665,16.865V16.37h.259l.057.009.052.016.036.025.035.033.023.049.018.049.01.057,0,.058,0,.073-.01.058-.013.049-.01.018h-.2l.018-.01.034-.008.03-.016.023-.017.019-.025.01-.026.01-.04v-.059l-.007-.04-.008-.034-.016-.017-.014-.016L40,16.552l-.024-.008h-.193v.322Z" transform="translate(-0.655 -0.292)" fill="#fff"/>
              <path id="Path-29" data-name="Path" d="M39.376,16.563l0,.02.01.1.025.091.046.081.053.067.066.056.076.045.082.027.089.01.089-.01.082-.027.077-.045.065-.056.054-.067.044-.081.027-.091.01-.1,0-.02h-.1l0,.02-.006.081-.02.074-.031.064-.043.056-.049.047-.059.037-.071.024-.073.007-.072-.007-.069-.024-.062-.037-.049-.047-.042-.056-.032-.064-.02-.074-.006-.081v-.02Z" transform="translate(-0.652 -0.294)" fill="#fff"/>
              <path id="Path-30" data-name="Path" d="M39.665,16.563v.495h.124v-.406h.124l.148.406h.1l-.148-.406h.036l.034-.017.03-.017.027-.032.009-.024h-.208l-.026.008h-.124v-.008Z" transform="translate(-0.655 -0.294)" fill="#fff"/>
              <path id="Shape-6" data-name="Shape" d="M39.82,16.945l.073-.006.07-.023.059-.035.05-.045.043-.053.032-.06.019-.07.006-.076-.006-.076-.02-.069-.031-.063-.043-.054-.049-.045-.06-.032-.069-.022-.074-.007-.073.007-.069.022-.061.032-.049.045-.042.054-.032.063-.02.069-.006.076.007.076.019.069.032.061.041.053.05.045.061.035.069.023.073.006m0-.384.029-.006.022,0,.02-.007.016-.006.013-.01.006-.01.007-.015v-.023l0-.016-.006-.013-.01-.006-.01-.007-.016,0-.016,0h-.13v.127h.079m-.079.191h-.079v-.384h.175l.038,0,.036.006.024.01.023.013.016.019.012.02.007.021,0,.023,0,.029-.007.022-.008.02-.013.016-.016.012-.02.007-.022.006h-.023l.095.158h-.063l-.095-.158h-.079v.158m-.367-.174.009-.092.025-.085.046-.076.053-.067.066-.053.076-.039.082-.026.089-.009.089.01.082.025.077.04.066.052.053.067.044.076.027.085.01.092-.01.092-.027.086-.044.076-.053.063-.066.053-.077.042-.081.026-.09.01-.089-.01-.082-.026-.076-.042-.066-.053-.053-.063-.046-.076-.025-.086-.01-.092" transform="translate(-0.652 -0.289)" fill="none" stroke="#fff" stroke-width="0.216" fill-rule="evenodd"/>
              <path id="Path-31" data-name="Path" d="M33.788,16.965h.894l.321-1.8.012-.069.02-.07.02-.069.025-.07.032-.069.038-.067.042-.063.051-.06.056-.054.063-.05.073-.048.082-.038.092-.032.1-.025.112-.02.124-.007h.079l.142-.814-.089.006-.085.01-.079.016-.076.022-.069.026-.067.033-.063.034-.059.039-.058.045-.053.045-.05.05-.051.05-.048.054-.046.059-.048.057-.045.064.095-.574h-.89Z" transform="translate(-0.593 -0.262)" fill="#fff"/>
              <path id="Path-32" data-name="Path" d="M33.788,16.965h.894l.321-1.8.012-.069.02-.07.02-.069.025-.07.032-.069.038-.067.042-.063.051-.06.056-.054.063-.05.073-.048.082-.038.092-.032.1-.025.112-.02.124-.007h.079l.142-.814-.089.006-.085.01-.079.016-.076.022-.069.026-.067.033-.063.034-.059.039-.058.045-.053.045-.05.05-.051.05-.048.054-.046.059-.048.057-.045.064.095-.574h-.89l-.594,3.4" transform="translate(-0.593 -0.262)" fill="none" stroke="#fff" stroke-width="0.216" fill-rule="evenodd"/>
              <path id="Path-33" data-name="Path" d="M25.3,16.965h.909l.3-1.8.013-.069.016-.067.016-.066.023-.064.025-.063.033-.059.037-.057.046-.054.05-.048.057-.047.069-.039.077-.035.089-.029.1-.025.109-.017.124-.009H27.4l.013,0,.016,0h.016l.017,0,.012,0,.01,0h0l0-.013.01-.038.012-.057.016-.069.023-.083.022-.089.03-.089.028-.089.026-.059.032-.06.032-.059.032-.054.029-.047.022-.039.016-.022.006-.01h0l-.012,0-.017,0-.022,0h-.022l-.026,0-.022,0h-.023l-.1.006-.088.01-.083.016-.075.02-.073.025-.067.032-.059.032-.057.038-.054.042-.049.047-.048.048-.047.052-.047.054-.046.061-.047.062-.047.064.114-.574h-.91Z" transform="translate(-0.503 -0.262)" fill="#fff"/>
              <path id="Path-34" data-name="Path" d="M25.3,16.965h.909l.3-1.8.013-.069.016-.067.016-.066.023-.064.025-.063.033-.059.037-.057.046-.054.05-.048.057-.047.069-.039.077-.035.089-.029.1-.025.109-.017.124-.009H27.4l.013,0,.016,0h.016l.017,0,.012,0,.01,0h0l0-.013.01-.038.012-.057.016-.069.023-.083.022-.089.03-.089.028-.089.026-.059.032-.06.032-.059.032-.054.029-.047.022-.039.016-.022.006-.01h0l-.012,0-.017,0-.022,0h-.022l-.026,0-.022,0h-.023l-.1.006-.088.01-.083.016-.075.02-.073.025-.067.032-.059.032-.057.038-.054.042-.049.047-.048.048-.047.052-.047.054-.046.061-.047.062-.047.064.114-.574h-.91l-.594,3.4" transform="translate(-0.503 -0.262)" fill="none" stroke="#fff" stroke-width="0.216" fill-rule="evenodd"/>
              <path id="Path-35" data-name="Path" d="M39.383,20.515v-.02l.025-.115.046-.1.053-.089.066-.071.076-.054.082-.03.089-.015.089.014.082.031.077.054.066.071.053.089.044.1.027.116v.018h-.092l-.02-.093-.031-.085-.043-.076-.049-.061-.059-.049-.071-.031-.073-.01-.072.01-.069.031-.062.049-.049.061-.042.076-.032.085-.02.093Z" transform="translate(-0.652 -0.33)" fill="#ffb316"/>
              <path id="Path-36" data-name="Path" d="M39.665,20.591v-.327h.317l.052.018.036.017.035.038.023.047.018.057.01.064,0,.085h-.094v-.047L40.06,20.5l-.008-.038-.016-.018-.014-.02L40,20.411l-.024-.008h-.193v.187Z" transform="translate(-0.655 -0.333)" fill="#ffb316"/>
              <path id="Path-37" data-name="Path" d="M39.374,20.581l.027-.206h.272v.009l-.02.2Z" transform="translate(-0.652 -0.334)" fill="#ffb316"/>
              <path id="Shape-7" data-name="Shape" d="M39.665,20.581v-.206h.118v.187H39.9l.042-.018.034-.01.03-.02.023-.018.019-.028.01-.03.01-.045v-.02h.093l0,.065-.01.056-.013.047-.018.037Zm.523,0-.02-.2v-.008h.273l.03.206Z" transform="translate(-0.655 -0.334)" fill="#ffb316"/>
              <path id="Path-38" data-name="Path" d="M39.374,20.446v.01l.009.1.025.093.046.083.053.072.066.058.076.041.082.028.089.01.089-.01.082-.028.077-.041.066-.059.053-.071.044-.083.027-.093.01-.1v-.01h-.1v.01l-.006.083-.02.075-.031.065-.043.057-.049.049-.06.038-.069.024-.074.007-.073-.007-.069-.024-.061-.038-.049-.049-.042-.057-.032-.065-.02-.075-.006-.083v-.01Z" transform="translate(-0.652 -0.335)" fill="#ffb316"/>
              <path id="Path-39" data-name="Path" d="M39.665,20.446v.495h.124v-.427h.124l.148.427h.1l-.148-.427h.036l.034-.016.03-.017.027-.035Z" transform="translate(-0.655 -0.335)" fill="#ffb316"/>
              <path id="Shape-8" data-name="Shape" d="M24.5,14.871h-1.16v0h0l.008-.045.013-.066.019-.064.022-.063.03-.056.029-.054.034-.051.04-.047.041-.045.04-.039.049-.035.047-.029.055-.025.053-.02.053-.012.056-.01.061,0,.056.007.054.01.051.013.049.019.048.025.047.03.042.031.038.039.033.045.032.047.022.054.023.061.012.062.007.07,0,.076-.006.079Zm.86-.292-.026-.19-.044-.168-.064-.145-.079-.128-.095-.109-.1-.088-.115-.076-.123-.056-.128-.048-.131-.032-.129-.022L24.2,13.5l-.124,0-.257.013-.228.038-.208.057-.183.079-.158.095-.14.109-.123.12-.1.128-.088.133-.073.14-.056.137-.048.136-.035.135-.026.123-.019.119-.013.1-.015.26.009.234.035.214.053.187.077.168.091.145.109.131.124.108.133.092.143.079.148.06.155.047.159.039.158.022.158.016.156,0h.1l.1,0H24.3l.082,0,.074-.007.065-.006.064-.006.057-.01.053-.01.05-.012.051-.017.047-.015.047-.02.049-.019.052-.026.05-.025.128-.782-.093.055-.089.049-.091.04-.089.034-.086.03-.089.018-.086.017-.085.012-.085.007-.083,0h-.086l-.081,0-.084-.007-.082-.01-.078-.01-.083-.012-.063-.013-.063-.022-.064-.029-.056-.035-.057-.038-.05-.047L23.4,16l-.045-.053-.039-.054-.035-.059-.025-.058-.023-.059-.013-.061-.006-.059,0-.054.007-.041h2.058L25.3,15.3l.047-.267.022-.24,0-.216Z" transform="translate(-0.471 -0.261)" fill="#fff"/>
            </g>
          </g>
        </g>
      </g>
    </g>
    <g id="OXessays_home_desktop-3" data-name="OXessays_home_desktop" transform="translate(1118.634 659)">
      <g id="Oxessays_homepage_calculator_v1-3" data-name="Oxessays_homepage_calculator_v1" transform="translate(0 0)">
        <g id="footer-3" data-name="footer">
          <g id="block_payments-3" data-name="block_payments">
            <g id="icon_visa" transform="translate(0)">
              <rect id="Rectangle-3" data-name="Rectangle" width="48.765" height="29.801" rx="3" fill="#2b73b6"/>
              <path id="Shape-9" data-name="Shape" d="M22.88,19.45h-2.4l1.5-9.222h2.4Zm-4.42-9.222-2.29,6.342L15.9,15.205l-.806-4.146a1.029,1.029,0,0,0-1.139-.831H10.17l-.044.156a8.965,8.965,0,0,1,2.511,1.054l2.085,8.011h2.5l3.819-9.222H18.46ZM34.7,16.189l1.262-3.452.709,3.452Zm2.642,3.261h2.2l-1.921-9.222H35.7a1.1,1.1,0,0,0-1.109.687l-3.58,8.535h2.5l.5-1.369h3.052Zm-6.148-7,.341-1.98a6.93,6.93,0,0,0-2.159-.4c-1.191,0-4.02.52-4.02,3.052,0,2.383,3.321,2.412,3.321,3.663s-2.978,1.027-3.962.237l-.357,2.071a6.734,6.734,0,0,0,2.71.52c1.638,0,4.11-.848,4.11-3.156,0-2.4-3.35-2.622-3.35-3.663s2.338-.909,3.365-.343" transform="translate(-0.578 -0.225)" fill="#fff"/>
              <path id="Path-40" data-name="Path" d="M15.9,15.207l-.807-4.146a1.027,1.027,0,0,0-1.138-.831H10.17l-.044.156a9.3,9.3,0,0,1,3.562,1.789A7.183,7.183,0,0,1,15.9,15.207" transform="translate(-0.578 -0.227)" fill="#ffa61f"/>
            </g>
          </g>
        </g>
      </g>
    </g>
    <g id="OXessays_home_desktop-4" data-name="OXessays_home_desktop" transform="translate(1176.881 659)">
      <g id="Oxessays_homepage_calculator_v1-4" data-name="Oxessays_homepage_calculator_v1" transform="translate(0 0)">
        <g id="footer-4" data-name="footer">
          <g id="block_payments-4" data-name="block_payments">
            <g id="icon_wire" transform="translate(0)">
              <rect id="Rectangle-4" data-name="Rectangle" width="50.119" height="29.801" rx="3" transform="translate(0)" fill="#2363af"/>
              <g id="Group-2" data-name="Group" transform="translate(7.638 6.849)">
                <g id="Shape-10" data-name="Shape" transform="translate(0 8.483)">
                  <path id="Path_3542" data-name="Path 3542" d="M.065,3.428l.2-.933H.918l.162-.744L2.6.883,2.248,2.5h.811l-.2.932H2.039l-.43,1.949a5.743,5.743,0,0,0-.116.6.277.277,0,0,0,.1.226.569.569,0,0,0,.352.081c.059,0,.2-.01.44-.031l-.209.932a3.74,3.74,0,0,1-.7.066A1.636,1.636,0,0,1,.445,7a.86.86,0,0,1-.32-.71A6.282,6.282,0,0,1,.3,5.3l.412-1.87H.065Zm3.781-.933H5.087l-.2.9A1.9,1.9,0,0,1,6.394,2.385a1.613,1.613,0,0,1,.615.137L6.5,3.551a1.192,1.192,0,0,0-.384-.061,1.226,1.226,0,0,0-.7.244,1.664,1.664,0,0,0-.554.655,6.252,6.252,0,0,0-.394,1.3L4.147,7.145H2.818l1.029-4.65ZM8.46,3.813l-1.3-.1a1.86,1.86,0,0,1,.776-.973,2.712,2.712,0,0,1,1.466-.35,2.237,2.237,0,0,1,1.4.362,1.089,1.089,0,0,1,.454.882,2.685,2.685,0,0,1-.04.447q-.04.236-.276,1.244a6.116,6.116,0,0,0-.194,1.165,2.278,2.278,0,0,0,.111.661H9.572a2.293,2.293,0,0,1-.1-.525,2.035,2.035,0,0,1-.671.471,1.91,1.91,0,0,1-.765.164A1.406,1.406,0,0,1,7.03,6.876a1.281,1.281,0,0,1-.4-.975,1.368,1.368,0,0,1,.438-1.064,2.64,2.64,0,0,1,1.563-.482A6.417,6.417,0,0,0,9.9,4.176a1.484,1.484,0,0,0,.084-.421.415.415,0,0,0-.172-.336.805.805,0,0,0-.51-.136,1,1,0,0,0-.563.138.686.686,0,0,0-.28.392ZM9.725,4.977a3.091,3.091,0,0,1-.32.057A3.184,3.184,0,0,0,8.1,5.367a.5.5,0,0,0-.218.425.479.479,0,0,0,.166.369.63.63,0,0,0,.44.151,1.22,1.22,0,0,0,.568-.139.978.978,0,0,0,.4-.354,2.309,2.309,0,0,0,.234-.677l.037-.166Zm3.183-2.482h1.261l-.13.6a3.5,3.5,0,0,1,.883-.549,2.312,2.312,0,0,1,.864-.164,1.344,1.344,0,0,1,.957.328,1.142,1.142,0,0,1,.349.872,5.219,5.219,0,0,1-.152.928L16.36,7.145H15.03L15.614,4.5a5.463,5.463,0,0,0,.129-.7.49.49,0,0,0-.149-.379.6.6,0,0,0-.42-.139,1.234,1.234,0,0,0-.649.233,1.646,1.646,0,0,0-.56.613,4.921,4.921,0,0,0-.333,1.108l-.422,1.91H11.88l1.029-4.651Zm4.577,3.349,1.288-.192A1.184,1.184,0,0,0,19.2,6.2a1.293,1.293,0,0,0,.7.16,1.243,1.243,0,0,0,.727-.192.384.384,0,0,0,.19-.32.32.32,0,0,0-.1-.228,1.721,1.721,0,0,0-.551-.237,6.162,6.162,0,0,1-1.492-.595,1.07,1.07,0,0,1-.449-.893,1.245,1.245,0,0,1,.435-.95,2.583,2.583,0,0,1,1.8-.557,2.58,2.58,0,0,1,1.437.328,1.432,1.432,0,0,1,.616.889l-1.228.2a.726.726,0,0,0-.315-.381,1.409,1.409,0,0,0-.714-.17,1.058,1.058,0,0,0-.6.131.374.374,0,0,0-.183.3.336.336,0,0,0,.185.289,4.558,4.558,0,0,0,.746.245,4.1,4.1,0,0,1,1.3.524,1.085,1.085,0,0,1,.463.877,1.453,1.453,0,0,1-.588,1.148,2.542,2.542,0,0,1-1.659.485,3.068,3.068,0,0,1-1.646-.369,1.848,1.848,0,0,1-.791-1.04Zm8.877-3.349-.2.92h-.94l-.825,3.73h-1.33l.824-3.73h-.741l.2-.92h.742l.106-.477a3.315,3.315,0,0,1,.245-.793A1.122,1.122,0,0,1,24.915.78a1.764,1.764,0,0,1,.817-.164A4.334,4.334,0,0,1,27.02.827l-.259.9a2.685,2.685,0,0,0-.774-.153.413.413,0,0,0-.338.136,1.282,1.282,0,0,0-.153.46l-.074.328h.941ZM30.884,5.21H27.548c0,.049,0,.087,0,.114a1.021,1.021,0,0,0,.28.749.926.926,0,0,0,.683.284,1.143,1.143,0,0,0,1.034-.648l1.19.188A2.422,2.422,0,0,1,29.8,6.916a2.54,2.54,0,0,1-1.305.338,2.24,2.24,0,0,1-1.613-.594,2.073,2.073,0,0,1-.62-1.569,2.756,2.756,0,0,1,.561-1.7,2.577,2.577,0,0,1,2.182-1.007,1.949,1.949,0,0,1,1.437.528,1.984,1.984,0,0,1,.532,1.477,3.3,3.3,0,0,1-.092.819Zm-1.121-.767c0-.055,0-.1,0-.127a1.082,1.082,0,0,0-.245-.775.864.864,0,0,0-.658-.258,1.076,1.076,0,0,0-.738.293,1.536,1.536,0,0,0-.443.867Zm2.563-1.948h1.241l-.2.9a1.9,1.9,0,0,1,1.5-1.012,1.614,1.614,0,0,1,.616.137l-.51,1.029a1.192,1.192,0,0,0-.384-.061,1.224,1.224,0,0,0-.7.244,1.664,1.664,0,0,0-.554.655,6.252,6.252,0,0,0-.394,1.3l-.325,1.458H31.3l1.029-4.65Z" transform="translate(-0.065 -0.616)" fill="#fff"/>
                </g>
                <g id="Shape-11" data-name="Shape" transform="translate(0.188 0)">
                  <path id="Path_3543" data-name="Path 3543" d="M6.655,8.528H5l-.32-3.913L2.7,8.528H1.069L.255,2.38H1.816L2.269,6.5,4.3,2.38H5.9L6.116,6.5,8.131,2.38H9.9ZM10.974,2.38h1.757L11.371,8.529H9.613l1.36-6.148ZM11.488.042h1.757l-.33,1.5H11.157l.33-1.5ZM14.359,2.38H16l-.264,1.193a2.52,2.52,0,0,1,1.991-1.338,2.147,2.147,0,0,1,.815.179l-.674,1.36a1.569,1.569,0,0,0-.509-.081,1.623,1.623,0,0,0-.922.325,2.2,2.2,0,0,0-.732.866,8.321,8.321,0,0,0-.52,1.716l-.428,1.928H13L14.36,2.38Zm9.954,3.589H19.9q-.005.076-.006.151a1.349,1.349,0,0,0,.37.989,1.218,1.218,0,0,0,.9.376,1.509,1.509,0,0,0,1.365-.857l1.575.249a3.189,3.189,0,0,1-1.229,1.346,3.356,3.356,0,0,1-1.724.449,2.959,2.959,0,0,1-2.131-.785,2.74,2.74,0,0,1-.821-2.076,3.635,3.635,0,0,1,.742-2.246,3.4,3.4,0,0,1,2.884-1.331,2.58,2.58,0,0,1,1.9.7,2.628,2.628,0,0,1,.7,1.953,4.414,4.414,0,0,1-.123,1.082ZM22.831,4.957q.005-.084.006-.168a1.443,1.443,0,0,0-.325-1.025,1.145,1.145,0,0,0-.871-.341,1.422,1.422,0,0,0-.976.388,2.025,2.025,0,0,0-.586,1.147Z" transform="translate(-0.255 -0.042)" fill="#fff"/>
                </g>
                <path id="Shape-12" data-name="Shape" d="M26.7,2.65V7.621l3.871-2.485Zm5.26,0V7.621l3.87-2.485Z" transform="translate(-0.347 -0.07)" fill="#73aadc"/>
              </g>
            </g>
          </g>
        </g>
      </g>
    </g>
  </g>
</svg>
