<svg xmlns="http://www.w3.org/2000/svg" width="136" height="36.965" viewBox="0 0 136 36.965">
  <g id="Group_2634" data-name="Group 2634" transform="translate(-139 -32.913)">
    <path id="Path_656" data-name="Path 656" d="M-368.385-816.412l-1.487.847c-1.316-2.266-2.6-4.477-3.888-6.69q-3.594-6.185-7.19-12.37a2.521,2.521,0,0,0-2.755-1.329,2.446,2.446,0,0,0-2.023,1.933,2.724,2.724,0,0,0,.4,2.109q4.788,8.222,9.564,16.449c.574.986,1.157,1.968,1.741,2.948a4.31,4.31,0,0,1-3.75,6.518c-5.381.03-10.763.025-16.144.033-1.951,0-3.9,0-5.87,0a4.441,4.441,0,0,1-.037-1.6,1.834,1.834,0,0,1,.986-.1q10.509-.039,21.017-.068a2.58,2.58,0,0,0,2.648-2.062,2.588,2.588,0,0,0-1.451-2.828,2.675,2.675,0,0,0-1.184-.235c-7.488.022-14.976.033-22.464.077a4.2,4.2,0,0,1-3.886-2.089,4.146,4.146,0,0,1,.01-4.479q4.587-7.984,9.172-15.972c.58-1.01,1.158-2.021,1.779-3.106l1.487.852-3.815,6.652q-3.56,6.206-7.117,12.413a2.572,2.572,0,0,0,1.833,3.994,2.65,2.65,0,0,0,2.674-1.506q3.64-6.335,7.27-12.676c1.31-2.289,2.6-4.588,3.916-6.877a4.278,4.278,0,0,1,7.422.012c1.728,2.868,3.379,5.782,5.061,8.678C-372.454-823.427-370.445-819.963-368.385-816.412Zm-18.791-15.282-9.8,17.083h19.722C-380.591-820.354-383.842-825.952-387.176-831.694Z" transform="translate(545.994 875.841)" fill="#fff"/>
    <g id="Group_44" data-name="Group 44" transform="translate(184.448 59.437)">
      <path id="Path_671" data-name="Path 671" d="M-341.608-797.159v-8.93h1.477a2.21,2.21,0,0,1,1.053.2,1.068,1.068,0,0,1,.507.644,4.034,4.034,0,0,1,.144,1.157v.157a5.324,5.324,0,0,1-.119,1.246,1.066,1.066,0,0,1-.51.7.94.94,0,0,1,.474.451,2.383,2.383,0,0,1,.228.764,6.628,6.628,0,0,1,.064.941v.177a5.827,5.827,0,0,1-.16,1.411,1.427,1.427,0,0,1-.507.814,1.671,1.671,0,0,1-1,.262Zm.918-5.155h.635a1.237,1.237,0,0,0,.366-.045.368.368,0,0,0,.218-.2,1.379,1.379,0,0,0,.1-.464q.027-.313.027-.845v-.172a3.121,3.121,0,0,0-.081-.832.54.54,0,0,0-.259-.36,1.084,1.084,0,0,0-.472-.086h-.538Zm0,4.394h.716a.65.65,0,0,0,.469-.157.977.977,0,0,0,.231-.552,7.057,7.057,0,0,0,.066-1.106v-.208a4.2,4.2,0,0,0-.142-1.266.561.561,0,0,0-.588-.383h-.752Z" transform="translate(341.608 806.201)" fill="#fff"/>
      <path id="Path_672" data-name="Path 672" d="M-326.791-797.109a1.6,1.6,0,0,1-1.027-.294,1.58,1.58,0,0,1-.515-.893,6.5,6.5,0,0,1-.146-1.512v-3.876a6.113,6.113,0,0,1,.131-1.348,1.632,1.632,0,0,1,.5-.9,1.609,1.609,0,0,1,1.086-.322,1.754,1.754,0,0,1,.863.183,1.187,1.187,0,0,1,.492.522,2.537,2.537,0,0,1,.226.812,8.6,8.6,0,0,1,.058,1.051v3.876a6.719,6.719,0,0,1-.142,1.512,1.571,1.571,0,0,1-.505.893A1.58,1.58,0,0,1-326.791-797.109Zm0-.776a.6.6,0,0,0,.467-.175,1.107,1.107,0,0,0,.223-.594,8.45,8.45,0,0,0,.061-1.149v-3.942a4.618,4.618,0,0,0-.135-1.309.559.559,0,0,0-.586-.416.625.625,0,0,0-.637.416,3.79,3.79,0,0,0-.165,1.3v3.947a8.45,8.45,0,0,0,.061,1.149,1.079,1.079,0,0,0,.229.594A.634.634,0,0,0-326.791-797.886Z" transform="translate(337.467 806.252)" fill="#fff"/>
      <path id="Path_673" data-name="Path 673" d="M-313.293-797.109a1.6,1.6,0,0,1-1.027-.294,1.58,1.58,0,0,1-.515-.893,6.5,6.5,0,0,1-.146-1.512v-3.876a6.115,6.115,0,0,1,.131-1.348,1.632,1.632,0,0,1,.5-.9,1.609,1.609,0,0,1,1.086-.322,1.758,1.758,0,0,1,.863.183,1.19,1.19,0,0,1,.492.522,2.539,2.539,0,0,1,.226.812,8.592,8.592,0,0,1,.058,1.051v3.876a6.719,6.719,0,0,1-.142,1.512,1.567,1.567,0,0,1-.505.893A1.58,1.58,0,0,1-313.293-797.109Zm0-.776a.6.6,0,0,0,.467-.175,1.108,1.108,0,0,0,.223-.594,8.445,8.445,0,0,0,.061-1.149v-3.942a4.62,4.62,0,0,0-.135-1.309.559.559,0,0,0-.586-.416.625.625,0,0,0-.637.416,3.788,3.788,0,0,0-.165,1.3v3.947a8.452,8.452,0,0,0,.061,1.149,1.079,1.079,0,0,0,.229.594A.634.634,0,0,0-313.293-797.886Z" transform="translate(333.208 806.252)" fill="#fff"/>
      <path id="Path_674" data-name="Path 674" d="M-301.3-797.159v-8.93h.918v4.318l1.685-4.318h.908l-1.74,4.409,1.857,4.521h-.954l-1.745-4.313v4.313Z" transform="translate(328.892 806.201)" fill="#fff"/>
      <path id="Path_675" data-name="Path 675" d="M-277.354-797.159l-1.218-8.93h.867l.837,7.047,1.06-7.047h.756l1.111,7.047.69-7.047h.852l-1.065,8.93h-.908l-1.025-6.93-1.086,6.93Z" transform="translate(321.722 806.201)" fill="#fff"/>
      <path id="Path_676" data-name="Path 676" d="M-261.316-797.159v-8.93h1.714a1.831,1.831,0,0,1,1.051.241,1.14,1.14,0,0,1,.442.738,6.5,6.5,0,0,1,.1,1.264,4.255,4.255,0,0,1-.172,1.344.933.933,0,0,1-.65.639.687.687,0,0,1,.413.216,1.252,1.252,0,0,1,.249.561,6.4,6.4,0,0,1,.124,1.043q.036.657.036,1.667v.233c0,.088,0,.179,0,.274s.009.187.016.276.016.172.027.246a1.306,1.306,0,0,0,.043.188h-.913a.609.609,0,0,1-.04-.175c-.01-.083-.019-.2-.028-.34s-.014-.326-.018-.546,0-.484,0-.792v-1.075a6.882,6.882,0,0,0-.038-.845.545.545,0,0,0-.2-.4,1.113,1.113,0,0,0-.533-.137l-.705-.04v4.353Zm.913-5.007h.726a.818.818,0,0,0,.469-.114.7.7,0,0,0,.226-.474,7.2,7.2,0,0,0,.061-1.1v-.066a5.569,5.569,0,0,0-.055-.915.6.6,0,0,0-.214-.411.853.853,0,0,0-.467-.1h-.745Z" transform="translate(316.279 806.201)" fill="#fff"/>
      <path id="Path_677" data-name="Path 677" d="M-247.8-797.159v-8.93h.918v8.93Z" transform="translate(312.016 806.201)" fill="#fff"/>
      <path id="Path_678" data-name="Path 678" d="M-237.5-797.159v-8.184h-.959v-.745h2.755v.745h-.883v8.184Z" transform="translate(309.067 806.201)" fill="#fff"/>
      <path id="Path_679" data-name="Path 679" d="M-226.44-797.159v-8.93h2.531v.745h-1.613v3.247H-224v.761h-1.522v3.425h1.613v.751Z" transform="translate(305.277 806.201)" fill="#fff"/>
      <path id="Path_680" data-name="Path 680" d="M-214.291-797.159v-8.93h1.715a1.833,1.833,0,0,1,1.051.241,1.142,1.142,0,0,1,.441.738,6.488,6.488,0,0,1,.1,1.264,4.255,4.255,0,0,1-.173,1.344.934.934,0,0,1-.65.639.69.69,0,0,1,.413.216,1.246,1.246,0,0,1,.248.561,6.393,6.393,0,0,1,.125,1.043q.035.657.036,1.667v.233c0,.088,0,.179,0,.274s.008.187.015.276.016.172.028.246a1.144,1.144,0,0,0,.043.188h-.913a.584.584,0,0,1-.041-.175c-.01-.083-.019-.2-.027-.34s-.014-.326-.018-.546-.005-.484-.005-.792v-1.075a7.05,7.05,0,0,0-.038-.845.547.547,0,0,0-.2-.4,1.115,1.115,0,0,0-.533-.137l-.706-.04v4.353Zm.913-5.007h.726a.822.822,0,0,0,.47-.114.7.7,0,0,0,.225-.474,7.121,7.121,0,0,0,.061-1.1v-.066a5.566,5.566,0,0,0-.055-.915.6.6,0,0,0-.214-.411.853.853,0,0,0-.467-.1h-.745Z" transform="translate(301.444 806.201)" fill="#fff"/>
    </g>
    <path id="Path_657" data-name="Path 657" d="M-377.224-797.946v.851h-20.32a3.911,3.911,0,0,1,0-.851Z" transform="translate(543.711 863.069)" fill="#fff"/>
    <path id="Path_659" data-name="Path 659" d="M-362.362-811.194l-10.286-17.4c.193-.273.463-.35.773-.541l10.293,17.407A1.221,1.221,0,0,1-362.362-811.194Z" transform="translate(535.848 872.907)" fill="#fff"/>
    <path id="Path_660" data-name="Path 660" d="M-352.784-801.049v3.826l-3.429-2.072a1.617,1.617,0,0,0,1.49-1.4C-354.005-800.516-353.326-800.4-352.784-801.049Z" transform="translate(530.663 864.048)" fill="#fff"/>
    <path id="Path_662" data-name="Path 662" d="M-408-797.964l3.846-2.134c-.248.881-.233,1.591.524,2.1-.52.647-1.051,1.249-.271,2.374Z" transform="translate(547 863.748)" fill="#fff"/>
    <path id="Path_658" data-name="Path 658" d="M-387.674-835.665l.806.485-9.943,17.648a1.492,1.492,0,0,1-.832-.447Z" transform="translate(543.732 874.968)" fill="#fff"/>
    <g id="Group_43" data-name="Group 43" transform="translate(184.345 34.64)">
      <g id="Group_42" data-name="Group 42" transform="translate(0)">
        <path id="Path_663" data-name="Path 663" d="M-341.758-820.952l3.02-21.173h4.259l3.212,21.173h-3.008l-.505-3.778H-338.2l-.457,3.778Zm3.874-6.364h2.767l-1.42-10.635h-.048Z" transform="translate(341.758 842.366)" fill="#fff"/>
        <path id="Path_664" data-name="Path 664" d="M-323.639-820.952v-21.173h4.006l3.008,15.471,2.827-15.471h4.031v21.173h-2.876v-7.892l.12-7.242-2.851,15.038h-2.563l-2.971-15.038.12,7.242v7.892Z" transform="translate(336.042 842.366)" fill="#fff"/>
        <path id="Path_665" data-name="Path 665" d="M-298.718-820.952v-21.173h7.1v2.779h-3.873v6.159h3.681v2.718h-3.681v6.737h4.018v2.779Z" transform="translate(328.18 842.366)" fill="#fff"/>
        <path id="Path_666" data-name="Path 666" d="M-284.659-820.952v-21.173h5.329a3.944,3.944,0,0,1,2.479.65,3.138,3.138,0,0,1,1.076,1.9,15.358,15.358,0,0,1,.259,3.055,9.036,9.036,0,0,1-.379,2.93,2.234,2.234,0,0,1-1.546,1.425,1.754,1.754,0,0,1,.927.451,2.5,2.5,0,0,1,.6,1.035,7.991,7.991,0,0,1,.331,1.744q.1,1.065.1,2.6v.674q0,.553.006,1.305t.018,1.5q.012.746.036,1.275a3.251,3.251,0,0,0,.06.626h-3.224a2.648,2.648,0,0,1-.054-.62q-.019-.559-.036-1.425t-.024-1.865q-.006-1-.006-1.967v-1.715a5.61,5.61,0,0,0-.138-1.437,1.043,1.043,0,0,0-.505-.68,2.621,2.621,0,0,0-1.053-.229l-1.034-.06v10Zm3.236-12.5h1.288a1.336,1.336,0,0,0,.9-.265,1.6,1.6,0,0,0,.421-.974,13.811,13.811,0,0,0,.114-2.045v-.132a10.387,10.387,0,0,0-.108-1.72,1.2,1.2,0,0,0-.451-.83,1.957,1.957,0,0,0-1.065-.229h-1.095Z" transform="translate(323.745 842.366)" fill="#fff"/>
        <path id="Path_667" data-name="Path 667" d="M-267.138-820.952v-21.173h3.224v21.173Z" transform="translate(318.218 842.366)" fill="#fff"/>
        <path id="Path_668" data-name="Path 668" d="M-253.479-820.823a4.383,4.383,0,0,1-2.562-.71,4.252,4.252,0,0,1-1.534-2.075,9.444,9.444,0,0,1-.511-3.3v-9.228a13,13,0,0,1,.241-2.622,5.738,5.738,0,0,1,.782-2,3.575,3.575,0,0,1,1.444-1.275,5,5,0,0,1,2.225-.446,4.877,4.877,0,0,1,2.052.392,3.494,3.494,0,0,1,1.383,1.125,4.891,4.891,0,0,1,.782,1.774,10.179,10.179,0,0,1,.246,2.34v2.911h-3.116v-2.707a7.375,7.375,0,0,0-.264-2.3,1.03,1.03,0,0,0-1.059-.74,1.141,1.141,0,0,0-1.173.8,6.687,6.687,0,0,0-.3,2.231v9.89a10.589,10.589,0,0,0,.127,1.811,2.07,2.07,0,0,0,.427,1.034,1.079,1.079,0,0,0,.842.331,1.089,1.089,0,0,0,1.106-.77,7.5,7.5,0,0,0,.289-2.442v-3.032h3.164v3a10.262,10.262,0,0,1-.469,3.351,3.776,3.776,0,0,1-1.486,2A4.759,4.759,0,0,1-253.479-820.823Z" transform="translate(315.363 842.477)" fill="#fff"/>
        <path id="Path_669" data-name="Path 669" d="M-242.5-820.952l3.02-21.173h4.258l3.212,21.173h-3.007l-.506-3.778h-3.417l-.457,3.778Zm3.874-6.364h2.767l-1.42-10.635h-.048Z" transform="translate(310.445 842.366)" fill="#fff"/>
        <path id="Path_670" data-name="Path 670" d="M-224.379-820.952v-21.173h2.526l4.487,12.7-.228-5.775v-6.929h2.9v21.173h-2.286l-4.608-13.149.18,5.558v7.591Z" transform="translate(304.729 842.366)" fill="#fff"/>
      </g>
    </g>
    <path id="Path_661" data-name="Path 661" d="M-381.025-840.9c-.27-.927-.578-1.649-1.644-1.779l3.981-2.319v4.971A1.779,1.779,0,0,0-381.025-840.9Z" transform="translate(539.009 877.913)" fill="#fff"/>
  </g>
</svg>
