<svg xmlns="http://www.w3.org/2000/svg" width="150.845" height="41" viewBox="0 0 150.845 41">
  <g id="Group_2633" data-name="Group 2633" transform="translate(-139 -32.913)">
    <path id="Path_656" data-name="Path 656" d="M-364.409-814.008l-1.649.939c-1.46-2.513-2.887-4.966-4.312-7.42q-3.986-6.861-7.974-13.721a2.8,2.8,0,0,0-3.055-1.474,2.713,2.713,0,0,0-2.244,2.144,3.021,3.021,0,0,0,.44,2.339q5.311,9.119,10.608,18.244c.636,1.094,1.283,2.183,1.931,3.27a4.78,4.78,0,0,1-4.159,7.229c-5.968.033-11.938.027-17.906.036-2.164,0-4.329,0-6.511,0a4.927,4.927,0,0,1-.041-1.777,2.034,2.034,0,0,1,1.094-.116q11.656-.043,23.311-.076a2.862,2.862,0,0,0,2.938-2.287,2.87,2.87,0,0,0-1.61-3.137,2.967,2.967,0,0,0-1.313-.26c-8.306.024-16.61.036-24.916.085a4.662,4.662,0,0,1-4.31-2.316,4.6,4.6,0,0,1,.011-4.968q5.087-8.856,10.173-17.715c.643-1.12,1.284-2.241,1.973-3.446l1.649.945-4.231,7.378q-3.948,6.883-7.894,13.768a2.853,2.853,0,0,0,2.033,4.43,2.94,2.94,0,0,0,2.966-1.67q4.037-7.027,8.064-14.059c1.453-2.539,2.887-5.089,4.343-7.627a4.745,4.745,0,0,1,8.233.013c1.917,3.181,3.748,6.413,5.613,9.625C-368.922-821.789-366.694-817.947-364.409-814.008Zm-20.842-16.95-10.873,18.948h21.874C-377.948-818.381-381.553-824.59-385.251-830.958Z" transform="translate(546.232 876.332)" fill="#1e4454"/>
    <g id="Group_44" data-name="Group 44" transform="translate(189.409 62.333)">
      <path id="Path_671" data-name="Path 671" d="M-341.608-796.184v-9.9h1.638a2.452,2.452,0,0,1,1.168.225,1.185,1.185,0,0,1,.563.714,4.474,4.474,0,0,1,.16,1.283v.174a5.9,5.9,0,0,1-.132,1.382,1.182,1.182,0,0,1-.566.78,1.043,1.043,0,0,1,.526.5,2.642,2.642,0,0,1,.253.847,7.351,7.351,0,0,1,.071,1.044v.2a6.464,6.464,0,0,1-.177,1.565,1.583,1.583,0,0,1-.563.9,1.854,1.854,0,0,1-1.112.29Zm1.018-5.718h.7a1.371,1.371,0,0,0,.405-.05.408.408,0,0,0,.241-.219,1.529,1.529,0,0,0,.116-.515c.02-.232.03-.544.03-.938v-.191a3.463,3.463,0,0,0-.09-.922.6.6,0,0,0-.287-.4,1.2,1.2,0,0,0-.523-.1h-.6Zm0,4.874h.794a.72.72,0,0,0,.52-.175,1.084,1.084,0,0,0,.256-.613,7.829,7.829,0,0,0,.074-1.227v-.231a4.653,4.653,0,0,0-.158-1.4.622.622,0,0,0-.652-.425h-.834Z" transform="translate(341.608 806.213)" fill="#1e4454"/>
      <path id="Path_672" data-name="Path 672" d="M-326.606-796.111a1.776,1.776,0,0,1-1.14-.327,1.752,1.752,0,0,1-.572-.99,7.2,7.2,0,0,1-.162-1.677v-4.3a6.78,6.78,0,0,1,.146-1.495,1.809,1.809,0,0,1,.557-1,1.785,1.785,0,0,1,1.2-.358,1.946,1.946,0,0,1,.957.2,1.317,1.317,0,0,1,.546.579,2.815,2.815,0,0,1,.251.9,9.536,9.536,0,0,1,.065,1.166v4.3a7.452,7.452,0,0,1-.157,1.677,1.742,1.742,0,0,1-.56.99A1.752,1.752,0,0,1-326.606-796.111Zm0-.861a.671.671,0,0,0,.518-.194,1.229,1.229,0,0,0,.248-.658,9.377,9.377,0,0,0,.068-1.275v-4.372a5.122,5.122,0,0,0-.15-1.452.62.62,0,0,0-.65-.462.694.694,0,0,0-.706.462,4.2,4.2,0,0,0-.183,1.446v4.378a9.376,9.376,0,0,0,.068,1.275,1.2,1.2,0,0,0,.254.658A.7.7,0,0,0-326.606-796.972Z" transform="translate(338.448 806.252)" fill="#1e4454"/>
      <path id="Path_673" data-name="Path 673" d="M-313.108-796.111a1.776,1.776,0,0,1-1.14-.327,1.753,1.753,0,0,1-.572-.99,7.206,7.206,0,0,1-.162-1.677v-4.3a6.784,6.784,0,0,1,.146-1.495,1.81,1.81,0,0,1,.557-1,1.785,1.785,0,0,1,1.2-.358,1.951,1.951,0,0,1,.957.2,1.319,1.319,0,0,1,.545.579,2.817,2.817,0,0,1,.251.9,9.536,9.536,0,0,1,.065,1.166v4.3a7.452,7.452,0,0,1-.157,1.677,1.738,1.738,0,0,1-.56.99A1.752,1.752,0,0,1-313.108-796.111Zm0-.861a.671.671,0,0,0,.518-.194,1.229,1.229,0,0,0,.247-.658,9.366,9.366,0,0,0,.068-1.275v-4.372a5.123,5.123,0,0,0-.15-1.452.62.62,0,0,0-.65-.462.694.694,0,0,0-.706.462,4.2,4.2,0,0,0-.183,1.446v4.378a9.378,9.378,0,0,0,.068,1.275,1.2,1.2,0,0,0,.254.658A.7.7,0,0,0-313.108-796.972Z" transform="translate(335.198 806.252)" fill="#1e4454"/>
      <path id="Path_674" data-name="Path 674" d="M-301.3-796.184v-9.9h1.018v4.789l1.869-4.789h1.008l-1.93,4.89,2.059,5.014h-1.058l-1.935-4.783v4.783Z" transform="translate(331.904 806.213)" fill="#1e4454"/>
      <path id="Path_675" data-name="Path 675" d="M-277.221-796.184l-1.351-9.9h.962l.929,7.816,1.176-7.816h.839l1.232,7.816.765-7.816h.945l-1.181,9.9h-1.008l-1.137-7.687-1.2,7.687Z" transform="translate(326.433 806.213)" fill="#1e4454"/>
      <path id="Path_676" data-name="Path 676" d="M-261.316-796.184v-9.9h1.9a2.031,2.031,0,0,1,1.165.267,1.265,1.265,0,0,1,.49.818,7.2,7.2,0,0,1,.112,1.4,4.719,4.719,0,0,1-.191,1.491,1.035,1.035,0,0,1-.721.709.762.762,0,0,1,.459.239,1.389,1.389,0,0,1,.276.622,7.108,7.108,0,0,1,.137,1.156q.04.729.039,1.849v.259c0,.1,0,.2.005.3s.01.207.017.307.017.191.03.273a1.456,1.456,0,0,0,.048.208h-1.013a.676.676,0,0,1-.045-.194c-.011-.092-.021-.217-.031-.377s-.016-.361-.02-.605-.005-.537-.005-.878v-1.193a7.632,7.632,0,0,0-.043-.937.6.6,0,0,0-.222-.447,1.234,1.234,0,0,0-.591-.152l-.782-.045v4.828Zm1.013-5.554h.8a.907.907,0,0,0,.52-.127.774.774,0,0,0,.25-.526,7.985,7.985,0,0,0,.068-1.216v-.074a6.174,6.174,0,0,0-.061-1.015.666.666,0,0,0-.237-.456.947.947,0,0,0-.518-.115h-.827Z" transform="translate(322.278 806.213)" fill="#1e4454"/>
      <path id="Path_677" data-name="Path 677" d="M-247.8-796.184v-9.9h1.018v9.9Z" transform="translate(319.025 806.213)" fill="#1e4454"/>
      <path id="Path_678" data-name="Path 678" d="M-237.392-796.184v-9.078h-1.064v-.827h3.056v.827h-.979v9.078Z" transform="translate(316.775 806.213)" fill="#1e4454"/>
      <path id="Path_679" data-name="Path 679" d="M-226.44-796.184v-9.9h2.808v.827h-1.79v3.6h1.689v.844h-1.689v3.8h1.79v.833Z" transform="translate(313.882 806.213)" fill="#1e4454"/>
      <path id="Path_680" data-name="Path 680" d="M-214.291-796.184v-9.9h1.9a2.033,2.033,0,0,1,1.165.267,1.267,1.267,0,0,1,.489.818,7.2,7.2,0,0,1,.113,1.4,4.72,4.72,0,0,1-.191,1.491,1.036,1.036,0,0,1-.721.709.765.765,0,0,1,.459.239,1.382,1.382,0,0,1,.276.622,7.092,7.092,0,0,1,.138,1.156q.039.729.039,1.849v.259c0,.1,0,.2.005.3s.009.207.017.307.017.191.031.273a1.267,1.267,0,0,0,.048.208h-1.013a.649.649,0,0,1-.046-.194c-.011-.092-.021-.217-.03-.377s-.016-.361-.02-.605-.006-.537-.006-.878v-1.193a7.82,7.82,0,0,0-.042-.937.607.607,0,0,0-.222-.447,1.236,1.236,0,0,0-.591-.152l-.783-.045v4.828Zm1.013-5.554h.8a.911.911,0,0,0,.521-.127.778.778,0,0,0,.25-.526,7.9,7.9,0,0,0,.068-1.216v-.074a6.173,6.173,0,0,0-.062-1.015.663.663,0,0,0-.237-.456.947.947,0,0,0-.518-.115h-.827Z" transform="translate(310.957 806.213)" fill="#1e4454"/>
    </g>
    <path id="Path_657" data-name="Path 657" d="M-375-797.946V-797h-22.539a4.339,4.339,0,0,1,0-.944Z" transform="translate(544.49 866.585)" fill="#1e4454"/>
    <path id="Path_659" data-name="Path 659" d="M-361.239-809.236l-11.409-19.3c.214-.3.513-.388.857-.6l11.417,19.307A1.354,1.354,0,0,1-361.239-809.236Z" transform="translate(538.489 874.093)" fill="#1e4454"/>
    <path id="Path_660" data-name="Path 660" d="M-352.41-801.049v4.243l-3.8-2.3a1.793,1.793,0,0,0,1.653-1.553C-353.764-800.458-353.011-800.328-352.41-801.049Z" transform="translate(534.533 867.332)" fill="#1e4454"/>
    <path id="Path_662" data-name="Path 662" d="M-408-797.731l4.266-2.367c-.275.977-.259,1.765.582,2.334-.577.717-1.165,1.386-.3,2.633Z" transform="translate(547 867.103)" fill="#1e4454"/>
    <path id="Path_658" data-name="Path 658" d="M-386.586-835.665l.894.538-11.028,19.574a1.654,1.654,0,0,1-.923-.5Z" transform="translate(544.506 875.665)" fill="#1e4454"/>
    <g id="Group_43" data-name="Group 43" transform="translate(189.295 34.828)">
      <g id="Group_42" data-name="Group 42" transform="translate(0)">
        <path id="Path_663" data-name="Path 663" d="M-341.758-818.64l3.349-23.485h4.724l3.562,23.485h-3.336l-.56-4.19h-3.789l-.507,4.19Zm4.3-7.059h3.069l-1.575-11.8h-.053Z" transform="translate(341.758 842.392)" fill="#1e4454"/>
        <path id="Path_664" data-name="Path 664" d="M-323.639-818.64v-23.485h4.443l3.336,17.16,3.136-17.16h4.471v23.485h-3.19v-8.753l.134-8.033-3.162,16.679h-2.843l-3.3-16.679.133,8.033v8.753Z" transform="translate(337.396 842.392)" fill="#1e4454"/>
        <path id="Path_665" data-name="Path 665" d="M-298.718-818.64v-23.485h7.872v3.083h-4.3v6.832h4.082v3.015h-4.082v7.473h4.456v3.083Z" transform="translate(331.396 842.392)" fill="#1e4454"/>
        <path id="Path_666" data-name="Path 666" d="M-284.659-818.64v-23.485h5.911A4.375,4.375,0,0,1-276-841.4a3.48,3.48,0,0,1,1.194,2.108,17.035,17.035,0,0,1,.287,3.389,10.023,10.023,0,0,1-.42,3.25,2.478,2.478,0,0,1-1.715,1.581,1.945,1.945,0,0,1,1.028.5,2.776,2.776,0,0,1,.667,1.148,8.863,8.863,0,0,1,.367,1.935q.113,1.181.113,2.889v.747q0,.614.007,1.448t.02,1.661q.014.827.04,1.415a3.6,3.6,0,0,0,.067.694h-3.576a2.939,2.939,0,0,1-.06-.688q-.021-.62-.04-1.581t-.027-2.068q-.007-1.107-.007-2.181v-1.9a6.222,6.222,0,0,0-.153-1.594,1.157,1.157,0,0,0-.56-.754,2.907,2.907,0,0,0-1.168-.254l-1.147-.066v11.088Zm3.589-13.864h1.428a1.482,1.482,0,0,0,.994-.294,1.773,1.773,0,0,0,.467-1.08,15.317,15.317,0,0,0,.127-2.269v-.147a11.522,11.522,0,0,0-.12-1.908,1.328,1.328,0,0,0-.5-.921,2.171,2.171,0,0,0-1.181-.254h-1.214Z" transform="translate(328.012 842.392)" fill="#1e4454"/>
        <path id="Path_667" data-name="Path 667" d="M-267.138-818.64v-23.485h3.576v23.485Z" transform="translate(323.794 842.392)" fill="#1e4454"/>
        <path id="Path_668" data-name="Path 668" d="M-252.976-818.459a4.861,4.861,0,0,1-2.842-.787,4.715,4.715,0,0,1-1.7-2.3,10.476,10.476,0,0,1-.567-3.663v-10.235a14.422,14.422,0,0,1,.267-2.909,6.363,6.363,0,0,1,.867-2.215,3.965,3.965,0,0,1,1.6-1.414,5.541,5.541,0,0,1,2.468-.494,5.409,5.409,0,0,1,2.275.434,3.877,3.877,0,0,1,1.534,1.248,5.426,5.426,0,0,1,.867,1.968,11.291,11.291,0,0,1,.273,2.595V-833h-3.456v-3a8.178,8.178,0,0,0-.293-2.555,1.143,1.143,0,0,0-1.175-.821,1.266,1.266,0,0,0-1.3.888,7.416,7.416,0,0,0-.327,2.474v10.969a11.741,11.741,0,0,0,.14,2.008,2.3,2.3,0,0,0,.474,1.147,1.2,1.2,0,0,0,.934.367,1.207,1.207,0,0,0,1.227-.854,8.314,8.314,0,0,0,.32-2.708v-3.363h3.509v3.323a11.382,11.382,0,0,1-.52,3.717,4.188,4.188,0,0,1-1.648,2.221A5.277,5.277,0,0,1-252.976-818.459Z" transform="translate(321.615 842.477)" fill="#1e4454"/>
        <path id="Path_669" data-name="Path 669" d="M-242.5-818.64l3.35-23.485h4.723l3.562,23.485H-234.2l-.561-4.19h-3.789l-.506,4.19Zm4.3-7.059h3.069l-1.575-11.8h-.053Z" transform="translate(317.862 842.392)" fill="#1e4454"/>
        <path id="Path_670" data-name="Path 670" d="M-224.379-818.64v-23.485h2.8l4.977,14.091-.253-6.405v-7.686h3.215v23.485h-2.535l-5.111-14.585.2,6.164v8.42Z" transform="translate(313.5 842.392)" fill="#1e4454"/>
      </g>
    </g>
    <path id="Path_661" data-name="Path 661" d="M-380.846-840.455c-.3-1.028-.642-1.829-1.823-1.973l4.415-2.572v5.514A1.973,1.973,0,0,0-380.846-840.455Z" transform="translate(540.902 877.913)" fill="#1e4454"/>
  </g>
</svg>
