<svg xmlns="http://www.w3.org/2000/svg" width="141.331" height="39.285" viewBox="0 0 141.331 39.285">
  <g id="Group_16" data-name="Group 16" transform="translate(0 0)">
    <path id="Path_484" data-name="Path 484" d="M.2,41.295a35.4,35.4,0,0,0,2.922-2.087A6.5,6.5,0,0,0,5,37.747c.209-.417.626-.417.835-.626,1.043-.626,1.669-1.669,2.713-2.3a.435.435,0,0,0,0-.835c-.835-.626-1.252-1.252-2.087-1.878A9.641,9.641,0,0,0,5,30.652,18.021,18.021,0,0,1,2.287,27.73a6.4,6.4,0,0,1-1.252-4.382V9.157c0-.209-.209-.626.209-.835.209-.209.626,0,.835.417.626.835,1.461,1.252,2.087,2.087a9.641,9.641,0,0,1,1.461,1.461c.417.626,1.252.835,1.669,1.461l1.878,1.878A12.592,12.592,0,0,0,10.843,17.3c.417.209.626.626,1.043,1.043a15.937,15.937,0,0,1,1.878,1.878c.626.835,1.669,1.461,2.3,2.3h.209c.209,0,.209-.209,0-.417-.626-.835-.626-1.878-1.043-2.713-.417-.626-1.043-1.461-1.461-2.087a38.563,38.563,0,0,0-2.922-2.922c-.209-.626-.835-1.043-1.252-1.461L7.713,11.036A9.641,9.641,0,0,0,6.252,9.575,3.082,3.082,0,0,1,5,6.236c0-.417.417-.209.835-.209C6.461,6.445,6.878,7.279,7.5,7.7c1.252.835,2.087,2.087,3.339,2.922l1.669,1.669c.417.626,1.043.835,1.669,1.461a19.675,19.675,0,0,0,2.087,2.087,9.588,9.588,0,0,1,1.461,3.339c.209.417,0,1.043.209,1.669A11.468,11.468,0,0,1,19.4,18.966c.835-.626,1.669-1.669,3.13-1.461.626,0,1.252.626,1.878.835a12.765,12.765,0,0,1,2.5,1.043,9.24,9.24,0,0,0-2.5,3.13,11.575,11.575,0,0,1-1.252,1.669l-.626,1.252a16.638,16.638,0,0,1-1.669,3.339c-.209,0-.209.209-.417.417a14.906,14.906,0,0,1-1.669,3.13,18.911,18.911,0,0,1-2.3,3.339c-1.043,1.252-1.669,2.5-2.713,3.756A12.668,12.668,0,0,0,12.3,41.5a26.875,26.875,0,0,1-3.339,3.548v.209H8.339a17.385,17.385,0,0,0-.835-3.13c-.209-.417-.417-.626-1.252-.626-1.878,0-3.965,0-6.052-.209Z" transform="translate(-0.2 -5.975)" fill="#1e4454"/>
    <path id="Path_485" data-name="Path 485" d="M9.217,29.751c-.209,0-.417,0-.417-.209s0-.626.209-.626a11.054,11.054,0,0,0,1.252-2.087c.835-1.252,1.461-2.713,2.3-3.965.209-.417.417-1.043.626-1.461.417-1.043.835-1.878,1.252-2.922a2.4,2.4,0,0,1,2.3-1.252A24.618,24.618,0,0,0,20.9,16.4c1.043-.209,2.3-.417,3.339-.626,1.252-.209,2.3-.417,3.548-.626a17.916,17.916,0,0,0,3.548-.626c.835-.209,1.878-.209,2.713-.417.417,0,.626,0,.835.209s-.209.209-.417.417c-.835,1.252-2.087,2.3-2.922,3.548-.417.417-1.043.835-1.252,1.461-.626.835-1.252,1.252-1.878,2.087-.835,1.043-1.878,2.087-2.713,3.13-.626.626-1.043,1.252-1.669,1.878s-1.461.626-2.087,1.043c-1.669.835-3.548.626-5.217,1.043-.626.209-1.461,0-1.878.209a6.163,6.163,0,0,1-2.713.417A13.777,13.777,0,0,0,9.217,29.751Z" transform="translate(9.147 2.856)" fill="#1e4454"/>
    <path id="Path_486" data-name="Path 486" d="M50.573,21.5a1.989,1.989,0,0,1,1.669,1.669,12.634,12.634,0,0,1,0,3.965c-.209,1.252-1.878,2.087-2.922,2.087h-7.3c-.417,0-.417,0-.417-.417V14.617c0-.417.209-.417.626-.417h7.1a2.878,2.878,0,0,1,2.5,2.5v1.461C52.034,19.626,51.825,20.669,50.573,21.5Zm-6.052,3.339v1.878c0,.209,0,.417.417.417a20.246,20.246,0,0,0,3.548-.209c.209,0,.417-.209.626-.417a6.947,6.947,0,0,0,.209-2.922c0-.626-.417-.835-1.043-.835h-3.13c-.417,0-.417.209-.417.417A5.186,5.186,0,0,0,44.522,24.843Zm0-6.469v1.669c0,.209,0,.417.417.417h2.713A.986.986,0,0,0,48.7,19.417V17.539a.553.553,0,0,0-.626-.626c-.626-.209-1.252,0-1.669-.209-.626,0-1.252-.209-1.669,0C44.313,17.122,44.522,17.956,44.522,18.374Z" transform="translate(44.795 2.964)" fill="#1e4454"/>
    <path id="Path_487" data-name="Path 487" d="M23.5,29.434a11.962,11.962,0,0,1,.835-2.922A41.22,41.22,0,0,0,26,21.087a38.159,38.159,0,0,0,1.669-5.217c.209-.417.417-1.043.626-1.461,0-.209.209-.209.417-.209h3.548c.417,0,.417.209.626.417.209.417.209.626.417,1.043a38.942,38.942,0,0,0,1.461,4.591c.417,1.043.626,2.087,1.043,3.13.626,1.252.626,2.5,1.252,3.756l.626,1.878c.209.417,0,.417-.417.417h-2.5c-.417,0-.417-.209-.626-.417-.209-.835-.417-1.669-.626-2.3-.417-.209-.626-.417-.835-.417H28.091c-.417,0-.417,0-.417.417a6.093,6.093,0,0,0-.417,1.878c-.209.626-.417.835-1.043.835Zm8.765-5.843c-.626-2.3-1.252-4.382-1.878-6.678-.209.835-.626,1.669-.835,2.5a25.231,25.231,0,0,1-1.043,3.756c-.209.417,0,.417.209.417Z" transform="translate(25.123 2.964)" fill="#1e4454"/>
    <path id="Path_488" data-name="Path 488" d="M33.649,18.4c1.669-.417,3.339-.835,5.008-.209A2.8,2.8,0,0,1,40.327,20.9v5.634a3.533,3.533,0,0,1-2.713,3.13,8.751,8.751,0,0,1-3.339.209c-1.043,0-2.3-.209-3.339-.209-.417,0-.209-.209-.209-.417V15.474c0-.626.209-.626.626-.835.626,0,1.043-.417,1.878-.209a.553.553,0,0,1,.626.626A13.9,13.9,0,0,0,33.649,18.4Zm0,5.634v2.5c0,.417.209.626.417.626a3.607,3.607,0,0,0,2.087-.209c1.043-.417,1.252-.626,1.252-1.669V21.734c0-1.043-.209-1.252-1.252-1.252a4.068,4.068,0,0,0-1.669.209c-.417.209-.835.417-.835,1.043Z" transform="translate(32.921 3.151)" fill="#1e4454"/>
    <path id="Path_489" data-name="Path 489" d="M69.343,18.787a10.938,10.938,0,0,1-2.087,2.3c-.626.626-1.043,1.252-1.461,1.669l-.626.626a1.009,1.009,0,0,0,0,1.461c.626.626,1.252,1.461,1.878,2.087.417.417.626,1.043,1.043,1.252.626.417.626,1.043,1.043,1.461H66a.2.2,0,0,1-.209-.209c-.209-.626-1.043-1.043-1.252-1.669a5.625,5.625,0,0,0-1.461-1.669c-.417-.417-.626-1.043-1.252-1.461v2.5c0,.835.417,1.669-.209,2.087-.417.417-1.461,0-2.087.209-.626,0-.835-.209-.835-.835V15.657c0-.626,0-1.252,1.043-1.252A1.533,1.533,0,0,0,61,13.987c.417-.417.835,0,.835.626v8.139c1.252-1.461,2.5-3.13,3.756-4.591.209-.209.209-.209.417-.209A5.3,5.3,0,0,0,69.343,18.787Z" transform="translate(63.38 2.551)" fill="#1e4454"/>
    <path id="Path_490" data-name="Path 490" d="M53.1,21.8c.209-.835-.209-1.878.209-2.713a3.542,3.542,0,0,1,3.339-2.922,7.045,7.045,0,0,1,4.174.417A3.24,3.24,0,0,1,62.908,19.3a35.372,35.372,0,0,1,.209,4.8,4.055,4.055,0,0,1-1.669,3.339,2.987,2.987,0,0,1-2.3.626,8.37,8.37,0,0,1-3.965-.626,2.206,2.206,0,0,1-1.252-1.461C52.891,24.512,53.309,23.052,53.1,21.8Zm6.887.209V20.756c0-1.878-.626-2.3-2.087-2.087-.835,0-1.252.209-1.461,1.252a9.392,9.392,0,0,0,0,4.174c0,.835.835,1.252,1.669,1.461,1.043,0,1.878-.209,2.087-1.043C60.2,23.469,59.987,22.634,59.987,22.008Z" transform="translate(57.294 4.964)" fill="#1e4454"/>
    <path id="Path_491" data-name="Path 491" d="M47.727,21.843a14.783,14.783,0,0,1,.209-2.922,4.378,4.378,0,0,1,2.713-2.713,8.6,8.6,0,0,1,4.591.209A2.722,2.722,0,0,1,57.327,18.3c.835,1.878.417,3.965.417,5.843a4.225,4.225,0,0,1-1.669,2.922,1.582,1.582,0,0,1-.835.417,10.358,10.358,0,0,1-5.634-.209,4.09,4.09,0,0,1-1.669-2.922A4.927,4.927,0,0,1,47.727,21.843Zm6.678.209V20.174a.767.767,0,0,0-.209-.626A2.431,2.431,0,0,0,51.483,18.5a1.652,1.652,0,0,0-1.043,1.669V23.1c0,1.878.626,2.087,2.087,2.087,1.252,0,1.669-.626,1.669-1.878A2.647,2.647,0,0,0,54.405,22.052Z" transform="translate(51.398 4.921)" fill="#1e4454"/>
    <path id="Path_492" data-name="Path 492" d="M42.143,22.878h-2.5a.553.553,0,0,0-.626.626,1.536,1.536,0,0,0,1.669,1.669,15.8,15.8,0,0,0,3.13-.209c.626-.209.835,0,.835.835h0c0,1.669,0,1.669-1.669,1.878a11.347,11.347,0,0,1-3.756,0c-1.878-.417-2.922-1.252-2.922-3.339v-4.8a3.931,3.931,0,0,1,.417-1.669A3.33,3.33,0,0,1,39.639,16.2a12.833,12.833,0,0,1,2.922.209,2.869,2.869,0,0,1,2.087,1.669,2.9,2.9,0,0,1,.417,2.3v2.713H42.352A.2.2,0,0,0,42.143,22.878Zm-1.461-2.3h1.252c.417,0,.417-.209.417-.417a2.37,2.37,0,0,0-.626-1.669,2.239,2.239,0,0,0-2.3.209,1.623,1.623,0,0,0-.417,1.669c.209.417.626.209,1.043.209Z" transform="translate(39.035 5.138)" fill="#1e4454"/>
    <path id="Path_493" data-name="Path 493" d="M68.555,16.03c.626-.209,1.461.209,2.3.209.417,0,.417.209.417.626v1.461c0,.417,0,.626-.626.417a11.9,11.9,0,0,0-2.713-.209c-.417,0-1.043,0-1.043.835a1.169,1.169,0,0,0,1.043,1.252,6.111,6.111,0,0,1,3.339,1.461c.417.417.417.835.626,1.252a6.7,6.7,0,0,1-.209,2.922A2.869,2.869,0,0,1,69.6,27.925a12.234,12.234,0,0,1-4.8-.209c-.209,0-.626-.209-.417-.626V25.63c0-.417.417-.626.626-.417a7.956,7.956,0,0,0,3.13.209c.417,0,1.043,0,1.043-.626a1.262,1.262,0,0,0-.626-1.252,3.931,3.931,0,0,0-1.669-.417c-1.043-.209-2.3-.626-2.5-1.669a8.982,8.982,0,0,1,0-3.339,2,2,0,0,1,1.878-1.461c.417,0,.626-.209,1.043-.209A1.764,1.764,0,0,1,68.555,16.03Z" transform="translate(69.385 4.89)" fill="#1e4454"/>
    <path id="Path_494" data-name="Path 494" d="M12.443,17.247c.209-.209.209-.417.417-.835a6.92,6.92,0,0,1,2.922-2.087c.626-.209,1.461-.209,2.087-.417,1.252-.209,2.5-.209,3.756-.417,2.3-.626,4.591-.626,6.887-1.043.626,0,1.252.209,1.669-.417.209-.209.626.209.835.417s-.209.209-.209.417c-1.043,1.669-2.922,2.087-4.8,2.3-1.043.209-2.3.209-3.339.417a24.427,24.427,0,0,1-5.426.835,17.323,17.323,0,0,0-4.382,1.252C12.443,17.873,12.234,17.873,12.443,17.247Z" transform="translate(13.017 0.544)" fill="#1e4454"/>
  </g>
</svg>
