<svg id="J0Z1OD_2_" xmlns="http://www.w3.org/2000/svg" width="133.075" height="23.383" viewBox="0 0 133.075 23.383">
  <g id="Group_15" data-name="Group 15" transform="translate(0 0)">
    <path id="Path_460" data-name="Path 460" d="M.715,22.22c.115-.344.115-.688.229-.917a4.987,4.987,0,0,1,1.49-2.292,5.433,5.433,0,0,1,3.095-1.375,7.189,7.189,0,0,1,4.126.688c.344.115.573.344.917.458a.112.112,0,0,1,.115.115h0V16.375A2.1,2.1,0,0,0,9.2,14.311a4.376,4.376,0,0,0-3.782,0,2.917,2.917,0,0,0-1.375,1.261H3.695L.944,14.885H.829c.115-.229.229-.344.229-.458a7.064,7.064,0,0,1,4.356-3.095,9.787,9.787,0,0,1,4.814.115,5.818,5.818,0,0,1,2.063,1.032,3.15,3.15,0,0,1,1.146,2.178,13.871,13.871,0,0,1,.115,2.178v7.68h2.636v2.751H10.8V25.43c-.229.115-.344.344-.573.458a6.708,6.708,0,0,1-3.095,1.6A5.57,5.57,0,0,1,1.861,26,4.369,4.369,0,0,1,.6,23.252v-.115A2.849,2.849,0,0,0,.715,22.22Zm9.972.115v-.8a.112.112,0,0,0-.115-.115,6.5,6.5,0,0,0-1.49-.917,5.157,5.157,0,0,0-3.209-.458A2.654,2.654,0,0,0,3.58,22.793,2.551,2.551,0,0,0,5.529,25.2a4.723,4.723,0,0,0,2.522-.115,7.285,7.285,0,0,0,2.522-1.6l.115-.115C10.687,22.908,10.687,22.679,10.687,22.335Z" transform="translate(-0.6 -4.339)" fill="#1e4454"/>
    <path id="Path_461" data-name="Path 461" d="M89.615,27.91v-.8h11.691l-.229-.229a2.3,2.3,0,0,0-.917-.458,8.908,8.908,0,0,0-1.834-.229H89.5V9.8h8.826a5,5,0,0,1,3.095,1.261l.115.115.115.115.458-.458a4.073,4.073,0,0,1,2.292-.917,7.567,7.567,0,0,1,1.6-.115h7.909V26.076h-8.6a6.347,6.347,0,0,0-2.063.229c-.229.115-.573.229-.8.344-.115.115-.229.229-.229.344h11.691v.8C105.776,27.91,97.638,27.91,89.615,27.91ZM113,25.274V10.717h-7.221a4.663,4.663,0,0,0-3.324,1.146.975.975,0,0,0-.344.573V25.847c.229-.115.458-.115.573-.229a8.726,8.726,0,0,1,2.407-.344H113ZM90.417,10.717V25.274h8.6a4.752,4.752,0,0,1,1.834.344c.115,0,.229.115.344.115V12.551a1.629,1.629,0,0,0-.229-.688l-.229-.229a4.327,4.327,0,0,0-2.636-.917h-7.68Z" transform="translate(12.398 -4.527)" fill="#1e4454"/>
    <path id="Path_462" data-name="Path 462" d="M70.889,5.2c.229,0,.344.115.573.115A2.615,2.615,0,0,1,73.3,7.836a2.859,2.859,0,0,1-1.949,2.751A2.759,2.759,0,1,1,70.2,5.2h.688Z" transform="translate(9.231 -5.2)" fill="#1e4454"/>
    <path id="Path_463" data-name="Path 463" d="M30.681,5.2c.229.115.573.115.8.229a2.635,2.635,0,0,1,1.6,2.522A2.824,2.824,0,0,1,30.681,10.7a2.713,2.713,0,0,1-2.866-1.949A2.781,2.781,0,0,1,29.878,5.2h.8Z" transform="translate(3.362 -5.2)" fill="#1e4454"/>
    <path id="Path_464" data-name="Path 464" d="M117.319,13.241a.421.421,0,0,1-.115.344,2.374,2.374,0,0,1-2.636,1.719,2.433,2.433,0,0,1-2.063-1.949,2.384,2.384,0,0,1,4.7-.8v.115A.859.859,0,0,1,117.319,13.241Zm-.458-.344a1.988,1.988,0,0,0-1.834-1.949,1.949,1.949,0,0,0,0,3.9A1.992,1.992,0,0,0,116.86,12.9Z" transform="translate(15.756 -4.415)" fill="#1e4454"/>
    <path id="Path_465" data-name="Path 465" d="M35.8,28.08V24.412h2.751V9.053H35.8V5.5h7.68v8.6l.573-.573a5.435,5.435,0,0,1,2.751-1.49,6.005,6.005,0,0,1,5.158,1.375,7.539,7.539,0,0,1,2.407,4.241,12.911,12.911,0,0,1,.229,3.668,8.5,8.5,0,0,1-.917,3.439,6,6,0,0,1-3.668,3.209A6.126,6.126,0,0,1,43.938,26.7l-.458-.458V28.08ZM49.555,20.4a9.671,9.671,0,0,0-.229-2.178,2.686,2.686,0,0,0-2.407-2.063,3.178,3.178,0,0,0-3.095,1.719,6.527,6.527,0,0,0-.458,2.98,6.694,6.694,0,0,0,.458,2.063,2.719,2.719,0,0,0,3.209,1.49A3.006,3.006,0,0,0,49.1,22.579,4.142,4.142,0,0,0,49.555,20.4Z" transform="translate(4.547 -5.156)" fill="#1e4454"/>
    <path id="Path_466" data-name="Path 466" d="M79.741,26.559v.688H76.073V21.86h3.668a.689.689,0,0,0,.115.458,1.775,1.775,0,0,0,.917,1.261,5.643,5.643,0,0,0,1.949.688,9.86,9.86,0,0,0,1.834-.115,2.062,2.062,0,0,0,1.032-.688,1.028,1.028,0,0,0-.229-1.6A4.106,4.106,0,0,0,84.1,21.4a16.442,16.442,0,0,0-2.522-.458,10.737,10.737,0,0,1-3.668-1.261,4.425,4.425,0,0,1-1.834-1.719,4.91,4.91,0,0,1-.573-1.834,4.3,4.3,0,0,1,.917-2.866,5.738,5.738,0,0,1,2.98-1.834,9.4,9.4,0,0,1,2.522-.229,15.548,15.548,0,0,1,3.324.688h.115v-.573h3.553V15.9H85.472a.112.112,0,0,1-.115-.115,2.086,2.086,0,0,0-1.49-1.261,4.455,4.455,0,0,0-1.719-.229,7.567,7.567,0,0,0-1.6.115c-.229.115-.344.115-.458.229a.768.768,0,0,0-.344.917.541.541,0,0,0,.573.573c.458.115.917.229,1.261.344,1.375.229,2.751.458,4.126.8a9.754,9.754,0,0,1,1.949.688,3.847,3.847,0,0,1,2.178,3.209A4.918,4.918,0,0,1,86.5,26.788a17.794,17.794,0,0,1-2.407.458,16.928,16.928,0,0,1-2.407-.115,1.978,1.978,0,0,1-1.949-.573Z" transform="translate(10.351 -4.323)" fill="#1e4454"/>
    <path id="Path_467" data-name="Path 467" d="M18.207,9.153H15.8V5.6h7.45V24.512h2.292V28.18H15.8V24.512h2.407Z" transform="translate(1.622 -5.142)" fill="#1e4454"/>
    <path id="Path_468" data-name="Path 468" d="M66.055,11.3V16h-.573a10.094,10.094,0,0,0-1.949.229,3.7,3.7,0,0,0-2.292,1.6,5.616,5.616,0,0,0-.917,2.751,24.93,24.93,0,0,0-.115,2.98H63.3v3.668h-11V23.568h2.866V15.086H52.415V11.533H59.75v3.782a6.168,6.168,0,0,1,2.407-3.209A6.674,6.674,0,0,1,66.055,11.3Z" transform="translate(6.959 -4.312)" fill="#1e4454"/>
    <path id="Path_469" data-name="Path 469" d="M33.15,23.635h2.292V27.3H25.7V23.635h2.407V15.153H25.7V11.6h7.336C33.15,15.5,33.15,19.509,33.15,23.635Z" transform="translate(3.07 -4.264)" fill="#1e4454"/>
    <path id="Path_470" data-name="Path 470" d="M68.322,15.153H65.915V11.6H73.25V23.635h2.292V27.3H65.8V23.864c0-.115,0-.115.115-.115h2.178C68.322,20.77,68.322,18.019,68.322,15.153Z" transform="translate(8.933 -4.264)" fill="#1e4454"/>
    <path id="Path_471" data-name="Path 471" d="M102,22.073V21.5h6.648v.573Z" transform="translate(14.226 -2.817)" fill="#1e4454"/>
    <path id="Path_472" data-name="Path 472" d="M102,13.373V12.8h6.648v.573Z" transform="translate(14.226 -4.089)" fill="#1e4454"/>
    <path id="Path_473" data-name="Path 473" d="M102,15.173V14.6h6.648v.573Z" transform="translate(14.226 -3.826)" fill="#1e4454"/>
    <path id="Path_474" data-name="Path 474" d="M108.648,16.3v.573H102V16.3Z" transform="translate(14.226 -3.577)" fill="#1e4454"/>
    <path id="Path_475" data-name="Path 475" d="M108.648,18v.573H102V18Z" transform="translate(14.226 -3.329)" fill="#1e4454"/>
    <path id="Path_476" data-name="Path 476" d="M108.648,19.6v.573H102V19.6Z" transform="translate(14.226 -3.095)" fill="#1e4454"/>
    <path id="Path_477" data-name="Path 477" d="M99.048,21.4v.573H92.4V21.4Z" transform="translate(12.822 -2.831)" fill="#1e4454"/>
    <path id="Path_478" data-name="Path 478" d="M99.048,12.8v.573H92.4V12.8Z" transform="translate(12.822 -4.089)" fill="#1e4454"/>
    <path id="Path_479" data-name="Path 479" d="M99.048,14.6v.573H92.4V14.6Z" transform="translate(12.822 -3.826)" fill="#1e4454"/>
    <path id="Path_480" data-name="Path 480" d="M92.4,16.873V16.3h6.648v.573Z" transform="translate(12.822 -3.577)" fill="#1e4454"/>
    <path id="Path_481" data-name="Path 481" d="M92.4,18.573V18h6.648v.573Z" transform="translate(12.822 -3.329)" fill="#1e4454"/>
    <path id="Path_482" data-name="Path 482" d="M99.048,19.6v.573H92.4V19.6Z" transform="translate(12.822 -3.095)" fill="#1e4454"/>
    <path id="Path_483" data-name="Path 483" d="M113.7,11.5h1.375a.726.726,0,0,1,.688.573.767.767,0,0,1-.458.8h-.115c.344.229.459.688.8,1.146h-.573a.112.112,0,0,1-.115-.115l-.344-.688a.419.419,0,0,0-.573-.229v1.032h-.458A9.4,9.4,0,0,1,113.7,11.5Zm.573,1.146h.688c.115,0,.229-.115.229-.344,0-.115-.115-.344-.229-.344h-.688Z" transform="translate(15.936 -4.279)" fill="#1e4454"/>
  </g>
</svg>
