<svg id="AmbavG_2_" xmlns="http://www.w3.org/2000/svg" width="162.15" height="24.01" viewBox="0 0 162.15 24.01">
  <g id="Group_17" data-name="Group 17" transform="translate(0 0)">
    <path id="Path_495" data-name="Path 495" d="M39.694,17.133V6.72c0-.5.124-.62.62-.62h2.6c.372,0,.5.124.5.5V28.538c0,.372-.124.5-.5.5H40.438c-.248,0-.372-.124-.5-.372-.992-3.719-2.231-7.314-3.1-11.033,0-.124-.124-.372,0-.5V28.662c0,.372-.124.5-.5.5H33.372A.329.329,0,0,1,33,28.786V6.968c0-.5.124-.744.62-.62h2.6c.372,0,.62.124.62.5.868,3.471,1.86,6.942,2.727,10.413C39.694,17.009,39.694,17.133,39.694,17.133Z" transform="translate(7.29 -5.604)" fill="#1e4454"/>
    <path id="Path_496" data-name="Path 496" d="M85.519,17.133c0,1.736.124,3.471.124,5.083v6.322c0,.372-.124.5-.5.5H82.42c-.62,0-.62-.124-.62-.744V6.72c0-.5.124-.62.62-.62h2.6c.5,0,.62.124.744.5.868,3.471,1.736,6.818,2.727,10.289V6.6c0-.372.124-.5.5-.5h2.6c.5,0,.62.124.62.62V27.794c0,1.24,0,1.24-1.24,1.24H89.61c-.5,0-.744-.124-.868-.62-.868-3.223-1.983-6.446-2.727-9.67A11.512,11.512,0,0,1,85.519,17.133Z" transform="translate(18.986 -5.604)" fill="#1e4454"/>
    <path id="Path_497" data-name="Path 497" d="M29.214,17.287c1.86.744,2.355,2.231,2.6,3.843.248,1.488.124,3.1.248,4.587a11.1,11.1,0,0,0,.248,2.851c.124.372,0,.5-.372.5H28.594c-.248,0-.5,0-.5-.372a21.328,21.328,0,0,1-.248-3.967,11.736,11.736,0,0,0-.248-3.6,2.53,2.53,0,0,0-1.488-1.86c-.372-.124-.5-.124-.5.372v8.8c0,.5-.124.62-.62.62H21.9c-.372,0-.5-.124-.5-.5V6.5c0-.124-.124-.5.248-.5a58.115,58.115,0,0,1,6.57.124,3.98,3.98,0,0,1,3.843,3.347,10.1,10.1,0,0,1-.124,5.083A3.439,3.439,0,0,1,29.214,17.287Zm-3.6-4.959V15.18c0,.5.124.62.5.5h.372c1.116,0,1.488-.372,1.612-1.488a12.96,12.96,0,0,0,0-3.1c-.124-1.612-.62-2.107-2.107-2.107-.372,0-.5.124-.5.372A23.887,23.887,0,0,1,25.619,12.328Z" transform="translate(4.506 -5.634)" fill="#1e4454"/>
    <path id="Path_498" data-name="Path 498" d="M8.186,16.761a3.463,3.463,0,0,1,2.727,2.6,10.981,10.981,0,0,1,0,6.322A4.36,4.36,0,0,1,6.946,28.91c-1.983.248-4.091,0-6.074.124A.329.329,0,0,1,.5,28.662V6.72c0-.5.124-.62.62-.62H5.831c2.727,0,4.091,1.24,4.587,3.843a11.343,11.343,0,0,1,0,4.091A2.657,2.657,0,0,1,8.186,16.761Zm-3.6,5.455v3.6c0,.124-.124.372.124.5a1.69,1.69,0,0,0,2.231-1.24,12.288,12.288,0,0,0,0-5.207c-.248-1.364-.62-1.612-1.983-1.612-.372,0-.5.124-.5.5A32.482,32.482,0,0,1,4.591,22.216Zm0-10.165V14.9c0,.124-.124.372.124.372A1.382,1.382,0,0,0,6.7,14.034a14.175,14.175,0,0,0,0-3.967c-.124-.992-.62-1.24-1.736-1.24-.372,0-.5.124-.5.5A20.085,20.085,0,0,1,4.591,12.05Z" transform="translate(-0.5 -5.604)" fill="#1e4454"/>
    <path id="Path_499" data-name="Path 499" d="M111.486,16.761a3.855,3.855,0,0,1,2.727,2.6,9.588,9.588,0,0,1,0,6.446,4.241,4.241,0,0,1-3.967,3.1c-1.983.248-4.091,0-6.074.124a.329.329,0,0,1-.372-.372V6.72c0-.5.124-.62.62-.62h4.835c2.727,0,4.091,1.24,4.587,3.843a11.343,11.343,0,0,1,0,4.091A2.889,2.889,0,0,1,111.486,16.761Zm-3.6,5.455v3.6c0,.124-.124.372.248.5a1.647,1.647,0,0,0,2.231-1.364,17.459,17.459,0,0,0,0-5.083c-.248-1.364-.62-1.736-1.983-1.736-.372,0-.5.124-.5.5Zm0-10.165v2.975c0,.124-.124.372.124.372A1.372,1.372,0,0,0,110,14.282a11.343,11.343,0,0,0,0-4.091c-.124-.992-.62-1.364-1.612-1.364-.372,0-.5.124-.5.5C107.891,10.191,107.891,11.183,107.891,12.05Z" transform="translate(24.259 -5.604)" fill="#1e4454"/>
    <path id="Path_500" data-name="Path 500" d="M92.7,18.073a32.245,32.245,0,0,1,.62-8.058c.124-.5.248-.868.372-1.364A3.982,3.982,0,0,1,97.411,5.8h1.983a3.639,3.639,0,0,1,3.1,2.479,15,15,0,0,1,.868,4.587,55.139,55.139,0,0,1,0,9.05,20.39,20.39,0,0,1-.62,3.967c-.868,2.975-2.6,3.719-5.455,3.471A3.968,3.968,0,0,1,93.816,26.5a16.567,16.567,0,0,1-.868-4.835A19.435,19.435,0,0,1,92.7,18.073Zm4.215-.5v6.446a13.66,13.66,0,0,0,.248,2.231.82.82,0,0,0,.868.744c.62,0,.868-.248.868-.868a18.493,18.493,0,0,0,.248-2.6c.124-3.843.124-7.81,0-11.653A20.27,20.27,0,0,0,98.9,9.147c-.124-.5-.248-.868-.868-.868a.783.783,0,0,0-.868.868,13.66,13.66,0,0,0-.248,2.231Z" transform="translate(21.599 -5.676)" fill="#1e4454"/>
    <path id="Path_501" data-name="Path 501" d="M79.819,16.113h2.727c.248,0,.5-.124.5.248,0,.248,0,.5-.372.5a3.668,3.668,0,0,1-1.24.248c-.62.124-.744.372-.62.992a10.3,10.3,0,0,1-.62,5.083,6.411,6.411,0,0,1-.744,1.612c-.248.248-.124.5,0,.744a10,10,0,0,0,1.488,1.736,3,3,0,0,0,2.479.744c.248,0,.5-.248.62.124s0,.5-.372.744a5.112,5.112,0,0,1-6.2-1.24c-.372-.372-.5-.372-.868-.124a9.984,9.984,0,0,1-9.67.992c-4.711-1.86-4.587-7.066-1.86-9.793a8.667,8.667,0,0,1,2.107-1.612c.372-.248.372-.372.124-.744a11.388,11.388,0,0,1-1.983-3.347,6.19,6.19,0,0,1-.248-3.347A5.322,5.322,0,0,1,69.53,5.7a27.625,27.625,0,0,1,3.347.372c3.6.868,3.967,4.091,3.1,6.2a6.767,6.767,0,0,1-3.347,3.347c-.868.5-.992.5-.248,1.364,1.86,2.231,3.719,4.339,5.579,6.57.248.248.372.248.5-.124a11.689,11.689,0,0,0,.744-5.455.657.657,0,0,0-.744-.744,6.222,6.222,0,0,0-1.488-.248c-.372,0-.5-.248-.5-.62s.372-.248.5-.248ZM71.637,27.766A6.322,6.322,0,0,0,75.48,26.4c.248-.124.372-.248.124-.62C73.5,23.18,71.389,20.7,69.282,18.1c-.248-.248-.372-.248-.62,0a6.257,6.257,0,0,0-1.86,3.967C66.555,25.287,68.042,27.766,71.637,27.766ZM73.5,10.411v-.5a2.8,2.8,0,0,0-3.223-2.727,2.768,2.768,0,0,0-2.231,2.975A7.953,7.953,0,0,0,70.522,15a.232.232,0,0,0,.372,0A5.41,5.41,0,0,0,73.5,10.411Zm4.587,16.364a4.039,4.039,0,0,0-.5-1.612L70.15,16.237a18.449,18.449,0,0,1-2.975-3.967,14.537,14.537,0,0,1-.62-1.364,4.517,4.517,0,0,0,1.116,3.6c2.355,2.851,4.711,5.579,7.066,8.43C75.852,24.171,76.968,25.411,78.084,26.775Z" transform="translate(14.521 -5.7)" fill="#1e4454"/>
    <path id="Path_502" data-name="Path 502" d="M19.574,29.017H17.838a.329.329,0,0,1-.372-.372c-.124-.992-.248-1.86-.372-2.851,0-.372-.124-.5-.5-.5H14.863c-.372,0-.372.124-.5.5L14,28.769a.329.329,0,0,1-.372.372H10.772a.329.329,0,0,1-.372-.372c.372-2.355.744-4.711.992-7.066.5-3.471.992-6.942,1.488-10.289l.744-4.835c0-.248.124-.5.5-.372h3.1c.372,0,.5.124.5.372.868,4.835,1.612,9.793,2.479,14.628.372,2.479.868,4.959,1.24,7.438.124.372,0,.62-.372.5A5.108,5.108,0,0,0,19.574,29.017ZM15.731,12.281c0,.62-.124.992-.124,1.488l-.744,8.182c-.124.744-.124.744.744.744h.62c.5.124.62-.124.62-.62C16.474,18.975,15.979,15.752,15.731,12.281Z" transform="translate(1.873 -5.587)" fill="#1e4454"/>
    <path id="Path_503" data-name="Path 503" d="M61.028,12.828h-1.24c-.372,0-.5,0-.372-.372a8.024,8.024,0,0,0-.124-2.975c0-.5-.124-.992-.62-1.116a.885.885,0,0,0-1.24.744,5.9,5.9,0,0,0,.62,4.091,40.945,40.945,0,0,0,2.727,3.719,14.466,14.466,0,0,1,2.107,3.223,7.181,7.181,0,0,1-.124,7.066,4.509,4.509,0,0,1-5.083,2.355c-2.727-.372-4.091-1.983-4.339-4.959a20.086,20.086,0,0,1,.124-2.727c0-.248.124-.372.5-.372h2.851c.5,0,.5.124.372.5a12.467,12.467,0,0,0,0,3.719,1.669,1.669,0,0,0,.62,1.116,1.063,1.063,0,0,0,1.612-.744,5.806,5.806,0,0,0-.62-4.959c-.744-1.116-1.612-2.107-2.479-3.223a14.865,14.865,0,0,1-2.975-5.083,7.371,7.371,0,0,1,.248-4.339A3.934,3.934,0,0,1,57.309,6.01a6.048,6.048,0,0,1,2.107.124A4,4,0,0,1,62.639,10.1a5.062,5.062,0,0,1-.124,2.355c-.124.372-.248.5-.62.5C61.9,12.7,61.524,12.828,61.028,12.828Z" transform="translate(12.113 -5.638)" fill="#1e4454"/>
    <path id="Path_504" data-name="Path 504" d="M124,17.529V6.62c0-.5.124-.62.62-.62h7.314c.5,0,.5.124.5.62V8.975c0,.5-.124.62-.62.62h-3.347c-.372,0-.5.124-.5.372V15.3c0,.372.124.5.5.5h2.975c.372,0,.5.124.5.5v2.355c0,.372-.124.372-.372.372h-2.975c-.372,0-.5.124-.5.5v5.7c0,.372.124.5.5.5h3.967c.372,0,.5.124.5.5v2.479c0,.372,0,.5-.372.5H124.5c-.372,0-.372-.248-.372-.5C124,24.843,124,21.248,124,17.529Z" transform="translate(29.101 -5.628)" fill="#1e4454"/>
    <path id="Path_505" data-name="Path 505" d="M44.3,17.529V6.62c0-.5.124-.62.62-.62h7.314c.372,0,.5.124.5.5V8.975c0,.372-.124.5-.5.5H48.763a.329.329,0,0,0-.372.372V15.3c0,.372.124.372.5.372h2.975a.329.329,0,0,1,.372.372V18.4c0,.372-.124.5-.5.5H48.763c-.372,0-.5.124-.5.5v5.827c0,.372.124.5.372.5H52.73c.372,0,.5.124.5.5v2.479a.329.329,0,0,1-.372.372H44.672c-.372,0-.372-.248-.372-.5C44.3,24.843,44.3,21.248,44.3,17.529Z" transform="translate(9.998 -5.628)" fill="#1e4454"/>
    <path id="Path_506" data-name="Path 506" d="M114.9,17.529V6.62c0-.372.124-.62.5-.62h3.1c.5,0,.5.124.5.5V24.843c0,.5.124.62.62.62h3.843c.372,0,.5.124.5.372v2.6c0,.372-.124.372-.372.372H115.4c-.5,0-.5-.248-.5-.5Z" transform="translate(26.92 -5.628)" fill="#1e4454"/>
  </g>
</svg>
