<svg id="mYvDyU_3_" xmlns="http://www.w3.org/2000/svg" width="107.744" height="53.692" viewBox="0 0 107.744 53.692">
  <g id="Group_18" data-name="Group 18" transform="translate(0 0)">
    <path id="Path_507" data-name="Path 507" d="M43.838,18.8c-.9,1.258-1.617,2.336-2.515,3.414A69.81,69.81,0,0,1,33.6,30.838a45.078,45.078,0,0,1-8.624,6.828A14.445,14.445,0,0,1,20.3,39.283a7.841,7.841,0,0,1-8.624-4.312,16.365,16.365,0,0,1-1.617-5.57A32.858,32.858,0,0,1,9.7,23.472a19.8,19.8,0,0,1,.359-3.234c0-.18,0-.359.18-.359s.18.18.18.359a17.284,17.284,0,0,0,3.773,7.187,11.174,11.174,0,0,0,5.75,3.773,10.279,10.279,0,0,0,4.672-.18,30.47,30.47,0,0,0,9.523-4.312A52.507,52.507,0,0,0,43.3,19.159C43.479,19.159,43.659,18.98,43.838,18.8Z" transform="translate(6.769 14.252)" fill="#1e4454"/>
    <path id="Path_508" data-name="Path 508" d="M33.5,20.52c.719-1.078,1.8-2.156,2.515-3.234,1.8-2.156,3.773-4.312,5.75-6.289a54.767,54.767,0,0,1,9.343-7.726A19.6,19.6,0,0,1,57.4.576a10.594,10.594,0,0,1,8.8,2.336A11.387,11.387,0,0,1,69.974,9.56a26.943,26.943,0,0,1,.359,7.546,18.8,18.8,0,0,0-.719-3.054c-1.437-4.133-4.133-7.007-8.445-8.085a16.088,16.088,0,0,0-4.133-.359A17.625,17.625,0,0,0,47.694,9.2a92,92,0,0,0-9.343,7.187c-1.617,1.258-3.234,2.875-4.851,4.133Z" transform="translate(25.731 -0.405)" fill="#1e4454"/>
    <path id="Path_509" data-name="Path 509" d="M23.789,17.3a13.618,13.618,0,0,1-2.875,1.078l-1.078.539a1.111,1.111,0,0,0-.359,1.258,1.476,1.476,0,0,0,.9.9,5.352,5.352,0,0,0,2.336-.18,5.246,5.246,0,0,0-.359,1.617.176.176,0,0,1-.18.18,10.878,10.878,0,0,1-3.414,0A2.79,2.79,0,0,1,17.5,18.2a7.223,7.223,0,0,1,2.875-1.437l2.156-.539c.359,0,.539-.18.9-.359a1.086,1.086,0,0,0,.539-1.078c0-.539-.359-.719-.719-.9a4.38,4.38,0,0,0-2.156,0,14.969,14.969,0,0,0-2.7.719,6.112,6.112,0,0,0,.18-1.8.176.176,0,0,1,.18-.18,16.53,16.53,0,0,1,5.929-.359,8.76,8.76,0,0,1,1.258.539,2.5,2.5,0,0,1,.9,1.8c0,1.078-.18,2.156-.18,3.414s-.18,2.515-.18,3.773c0,.359,0,.539-.539.539H23.968c-.359,0-.359-.18-.359-.359a42.2,42.2,0,0,1,.18-4.672Z" transform="translate(12.444 8.928)" fill="#1e4454"/>
    <path id="Path_510" data-name="Path 510" d="M36.7,20.139c-.18.719-.18,1.258-.359,1.976a.176.176,0,0,1-.18.18,12.847,12.847,0,0,1-5.211.18A3.83,3.83,0,0,1,27.9,19.42a6.042,6.042,0,0,1,.539-4.672,4.419,4.419,0,0,1,3.953-2.515,8,8,0,0,1,2.875.18,3.673,3.673,0,0,1,2.515,3.054V16.9c0,.359-.18.359-.359.359H30.954c-.359,0-.539.18-.539.359a2.971,2.971,0,0,0,3.234,3.054,4.974,4.974,0,0,0,1.617-.18A4.229,4.229,0,0,0,36.7,20.139Zm-2.515-3.953h.719c.18,0,.18,0,.18-.18a2.179,2.179,0,0,0-1.258-2.156,2.678,2.678,0,0,0-3.234,1.976c0,.359,0,.18.18.18A20.632,20.632,0,0,0,34.188,16.186Z" transform="translate(21.09 8.961)" fill="#1e4454"/>
    <path id="Path_511" data-name="Path 511" d="M19.661,20.078c-.18.719-.18,1.258-.359,1.976a.176.176,0,0,1-.18.18,12.847,12.847,0,0,1-5.211.18A4.008,4.008,0,0,1,10.677,19a5.668,5.668,0,0,1,.719-4.492,4.129,4.129,0,0,1,3.054-2.156,6.6,6.6,0,0,1,3.234.18c2.156.539,2.875,2.515,2.875,4.312,0,.539-.18.539-.719.539H13.552c-.359,0-.359.18-.359.359A2.79,2.79,0,0,0,15.528,20.8a12.225,12.225,0,0,0,3.594-.359C19.3,20.258,19.481,20.078,19.661,20.078Zm-2.7-3.953h.719c.18,0,.18,0,.18-.18a2.179,2.179,0,0,0-1.258-2.156,2.678,2.678,0,0,0-3.234,1.976c0,.359.18.18.359.18A19.529,19.529,0,0,0,16.966,16.126Z" transform="translate(7.409 9.021)" fill="#1e4454"/>
    <path id="Path_512" data-name="Path 512" d="M8.917,14.715a14.324,14.324,0,0,0-2.7-.539,2.654,2.654,0,0,0-2.875,2.515,3.691,3.691,0,0,0,0,1.976,2.7,2.7,0,0,0,2.336,1.976H7.121a4.229,4.229,0,0,0,1.437-.359c0,.359-.18.9-.18,1.258v.18c-.18.719-.18.9-.9.9a10.878,10.878,0,0,1-3.414,0A4.412,4.412,0,0,1,.652,18.848a7.338,7.338,0,0,1,.18-3.414A4.421,4.421,0,0,1,4.965,12.2a24.08,24.08,0,0,1,3.594.18.386.386,0,0,1,.359.359A3.691,3.691,0,0,0,8.917,14.715Z" transform="translate(-0.534 8.994)" fill="#1e4454"/>
    <path id="Path_513" data-name="Path 513" d="M29.768,21.162c-.18.539-.18,1.258-.359,1.8a.176.176,0,0,1-.18.18,9.815,9.815,0,0,1-3.234.18,1.99,1.99,0,0,1-1.617-2.156c0-1.258.18-2.515.18-3.773a6.112,6.112,0,0,1,.18-1.8c0-.18,0-.359-.18-.359h-.9c-.359,0-.359-.18-.359-.359v-.719c0-.719,0-.719.9-.719h.359c.18,0,.359,0,.359-.359V11.819c0-.18,0-.359.18-.359a9.019,9.019,0,0,1,2.156-.359c.18,0,.18,0,.18.18v1.976c0,.18,0,.359.359.359h1.976c.18,0,.359,0,.359.359v1.437c0,.18,0,.18-.359.18h-1.8c-.359,0-.539,0-.539.359,0,1.437-.18,2.7-.18,4.133V20.8c.18.539.359.9,1.078.9h.719C29.229,21.342,29.589,21.342,29.768,21.162Z" transform="translate(17.604 8.117)" fill="#1e4454"/>
    <path id="Path_514" data-name="Path 514" d="M9.414,13.637A3.2,3.2,0,0,1,11.39,12.2h1.258c.18,0,.18,0,.18.359v1.8c0,.359-.18.359-.359.18a2.878,2.878,0,0,0-2.7.719,2.307,2.307,0,0,0-.719,1.8,45.427,45.427,0,0,0-.18,5.031c0,.359,0,.359-.359.359H6.359c-.359,0-.359,0-.359-.359.18-1.617.18-3.054.359-4.672a34.532,34.532,0,0,0,0-4.312c0-.539,0-.539.539-.539H8.7c.359,0,.359,0,.359.359C9.414,13.1,9.414,13.278,9.414,13.637Z" transform="translate(3.821 8.994)" fill="#1e4454"/>
    <path id="Path_515" data-name="Path 515" d="M39.378,20.451c-.18.9,0,1.617-.18,2.515a23.957,23.957,0,0,0,0,3.594c0,.539-.359.18-.539.18s-.359,0-.359-.359c.18-3.773.359-7.367.359-11.14V13.085c0-.18,0-.18.18-.359a13.7,13.7,0,0,1,5.39-.359,3.826,3.826,0,0,1,3.054,3.414,6.127,6.127,0,0,1-1.078,5.211,4.549,4.549,0,0,1-5.929,1.078A7.283,7.283,0,0,0,39.378,20.451Zm0-3.234v1.8a3.43,3.43,0,0,0,2.875,3.054,3.275,3.275,0,0,0,3.773-1.8,6.453,6.453,0,0,0,.539-4.492,3.682,3.682,0,0,0-2.7-2.875,8,8,0,0,0-4.133.539c-.18,0-.18.18-.18.359A21.745,21.745,0,0,1,39.378,17.217Z" transform="translate(29.556 9.007)" fill="#1e4454"/>
    <path id="Path_516" data-name="Path 516" d="M51.967,15.821a8.909,8.909,0,0,1-3.594,1.437,5.534,5.534,0,0,0-2.156.9,2.057,2.057,0,0,0-1.078,2.336,2.167,2.167,0,0,0,1.976,1.437,5.767,5.767,0,0,0,3.054-.359c0,.719,0,.719-.539.9a10.878,10.878,0,0,1-3.414,0,2.1,2.1,0,0,1-1.8-1.8,2.5,2.5,0,0,1,.9-2.515A9.152,9.152,0,0,1,48.373,16.9a11.622,11.622,0,0,0,2.336-.719c.18,0,.359-.18.539-.359a1.321,1.321,0,0,0,.719-1.437,1.345,1.345,0,0,0-1.078-1.258,7.37,7.37,0,0,0-1.976-.18,6.348,6.348,0,0,0-3.054.719c0-.719,0-.719.719-.9a8.781,8.781,0,0,1,4.312-.18c1.258.359,1.976,1.078,1.8,2.336,0,1.976-.18,3.953-.18,5.75V22.11c0,.539-.359.359-.539.359-.359,0-.359-.18-.18-.359.18-1.976.18-3.773.359-5.75C51.967,16,51.967,16,51.967,15.821Z" transform="translate(34.396 9.146)" fill="#1e4454"/>
    <path id="Path_517" data-name="Path 517" d="M63.294,21.284c0,.719,0,.719-.719.9a9.814,9.814,0,0,1-3.234.18,4.011,4.011,0,0,1-3.594-3.414A7.308,7.308,0,0,1,56.107,15a3.89,3.89,0,0,1,3.953-2.7,4.974,4.974,0,0,1,1.617.18,3.389,3.389,0,0,1,2.7,3.594c0,.719,0,.719-.719.719H57.005c-.359,0-.539,0-.539.359a10.246,10.246,0,0,0,.18,2.336A3.4,3.4,0,0,0,60.6,22a3.956,3.956,0,0,0,1.437-.18A8.76,8.76,0,0,1,63.294,21.284Zm-6.828-5.211h6.289c.719,0,.719,0,.719-.719a2.531,2.531,0,0,0-1.8-2.336C59.521,12.3,56.826,13.019,56.466,16.073Z" transform="translate(43.372 9.073)" fill="#1e4454"/>
    <path id="Path_518" data-name="Path 518" d="M57.439,21.543c0,.719,0,.719-.719.9a7.733,7.733,0,0,1-2.875,0,4.011,4.011,0,0,1-3.414-3.594,9.024,9.024,0,0,1,.359-3.773A4.229,4.229,0,0,1,54.564,12.2a13.6,13.6,0,0,1,2.7.18c.539.18.539.18.539.9l-2.156-.539a3.713,3.713,0,0,0-4.312,3.054,6.569,6.569,0,0,0,0,3.234A3.626,3.626,0,0,0,54.564,21.9,5.33,5.33,0,0,0,57.439,21.543Z" transform="translate(39.165 8.994)" fill="#1e4454"/>
    <path id="Path_519" data-name="Path 519" d="M39.57,13.211a5.246,5.246,0,0,0-1.617-.359,4.974,4.974,0,0,0-1.617.18c-1.258.359-1.437,1.437-.719,2.515a14.589,14.589,0,0,0,1.8,1.617c.539.539,1.078.9,1.617,1.437a2.217,2.217,0,0,1-1.437,3.773,10.922,10.922,0,0,1-3.414-.18c-.18,0-.18-.18-.18-.359v-.719c.539.18,1.078.359,1.8.539a3.675,3.675,0,0,0,1.976,0,1.628,1.628,0,0,0,.9-2.7A14.489,14.489,0,0,0,36.156,16.8a4.107,4.107,0,0,1-1.258-1.8,2.044,2.044,0,0,1,1.437-2.515,6.569,6.569,0,0,1,3.234,0,.176.176,0,0,1,.18.18A.66.66,0,0,0,39.57,13.211Z" transform="translate(26.13 9.061)" fill="#1e4454"/>
    <path id="Path_520" data-name="Path 520" d="M33.4,11.959c0-.18.18-.18.18-.359v.18a.176.176,0,0,1-.18.18Z" transform="translate(25.652 8.516)" fill="#1e4454"/>
    <path id="Path_521" data-name="Path 521" d="M33.435,11.8Z" transform="translate(25.616 8.675)" fill="#1e4454"/>
  </g>
</svg>
