<svg id="uE1V8q.tif_1_" xmlns="http://www.w3.org/2000/svg" width="134.871" height="35.966" viewBox="0 0 134.871 35.966">
  <g id="Group_19" data-name="Group 19" transform="translate(0 0)">
    <path id="Path_522" data-name="Path 522" d="M1.2,9.1H11.69c.333,0,.333,0,.333.167v8.325c0,.167,0,.167.333.167h7.992c.333,0,.333,0,.333.167V19.59h0c0,.167,0,.167-.167.167H10.358c-.5,0-.333,0-.333-.167V11.265c0-.167,0-.167-.333-.167H3.365V35.075h0c0,.167,0,.167.333.167H11.69c.333,0,.333,0,.333.167V37.24H1.367C1.2,27.749,1.2,18.424,1.2,9.1Z" transform="translate(-1.2 -1.274)" fill="#1e4454"/>
    <path id="Path_523" data-name="Path 523" d="M29.631,29.226h0a3.978,3.978,0,0,1-1.166-.5,3.12,3.12,0,0,1-1-1.166,1.81,1.81,0,0,1-.167-.833V23.4a2.3,2.3,0,0,1,.833-1.5,3.639,3.639,0,0,1,.833-.5,2.837,2.837,0,0,1,2.331,0c.333.167.5.333.833.5a4.173,4.173,0,0,1,.666,1.166,2.112,2.112,0,0,1,.167,1v2.831a2.992,2.992,0,0,1-.666,1.5c-.167.167-.167.167-.333.167a5.637,5.637,0,0,1-1.332.5h-.167A2.228,2.228,0,0,1,29.631,29.226Zm2-4V23.9a1,1,0,0,0-.167-.666,1.3,1.3,0,0,0-.666-.666,1.243,1.243,0,0,0-1.5,0c-.167.167-.333.333-.5.333a1.223,1.223,0,0,0-.333,1v2.831a1.223,1.223,0,0,0,.333,1l.5.5a2.31,2.31,0,0,0,1.5,0q.5-.25.5-.5c.167-.333.333-.5.333-.833Z" transform="translate(16.158 6.74)" fill="#1e4454"/>
    <path id="Path_524" data-name="Path 524" d="M34.047,29.226h0a5.637,5.637,0,0,1-1.332-.5,2.238,2.238,0,0,1-1-1.166,1.81,1.81,0,0,1-.167-.833,5.486,5.486,0,0,1,0-2.331,3.251,3.251,0,0,1,.167-1.166,2.946,2.946,0,0,1,.833-1.332,2.3,2.3,0,0,1,.666-.5,2.837,2.837,0,0,1,2.331,0,2.987,2.987,0,0,1,1.166.833,1.439,1.439,0,0,1,.5,1,6.747,6.747,0,0,1,0,1.832c-.167.333,0,.5,0,.833v.833a2.034,2.034,0,0,1-.666,1.5l-.5.5a11.471,11.471,0,0,1-1.332.5h-.666Zm2-4.163h0V23.731a1.223,1.223,0,0,0-.333-1,2.3,2.3,0,0,0-.666-.5,1.248,1.248,0,0,0-.833-.167,7.211,7.211,0,0,0-.833.167c-.333.167-.5.333-.5.666a2.112,2.112,0,0,0-.167,1v1.665a3.666,3.666,0,0,0,.167,1.332c0,.333.166.5.5.833.167.167.333.167.5.333a1.422,1.422,0,0,0,1.166,0c.167,0,.333-.167.5-.167.167-.167.333-.333.333-.5a1.5,1.5,0,0,0,.167-.833Q36.046,25.812,36.046,25.063Z" transform="translate(18.902 6.74)" fill="#1e4454"/>
    <path id="Path_525" data-name="Path 525" d="M85.425,13h0v1.5h.166v-.167A3.667,3.667,0,0,1,85.425,13Z" transform="translate(49.279 1.32)" fill="#1e4454"/>
    <path id="Path_526" data-name="Path 526" d="M1.2,26h0Z" transform="translate(-1.2 9.966)" fill="#1e4454"/>
    <path id="Path_527" data-name="Path 527" d="M22.356,26Z" transform="translate(5.783 9.966)" fill="#1e4454"/>
    <path id="Path_528" data-name="Path 528" d="M48.7,4.8Z" transform="translate(30.391 -4.134)" fill="#1e4454"/>
    <path id="Path_529" data-name="Path 529" d="M25.881,37.24H15.225V28.581H6.4V26.75c0-.167,0-.167.333-.167h9.99c.333,0,.333,0,.333.167v8.325c0,.167,0,.167.333.167H23.55V11.265h0c0-.167,0-.167-.333-.167H15.058c-.333,0-.333,0-.333-.167V9.1h10.49c.333,0,.333,0,.333.167V37.073C25.881,37.073,25.881,37.073,25.881,37.24Z" transform="translate(2.258 -1.274)" fill="#1e4454"/>
    <path id="Path_530" data-name="Path 530" d="M48.7,5.066h2v8.658a.163.163,0,0,0,.167-.167A8.7,8.7,0,0,1,52.7,12.226c.5-.167,1-.333,1.665-.5a6.2,6.2,0,0,1,3,.333,3.22,3.22,0,0,1,1.5.833,3.406,3.406,0,0,1,1.166,1.665l.5,1.5c0,.5.167.833.167,1.332v9.491c0,.167,0,.167-.333.167H59.023c-.167,0-.167,0-.167-.167V17.554a5.665,5.665,0,0,0-.167-1.665,3.368,3.368,0,0,0-1-1.832,3.64,3.64,0,0,0-.833-.5,5.969,5.969,0,0,0-4.163,0,7.242,7.242,0,0,0-1.166,1,2.214,2.214,0,0,0-.5,1.332,5.133,5.133,0,0,0-.167,1.665v8.991c0,.167,0,.167-.333.167h-1.5c-.167,0-.167,0-.167-.167V4.4C48.7,5.233,48.7,5.233,48.7,5.066Z" transform="translate(30.391 -4.4)" fill="#1e4454"/>
    <path id="Path_531" data-name="Path 531" d="M24.965,13.591h0A4.722,4.722,0,0,1,26.8,12.259a4.886,4.886,0,0,1,1.665-.5,6.652,6.652,0,0,1,3.164.333,4.366,4.366,0,0,1,1.5.833,3.806,3.806,0,0,1,1.166,1.665,3.8,3.8,0,0,1,.5,1.832v10.49h0c0,.167,0,.167-.333.167h-1.5c-.167,0-.167,0-.167-.167V17.754a3.666,3.666,0,0,0-.167-1.332,3.7,3.7,0,0,0-.833-1.832,2.987,2.987,0,0,0-1.166-.833,5.076,5.076,0,0,0-3.83,0,2.987,2.987,0,0,0-1.166.833,5.841,5.841,0,0,0-.833,1.332,4.61,4.61,0,0,0-.167,1.5v9.324c0,.167,0,.167-.333.167H22.967c-.167,0-.167,0-.167-.167V4.767c0-.167,0-.167.5-.167h1.332c.167,0,.167,0,.167.167v.167c.167,3,.167,5.828.167,8.658Z" transform="translate(13.166 -4.267)" fill="#1e4454"/>
    <path id="Path_532" data-name="Path 532" d="M33.365,12.463l-.833-.833c-.167-.167-.333-.333-.5-.333v-.167a6.358,6.358,0,0,1,1.5-1.5,7.919,7.919,0,0,1,3-.833,14.323,14.323,0,0,1,2.664.167,7.6,7.6,0,0,1,2.331.833,5.394,5.394,0,0,1,1.332,1.5,5.292,5.292,0,0,1,.5,1.5c0,.5.167,1,.167,1.5v9.824c0,.167,0,.167-.333.167H41.857c-.167,0-.167,0-.167-.167V22.787c-.167,0-.167,0-.167.167a2.987,2.987,0,0,1-1.166.833,9.016,9.016,0,0,1-2.5.666h-2a4.283,4.283,0,0,1-2.331-.833,7.692,7.692,0,0,1-1.166-1.166,8.116,8.116,0,0,1-.666-1.832V19.29a5.129,5.129,0,0,1,.833-2,3.626,3.626,0,0,1,1.5-1.166,6.34,6.34,0,0,1,2.664-.5h2.831c.167,0,.167,0,.167.167v1.332c0,.167,0,.167-.167.167H36.7a2.678,2.678,0,0,0-1.832.5,2.22,2.22,0,0,0-.833,1,2.412,2.412,0,0,0-.167,1.832,1.439,1.439,0,0,0,.5,1,1.529,1.529,0,0,0,1,.666,5.986,5.986,0,0,0,1.832.333h1.832a3.864,3.864,0,0,0,1.665-.666,2.589,2.589,0,0,0,1-1.332,4.862,4.862,0,0,0,.333-1.5V13.629a2.813,2.813,0,0,0-.5-1.665,1.368,1.368,0,0,0-.833-.833,5.965,5.965,0,0,0-1.832-.666h-2a4.69,4.69,0,0,0-1.832.666,5.652,5.652,0,0,0-1,1C33.532,12.463,33.365,12.463,33.365,12.463Z" transform="translate(19.085 -1.474)" fill="#1e4454"/>
    <path id="Path_533" data-name="Path 533" d="M68.339,21c.167.167.333.167.333.333.333.333.666.5.833.833v.167a6.52,6.52,0,0,1-1.665,1.332,4.986,4.986,0,0,1-1.665.666,8.361,8.361,0,0,1-5.661-.5,5.938,5.938,0,0,1-1.832-1.665c-.5-.666-.666-1.332-1-1.832A7.081,7.081,0,0,1,57.35,18.5a7.167,7.167,0,0,1,0-2.664c0-.5.166-1,.166-1.5a8.7,8.7,0,0,1,1-2.664,6.767,6.767,0,0,1,1.5-1.665,3.347,3.347,0,0,1,1.332-.666,6.414,6.414,0,0,1,4.662.167,8.739,8.739,0,0,1,1.832,1.166,6.967,6.967,0,0,1,1.332,2c.166.666.333,1.166.5,1.832a14.324,14.324,0,0,1,.166,2.664c0,.167,0,.167-.166.167H61.846c-.5,0-.333,0-.333-.167V15.836h6.161c.333,0,.333,0,.333-.167a5.883,5.883,0,0,0-.666-2.831,4.489,4.489,0,0,0-1.166-1.332,2.486,2.486,0,0,0-1.166-.5,3.247,3.247,0,0,0-2.5,0,2.684,2.684,0,0,0-1.166.666,3.078,3.078,0,0,0-1.166,1.5c-.167.5-.333,1.166-.5,1.665a9.054,9.054,0,0,0,0,3,5.318,5.318,0,0,0,.5,2.331,4.436,4.436,0,0,0,1,1.665,2.987,2.987,0,0,0,1.166.833,5.157,5.157,0,0,0,4.163-.167,2.987,2.987,0,0,0,1.166-.833L68.339,21Z" transform="translate(36.061 -1.35)" fill="#1e4454"/>
    <path id="Path_534" data-name="Path 534" d="M87.022,15.685v1.5H78.53v-1.5H84.69c.333,0,.333,0,.333-.167v-.5a12.263,12.263,0,0,0-.666-2.331,4.241,4.241,0,0,0-1.5-1.5,1.272,1.272,0,0,0-.833-.333,4.2,4.2,0,0,0-4,.833,3.932,3.932,0,0,0-1,1.5c-.166.333-.166.833-.333,1.332a11.163,11.163,0,0,0,0,3.33,6.681,6.681,0,0,0,.5,2.5,3.078,3.078,0,0,0,1.166,1.5,7.239,7.239,0,0,0,1.166.666,5.982,5.982,0,0,0,4.163-.167,15.357,15.357,0,0,1,1.332-.833c.167-.167.333-.167.333-.333h.167c.333.333.833.666,1.166,1,0,0,.167.167,0,.167a5.218,5.218,0,0,1-1.832,1.332,8.776,8.776,0,0,1-2.5.833,6.963,6.963,0,0,1-4.662-.833,3.931,3.931,0,0,1-1.5-1.332,6.782,6.782,0,0,1-1-1.832,4.862,4.862,0,0,1-.333-1.5,22.317,22.317,0,0,1-.166-3.33,9.745,9.745,0,0,1,.333-2.165A4.44,4.44,0,0,1,76.2,11.19a4.993,4.993,0,0,1,1.665-1.5,4.165,4.165,0,0,1,2.165-.666,6.005,6.005,0,0,1,3.5.5,9.294,9.294,0,0,1,1.332.833,4.722,4.722,0,0,1,1.332,1.832,9.387,9.387,0,0,1,.666,2A4.61,4.61,0,0,1,87.022,15.685Z" transform="translate(47.683 -1.366)" fill="#1e4454"/>
    <path id="Path_535" data-name="Path 535" d="M50.99,12.413a.163.163,0,0,1-.167-.167,9.518,9.518,0,0,0-1.332-1.166,5.093,5.093,0,0,0-2.831-.5,2.407,2.407,0,0,0-1.166.333,3.626,3.626,0,0,0-1.332.833A9.151,9.151,0,0,0,43,13.246a3.137,3.137,0,0,0-.333,1.332,22.317,22.317,0,0,0-.166,3.33,4.926,4.926,0,0,0,.333,1.665,4.188,4.188,0,0,0,1.166,2,2.987,2.987,0,0,0,1.166.833,3.976,3.976,0,0,0,1.5.333,5.292,5.292,0,0,0,2.331-.333,7.239,7.239,0,0,0,1.166-.666,2.3,2.3,0,0,1,.666-.5l.167-.167a.163.163,0,0,1,.167.167l1,1s.167.167,0,.167a12.108,12.108,0,0,1-1.5,1.332,5.914,5.914,0,0,1-1.5.666,5.133,5.133,0,0,1-1.665.167A5.954,5.954,0,0,1,44.33,23.9,5.218,5.218,0,0,1,42.5,22.57a7.626,7.626,0,0,1-1.332-2.165c-.167-.5-.333-1.166-.5-1.832,0-.5-.167-.833-.167-1.332V15.577a5.986,5.986,0,0,1,.333-1.832,3.7,3.7,0,0,1,.833-1.832,5.9,5.9,0,0,1,1.665-2,5.557,5.557,0,0,1,2-.833,7.361,7.361,0,0,1,5,.5,14.4,14.4,0,0,1,1.665,1.166l.333.333v.167c-.5.5-1,.833-1.332,1.166Z" transform="translate(24.937 -1.424)" fill="#1e4454"/>
    <path id="Path_536" data-name="Path 536" d="M67.4,17.589V12.76c0-.167,0-.167-.333-.167h-1.5c-.167,0-.167,0-.167-.167V11.1c0-.167,0-.167.167-.167h1.5c.333,0,.333,0,.333-.167v-4.5c0-.167,0-.167.333-.167h1.332c.166,0,.166,0,.166.167v4.5h0c0,.167,0,.167.333.167h2.331c.166,0,.166,0,.166.167v1.332c0,.167,0,.167-.166.167H69.23v9.657a2.474,2.474,0,0,0,.333,1.5l.5.5a3.137,3.137,0,0,0,1.332.333h.833c.166,0,.166,0,.166.167v1.5a.163.163,0,0,1-.166.167H70.895a3.551,3.551,0,0,1-2-.5,2.239,2.239,0,0,1-1-1.166,2.686,2.686,0,0,1-.5-1.5c0-.5-.166-.833-.166-1.332A37.637,37.637,0,0,0,67.4,17.589Z" transform="translate(41.498 -3.269)" fill="#1e4454"/>
    <path id="Path_537" data-name="Path 537" d="M74.1,17.755v5a1.8,1.8,0,0,0,.5,1.166c.167.167.167.333.5.333a2.407,2.407,0,0,0,1.166.333h.833c.166,0,.166,0,.166.167v1.5a.163.163,0,0,1-.166.167h-1.5a2.813,2.813,0,0,1-1.665-.5,2.623,2.623,0,0,1-1.166-1.166,2.686,2.686,0,0,1-.5-1.5c0-.333-.167-.833-.167-1.166V12.76c0-.167,0-.167-.333-.167h-1.5c-.167,0-.167,0-.167-.167V11.1a.163.163,0,0,1,.167-.167h1.5c.333,0,.333,0,.333-.167v-4.5c0-.167,0-.167.333-.167h1.332c.166,0,.166,0,.166.167V11.1c0,.167,0,.167.167.167H76.76v1.166c0,.167,0,.167-.333.167H73.763v.167A25.205,25.205,0,0,1,74.1,17.755Z" transform="translate(44.623 -3.269)" fill="#1e4454"/>
    <path id="Path_538" data-name="Path 538" d="M23.033,25.2v-3.83c0-.167.167-.167.333-.167H26.2a2.407,2.407,0,0,1,1.166.333c.333.167.5.5.666.666a2.474,2.474,0,0,1,.333,1.5,1.262,1.262,0,0,1-.333.666c-.167.167-.167.333-.5.5-.167.167-.167.167,0,.5.333.333.666.5.666.833a2.291,2.291,0,0,1-.167,1.832c-.167.167-.333.5-.666.666a2.579,2.579,0,0,1-1.332.333h-3c-.167,0-.333,0-.333-.167v-.167A12.467,12.467,0,0,0,23.033,25.2ZM24.2,26.861v1c0,.167.167.167.333.167H26.2c.333,0,.5,0,.666-.167s.333-.167.333-.333a2.834,2.834,0,0,0,.167-1.166c0-.167-.167-.333-.333-.5s-.333-.167-.666-.167h-1.5c-.333,0-.5,0-.5.167v.167A1.248,1.248,0,0,0,24.2,26.861Zm0-3.5v1c0,.167.167.167.333.167H26.2a.865.865,0,0,0,.666-.333,1.249,1.249,0,0,0,0-1.5c0-.167-.167-.167-.333-.333-.167,0-.333-.167-.5-.167H24.365c-.333,0-.333,0-.333.167v.167A1.5,1.5,0,0,1,24.2,23.365Z" transform="translate(13.099 6.773)" fill="#1e4454"/>
    <path id="Path_539" data-name="Path 539" d="M46.3,25.1v-3.83c0-.167.167-.167.333-.167H49.3a2.469,2.469,0,0,1,1.166.167,1.662,1.662,0,0,1,.833.666,2.367,2.367,0,0,1,.333,1V23.6a1.8,1.8,0,0,1-.5,1.166,2.3,2.3,0,0,1-.666.5c-.167.167-.333.167-.167.333.333.666.833,1.5,1.166,2.165l.5,1c0,.167,0,.167-.167.167h-.666c-.333,0-.333,0-.333-.167s-.167-.167-.167-.333a16.8,16.8,0,0,1-1.166-2.5c0-.167,0-.167-.167-.333a.612.612,0,0,0-.5-.167h-.5c-.333,0-.333,0-.5.167v3c0,.167-.167.167-.333.167h-.5c-.167,0-.333,0-.333-.167V26.1C46.3,26.1,46.3,25.6,46.3,25.1Zm1.166-1.5h0v1.166a.581.581,0,0,0,.333.167h1.665c.333,0,.5-.167.666-.167l.333-.333a2.469,2.469,0,0,0,.167-1.166c0-.167-.167-.333-.5-.666a1.248,1.248,0,0,0-.833-.167H47.965c-.333,0-.5,0-.5.333Z" transform="translate(28.795 6.707)" fill="#1e4454"/>
    <path id="Path_540" data-name="Path 540" d="M41.933,25.2V23.7a2.686,2.686,0,0,1,.5-1.5,1.662,1.662,0,0,1,.833-.666A3.023,3.023,0,0,1,45.1,21.2a7.211,7.211,0,0,1,.833.167c.333.167.5.333.666.333a2.312,2.312,0,0,1,.833,1.665c0,.167,0,.167-.167.167H46.6c-.167,0-.167,0-.167-.167s-.167-.167-.167-.333c-.167-.167-.333-.5-.5-.666s-.333-.167-.5-.333a1.061,1.061,0,0,0-1,0c-.333.167-.5.167-.666.333s-.333.5-.5.666v3.33a1.272,1.272,0,0,0,.333.833l.333.333a1.506,1.506,0,0,0,1.665,0c.167-.167.333-.333.5-.333a2.813,2.813,0,0,0,.333-.833V25.7c0-.167-.167-.167-.333-.167h-1c-.333,0-.333,0-.333-.167V24.7c.167-.167.167-.167.333-.167h1.832c.333,0,.333,0,.5.167h0v1.332a3.722,3.722,0,0,1-.5,1.665c-.167.167-.333.5-.666.666a11.473,11.473,0,0,1-1.332.5,2.469,2.469,0,0,1-1.166-.167,5.543,5.543,0,0,1-1-.5,2.288,2.288,0,0,1-.833-1.332c0-.333-.166-.666-.166-1,.333,0,.333-.333.333-.666Z" transform="translate(25.669 6.773)" fill="#1e4454"/>
    <path id="Path_541" data-name="Path 541" d="M37.166,25.3c.167-.167.333-.167.333-.333.833-1.166,1.832-2.165,2.664-3.33a.163.163,0,0,1,.167-.167.612.612,0,0,1,.5-.167h.833v.167C41,22.3,40.163,23.3,39.5,24.13c-.167.167-.167.333,0,.666.833,1.332,1.665,2.664,2.331,4a.581.581,0,0,0,.167.333H40.829c-.167,0-.167,0-.167-.167s-.167-.167-.167-.333c-.666-1-1.166-2.165-1.832-3.164,0-.167,0-.167-.167-.333h-.167a6.22,6.22,0,0,0-1,1.166A3.9,3.9,0,0,0,37,28.126v.333c0,.167-.167.167-.333.167h-.333c-.166,0-.333,0-.333-.167V20.967c0-.167.166-.167.333-.167h.5c.167,0,.333,0,.333.167v.167c0,1.832,0,3,0,4.163Z" transform="translate(21.944 6.507)" fill="#1e4454"/>
    <path id="Path_542" data-name="Path 542" d="M56.095,25.339V27a2.214,2.214,0,0,1-.5,1.332,1.529,1.529,0,0,1-1,.666,2.469,2.469,0,0,1-1.166.167,3.137,3.137,0,0,1-1.332-.333,1.705,1.705,0,0,1-1-.833c-.167-.333-.333-.5-.333-.833a5.664,5.664,0,0,1-.167-1.665V24.84a6.246,6.246,0,0,1,.167-1.665,2.3,2.3,0,0,1,.833-1.5,3.639,3.639,0,0,1,.833-.5,3.22,3.22,0,0,1,2.165,0,2.987,2.987,0,0,1,1.166.833,2.214,2.214,0,0,1,.5,1.332A10.4,10.4,0,0,0,56.095,25.339Zm-1,0h0v-.333a4.61,4.61,0,0,0-.167-1.5c0-.333-.167-.5-.5-.833-.167-.167-.333-.167-.5-.333a1.422,1.422,0,0,0-1.166,0c-.167,0-.333.167-.5.167a3.483,3.483,0,0,0-.666,1c0,.666-.167,1.166-.167,1.832v1.5a1.262,1.262,0,0,0,.333.666,2.3,2.3,0,0,0,.666.5,1,1,0,0,0,.666.167c.333,0,.5-.167.666-.167.333-.167.5-.5.666-.666a2.112,2.112,0,0,0,.167-1A1,1,0,0,0,55.1,25.339Z" transform="translate(31.655 6.63)" fill="#1e4454"/>
    <path id="Path_543" data-name="Path 543" d="M56.166,24.2v2.331a2.112,2.112,0,0,0,.167,1l.5.5a.612.612,0,0,0,.5.167,1.061,1.061,0,0,0,1,0c.333-.167.5-.167.666-.333a3.64,3.64,0,0,0,.5-.833,2.469,2.469,0,0,0,.167-1.166v-4.5c0-.167.166-.167.5-.167h.333c.167,0,.333,0,.333.167v5.661a3.4,3.4,0,0,1-.833,1.5,2.711,2.711,0,0,1-1,.5,2.882,2.882,0,0,1-3.164-.833c-.333-.333-.333-.666-.5-1A1.585,1.585,0,0,1,55,26.029V21.367c0-.167.167-.167.333-.167h.5c.167,0,.167,0,.333.167V24.2Z" transform="translate(34.581 6.773)" fill="#1e4454"/>
    <path id="Path_544" data-name="Path 544" d="M59.6,25.2v-3.83c0-.167.167-.167.333-.167h2.831a2.367,2.367,0,0,1,1,.333,1.3,1.3,0,0,1,.666.666c.333.333.333.666.5,1v1a1.439,1.439,0,0,1-.5,1,2.22,2.22,0,0,1-1.665.666H61.432c-.5,0-.5,0-.5.167v2.5c0,.167-.167.167-.333.167h-.333c-.167,0-.333,0-.333-.167V28.36A9.239,9.239,0,0,1,59.6,25.2Zm1-1.665h0V24.7a.581.581,0,0,0,.333.167H62.6c.167,0,.5,0,.5-.167l.5-.5a1.422,1.422,0,0,0,0-1.166.892.892,0,0,0-.5-.666,1.248,1.248,0,0,0-.833-.167H60.932c-.5,0-.5,0-.5.333V22.7A1.248,1.248,0,0,1,60.6,23.531Z" transform="translate(37.64 6.773)" fill="#1e4454"/>
    <path id="Path_545" data-name="Path 545" d="M6.5,20.7H7Q6.5,20.95,6.5,20.7Z" transform="translate(2.325 6.441)" fill="#1e4454"/>
    <path id="Path_546" data-name="Path 546" d="M77.1,13Z" transform="translate(49.279 1.32)" fill="#1e4454"/>
  </g>
</svg>
