<svg id="h9FxGr_2_" xmlns="http://www.w3.org/2000/svg" width="198.294" height="32.672" viewBox="0 0 198.294 32.672">
  <g id="Group_20" data-name="Group 20" transform="translate(0 0)">
    <path id="Path_547" data-name="Path 547" d="M4.782,14.2a9.132,9.132,0,0,1-.287,1v.86a1.32,1.32,0,0,0,1.576,1A3.943,3.943,0,0,0,8.222,15.92a6.793,6.793,0,0,0,1.433-1.433l.287-.287a2.125,2.125,0,0,0-.143,1,1.234,1.234,0,0,0,1.576,1.29,3.616,3.616,0,0,0,2.149-1.433l.573-.573c0,.287-.143.43,0,.716a1.463,1.463,0,0,0,1.863,1.29,4.431,4.431,0,0,0,2.293-1.433c.287-.287.573-.43.716-.573h0v.573a1.57,1.57,0,0,0,2.149,1.146,3.333,3.333,0,0,0,1.72-1.146c.143,0,0,.143,0,.287v9.171c0,.287,0,.287-.287.287H1.487c-.287,0-.287,0-.287-.287v-8.6c0-.287,0-.287.287-.287a3,3,0,0,0,2.436-.573A2.433,2.433,0,0,1,4.782,14.2Z" transform="translate(-1.2 0.417)" fill="#1e4454"/>
    <path id="Path_548" data-name="Path 548" d="M12.091,15.177a8.232,8.232,0,0,1,2.149-3.153,9.867,9.867,0,0,0,1.576-1.863,3.9,3.9,0,0,0,.86-3.3,1.978,1.978,0,0,1,.573.43,7.336,7.336,0,0,1,1.433,3.009,7.26,7.26,0,0,1,.287,1.863,8.751,8.751,0,0,1,2.579-3.009,6.894,6.894,0,0,0,1.29-1.576v9.744c0,.287-.143.287-.287.287H1.487c-.287,0-.287,0-.287-.287V12.6a2.6,2.6,0,0,1,.86-2.006A2.861,2.861,0,0,1,3.493,9.445a8,8,0,0,0,1.146-.716c1-.573,1.146-1,1.29-2.149A5.133,5.133,0,0,1,6.5,8.156a7.278,7.278,0,0,1-.43,2.436A5.133,5.133,0,0,0,5.5,12.168v.573c.143,0,0,0,.143-.143a6.041,6.041,0,0,1,3.3-3.726c.573-.287,1.29-.573,1.863-.86a3.356,3.356,0,0,0,1.72-1.72A2.019,2.019,0,0,0,12.091,4a2.2,2.2,0,0,1,1.433,1,4.779,4.779,0,0,1,.573,5.3c-.43,1-1.146,1.863-1.576,2.866a10.04,10.04,0,0,0-.43,2.006Z" transform="translate(-1.2 -4)" fill="#1e4454"/>
    <path id="Path_549" data-name="Path 549" d="M39.279,17.314v7.738a1.684,1.684,0,0,0,1.576,1.433h.86c.143,0,.287,0,.287.287h0c.143.573,0,.717-.717.717a19.2,19.2,0,0,1-2.866-.143H35.84a8.073,8.073,0,0,1-1.863,0c-.287,0-.287-.143-.287-.287v-.143a.38.38,0,0,1,.43-.43,3.967,3.967,0,0,0,1.29-.143,1.255,1.255,0,0,0,1.146-1.29V17.744c0-.287,0-.287-.287-.287H24.662c-.143,0-.287,0-.287.287v7.738c.143.716.573,1,1.433,1h1c.43,0,.43,0,.43.43v.143c0,.287-.143.287-.287.43h-1.72a26.062,26.062,0,0,0-4.729,0h-1c-.287,0-.43-.143-.287-.573,0-.287.143-.287.43-.287a5.376,5.376,0,0,0,1.433-.143,1.142,1.142,0,0,0,1-1.29V10.149A1.388,1.388,0,0,0,21.08,9a3.967,3.967,0,0,0-1.29-.143c-.287,0-.287-.143-.287-.287C19.5,8,19.5,8,20.077,8c1.576,0,3.009.143,4.586.143,1,0,2.006-.143,2.866-.143.287,0,.43,0,.43.43,0,.573,0,.573-.43.573a5.878,5.878,0,0,0-1.576.143c-.86.143-1.146.573-1.146,1.433V16.6c0,.287,0,.287.287.287H36.556c.287,0,.287,0,.287-.287V10.436c0-.573-.287-.86-.86-1.146a3.967,3.967,0,0,0-1.29-.143c-.43,0-.573-.43-.43-.86a.526.526,0,0,1,.43-.143c1.146,0,2.293.143,3.439.143A34.921,34.921,0,0,0,42,8.143c.43,0,.43,0,.43.43,0,.573,0,.573-.573.573a2.794,2.794,0,0,0-1.146.143,1.107,1.107,0,0,0-1,1.146v.716A27.743,27.743,0,0,0,39.279,17.314Z" transform="translate(6.577 -2.268)" fill="#1e4454"/>
    <path id="Path_550" data-name="Path 550" d="M92.453,28.035a12.009,12.009,0,0,1-9.028-3.726A9.062,9.062,0,0,1,80.7,18.147a9.369,9.369,0,0,1,4.442-8.6A12.3,12.3,0,0,1,92.167,7.4a15.029,15.029,0,0,1,6.448,1.433.662.662,0,0,1,.43.716c.143,1.146.287,2.149.43,3.3,0,.143,0,.287-.143.287s-.43.143-.573-.143l-.43-.86c-.86-2.293-2.723-3.3-5.015-3.582a7.9,7.9,0,0,0-8.885,6.019,9.543,9.543,0,0,0,.43,7.165A8.54,8.54,0,0,0,91.02,26.6a8.111,8.111,0,0,0,6.019-1.146,3.488,3.488,0,0,0,1.433-2.006,2.657,2.657,0,0,0,.287-1c.143-.287.287-.287.717-.287.287,0,.287.287.287.43l-.43,2.579c0,.287-.143.573-.143.86a.308.308,0,0,1-.287.287,15.178,15.178,0,0,1-5.159,1.29A1.579,1.579,0,0,1,92.453,28.035Z" transform="translate(33.221 -2.528)" fill="#1e4454"/>
    <path id="Path_551" data-name="Path 551" d="M56.923,28.159v2.293c0,1,.43,1.433,1.433,1.576h1c.287,0,.287.287.287.43,0,.287,0,.43-.287.43-1.146,0-2.293-.143-3.3-.143a21.163,21.163,0,0,0-3.009.143c-.573,0-.573-.287-.43-.716,0-.143.143-.143.287-.143a2.439,2.439,0,0,0,1-.143c.717-.143,1-.43,1-1.146V16.122a.731.731,0,0,0-.573-.717l-.86-.43a.308.308,0,0,1-.287-.287c0-.143,0-.287.287-.287l1.72-.86a7.68,7.68,0,0,1,1.576-.716c.287-.143.43-.143.43.287v1.433c0,.287.143.287.287.143.716-.43,1.576-.86,2.436-1.29a3.68,3.68,0,0,1,4.442.573,6.04,6.04,0,0,1,2.436,4.872,6.323,6.323,0,0,1-3.726,5.875,9.94,9.94,0,0,1-4.012,1.146,5.091,5.091,0,0,1-1.433-.287c-.143,0-.287,0-.287.287a4.123,4.123,0,0,0-.43,2.293Zm0-9.028v3.153a1.743,1.743,0,0,0,1.29,1.863,3.686,3.686,0,0,0,2.149.143A3.561,3.561,0,0,0,63.515,22a5.93,5.93,0,0,0-.143-5.159,4.226,4.226,0,0,0-1.863-2.006,4.767,4.767,0,0,0-4.586.287c-.143.143-.287.143-.287.43A17.022,17.022,0,0,1,56.923,19.131Z" transform="translate(21.032 -0.216)" fill="#1e4454"/>
    <path id="Path_552" data-name="Path 552" d="M127.2,15.093l1.72-1.29a5.4,5.4,0,0,1,3.009-1,3.967,3.967,0,0,1,1.29.143,2.929,2.929,0,0,1,2.006,2.723v7.595a1.14,1.14,0,0,0,1.29,1.29h.287a.38.38,0,0,1,.43.43c0,.43,0,.43-.43.43a4.875,4.875,0,0,1-1.433-.143,16.235,16.235,0,0,0-3.726.143c-.43,0-.573,0-.573-.43,0-.287.143-.43.287-.43a2.439,2.439,0,0,0,1-.143c.573-.143.716-.43.716-.86V17.1a2.438,2.438,0,0,0-.143-1,1.845,1.845,0,0,0-1.863-1.576,4.864,4.864,0,0,0-3.869,1.433c-.143.143-.143.143-.143.287v7.308c0,.43.287.716.717,1a2.439,2.439,0,0,0,1,.143.308.308,0,0,1,.287.287h0c0,.43,0,.573-.573.43-.86,0-1.72-.143-2.579-.143s-1.72.143-2.579.143h-.287c-.43,0-.573-.287-.43-.717,0-.143.143-.143.287-.143h1c.43-.143.716-.287.716-.716V16.239c0-.717-.143-.86-.86-1.146-.143,0-.43-.143-.573-.143a.308.308,0,0,1-.287-.287c0-.143,0-.287.143-.287a20.722,20.722,0,0,0,3.153-1.29c.43-.143.43-.143.43.287C127.2,13.8,127.2,14.376,127.2,15.093Z" transform="translate(51.35 -0.19)" fill="#1e4454"/>
    <path id="Path_553" data-name="Path 553" d="M108.979,19.17a6.58,6.58,0,0,1-5.3,6.448,6.059,6.059,0,0,1-5.732-1.433,6.452,6.452,0,0,1-.287-9.314,6.509,6.509,0,0,1,7.022-1.863,6.375,6.375,0,0,1,4.3,5.3v.143C108.979,18.74,108.979,19.027,108.979,19.17Zm-10.6-.143a7.333,7.333,0,0,0,1.146,4.012,3.481,3.481,0,0,0,4.012,1.72,3.535,3.535,0,0,0,2.723-2.723,7.812,7.812,0,0,0,0-4.442,7.712,7.712,0,0,0-1.433-2.866,3.573,3.573,0,0,0-5.875,1.29A7.483,7.483,0,0,0,98.375,19.027Z" transform="translate(39.766 -0.254)" fill="#1e4454"/>
    <path id="Path_554" data-name="Path 554" d="M43.392,23.43a15.177,15.177,0,0,1-1.72,1.433,4.441,4.441,0,0,1-1.863.86,2.144,2.144,0,0,1-2.15-.86,4.5,4.5,0,0,1-.86-2.293,1.627,1.627,0,0,1,.43-1.146,5.4,5.4,0,0,1,2.149-1.29c1.29-.43,2.436-1,3.726-1.433.143-.143.287-.143.287-.43V16.265a1.656,1.656,0,0,0-1.72-1.72,3.968,3.968,0,0,0-1.863.143c-.717.287-.86.573-.717,1.29,0,.143,0,.143-.143.287-.43.287-1,.573-1.433.86-.143.143-.287,0-.287-.143a1.83,1.83,0,0,1,.287-1.72,7.948,7.948,0,0,1,1.146-.86c.716-.43,1.576-.86,2.293-1.29a1.9,1.9,0,0,1,1.72-.287c1.72.287,2.579,1.433,2.579,3.3v6.162a2.439,2.439,0,0,0,.143,1c.143.287.287.573.573.573s.716,0,.86-.287l.143-.143c.143-.287.287-.287.573-.143.143,0,.143.143.143.287a5.091,5.091,0,0,1-.573,1.29,2.144,2.144,0,0,1-2.15.86A1.858,1.858,0,0,1,43.535,24,.862.862,0,0,1,43.392,23.43Zm0-3.869h-.143a20.3,20.3,0,0,1-2.579,1.146,3,3,0,0,0-.86.573.788.788,0,0,0-.43.716,2.88,2.88,0,0,0,.573,1.863.638.638,0,0,0,.86.287,1.3,1.3,0,0,0,1-.43,7.511,7.511,0,0,0,1.576-1.433l.143-.143A14.734,14.734,0,0,1,43.392,19.561Z" transform="translate(14.215 -0.216)" fill="#1e4454"/>
    <path id="Path_555" data-name="Path 555" d="M117.919,28.249c-.86,0-1.576-.143-2.436-.143H113.62a4.875,4.875,0,0,0-1.433.143c-.287,0-.287-.143-.287-.43s0-.43.287-.43h1c.573-.143.716-.287.86-.86V9.907a1.379,1.379,0,0,0-1-1.433c-.287-.143-.43-.143-.716-.287a.287.287,0,1,1,0-.573,14.868,14.868,0,0,1,1.433-.573c.573-.287,1.29-.43,1.863-.717.43-.143.573-.143.573.43V26.1c0,.716.287,1.146,1,1.146h.717a.308.308,0,0,1,.287.287v.143C118.205,28.106,118.205,28.249,117.919,28.249Z" transform="translate(46.733 -3.028)" fill="#1e4454"/>
    <path id="Path_556" data-name="Path 556" d="M70.4,17.784H66.679c-.143,0-.287,0-.287.287a5.664,5.664,0,0,0,1,4.012,4.242,4.242,0,0,0,3.726,1.72,5.459,5.459,0,0,0,1.433-.43,7.875,7.875,0,0,0,1.29-1c.287-.287.43.143.573.143.143.143,0,.143,0,.287a6.5,6.5,0,0,1-3.869,2.866,5.147,5.147,0,0,1-5.3-2.15,6.189,6.189,0,0,1-.717-5.875,7.591,7.591,0,0,1,3.153-4.156,4.761,4.761,0,0,1,5.3.43,4.283,4.283,0,0,1,1.433,3.009v.716c0,.287,0,.287-.287.287A31.167,31.167,0,0,0,70.4,17.784Zm-1.433-.573h0a10.846,10.846,0,0,1,2.15-.143,1.015,1.015,0,0,0,1-1.146,2.427,2.427,0,0,0-1.29-2.006A2.17,2.17,0,0,0,68.4,14.2a4.613,4.613,0,0,0-1.72,2.866c0,.143,0,.143.143.143Z" transform="translate(26.036 -0.158)" fill="#1e4454"/>
    <path id="Path_557" data-name="Path 557" d="M110.629,17.947v8.025c0,.86.287,1.146,1.146,1.29h.716a.308.308,0,0,1,.287.287v.143c0,.43,0,.43-.43.43a31.006,31.006,0,0,0-5.159,0h-.143c-.43,0-.573-.287-.43-.573,0-.143.143-.143.287-.143h1q.86-.215.86-.86V10.208c0-1-.143-1.146-1-1.576-.143-.143-.43-.143-.573-.287a.287.287,0,1,1,0-.573l1.29-.43a12.611,12.611,0,0,1,2.149-.716c.43-.143.43-.143.43.287v3.439A42.552,42.552,0,0,0,110.629,17.947Z" transform="translate(44.422 -2.9)" fill="#1e4454"/>
    <path id="Path_558" data-name="Path 558" d="M137.582,25.708a7.652,7.652,0,0,1-2.866-.716.786.786,0,0,1-.573-.86A8.17,8.17,0,0,0,134,22.269c0-.287,0-.287.287-.287.573,0,.573,0,.716.573a3.352,3.352,0,0,0,2.293,2.293,2.123,2.123,0,0,0,2.723-2.293c0-.43-.287-.717-.573-1.146a10.172,10.172,0,0,0-2.006-1.433,17.059,17.059,0,0,1-2.149-1.29,3.189,3.189,0,0,1,.716-5.3,5.781,5.781,0,0,1,4.872-.143c.287.143.716.143.86.43s0,.573,0,1a4.874,4.874,0,0,1-.143,1.433.308.308,0,0,1-.287.287h-.287c-.143,0-.287,0-.287-.143a3.54,3.54,0,0,0-.573-1.29,2.356,2.356,0,0,0-3.439-.43,1.655,1.655,0,0,0-.143,2.436,15.008,15.008,0,0,0,1.576,1.146,20.069,20.069,0,0,1,2.293,1.433c2.436,1.72,1.72,4.586-.287,5.875A8.953,8.953,0,0,1,137.582,25.708Z" transform="translate(56.302 -0.2)" fill="#1e4454"/>
    <path id="Path_559" data-name="Path 559" d="M49.515,15.926c.573-.573,1-1.29,1.576-1.863A3.549,3.549,0,0,1,53.1,12.917a2.125,2.125,0,0,1,1,.143,1.634,1.634,0,0,1,.86,1.72,1.168,1.168,0,0,1-1.576.716c-.287,0-.43-.143-.716-.287a1.538,1.538,0,0,0-1.576.143,9,9,0,0,0-1.576,1.72v5.875c0,1,.573,1.576,1.72,1.576h.287c.287,0,.287.143.287.287,0,.43,0,.43-.43.43-.716,0-1.29-.143-2.006-.143a31.168,31.168,0,0,0-3.583.143h-.143c-.43,0-.573-.143-.43-.573,0-.143.143-.143.287-.143a1.292,1.292,0,0,0,.716-.143,1.23,1.23,0,0,0,1-1.146V16.356c0-.716-.143-1-.86-1.146-.287-.143-.43-.143-.716-.287a.3.3,0,0,1,0-.573,32.782,32.782,0,0,1,3.3-1.433c.287-.143.43,0,.43.287v2.579C49.515,15.783,49.515,15.783,49.515,15.926Z" transform="translate(17.836 -0.163)" fill="#1e4454"/>
    <path id="Path_560" data-name="Path 560" d="M76.9,15.97c.43-.573,1-1.29,1.433-1.863a4.155,4.155,0,0,1,2.149-1.29,3.155,3.155,0,0,1,1.146.143,1.385,1.385,0,0,1,.717,1.72,1.183,1.183,0,0,1-1.433.716c-.287,0-.43-.143-.716-.287a1.523,1.523,0,0,0-1.72.143,17.176,17.176,0,0,0-1.576,1.72v5.875a1.52,1.52,0,0,0,1.72,1.72h.143a.484.484,0,0,1,.43.717c-.143.143-.143.143-.287.143a10.846,10.846,0,0,1-2.15-.143H74.32a4.875,4.875,0,0,0-1.433.143c-.143,0-.287,0-.287-.287,0-.573,0-.573.573-.573h.573a1.217,1.217,0,0,0,1-1V16.543c0-.716-.143-1-.86-1.146a1.086,1.086,0,0,1-.573-.287c-.143-.143-.287-.143-.287-.43,0-.143.143-.287.287-.43.86-.43,1.576-.717,2.436-1.146a2.421,2.421,0,0,1,.716-.287c.287-.143.43,0,.43.287v2.579C76.756,15.826,76.756,15.97,76.9,15.97Z" transform="translate(29.716 -0.207)" fill="#1e4454"/>
    <path id="Path_561" data-name="Path 561" d="M121.715,13.955c-.143,3.009,0,6.305,0,9.458,0,.716.287,1.146,1,1.146h.717c.143,0,.287,0,.287.287h0c0,.573,0,.573-.573.43a31.007,31.007,0,0,0-5.159,0h-.143c-.43,0-.573-.287-.43-.716,0-.143.143-.143.287-.143h1c.43-.143.717-.287.717-.86V15.961a.968.968,0,0,0-.573-.86,6.988,6.988,0,0,0-1-.43.287.287,0,1,1,0-.573A20.452,20.452,0,0,1,121,12.952c.716-.287.716-.287.716.573C121.715,13.668,121.715,13.668,121.715,13.955Z" transform="translate(49.098 -0.198)" fill="#1e4454"/>
    <path id="Path_562" data-name="Path 562" d="M120.082,7a1.576,1.576,0,1,1-1.576,1.576C118.362,7.573,119.079,7,120.082,7Z" transform="translate(49.585 -2.701)" fill="#1e4454"/>
    <path id="Path_563" data-name="Path 563" d="M8.832,11.8Z" transform="translate(2.058 -0.623)" fill="#1e4454"/>
  </g>
</svg>
