<?xml version="1.0" encoding="utf-8"?>
<!-- Generator: Adobe Illustrator 21.1.0, SVG Export Plug-In . SVG Version: 6.00 Build 0)  -->
<svg version="1.1" id="Layer_1" xmlns="http://www.w3.org/2000/svg" xmlns:xlink="http://www.w3.org/1999/xlink" x="0px" y="0px"
	 viewBox="0 0 48 48" style="enable-background:new 0 0 48 48;" xml:space="preserve">
<style type="text/css">
	.st0{fill:#B3001B;}
	.st1{fill:#FFFFFF;}
</style>
<g>
	<path class="st0" d="M47,26.5c-0.1,0.1-0.1,0.3-0.2,0.4c-0.4,1.1-1.5,1.8-2.7,1.7c-1.1-0.1-2.1-1-2.3-2.1c-0.2-1-0.3-1.9-0.4-2.9
		c0-0.1-0.1-0.3-0.1-0.5c-0.3,0.2-0.5,0.4-0.7,0.7c-0.3-0.4-0.7-0.7-1-1.1c0.4-0.4,0.8-0.8,1.3-1.3C41,21.3,41,21,41,20.9
		c-0.1-0.6-0.2-1.2-0.2-1.7c-0.8,0.8-1.6,1.6-2.3,2.3c-0.4-0.5-0.8-0.8-1.1-1.2c0.6-0.5,1.1-1.1,1.7-1.6c-3.2-3.2-6.5-6.5-9.7-9.7
		c-1.1,1.1-2.1,2.1-3.2,3.2c-0.3-0.4-0.7-0.7-1-1.1c0.4-0.4,0.9-0.9,1.4-1.4c0.7-0.7,1.4-1.4,2.1-2.1c0.6-0.6,0.9-0.6,1.6,0
		c1.7,1.7,3.3,3.3,5,5c1.7,1.7,3.3,3.3,5,5c0.1,0.1,0.2,0.2,0.4,0.4c-0.2-1.1-0.3-2-0.4-3c-0.2-1.5-0.5-3.1-0.7-4.6
		c0-0.2-0.2-0.3-0.3-0.4c-1-0.5-1.5-1.6-1.3-2.6c0.2-1,1.1-1.8,2.1-1.8c1.1,0,2,0.6,2.3,1.6c0.3,1-0.1,2.1-1.1,2.7
		C41.1,10,41,10.2,41,10.3c0.4,3,0.9,6.1,1.3,9.1c0,0.1,0,0.2,0.1,0.4c1-1,1.9-1.9,2.9-2.9c0.1-0.1,0.1-0.3,0.1-0.4
		c-0.2-2.3-0.5-4.6-0.8-7c-0.2-1.7-0.4-3.4-0.6-5.2C44,4.1,43.9,4,43.7,4c-4-0.4-7.9-0.9-11.9-1.3c-0.4-0.1-0.7,0.1-1.1,0.4
		c-1.4,1.5-2.9,2.9-4.3,4.3c-0.1,0.1-0.2,0.2-0.3,0.4c-0.4-0.4-0.7-0.8-1.1-1.2c0,0,0.1-0.1,0.2-0.2c1.7-1.7,3.3-3.3,5-5
		c0.1-0.1,0.3-0.2,0.4-0.3c0.2,0,0.5,0,0.7,0c0.1,0,0.1,0.1,0.2,0.1c1.7,0.2,3.4,0.4,5.1,0.6c2.7,0.3,5.4,0.6,8.1,0.9
		c0.5,0.1,0.7,0.3,0.8,0.8c0,0.4,0.1,0.7,0.1,1.1c0.4,3.1,0.7,6.3,1.1,9.4c0.1,0.9,0.2,1.8,0.4,2.7c0,0.2,0,0.5,0,0.7
		c-0.4,0.4-0.8,0.9-1.2,1.3c-0.2,0.2-0.3,0.4-0.2,0.6c0.2,1.1,0.5,2.2,0.7,3.2c0.2,1,0.5,2,0.7,3C47,25.9,47,26.2,47,26.5z
		 M44.2,20.1c-0.3,0.3-0.5,0.5-0.7,0.7c-0.7,0.5-0.9,1.1-0.7,2c0.3,1.1,0.3,2.3,0.5,3.4c0.1,0.6,0.6,0.9,1.2,0.8
		c0.5-0.1,1-0.6,0.9-1.2C45.1,24,44.7,22.1,44.2,20.1z M40.9,7.9c0-0.4-0.4-0.8-0.8-0.7c-0.4,0-0.7,0.4-0.7,0.8
		c0,0.4,0.3,0.7,0.8,0.7C40.5,8.6,40.9,8.3,40.9,7.9z"/>
	<path class="st0" d="M20.7,1c0.4,0.1,0.7,0.2,1.1,0.3C23.1,2,24,3.2,24,4.7c0,3.7,0,7.3,0,11c0,2-1.7,3.7-3.8,3.7
		c-1.3,0-2.6,0-3.9,0c-0.2,0-0.3,0-0.5,0c0.2,1,0.4,1.9,0.6,2.8c0.1,0.4,0,0.7-0.3,0.9c-0.3,0.2-0.6,0.2-1-0.1
		c-1.6-1.1-3.2-2.3-4.8-3.4c-0.2-0.1-0.5-0.2-0.7-0.2c-1.5,0-3,0-4.4,0c-2.5,0-4.1-1.6-4.1-4.1c0-3.4,0-6.8,0-10.2
		c0-2.1,1.1-3.5,3.1-4c0,0,0.1,0,0.1-0.1C9.7,1,15.2,1,20.7,1z M14.4,20.7c-0.1-0.6-0.2-1.2-0.3-1.7c-0.2-0.8,0.1-1.2,0.9-1.2
		c1.7,0,3.3,0,5,0c1.5,0,2.4-1,2.4-2.5c0-3.5,0-6.9,0-10.4c0-1.5-1-2.5-2.5-2.5c-5,0-10,0-15,0c-1.5,0-2.5,1-2.5,2.5
		c0,3.5,0,6.9,0,10.4c0,1.5,1,2.5,2.5,2.5c1.1,0,2.2,0.1,3.3,0c1.5-0.1,2.7,0.2,3.8,1.2C12.8,19.7,13.6,20.1,14.4,20.7z"/>
	<path class="st0" d="M39.1,37.2c1.8,1.8,3.7,3.7,5.5,5.5c0.3,0.3,0.6,0.8,0.7,1.2c0.3,1-0.1,2.1-1,2.7c-1,0.6-2.1,0.5-2.9-0.4
		c-1.7-1.7-3.4-3.4-5.1-5.1c-0.1-0.1-0.2-0.2-0.3-0.4c-3.2,2.3-6.7,3-10.4,2c-2.9-0.7-5.2-2.3-6.9-4.8c-3.5-4.9-2.9-11.5,1.3-15.7
		c4.2-4.2,10.9-4.8,15.7-1.3C40.6,24.4,42.5,31.4,39.1,37.2z M28.6,20.2c-5.9,0-10.7,4.8-10.7,10.7c0,5.9,4.8,10.7,10.7,10.7
		c5.9,0,10.8-4.8,10.8-10.7C39.3,25,34.5,20.2,28.6,20.2z M38.2,38.5c-0.4,0.4-0.8,0.8-1.2,1.3c1.8,1.8,3.6,3.6,5.4,5.4
		c0.3,0.3,0.8,0.3,1.2,0c0.3-0.3,0.4-0.8,0-1.2c-0.3-0.3-0.6-0.7-1-1C41.2,41.5,39.7,40,38.2,38.5z"/>
	<path class="st0" d="M17.2,45c1-1,2.1-2.1,3.2-3.2c0.4,0.4,0.7,0.8,1.2,1.2c-0.2,0.1-0.5,0.3-0.7,0.6c-1,1-2,2-3,3
		c-0.5,0.5-0.9,0.5-1.4,0c-5-5-10-10-15-15c-0.5-0.5-0.5-0.9,0-1.3c3-3,5.9-5.9,8.9-8.9c0.1-0.1,0.1-0.1,0.2-0.1
		c0.4,0.4,0.7,0.7,1,1.1c-2.8,2.8-5.7,5.7-8.5,8.5C7.7,35.6,12.4,40.3,17.2,45z"/>
	<path class="st0" d="M7.6,31.8c-0.3-0.3-0.6-0.6-0.9-0.9c1.6-1.6,3.3-3.3,4.9-4.9c0.3,0.3,0.6,0.6,0.9,0.9
		C10.9,28.5,9.3,30.1,7.6,31.8z"/>
	<path class="st0" d="M14,28.3c0.3,0.3,0.6,0.7,0.9,0.9c-1.6,1.6-3.3,3.3-4.9,4.9c-0.3-0.3-0.6-0.6-0.9-0.9
		C10.7,31.6,12.3,29.9,14,28.3z"/>
	<path class="st0" d="M15.3,33.7c-0.9,0.9-1.9,1.9-2.8,2.8c-0.3-0.3-0.6-0.7-0.9-1c0.9-0.9,1.9-1.9,2.8-2.8
		C14.6,33.1,14.9,33.4,15.3,33.7z"/>
	<path class="st0" d="M15.8,36c0.3,0.3,0.6,0.6,0.9,0.9c-0.7,0.7-1.3,1.3-2,2c-0.3-0.3-0.6-0.7-0.9-1C14.5,37.3,15.2,36.7,15.8,36z"
		/>
	<path class="st0" d="M17.2,41.3c-0.3-0.3-0.7-0.7-1-1c0.5-0.5,1-1,1.5-1.5c0.3,0.3,0.7,0.7,1,1C18.2,40.3,17.7,40.8,17.2,41.3z"/>
	<path class="st0" d="M16.2,11.1c1.1-2,2.2-3.9,3.3-5.9C20,5.5,20.4,5.7,20.8,6c-0.5,1-1.1,1.9-1.6,2.9c-0.7,1.3-1.4,2.6-2.2,3.9
		c-0.4,0.7-1,0.7-1.5,0.1c-0.9-1.1-1.8-2.2-2.7-3.3c-0.1-0.1-0.2-0.2-0.3-0.4c-0.2,0.3-0.4,0.6-0.6,0.9c-0.6,0.9-1.2,1.8-1.8,2.6
		c-0.4,0.6-1,0.6-1.4,0c-0.5-0.7-1-1.4-1.6-2.1c-0.5,0.7-1,1.3-1.5,2c-0.1,0.1-0.1,0.3-0.1,0.5c0,0.5,0,1,0,1.6c5.1,0,10.2,0,15.3,0
		c0,0.5,0,1,0,1.6c-0.2,0-0.3,0-0.5,0c-5.1,0-10.1,0-15.2,0c-0.9,0-1.1-0.2-1.1-1.1c0-3.3,0-6.6,0-9.9c0-0.1,0-0.3,0-0.5
		c0.5,0,1,0,1.5,0c0,1.7,0,3.4,0,5.2c0,0,0.1,0,0.1,0c0.2-0.3,0.4-0.5,0.6-0.8c0.6-0.8,1.1-0.8,1.7,0c0.5,0.6,0.9,1.2,1.3,1.8
		c0,0,0,0,0.1,0.1c0.1-0.2,0.2-0.3,0.3-0.5c0.7-1,1.3-2,2-3c0.5-0.7,1-0.7,1.5-0.1c0.9,1.1,1.8,2.1,2.6,3.2
		C16,10.9,16.1,11,16.2,11.1z"/>
	<path class="st0" d="M37.8,30.9c0,5-4.1,9.2-9.1,9.2c-5.1,0-9.2-4.1-9.2-9.1c0-5.1,4.1-9.2,9.2-9.3C33.7,21.7,37.8,25.8,37.8,30.9z
		 M28.6,23.2c-4.2,0-7.6,3.4-7.7,7.6c0,4.3,3.4,7.7,7.6,7.7c4.3,0,7.7-3.4,7.7-7.6C36.3,26.7,32.9,23.3,28.6,23.2z"/>
	<path class="st0" d="M29.4,35.5c0,0.5,0,0.9,0,1.4c-0.5,0-1,0-1.5,0c0-0.5,0-1,0-1.5c-0.8-0.1-1.5-0.4-1.9-1.1
		c-0.2-0.4-0.3-0.8-0.5-1.2c0.6,0,1.1,0,1.6,0c0.1,0.7,0.6,0.8,1.2,0.8c0.3,0,0.7,0,1,0c0.5,0,0.8-0.3,0.8-0.8
		c0.1-1.3-0.1-1.5-1.4-1.5c-0.3,0-0.7,0-1,0c-1,0-1.9-0.7-2.1-1.8c-0.1-0.6-0.1-1.3,0-2c0.2-0.9,0.9-1.4,1.8-1.6
		c0.3,0,0.4-0.2,0.4-0.5c0-0.4,0-0.7,0-1.1c0.5,0,1,0,1.5,0c0,0.5,0,1,0,1.4c1.6,0.4,2.3,1.1,2.3,2.3c-0.5,0-1,0-1.5,0
		c-0.3-0.6-0.4-0.7-1.1-0.7c-0.4,0-0.8,0-1.2,0c-0.5,0-0.8,0.3-0.8,0.8c0,0,0,0.1,0,0.1c0,1.1,0.1,1.3,1.3,1.3c0.5,0,1,0,1.4,0.1
		c1.1,0.2,1.8,1.1,1.9,2.1c0,0.1,0,0.3,0,0.4C31.8,34.1,31.2,35.3,29.4,35.5z"/>
</g>
</svg>
