<?xml version="1.0" encoding="utf-8"?>
<!-- Generator: Adobe Illustrator 21.1.0, SVG Export Plug-In . SVG Version: 6.00 Build 0)  -->
<svg version="1.1" id="Layer_1" xmlns="http://www.w3.org/2000/svg" xmlns:xlink="http://www.w3.org/1999/xlink" x="0px" y="0px"
	 viewBox="0 0 48 48" style="enable-background:new 0 0 48 48;" xml:space="preserve">
<style type="text/css">
	.st0{fill:#B3001B;}
</style>
<g>
	<path class="st0" d="M10,16.1c0.2,0,0.4,0,0.7,0c0-0.2,0-0.4,0-0.6c0-4.6,0-9.1,0-13.7c0-0.8,0.2-1,1-1c8.3,0,16.5,0,24.8,0
		c0.8,0,1,0.2,1,1c0,4.5,0,9.1,0,13.6c0,0.2,0,0.4,0,0.6c0.2,0,0.4,0,0.7,0c0-0.3,0.1-0.5,0.1-0.8c0.6-2.4,2.9-3.9,5.3-3.5
		c2.4,0.5,4,2.7,3.7,5.1c0,0.3,0,0.6,0,1c0,3.8,0,7.7,0,11.5c0,1.2-0.6,1.8-1.8,1.8c-2.5,0-5,0-7.4,0c-0.2,0-0.3,0-0.6,0
		c0,0.2,0,0.4,0,0.6c0,4.8,0,9.6,0,14.4c0,0.8-0.2,1-1,1c-8.2,0-16.5,0-24.7,0c-0.8,0-1-0.2-1-1c0-4.8,0-9.6,0-14.3
		c0-0.2,0-0.4,0-0.6c-0.2,0-0.4,0-0.6,0c-2.5,0-5,0-7.4,0c-1.2,0-1.8-0.6-1.8-1.8c0-3.8,0-7.6,0-11.4c0-0.8,0-1.7,0.1-2.5
		c0.3-2.2,2.3-3.8,4.5-3.8c2.3,0.1,4.2,1.7,4.4,4C9.9,15.8,9.9,15.9,10,16.1z M36,22.9c-8,0-16,0-24,0c0,6.8,0,13.5,0,20.3
		c0.1-0.2,0.2-0.3,0.3-0.4c1.5-1.6,2.9-3.2,4.4-4.8c0.6-0.6,0.8-0.6,1.4,0c0.7,0.8,1.4,1.6,2.1,2.3c0.4,0.4,0.7,0.8,1.1,1.2
		c0.1-0.2,0.3-0.3,0.4-0.4c2.2-2.5,4.4-5,6.7-7.4c0.6-0.7,0.9-0.7,1.5,0c2,2.2,3.9,4.4,5.9,6.6c0.1,0.1,0.2,0.1,0.3,0.3
		C36,34.6,36,28.8,36,22.9z M12,2.2c0,4.7,0,9.3,0,13.9c8,0,16,0,24,0c0-4.7,0-9.3,0-13.9C28,2.2,20,2.2,12,2.2z M38.1,17.4
		c-0.1,0-0.2,0-0.4,0c-9.2,0-18.4,0-27.6,0c-0.3,0-0.4,0.1-0.6,0.4c-1.1,3-4.6,4-7.1,2c-0.1-0.1-0.2-0.2-0.4-0.3c0,0.1,0,0.1,0,0.1
		c0,3.3,0,6.5,0,9.8c0,0.4,0.2,0.5,0.5,0.5c2.6,0,5.1,0,7.7,0c0.1,0,0.2,0,0.3,0c0-1.4,0-2.7,0-4.1c-1,0-1.9,0-2.8,0
		c-0.6,0-0.9-0.2-0.9-0.8c0-0.8,0-1.6,0-2.4c0-0.8,0.2-1,1-1c4,0,7.9,0,11.9,0c6.8,0,13.5,0,20.3,0c0.8,0,1,0.2,1,1
		c0,0.6,0,1.3,0,1.9c0,1.3-0.1,1.3-1.3,1.3c-0.8,0-1.6,0-2.4,0c0,1.4,0,2.8,0,4.1c0.2,0,0.3,0,0.4,0c2.5,0,5,0,7.5,0
		c0.6,0,0.6,0,0.6-0.6c0-3.1,0-6.2,0-9.3c0-0.1,0-0.2,0-0.4C42.3,21.8,39.8,21.1,38.1,17.4z M29.1,34.9c-2.3,2.6-4.6,5.1-6.9,7.7
		c0.9,1,1.8,2,2.7,3c0.2,0.2,0.4,0.3,0.8,0.3c3.3,0,6.6,0,9.8,0c0.2,0,0.3,0,0.5,0c0-0.9,0-1.9,0-2.8c0-0.3-0.1-0.6-0.3-0.8
		c-1.7-1.9-3.5-3.9-5.2-5.8C30.1,36,29.6,35.4,29.1,34.9z M23.5,45.8c-2-2.2-4-4.4-6-6.6c-0.1,0.1-0.1,0.1-0.2,0.2
		c-1.7,1.8-3.3,3.7-5,5.5c-0.3,0.3-0.4,0.6-0.2,0.9C15.8,45.8,19.6,45.8,23.5,45.8z M5.4,13c-1.8,0-3.3,1.4-3.3,3.2
		c0,1.8,1.4,3.3,3.2,3.3c1.8,0,3.3-1.4,3.3-3.2C8.7,14.5,7.2,13.1,5.4,13z M42.5,13c-1.8,0-3.2,1.5-3.2,3.3c0,1.8,1.5,3.2,3.3,3.2
		c1.8,0,3.2-1.5,3.2-3.3C45.8,14.4,44.3,13,42.5,13z M8.2,22.9c0,0.5,0,1,0,1.5c0.8,0,1.6,0,2.4,0c0-0.5,0-1,0-1.5
		C9.8,22.9,9.1,22.9,8.2,22.9z M39.8,22.9c-0.8,0-1.6,0-2.4,0c0,0.5,0,1,0,1.5c0.8,0,1.6,0,2.4,0C39.8,23.9,39.8,23.4,39.8,22.9z"/>
	<path class="st0" d="M24,35c0,1.5-1.2,2.6-2.6,2.6c-1.4,0-2.6-1.2-2.7-2.6c0-1.5,1.2-2.7,2.7-2.7C22.8,32.3,24,33.5,24,35z
		 M22.7,35c0-0.7-0.6-1.3-1.3-1.3c-0.7,0-1.3,0.6-1.3,1.4c0,0.7,0.6,1.3,1.3,1.3C22.1,36.3,22.7,35.7,22.7,35z"/>
	<path class="st0" d="M21.9,9.9c0-0.2,0-0.4,0-0.6c0-1.6,0-3.1,0-4.7c0-0.7,0.2-0.9,0.9-0.9c0.8,0,1.6,0,2.5,0
		c0.6,0,0.8,0.2,0.8,0.8c0,1.6,0,3.2,0,4.8c0,0.2,0,0.4,0,0.6c0.4,0,0.8-0.1,1.1,0c0.2,0,0.5,0.2,0.6,0.4c0.1,0.2,0,0.5-0.2,0.7
		c-1.1,1.1-2.1,2.2-3.2,3.3c-0.3,0.3-0.7,0.3-1,0c-1.1-1.1-2.2-2.2-3.2-3.3c-0.1-0.2-0.2-0.5-0.2-0.7c0.1-0.2,0.4-0.4,0.6-0.4
		C21.1,9.8,21.5,9.9,21.9,9.9z M25.6,11.2c-0.7-0.1-0.9-0.3-0.9-1c0-1.6,0-3.1,0-4.7c0-0.2,0-0.3,0-0.5c-0.5,0-1,0-1.5,0
		c0,0.2,0,0.4,0,0.5c0,1.5,0,3.1,0,4.6c0,0.7-0.1,0.9-0.8,1c0.5,0.5,1.1,1.1,1.6,1.5C24.5,12.3,25.1,11.8,25.6,11.2z"/>
	<path class="st0" d="M4.7,16.2c0.6-0.4,1.2-0.9,1.8-1.3c0.4-0.3,0.8-0.3,1,0.1c0.3,0.3,0.2,0.7-0.3,1c-0.7,0.5-1.4,1-2.1,1.5
		c-0.5,0.3-0.8,0.3-1.1-0.1c-0.3-0.3-0.6-0.7-0.9-1c-0.3-0.3-0.3-0.7,0-1c0.3-0.2,0.7-0.2,1,0.1c0.1,0.1,0.2,0.2,0.3,0.3
		C4.5,16,4.6,16.1,4.7,16.2z"/>
	<path class="st0" d="M42.2,15.5c0.3,0.1,0.4,0.1,0.6,0.1c0.7,0.1,1.2,0.6,1.4,1.2c0.1,0.7-0.1,1.2-0.7,1.6
		c-0.1,0.1-0.2,0.2-0.3,0.3c-0.2,0.2-0.4,0.4-0.6,0.4c-0.2,0-0.4-0.2-0.6-0.4c-0.2-0.2-0.4-0.4-0.6-0.5c-0.3-0.3-0.4-0.7-0.2-1
		c0.2-0.3,0.6-0.3,1-0.1c0.1,0.1,0.2,0.1,0.3,0.1c0.1,0,0.2-0.1,0.3-0.1c-0.1-0.1-0.1-0.2-0.2-0.2c-0.1,0-0.2,0-0.4-0.1
		c-0.6-0.1-1.1-0.6-1.3-1.2c-0.1-0.6,0.1-1.1,0.6-1.5c0.1-0.1,0.2-0.3,0.4-0.4c0.2-0.2,0.4-0.4,0.6-0.4c0.2,0,0.4,0.2,0.6,0.4
		c0.1,0.1,0.2,0.3,0.4,0.4c0.1,0.1,0.3,0.2,0.4,0.3c0.2,0.3,0.3,0.6,0,0.9c-0.2,0.3-0.6,0.3-0.9,0.1C42.8,15.3,42.6,15.1,42.2,15.5z
		"/>
</g>
</svg>
