<?xml version="1.0" encoding="utf-8"?>
<!-- Generator: Adobe Illustrator 21.1.0, SVG Export Plug-In . SVG Version: 6.00 Build 0)  -->
<svg version="1.1" id="Layer_1" xmlns="http://www.w3.org/2000/svg" xmlns:xlink="http://www.w3.org/1999/xlink" x="0px" y="0px"
	 viewBox="0 0 48 48" style="enable-background:new 0 0 48 48;" xml:space="preserve">
<style type="text/css">
	.st0{fill:#B3001B;}
	.st1{fill:#FFFFFF;}
</style>
<g>
	<path class="st0" d="M42.2,42.8c-0.4,1.2-0.8,2.4-1.2,3.6c-0.1,0.3-0.2,0.7-0.6,0.7c-0.4,0-0.6-0.2-0.8-0.6c-1-1.7-2-3.5-3-5.2
		c-0.2-0.3-0.4-0.6-0.8-0.5c-0.3,0.1-0.6,0.1-0.8,0c-0.6-0.1-1,0.1-1.3,0.7c-0.9,1.7-1.9,3.3-2.8,5c-0.2,0.3-0.4,0.6-0.8,0.6
		c-0.4,0-0.6-0.4-0.7-0.7c-0.4-1.2-0.8-2.3-1.2-3.6c-1.2,0.2-2.4,0.5-3.5,0.7c-0.1,0-0.3,0.1-0.4,0.1c-0.2-0.1-0.6-0.1-0.7-0.3
		c-0.1-0.2-0.1-0.5,0-0.7c0.5-0.9,1-1.7,1.5-2.6c0.5-0.8,0.9-1.6,1.4-2.4c0.2-0.3,0.1-0.4-0.1-0.7c-3.8-4.2-4.1-10.3-0.8-14.9
		c2.8-3.8,7.7-5.7,12.3-4.6c4.7,1.1,8.3,4.9,9.1,9.6c0.6,3.7-0.4,7-2.9,9.9c-0.2,0.3-0.2,0.4-0.1,0.7c0.9,1.6,1.9,3.2,2.8,4.8
		c0.2,0.3,0.3,0.6,0.1,0.9c-0.2,0.3-0.6,0.3-0.9,0.2C44.7,43.3,43.5,43.1,42.2,42.8z M24.7,29c0,5.8,4.7,10.6,10.6,10.6
		c5.8,0,10.6-4.7,10.6-10.5c0-5.8-4.7-10.6-10.6-10.6C29.4,18.4,24.7,23.2,24.7,29z M37.7,40.6c0.8,1.4,1.6,2.8,2.4,4.2
		c0.1-0.1,0.1-0.1,0.1-0.1c0.3-0.8,0.6-1.7,0.8-2.5c0.3-0.8,0.4-0.9,1.2-0.7c0.9,0.2,1.8,0.4,2.8,0.6c-0.8-1.4-1.5-2.6-2.2-3.9
		C41.3,39.4,39.7,40.2,37.7,40.6z M27.7,38.2c-0.7,1.3-1.5,2.5-2.2,3.9c1-0.2,1.9-0.4,2.8-0.6c0.8-0.2,0.9-0.1,1.2,0.7
		c0.3,0.9,0.6,1.8,0.9,2.7c0.8-1.5,1.6-2.8,2.4-4.2C30.8,40.2,29.2,39.4,27.7,38.2z"/>
	<path class="st0" d="M11.8,31c3.3,0,6.6,0,9.9,0c0.7,0,0.9,0.2,0.9,0.9c0,4.8,0,9.5,0,14.3c0,0.7-0.2,0.9-0.9,0.9
		c-6.6,0-13.2,0-19.9,0c-0.7,0-0.9-0.2-0.9-0.9c0-4.8,0-9.5,0-14.3c0-0.7,0.2-0.9,0.9-0.9C5.1,31,8.4,31,11.8,31z M21.3,41.4
		c0-3.1,0-6,0-9c-6.4,0-12.7,0-19.1,0c0,3.7,0,7.4,0,11.2c0.2-0.2,0.3-0.4,0.5-0.5c0.9-0.9,1.7-1.9,2.6-2.8c1.2-1.3,1.2-1.4,2.4,0
		c0.6,0.7,1.3,1.4,2,2.1c0.1-0.2,0.2-0.3,0.3-0.4c1.8-2,3.5-3.9,5.3-5.9c0.5-0.5,0.8-0.6,1.3,0c1.2,1.4,2.5,2.8,3.7,4.2
		C20.6,40.6,20.9,40.9,21.3,41.4z M15.9,37.3c-1.8,2-3.6,4-5.4,6c0.7,0.8,1.4,1.5,2.1,2.2c0.1,0.2,0.4,0.3,0.6,0.3
		c2.5,0,5.1,0,7.6,0c0.1,0,0.3,0,0.4,0c0-0.8,0.1-1.6,0-2.4c-0.1-0.5-0.7-0.9-1.1-1.3C20.1,42,20,41.9,20,41.9
		C18.6,40.4,17.3,38.8,15.9,37.3z M2.1,45.8c3,0,5.9,0,8.9,0c-1.5-1.7-3-3.3-4.5-5c-1.4,1.5-2.8,3-4.1,4.5
		C2.2,45.4,2.2,45.6,2.1,45.8z"/>
	<path class="st0" d="M35.2,13.2c-3.3,0-6.5,0-9.8,0c-0.8,0-1-0.2-1-1c0-3.4,0-6.9,0-10.3c0-0.8,0.2-1,1-1c6.5,0,13.1,0,19.6,0
		c0.8,0,1,0.2,1,1c0,3.4,0,6.9,0,10.3c0,0.8-0.2,1-1,1C41.8,13.2,38.5,13.2,35.2,13.2z M25.8,11.8c6.3,0,12.6,0,18.9,0
		c0-3.2,0-6.4,0-9.6c-6.3,0-12.6,0-18.9,0C25.8,5.4,25.8,8.6,25.8,11.8z"/>
	<path class="st0" d="M14.7,11c-0.7,0-1.2,0-1.8,0c-0.3,0-0.6-0.1-0.7-0.4c-0.1-0.3,0-0.6,0.3-0.8c1.4-1.2,2.8-2.4,4.2-3.6
		c0.5-0.4,0.7-0.4,1.1,0c1.4,1.2,2.8,2.3,4.1,3.5c0.3,0.2,0.6,0.5,0.4,0.9c-0.2,0.4-0.5,0.4-0.9,0.4c-0.5,0-1.1,0-1.7,0
		c0,0.2,0,0.4,0,0.6c0,5.5,0,10.9,0,16.4c0,0.8-0.2,1-1,1c-1.1,0-2.1,0-3.2,0c-0.7,0-0.9-0.2-0.9-0.9c0-5.4,0-10.9,0-16.3
		C14.7,11.5,14.7,11.3,14.7,11z M18.5,27.6c0-0.2,0-0.4,0-0.6c0-5.4,0-10.8,0-16.2c0-0.1,0-0.3,0-0.4c0-0.4,0.3-0.7,0.7-0.7
		c0.2,0,0.4,0,0.8,0c-1-0.8-1.8-1.5-2.7-2.3c-0.9,0.8-1.7,1.5-2.6,2.2c0.1,0,0.2,0,0.2,0C16,9.8,16,9.8,16,11c0,5.3,0,10.7,0,16
		c0,0.2,0,0.4,0,0.6C16.9,27.6,17.7,27.6,18.5,27.6z"/>
	<path class="st0" d="M8.6,19.5c0,0.2,0,0.4,0,0.6c0,2.6,0,5.3,0,7.9c0,0.8-0.2,1-1,1c-1,0-2.1,0-3.1,0c-0.9,0-1-0.2-1-1
		c0-2.6,0-5.3,0-7.9c0-0.2,0-0.3,0-0.6c-0.6,0-1.1,0-1.7,0c-0.4,0-0.7,0-0.9-0.5c-0.1-0.4,0.1-0.6,0.4-0.9C2.7,17,4,15.8,5.4,14.7
		c0.5-0.4,0.7-0.4,1.2,0c1.4,1.2,2.7,2.3,4.1,3.5c0.3,0.2,0.5,0.5,0.4,0.9c-0.2,0.4-0.5,0.4-0.9,0.4C9.7,19.5,9.2,19.5,8.6,19.5z
		 M7.3,27.6c0-0.5,0-0.9,0-1.4c0-2.4,0-4.8,0-7.2c0-0.7,0.2-0.9,0.9-0.9c0.1,0,0.3,0,0.5,0c-0.9-0.8-1.8-1.5-2.7-2.2
		c-0.9,0.7-1.7,1.5-2.6,2.2c0.2,0,0.2,0,0.3,0c1,0,1.1,0.2,1.1,1.1c0,2.6,0,5.2,0,7.9c0,0.2,0,0.3,0,0.5C5.6,27.6,6.4,27.6,7.3,27.6
		z"/>
	<path class="st0" d="M35.2,37.1c-4.4,0-8-3.6-8.1-8c0-4.4,3.6-8.1,8-8.1c4.4,0,8.1,3.6,8.1,8.1C43.3,33.4,39.7,37.1,35.2,37.1z
		 M35.2,22.3c-3.7,0-6.7,3-6.7,6.7c0,3.7,3.1,6.7,6.8,6.7c3.7,0,6.7-3.1,6.7-6.8C42,25.3,38.9,22.3,35.2,22.3z"/>
	<path class="st0" d="M11.9,37.2c0,1.2-1,2.3-2.3,2.3c-1.3,0-2.3-1-2.3-2.3c0-1.2,1-2.2,2.3-2.2C10.9,34.9,11.9,35.9,11.9,37.2z
		 M8.7,37.2c0,0.5,0.4,0.9,0.9,0.9c0.5,0,0.9-0.4,0.9-0.9c0-0.5-0.4-1-0.9-1C9.1,36.2,8.7,36.7,8.7,37.2z"/>
	<path class="st0" d="M33.8,8.1C35.3,7,36.7,6,38.1,5c0.2-0.1,0.3-0.2,0.5-0.4c0.4-0.2,0.8-0.2,1,0.1c0.2,0.3,0.1,0.7-0.2,0.9
		c-1.7,1.3-3.5,2.5-5.2,3.7c-0.4,0.3-0.7,0.2-1-0.1c-0.7-0.8-1.5-1.6-2.2-2.5c-0.3-0.4-0.3-0.7,0-1c0.3-0.3,0.7-0.2,1,0.1
		C32.6,6.7,33.2,7.4,33.8,8.1z"/>
	<path class="st0" d="M33.5,30.4c1-0.8,1.9-1.6,2.9-2.3c0.8-0.6,1.5-1.3,2.3-1.9c0.4-0.3,0.8-0.3,1.1,0c0.2,0.3,0.2,0.7-0.2,1
		c-1.9,1.5-3.8,3.1-5.6,4.6c-0.4,0.4-0.8,0.3-1.1-0.2c-0.7-1-1.3-1.9-1.9-2.9c-0.3-0.4-0.2-0.8,0.1-1c0.3-0.2,0.7-0.1,1,0.3
		C32.4,28.8,32.9,29.6,33.5,30.4z"/>
</g>
</svg>
