<?xml version="1.0" encoding="utf-8"?>
<!-- Generator: Adobe Illustrator 25.0.1, SVG Export Plug-In . SVG Version: 6.00 Build 0)  -->
<svg version="1.1" id="Layer_1" xmlns="http://www.w3.org/2000/svg" xmlns:xlink="http://www.w3.org/1999/xlink" x="0px" y="0px"
	 viewBox="0 0 48 48" style="enable-background:new 0 0 48 48;" xml:space="preserve">
<style type="text/css">
	.st0{fill:#B3001B;}
</style>
<g>
	<path class="st0" d="M24.3,47.1c-7.3-0.2-13.3-2.6-18-7.9C3.6,36,2,32.2,1.3,28.1C0,21.2,1.6,15,6,9.5c3.9-4.8,9-7.6,15.1-8.4
		C22,1,22.9,0.9,23.7,0.9c0.7,0,1.1,0.3,1.1,0.8c0,0.5-0.4,0.8-1,0.8c-4.5,0.1-8.6,1.4-12.3,4c-5,3.7-8.1,8.6-8.8,14.8
		c-0.8,7.5,1.5,14,7.2,19.1c3.5,3.1,7.7,4.6,12.4,4.9c4.8,0.3,9.3-0.7,13.4-3.2c5.1-3.2,8.1-7.9,9.2-13.8c0.3-1.4,0.4-2.8,0.5-4.2
		c0.1-0.6,0.4-0.9,0.8-0.9c0.5,0,0.8,0.4,0.8,1c-0.3,6.6-2.5,12.4-7.5,17c-3.4,3.1-7.4,4.9-12,5.6C26.5,47,25.2,47,24.3,47.1z"/>
	<path class="st0" d="M23.8,23c2.7-2.3,5.4-4.5,8.1-6.7c4.5-3.8,9-7.5,13.6-11.3c0.5-0.4,0.9-0.4,1.3-0.1c0.4,0.4,0.3,0.8-0.1,1.3
		c-7.3,8.6-14.7,17.1-22,25.7c-0.6,0.7-1.1,0.6-1.6-0.1c-3.6-4.8-7.2-9.7-10.9-14.5c-0.3-0.4-0.4-0.8-0.1-1.2
		c0.3-0.4,0.7-0.4,1.2-0.1c1.1,0.8,2.3,1.5,3.4,2.3C19.1,19.9,21.5,21.4,23.8,23z M38.6,13C38.6,13,38.5,13,38.6,13
		c-0.2,0-0.3,0.1-0.5,0.2c-4.5,3.7-9,7.5-13.5,11.2C24,25,23.8,25,23.2,24.6c-2-1.4-4.1-2.7-6.1-4.1c-0.1-0.1-0.3-0.2-0.5-0.3
		c0,0,0,0.1-0.1,0.1c2.5,3.3,4.9,6.6,7.4,9.9C28.8,24.4,33.7,18.7,38.6,13z"/>
	<path class="st0" d="M23.2,5.4c0-0.4,0-0.9,0-1.3c0-0.5,0.3-0.9,0.8-0.9c0.5,0,0.8,0.3,0.8,0.9c0,0.9,0,1.8,0,2.7
		c0,0.5-0.4,0.8-0.9,0.8c-0.5,0-0.8-0.3-0.8-0.8C23.2,6.3,23.2,5.9,23.2,5.4z"/>
	<path class="st0" d="M5.4,24.9c-0.4,0-0.9,0-1.3,0c-0.5,0-0.9-0.4-0.9-0.8c0-0.5,0.3-0.8,0.9-0.8c0.9,0,1.8,0,2.7,0
		c0.5,0,0.9,0.4,0.9,0.8c0,0.5-0.3,0.8-0.9,0.8C6.3,24.9,5.8,24.9,5.4,24.9z"/>
	<path class="st0" d="M42.6,24.9c-0.4,0-0.9,0-1.3,0c-0.5,0-0.9-0.4-0.9-0.8c0-0.5,0.3-0.8,0.9-0.8c0.9,0,1.8,0,2.7,0
		c0.5,0,0.9,0.4,0.9,0.8c0,0.5-0.3,0.8-0.9,0.8c0,0,0,0-0.1,0C43.5,24.9,43,24.9,42.6,24.9z"/>
	<path class="st0" d="M23.2,42.6c0-0.4,0-0.9,0-1.3c0-0.5,0.3-0.9,0.8-0.9c0.5,0,0.8,0.3,0.8,0.9c0,0.9,0,1.8,0,2.6
		c0,0.5-0.3,0.9-0.8,0.9c-0.5,0-0.8-0.3-0.8-0.9C23.2,43.5,23.2,43,23.2,42.6z"/>
	<path class="st0" d="M33.6,41.4c-0.7,0-1.6-1.5-1.2-2.1c0.3-0.5,1-0.6,1.4-0.1c0.2,0.3,0.4,0.7,0.6,1.1
		C34.6,40.8,34.2,41.4,33.6,41.4z"/>
	<path class="st0" d="M14.8,9.2c-0.6-0.1-0.8-0.7-1-1.2c-0.1-0.3-0.1-0.7,0-1c0.2-0.5,1-0.5,1.3,0c0.2,0.3,0.4,0.7,0.6,1
		C15.9,8.6,15.5,9.2,14.8,9.2z"/>
	<path class="st0" d="M9.1,33.1c0,0.7-1.5,1.6-2.1,1.2c-0.5-0.3-0.6-1-0.1-1.4c0.3-0.2,0.7-0.5,1.1-0.6C8.6,32.1,9.2,32.5,9.1,33.1z
		"/>
	<path class="st0" d="M41.4,33.5c0,0.7-0.5,1.1-1,0.9c-0.4-0.2-0.9-0.4-1.2-0.7c-0.2-0.2-0.3-0.6-0.2-0.9c0.1-0.4,0.5-0.6,0.8-0.5
		c0.5,0.2,1,0.6,1.5,0.9C41.3,33.2,41.3,33.4,41.4,33.5z"/>
	<path class="st0" d="M9.1,14.9c0,0.7-0.6,1.1-1.1,0.9c-0.4-0.2-0.8-0.4-1.1-0.7c-0.3-0.2-0.4-0.6-0.2-1c0.2-0.3,0.5-0.6,0.8-0.4
		c0.5,0.2,1,0.5,1.4,0.8C9.1,14.6,9.1,14.8,9.1,14.9z"/>
	<path class="st0" d="M15.9,39.7c-0.4,0.6-0.7,1.1-1.1,1.6c-0.1,0.1-0.6,0.1-0.8,0c-0.2-0.1-0.4-0.6-0.3-0.8c0.2-0.5,0.4-1,0.8-1.4
		c0.1-0.2,0.6-0.2,0.8-0.1C15.5,39.1,15.7,39.4,15.9,39.7z"/>
</g>
</svg>
