<?xml version="1.0" encoding="utf-8"?>
<!-- Generator: Adobe Illustrator 25.0.1, SVG Export Plug-In . SVG Version: 6.00 Build 0)  -->
<svg version="1.1" id="Layer_1" xmlns="http://www.w3.org/2000/svg" xmlns:xlink="http://www.w3.org/1999/xlink" x="0px" y="0px"
	 viewBox="0 0 48 48" style="enable-background:new 0 0 48 48;" xml:space="preserve">
<style type="text/css">
	.st0{fill:#B3001B;}
</style>
<g>
	<path class="st0" d="M0.4,28.1c0.2-1,0.4-2,0.7-3c1-2.9,2.9-5,5.6-6.4c0.1-0.1,0.3-0.2,0.4-0.2c-0.4-0.7-1-1.3-1.3-2.1
		c-2.1-4.2,0.7-9.3,5.4-10c1.6-0.2,3.1,0.1,4.5,0.9c0.5,0.3,0.6,0.7,0.4,1.1c-0.2,0.4-0.6,0.5-1.1,0.3c-0.7-0.3-1.3-0.6-2-0.7
		C10.8,7.7,9,8.4,7.7,10.3c-1.3,1.8-1.4,3.8-0.3,5.7c1.1,2,2.9,2.9,5.1,2.8c0.4,0,0.7-0.1,1.1-0.2c0.5-0.1,1,0.1,1.1,0.5
		c0.1,0.5-0.2,0.9-0.7,1c-1.7,0.4-3.3,0.3-4.9-0.5c-0.2-0.1-0.5-0.1-0.7,0c-3.9,1.7-6.1,4.8-6.3,9.1C2,30.2,2,31.6,2,33
		c2.4,0,4.7,0,7.1,0c0.8-5.5,3.7-9.5,8.6-12c-3.7-3.9-2.9-9.5,0.4-12.5c3.2-2.8,8.1-2.9,11.3-0.1C33,11.3,34,17.1,30.2,21
		c5,2.3,8.1,7,8.6,12c2.4,0,4.7,0,7.1,0c-0.1-2.8,0.3-5.6-1-8.3c-1.2-2.3-2.9-4-5.4-5c-0.2-0.1-0.5-0.1-0.7,0
		c-1.5,0.8-3.2,0.9-4.8,0.5c-0.6-0.1-0.9-0.5-0.8-1c0.1-0.5,0.5-0.7,1.1-0.6c2.8,0.6,5.3-0.7,6.4-3.2c0.9-2.1,0.4-4.5-1.3-6.1
		c-1.7-1.6-4.2-2-6.2-0.9c-0.2,0.1-0.4,0.2-0.5,0.3c-0.4,0.2-0.8,0-1-0.3c-0.2-0.4-0.1-0.8,0.3-1c0.6-0.3,1.2-0.6,1.8-0.8
		C37,5.8,40.2,7,41.8,9.8c1.6,2.6,1.3,6-0.9,8.3c-0.1,0.1-0.1,0.2-0.2,0.2c0.9,0.6,1.8,1.1,2.5,1.8c2.6,2.2,4,5,4.2,8.4
		c0.1,1.7,0,3.4,0,5.1c0,0.6-0.3,0.9-1,0.9c-2.4,0-4.7,0-7.1,0c-0.2,0-0.3,0-0.6,0c0,0.2,0,0.3,0,0.5c0,1.8,0,3.7,0,5.5
		c0,0.8-0.3,1-1.1,1c-9.2,0-18.5,0-27.7,0c-0.8,0-1-0.3-1-1c0-2,0-4,0-6.1c-0.2,0-0.4,0-0.5,0c-2.3,0-4.7,0-7,0
		c-0.5,0-0.8-0.1-1.1-0.6C0.4,32.1,0.4,30.1,0.4,28.1z M37.3,40.1c0-0.1,0-0.2,0-0.3c0-1.7,0.1-3.5,0-5.2c-0.2-5.7-3-9.8-8.1-12.2
		c-0.3-0.1-0.5-0.1-0.8,0c-1,0.7-2.2,1-3.4,1.2c-2,0.2-3.8-0.2-5.5-1.2c-0.1-0.1-0.4-0.2-0.5-0.1c-1.8,0.7-3.3,1.7-4.6,3.1
		c-2.6,2.7-3.8,5.9-3.7,9.6c0,1.5,0,3.1,0,4.6c0,0.2,0,0.3,0,0.5C19.6,40.1,28.4,40.1,37.3,40.1z M23.9,22c3.8,0.1,7-3.1,7.1-7
		c0.1-3.8-3.1-7.1-7-7.1c-3.9-0.1-7.1,3-7.2,7C16.8,18.7,20,21.9,23.9,22z"/>
</g>
</svg>
