<?xml version="1.0" encoding="utf-8"?>
<!-- Generator: Adobe Illustrator 25.0.1, SVG Export Plug-In . SVG Version: 6.00 Build 0)  -->
<svg version="1.1" id="Layer_1" xmlns="http://www.w3.org/2000/svg" xmlns:xlink="http://www.w3.org/1999/xlink" x="0px" y="0px"
	 viewBox="0 0 48 48" style="enable-background:new 0 0 48 48;" xml:space="preserve">
<style type="text/css">
	.st0{fill:#B3001B;}
</style>
<g>
	<path class="st0" d="M7.3,17.6c0-4.1,0.1-8.1,0-12.2c-0.1-2.7,2-4.6,4.5-4.5c3.9,0.1,7.7,0,11.6,0c8.6,0,15.5,5.7,17.1,14.2
		c0.1,0.6,0.2,1.2,0.2,1.8c0,0.5-0.3,0.9-0.8,1c-0.5,0-0.8-0.3-0.9-0.8c-0.1-1.5-0.4-3-1-4.5c-0.1-0.3-0.3-0.5-0.6-0.4
		c-1.1,0-2.3,0-3.4,0c-2.8,0-4.5-1.7-4.5-4.5c0-1.2,0-2.3,0-3.5c0-0.3-0.1-0.5-0.4-0.6c-1.7-0.6-3.4-1-5.1-1c-4.2,0-8.4,0-12.6,0
		C10,2.6,9,3.6,8.9,5c0,0.2,0,0.4,0,0.6c0,8.2,0,16.4,0,24.6c0,0.2,0,0.5,0,0.7c-0.1,0.5-0.4,0.7-0.9,0.7c-0.4,0-0.7-0.3-0.7-0.7
		c0-0.2,0-0.4,0-0.6C7.3,26,7.3,21.8,7.3,17.6z M37,10.4c-1.4-2.5-3.3-4.4-5.8-5.8c0,1.4-0.1,2.7,0,4c0.1,1,0.9,1.7,1.8,1.8
		C34.4,10.5,35.7,10.4,37,10.4z"/>
	<path class="st0" d="M11.4,40.4c-0.7-0.1-1.5-0.2-2.2-0.4c-4.4-1.2-7.8-5.2-8.3-9.7c-0.3-3.3,0.5-6.3,2.8-8.8
		c0.1-0.1,0.2-0.2,0.3-0.3c0.4-0.4,0.9-0.5,1.3-0.1c0.4,0.3,0.3,0.8-0.1,1.3c-1,1.1-1.8,2.4-2.2,3.8c-0.2,0.5-0.2,1,0,1.5
		c1.4,3.8,4.1,6.1,8.1,6.7c0.1,0,0.2,0,0.4,0c0-0.4,0-0.8,0-1.1c0-0.7,0.7-1.1,1.3-0.7c2.1,1.4,4.2,2.8,6.3,4.2c0.5,0.4,0.5,1,0,1.4
		c-2.1,1.4-4.2,2.8-6.3,4.2c-0.6,0.4-1.3,0-1.3-0.7C11.4,41.1,11.4,40.7,11.4,40.4z M2.9,31.2c0,0.1,0,0.2,0,0.2c0,0.1,0,0.1,0,0.2
		c0.5,1.8,1.5,3.4,2.9,4.6c1.8,1.5,3.8,2.4,6.2,2.4c0.7,0,1,0.3,1,1c0,0.1,0,0.2,0,0.4c1.3-0.9,2.6-1.8,4-2.6
		c-1.4-0.9-2.6-1.8-3.9-2.6c-0.1,1.3-0.3,1.4-1.5,1.3C10.1,36,8.7,35.7,7.3,35C5.5,34.1,4.1,32.9,2.9,31.2z"/>
	<path class="st0" d="M36.6,24.8c0,0.4,0,0.7,0,1.1c0,0.8-0.7,1.1-1.3,0.7c-2.1-1.4-4.1-2.7-6.2-4.1c-0.6-0.4-0.6-1.1,0-1.5
		c2-1.4,4.1-2.7,6.1-4.1c0.7-0.4,1.3-0.1,1.4,0.7c0,0.4,0,0.8,0,1.2c0.6,0.1,1.1,0.2,1.6,0.3c4.2,1.1,7.1,3.7,8.3,7.8
		c1.3,4.1,0.3,7.9-2.6,11.1c-0.4,0.4-0.9,0.5-1.3,0.2c-0.4-0.3-0.4-0.8,0.1-1.3c1.1-1.2,2-2.6,2.4-4.2c0.1-0.2,0.1-0.5,0-0.8
		c-0.9-3.8-4.5-6.9-8.4-7.2C36.7,24.8,36.7,24.8,36.6,24.8z M45.2,28c-0.3-1.2-0.7-2.3-1.4-3.2c-1.9-2.7-4.5-4.1-7.8-4.2
		c-0.7,0-1-0.3-1-1c0-0.1,0-0.2,0-0.4c-1.3,0.9-2.6,1.8-4,2.6c1.4,0.9,2.6,1.8,4,2.6c0.1-1.2,0.2-1.4,1.4-1.3
		c2.8,0.1,5.2,1.2,7.2,3.1C44.1,26.7,44.6,27.3,45.2,28z"/>
	<path class="st0" d="M24,47.1c-4.1,0-8.2,0-12.4,0c-2.8,0-4.7-2.2-4.4-5c0.1-0.5,0.3-0.7,0.8-0.8c0.5,0,0.8,0.2,0.8,0.7
		c0.1,0.3,0,0.6,0,0.9c0.1,1.4,1.1,2.5,2.5,2.5c8.4,0,16.7,0,25.1,0c1.5,0,2.5-1.1,2.5-2.6c0-4.7,0-9.3,0-14c0-0.2,0-0.4,0.1-0.6
		c0.1-0.4,0.4-0.6,0.9-0.6c0.4,0,0.6,0.3,0.7,0.7c0,0.2,0,0.3,0,0.5c0,4.6,0,9.2,0,13.8c0,2.7-1.7,4.4-4.5,4.4
		C32.2,47.1,28.1,47.1,24,47.1C24,47.1,24,47.1,24,47.1z"/>
	<path class="st0" d="M25,32c-3.2,0-6.3,0-9.5,0c-0.2,0-0.5,0.1-0.6-0.1c-0.2-0.2-0.5-0.4-0.6-0.7c-0.1-0.4,0.1-0.7,0.5-0.8
		c0.2-0.1,0.5-0.1,0.7-0.1c6.3,0,12.6,0,18.9,0c0.1,0,0.2,0,0.3,0c0.6,0,1,0.3,1,0.8c0,0.5-0.4,0.8-1,0.8C31.5,32,28.2,32,25,32z"/>
	<path class="st0" d="M22.8,16.6c-3.1,0-6.3,0-9.4,0c-0.2,0-0.3,0-0.5,0c-0.4-0.1-0.7-0.4-0.7-0.8c0-0.5,0.3-0.7,0.7-0.8
		c0.1,0,0.3,0,0.4,0c6.3,0,12.6,0,18.9,0c0.1,0,0.2,0,0.4,0c0.5,0.1,0.7,0.3,0.7,0.8c0,0.4-0.3,0.8-0.7,0.8c-0.2,0-0.3,0-0.5,0
		C29,16.6,25.9,16.6,22.8,16.6z"/>
	<path class="st0" d="M19.5,24.3c-2,0-4,0-6,0c-0.2,0-0.4,0-0.6,0c-0.4-0.1-0.7-0.4-0.6-0.8c0-0.4,0.3-0.7,0.7-0.8
		c0.1,0,0.3,0,0.4,0c4.1,0,8.2,0,12.3,0c0.1,0,0.3,0,0.4,0c0.4,0.1,0.7,0.3,0.7,0.8c0,0.4-0.2,0.7-0.6,0.8c-0.2,0-0.4,0-0.6,0
		C23.6,24.3,21.5,24.3,19.5,24.3z"/>
	<path class="st0" d="M28.6,38c2,0,4.1,0,6.1,0c0.4,0,0.7,0.1,0.9,0.5c0.3,0.5-0.1,1.1-0.7,1.2c-0.3,0-0.7,0-1,0
		c-3.7,0-7.5,0-11.2,0c-0.2,0-0.3,0-0.5,0c-0.5-0.1-0.8-0.4-0.8-0.9c0-0.4,0.3-0.7,0.8-0.8c0.7,0,1.4,0,2.2,0
		C25.8,38,27.2,38,28.6,38z"/>
</g>
</svg>
