<?xml version="1.0" encoding="utf-8"?>
<!-- Generator: Adobe Illustrator 25.0.1, SVG Export Plug-In . SVG Version: 6.00 Build 0)  -->
<svg version="1.1" id="Layer_1" xmlns="http://www.w3.org/2000/svg" xmlns:xlink="http://www.w3.org/1999/xlink" x="0px" y="0px"
	 viewBox="0 0 48 48" style="enable-background:new 0 0 48 48;" xml:space="preserve">
<style type="text/css">
	.st0{fill:#B3001B;}
</style>
<g>
	<path class="st0" d="M22.9,48c-1.8-1.1-3.6-2.2-5.4-3.3c-5-3-9.9-6-14.9-9c-0.8-0.5-0.9-0.7-0.4-1.5c2.1-3.5,4.2-7,6.3-10.4
		c0.1-0.2,0.2-0.5,0.2-0.8c0-7.1,0-14.3,0-21.4c0-1,0.2-1.1,1.1-1.1c7.6,0,15.2,0,22.8,0c0.7,0,1.1,0.2,1.1,0.7
		c0,0.5-0.3,0.7-1.1,0.7c-7.3,0-14.6,0-21.9,0c-0.2,0-0.4,0-0.6,0c0,6.4,0,12.7,0,19.2c1.6-2.7,3.2-5.3,4.8-8c-0.6,0-1.1,0-1.6,0
		c-0.6,0-0.9-0.3-0.9-0.9c0-2.4,0-4.8,0-7.1c0-0.6,0.3-0.9,1-0.9c2.1,0,4.3,0,6.4,0c0.3,0,0.5-0.1,0.7-0.3c0.3-0.5,0.6-0.5,1.1-0.2
		c1,0.6,2.1,1.2,3.1,1.8c0.2,0.1,0.5,0.2,0.8,0.2c3.2,0,6.5,0,9.7,0c0.8,0,1.1,0.2,1.1,0.7c0,0.5-0.3,0.7-1.1,0.7
		c-2.4,0-4.7,0-7.1,0c-0.2,0-0.3,0-0.5,0c0,0,0,0.1,0,0.1c0.3,0.2,0.6,0.3,0.9,0.5c1,0.8,2.2,1.1,3.5,1c1.2-0.1,2.3,0,3.5,0
		c0.6,0,0.9,0.3,0.9,0.7c0,0.4-0.3,0.7-0.9,0.7c-0.9,0-1.9,0-2.9,0.1c2,1.2,4,2.4,6.1,3.7c0-4,0-8,0-12c-0.8,0-1.5,0-2.3,0
		c-0.4,0-0.7-0.1-0.8-0.5c-0.1-0.4,0.2-0.8,0.7-0.8c1,0,2,0,3.1,0c0.5,0,0.7,0.3,0.7,0.8c0,1.3,0,2.7,0,4c0,3,0,6,0,8.9
		c0,0.3,0.1,0.5,0.4,0.7c2.2,1.3,4.3,2.6,6.5,3.9c0.7,0.4,0.8,0.7,0.3,1.4c-2.3,3.9-4.6,7.7-6.9,11.6c-0.1,0.2-0.2,0.5-0.2,0.8
		c0,1.4,0,2.9,0,4.3c0,0.7-0.2,0.9-0.9,0.9c-0.7,0-1.4,0-2.1,0c-0.3,0-0.4,0.1-0.6,0.3c-1.4,2.4-2.8,4.7-4.2,7.1
		c-0.3,0.5-0.6,0.7-1.1,0.8c-2.5,0.6-4.9,1.2-7.4,1.8c-0.1,0-0.2,0.1-0.3,0.1C23.3,48,23.1,48,22.9,48z M3.6,34.7
		c6.5,3.9,12.9,7.7,19.3,11.6c0.9-1.4,1.7-2.8,2.5-4.2c0.5-0.8,0.7-0.9,1.5-0.4c1.4,0.8,2.8,1.7,4.2,2.5C36,36.1,40.9,28,45.8,19.8
		C37.6,14.9,29.5,10,21.4,5.1C15.4,15,9.5,24.9,3.6,34.7z M19.4,5.7c-1.9,0-3.7,0-5.5,0c0,2,0,4,0,6c0.6,0,1.2,0,1.7,0
		c0.1,0,0.2-0.1,0.3-0.2C17.1,9.6,18.2,7.7,19.4,5.7z M24.6,46.2c1.7-0.4,3.2-0.8,4.9-1.2c-1.1-0.6-2.1-1.2-3.1-1.8
		C25.9,44.1,25.3,45.1,24.6,46.2z M38.6,34.7C38.6,34.7,38.6,34.7,38.6,34.7c-0.4,0.5-0.7,1.1-1.1,1.7c0.4,0,0.8,0,1.1,0
		C38.6,35.8,38.6,35.2,38.6,34.7z"/>
	<path class="st0" d="M37.7,28.4c0,0.6-0.4,1-0.9,0.8c-0.2-0.1-0.4-0.2-0.5-0.3c-6.2-3.7-12.4-7.4-18.6-11.2c0,0-0.1,0-0.1,0
		c-0.6-0.3-0.7-0.7-0.5-1.1c0.2-0.4,0.6-0.4,1.2-0.1c3.7,2.2,7.4,4.4,11.1,6.7c2.6,1.5,5.1,3.1,7.7,4.6C37.4,28,37.6,28.3,37.7,28.4
		z"/>
	<path class="st0" d="M10,29.1c0.3,0.1,0.5,0.2,0.6,0.3c6.3,3.8,12.6,7.6,18.9,11.3c0.5,0.3,0.6,0.7,0.4,1.1
		c-0.2,0.4-0.6,0.4-1.1,0.1c-6.3-3.8-12.6-7.6-18.9-11.3c-0.3-0.2-0.6-0.5-0.5-0.9C9.5,29.4,9.8,29.3,10,29.1z"/>
	<path class="st0" d="M20.3,22.2c0.3,0.1,0.5,0.2,0.6,0.3c4.8,2.9,9.6,5.8,14.4,8.7c0.5,0.3,0.6,0.7,0.4,1c-0.2,0.4-0.6,0.5-1.1,0.2
		c-4.8-2.9-9.6-5.8-14.5-8.7c-0.3-0.2-0.6-0.5-0.4-0.9C19.8,22.5,20.1,22.3,20.3,22.2z"/>
	<path class="st0" d="M31.9,38c0,0.6-0.4,1-0.9,0.8c-0.2,0-0.3-0.1-0.5-0.2c-3.8-2.3-7.7-4.6-11.5-6.9c-0.1-0.1-0.2-0.1-0.4-0.2
		c-0.3-0.3-0.4-0.6-0.2-0.9c0.2-0.3,0.6-0.4,0.9-0.2c0.1,0,0.2,0.1,0.3,0.2c3.9,2.3,7.8,4.7,11.7,7C31.6,37.6,31.8,37.9,31.9,38z"/>
	<path class="st0" d="M26.2,30.5c0,0.3-0.5,0.7-0.9,0.5c-0.1-0.1-0.3-0.1-0.4-0.2c-3.6-2.2-7.3-4.4-10.9-6.6
		c-0.1-0.1-0.2-0.1-0.3-0.2c-0.3-0.2-0.4-0.6-0.2-0.9c0.2-0.3,0.6-0.4,0.9-0.2c0.1,0,0.2,0.1,0.3,0.2c3.7,2.2,7.4,4.4,11,6.6
		C25.9,29.8,26.2,30,26.2,30.5z"/>
	<path class="st0" d="M39.6,25.2c0,0.6-0.4,1-0.9,0.8c-0.2,0-0.3-0.1-0.5-0.2c-3.4-2.1-6.9-4.1-10.3-6.2c-0.1-0.1-0.2-0.1-0.3-0.2
		c-0.3-0.2-0.4-0.6-0.2-0.9c0.2-0.3,0.5-0.4,0.9-0.3c0.1,0.1,0.2,0.1,0.4,0.2c3.4,2.1,6.9,4.1,10.3,6.2C39.3,24.8,39.5,25,39.6,25.2
		z"/>
	<path class="st0" d="M16.5,37.7c0,0.5-0.5,0.8-0.9,0.6c-0.1,0-0.3-0.1-0.4-0.2c-2.4-1.4-4.8-2.9-7.1-4.3c-0.2-0.1-0.3-0.2-0.4-0.3
		c-0.2-0.3-0.3-0.6,0-0.8c0.2-0.2,0.5-0.2,0.8-0.3c0.1,0,0.3,0.1,0.4,0.2c2.4,1.4,4.8,2.9,7.2,4.3C16.3,37.1,16.5,37.3,16.5,37.7z"
		/>
	<path class="st0" d="M34.2,16.5c0.3,0.1,0.4,0.2,0.6,0.3c2.2,1.3,4.5,2.7,6.7,4c0.5,0.3,0.6,0.7,0.4,1c-0.2,0.4-0.6,0.4-1.1,0.2
		c-2.2-1.3-4.5-2.7-6.7-4c-0.1-0.1-0.3-0.2-0.4-0.3c-0.1-0.2-0.2-0.5-0.1-0.7C33.7,16.8,34,16.7,34.2,16.5z"/>
	<path class="st0" d="M19.6,13c0.3,0.1,0.5,0.2,0.6,0.3c1.8,1.1,3.6,2.2,5.5,3.3c0.3,0.2,0.5,0.4,0.5,0.8c-0.1,0.3-0.3,0.5-0.6,0.5
		c-0.2,0-0.3,0-0.5-0.1c-1.9-1.1-3.8-2.2-5.6-3.4c-0.3-0.2-0.5-0.5-0.4-0.8C19.2,13.4,19.4,13.2,19.6,13z"/>
	<path class="st0" d="M26.4,11.9c0.3,0.1,0.4,0.1,0.5,0.2c1.7,1,3.3,2,5,3c0.3,0.2,0.5,0.4,0.4,0.8c-0.1,0.3-0.3,0.5-0.6,0.5
		c-0.1,0-0.3,0-0.4-0.1c-1.7-1-3.4-2.1-5.1-3.1c-0.3-0.2-0.4-0.5-0.3-0.8C26,12.2,26.2,12.1,26.4,11.9z"/>
	<path class="st0" d="M28,31.1c0.3,0.1,0.4,0.2,0.6,0.2c1.6,1,3.2,1.9,4.8,2.9c0.3,0.2,0.6,0.5,0.4,0.9c-0.1,0.2-0.4,0.4-0.6,0.5
		c-0.2,0.1-0.4-0.1-0.6-0.2c-1.6-0.9-3.1-1.9-4.7-2.8c-0.1-0.1-0.3-0.2-0.4-0.3c-0.1-0.2-0.2-0.5-0.1-0.7
		C27.5,31.4,27.8,31.3,28,31.1z"/>
	<path class="st0" d="M11.3,26.8c0-0.7,0.5-1,1-0.8c0.5,0.2,0.9,0.5,1.3,0.8c1,0.6,2.1,1.2,3.1,1.9c0.3,0.2,0.5,0.5,0.4,0.8
		c-0.1,0.2-0.4,0.4-0.6,0.5c-0.1,0.1-0.4,0-0.5-0.1c-1.4-0.8-2.9-1.7-4.3-2.6C11.5,27.2,11.4,26.9,11.3,26.8z"/>
	<path class="st0" d="M18.3,38.5c0.3,0.1,0.4,0.1,0.6,0.2c1.4,0.9,2.9,1.7,4.3,2.6c0.3,0.2,0.5,0.5,0.4,0.8
		c-0.1,0.2-0.3,0.4-0.5,0.5c-0.1,0.1-0.4,0-0.6-0.1c-1.5-0.9-2.9-1.7-4.4-2.6c-0.3-0.2-0.5-0.5-0.3-0.8
		C17.9,38.8,18.1,38.6,18.3,38.5z"/>
</g>
</svg>
