<?xml version="1.0" encoding="utf-8"?>
<!-- Generator: Adobe Illustrator 25.0.1, SVG Export Plug-In . SVG Version: 6.00 Build 0)  -->
<svg version="1.1" id="Layer_1" xmlns="http://www.w3.org/2000/svg" xmlns:xlink="http://www.w3.org/1999/xlink" x="0px" y="0px"
	 viewBox="0 0 48 48" style="enable-background:new 0 0 48 48;" xml:space="preserve">
<style type="text/css">
	.st0{fill:#B3001B;}
</style>
<g>
	<path class="st0" d="M24,48c-7.5-0.2-13.7-2.6-18.4-8.1c-2.9-3.3-4.5-7.3-5.2-11.6c-1.2-7,0.5-13.2,4.9-18.7c4-5,9.2-7.8,15.5-8.7
		c0.9-0.1,1.8-0.2,2.7-0.2c0.7,0,1.1,0.3,1.1,0.8c0,0.5-0.4,0.8-1,0.9C17.6,2.5,12.6,4.5,8.4,8.6c-4,3.9-6.3,8.6-6.6,14.1
		C1.4,30,3.7,36.3,9.3,41.2c3.6,3.1,7.9,4.7,12.6,5c4.9,0.4,9.5-0.7,13.7-3.3c5.2-3.3,8.2-8.1,9.4-14.1c0.3-1.4,0.4-2.9,0.5-4.3
		c0.1-0.6,0.4-1,0.9-1c0.5,0,0.8,0.4,0.8,1C47,30.8,45.2,36.4,40.7,41c-3.6,3.8-8.1,5.9-13.2,6.7C26.2,47.8,24.9,47.9,24,48z"/>
	<path class="st0" d="M23.5,23.3c2.8-2.3,5.5-4.6,8.2-6.9c4.6-3.9,9.3-7.7,13.9-11.6c0.6-0.5,1.4-0.4,1.5,0.3c0,0.3-0.1,0.7-0.3,0.9
		c-1.8,2.2-3.7,4.3-5.5,6.5c-5.6,6.6-11.3,13.1-16.9,19.7c-0.7,0.8-1.2,0.8-1.8,0c-3.7-4.9-7.3-9.8-11-14.7
		c-0.1-0.1-0.1-0.2-0.2-0.3c-0.3-0.4-0.3-0.8,0.1-1.1c0.3-0.3,0.7-0.4,1.1-0.1c0.7,0.4,1.4,0.9,2,1.3c2.8,1.8,5.5,3.7,8.3,5.5
		C23.1,23.1,23.3,23.2,23.5,23.3z M16.1,20.4C16.1,20.5,16.1,20.5,16.1,20.4c2.4,3.4,5,6.8,7.5,10.2c5-5.9,10-11.7,15-17.5
		c-0.2,0-0.4,0.1-0.5,0.2C33.6,17.1,29,21,24.4,24.8c-0.7,0.6-0.9,0.6-1.7,0.1c-2.1-1.4-4.1-2.8-6.2-4.1
		C16.4,20.6,16.3,20.5,16.1,20.4z"/>
	<path class="st0" d="M24.5,5.3c0,0.5,0,1,0,1.4c0,0.5-0.4,0.9-0.9,0.9c-0.5,0-0.8-0.3-0.8-0.9c0-0.9,0-1.9,0-2.8
		c0-0.5,0.4-0.8,0.8-0.8c0.5,0,0.8,0.3,0.8,0.8C24.5,4.4,24.5,4.8,24.5,5.3z"/>
	<path class="st0" d="M4.6,25.2c-0.4,0-0.8,0-1.3,0c-0.6,0-0.9-0.3-1-0.8c0-0.5,0.3-0.9,0.9-0.9c0.9,0,1.8,0,2.7,0
		c0.5,0,0.9,0.3,0.9,0.8c0,0.5-0.3,0.8-0.9,0.9C5.5,25.2,5,25.2,4.6,25.2z"/>
	<path class="st0" d="M42.7,25.2c-0.4,0-0.8,0-1.3,0c-0.6,0-0.9-0.3-1-0.8c0-0.5,0.3-0.9,0.9-0.9c0.9,0,1.8,0,2.7,0
		c0.5,0,0.9,0.3,0.9,0.8c0,0.5-0.3,0.8-0.9,0.9C43.6,25.2,43.1,25.2,42.7,25.2z"/>
	<path class="st0" d="M22.8,43.4c0-0.4,0-0.9,0-1.3c0-0.5,0.3-0.9,0.8-0.9c0.5,0,0.8,0.3,0.9,0.9c0,0.9,0,1.8,0,2.7
		c0,0.5-0.4,0.9-0.9,0.9c-0.5,0-0.8-0.4-0.8-0.9C22.8,44.3,22.8,43.9,22.8,43.4z"/>
	<path class="st0" d="M34.5,41.4c-0.3,0.3-0.5,0.6-0.7,0.8c-0.3,0.2-0.7,0.1-0.9-0.2c-0.3-0.4-0.5-0.8-0.7-1.2
		c-0.1-0.3,0-0.7,0.3-0.9c0.2-0.2,0.7-0.2,0.9-0.1C33.7,40.2,34.1,40.7,34.5,41.4z"/>
	<path class="st0" d="M14.3,9.2c-0.6-0.1-0.8-0.7-1.1-1.2c-0.2-0.3-0.3-0.7,0-1c0.3-0.5,1-0.5,1.3,0C14.8,7.3,15,7.6,15.2,8
		C15.4,8.6,15,9.2,14.3,9.2z"/>
	<path class="st0" d="M6.7,35.2c-0.3-0.3-0.6-0.4-0.8-0.7c-0.2-0.3-0.1-0.7,0.2-0.9c0.4-0.3,0.8-0.5,1.2-0.7c0.3-0.1,0.7,0,0.9,0.3
		c0.2,0.2,0.2,0.8,0,0.9C7.9,34.5,7.3,34.8,6.7,35.2z"/>
	<path class="st0" d="M39.7,32.6c0.6,0.4,1.2,0.7,1.6,1.2c0.1,0.1,0.1,0.7-0.1,0.9c-0.2,0.2-0.6,0.4-0.9,0.3
		c-0.5-0.1-0.9-0.4-1.3-0.7C39,34,38.9,33.6,39,33.3C39,33.1,39.4,32.9,39.7,32.6z"/>
	<path class="st0" d="M6.7,13.6c0.6,0.4,1.2,0.7,1.6,1.1c0.1,0.1,0.1,0.7-0.1,0.9c-0.2,0.2-0.6,0.4-0.8,0.3
		c-0.5-0.1-0.9-0.4-1.3-0.7C6,15,5.9,14.6,6,14.3C6,14,6.4,13.9,6.7,13.6z"/>
	<path class="st0" d="M15.4,40.4C15,41,14.7,41.6,14.3,42c-0.1,0.1-0.7,0.1-0.9-0.1c-0.2-0.2-0.4-0.6-0.3-0.9
		c0.1-0.5,0.4-0.9,0.7-1.3c0.2-0.2,0.6-0.3,0.9-0.2C15,39.8,15.1,40.1,15.4,40.4z"/>
</g>
</svg>
