<?xml version="1.0" encoding="utf-8"?>
<!-- Generator: Adobe Illustrator 21.1.0, SVG Export Plug-In . SVG Version: 6.00 Build 0)  -->
<svg version="1.1" id="Layer_1" xmlns="http://www.w3.org/2000/svg" xmlns:xlink="http://www.w3.org/1999/xlink" x="0px" y="0px"
	 viewBox="0 0 48 48" style="enable-background:new 0 0 48 48;" xml:space="preserve">
<style type="text/css">
	.st0{fill:#B3001B;}
</style>
<g>
	<path class="st0" d="M29.5,47.6c4-3.5,7.4-7.4,11.2-11.1c0.6-0.6,0.8-1.3,0.5-1.9c-0.3-0.7-0.9-1-1.7-1c-2,0-1.5-0.3-3.1,1.3
		c-1,1-2,2-3.1,3.1c-0.4,0.4-0.9,0.5-1.3,0.1c-0.3-0.3-0.3-0.8,0.1-1.2c1.3-1.3,2.6-2.6,3.9-3.9c0.7-0.7,1.4-1,2.4-1
		c0.4,0,0.8,0,1.2,0c1.4,0,2.4,0.7,2.9,1.9c0.6,1.3,0.3,2.5-0.7,3.5c-2,2-4,4.1-6,6.1c-1.3,1.4-2.7,2.7-4,4.1
		C31.2,47.6,30.4,47.6,29.5,47.6z"/>
	<path class="st0" d="M32.8,2.1c-3,0-5.9-0.1-8.9,0c-2.7,0.1-5.1,1.2-7.1,3.1c-3.2,3.3-6.4,6.5-9.7,9.8c-0.5,0.5-0.7,1.1-0.4,1.8
		c0.3,0.7,0.8,1,1.5,1c0.5,0,0.9,0,1.4,0c0.5,0,0.8-0.3,1.1-0.6c1.3-1.3,2.5-2.5,3.8-3.8c0.1-0.1,0.3-0.3,0.5-0.3
		c0.4-0.1,0.7,0,0.9,0.3c0.2,0.3,0.2,0.7-0.1,1c-0.5,0.5-1.1,1-1.6,1.6c-0.8,0.8-1.6,1.7-2.5,2.5c-0.6,0.6-1.4,1-2.3,0.9
		c-0.4,0-0.8,0-1.2,0c-1.4,0-2.5-0.6-3-1.9c-0.5-1.2-0.2-2.5,0.7-3.5c1.5-1.5,2.9-3,4.4-4.5c1.7-1.7,3.3-3.3,5-5
		c2.6-2.7,5.7-3.9,9.3-3.9c5.7,0,11.4,0,17.1,0c0.2,0,0.3,0,0.5,0c0.4,0.1,0.6,0.4,0.6,0.8c0,0.4-0.2,0.7-0.6,0.7
		c-0.2,0-0.4,0-0.6,0C38.7,2,35.8,2,32.8,2.1C32.8,2,32.8,2.1,32.8,2.1z"/>
	<path class="st0" d="M15.3,25.7c0-4.8,3.9-8.7,8.7-8.7c4.8,0,8.7,3.9,8.7,8.7c0,4.8-3.9,8.7-8.7,8.7C19.2,34.4,15.3,30.5,15.3,25.7
		z M24,18.6c-3.9,0-7.1,3.2-7.1,7.1c0,3.9,3.2,7.1,7.1,7.1c3.9,0,7.1-3.2,7.1-7.1C31.1,21.8,27.9,18.6,24,18.6z"/>
	<path class="st0" d="M25,6.8c1.4,0,2.8,0,4.1,0c0.2,0,0.3,0,0.5,0c0.4,0.1,0.6,0.4,0.6,0.8c0,0.4-0.2,0.7-0.6,0.8
		c-0.2,0-0.4,0-0.5,0c-2.7,0-5.4,0-8.1,0c-1.2,0-1.9,0.7-1.8,1.7c0.1,0.8,0.7,1.3,1.4,1.4c1.3,0.1,2.6,0.1,3.9,0.1
		c2.1,0.1,4.1,0.5,6.1,1.1c1.6,0.5,3.3,0.7,5,0c0.9-0.4,1.8-0.9,2.6-1.5c0.9-0.5,1.7-1,2.7-1.2c0.3-0.1,0.7-0.1,1-0.1
		c0.5,0,0.8,0.3,0.9,0.7c0,0.4-0.3,0.8-0.8,0.8c-1.1,0-2,0.5-2.9,1c-0.6,0.4-1.1,0.8-1.7,1c-0.7,0.4-1.5,0.7-2.3,0.9
		c-1.6,0.4-3.2,0.2-4.8-0.3c-3.1-0.9-6.2-1.2-9.3-1.1c-1.8,0-3.3-1.3-3.4-3.1c-0.1-1.8,1.3-3.2,3.1-3.2C22.2,6.7,23.6,6.8,25,6.8
		C25,6.8,25,6.8,25,6.8z"/>
	<path class="st0" d="M23,44.6c-1.4,0-2.9,0-4.3,0c-0.6,0-0.9-0.3-0.9-0.8c0-0.5,0.3-0.8,0.9-0.8c2.8,0,5.6,0,8.4,0
		c1.2,0,1.9-1,1.6-2.1c-0.2-0.6-0.8-1-1.6-1c-1.6-0.1-3.2,0-4.7-0.2c-1.6-0.2-3.1-0.5-4.6-0.9c-1.4-0.3-2.9-0.7-4.3-0.4
		c-0.9,0.2-1.8,0.6-2.6,1.1C9.9,39.9,9,40.6,8.1,41c-0.7,0.3-1.4,0.4-2.2,0.5c-0.5,0.1-0.8-0.3-0.8-0.7c0-0.5,0.3-0.8,0.8-0.8
		c1.1,0,2-0.4,2.8-1c1-0.6,2.1-1.3,3.2-1.7c1.8-0.8,3.8-0.6,5.6,0c3.1,0.9,6.2,1.2,9.4,1.2c0.4,0,0.9,0,1.3,0.2
		c1.4,0.4,2.4,1.9,2.2,3.4c-0.2,1.6-1.5,2.8-3.1,2.8C25.8,44.6,24.4,44.6,23,44.6C23,44.6,23,44.6,23,44.6z"/>
	<path class="st0" d="M23.2,21.7c0.1-0.6-0.2-1.5,0.8-1.5c1,0,0.8,0.9,0.9,1.5c0.2,0,0.4,0,0.6,0c0.6,0,0.9,0.3,0.9,0.8
		c0,0.5-0.3,0.8-0.9,0.8c-0.7,0-1.4,0-2.2,0c-0.4,0-0.7,0.2-0.8,0.6c-0.1,0.5,0.2,0.9,0.7,0.9c0.3,0,0.5,0,0.8,0
		c1.3,0,2.3,0.9,2.4,2.1c0.1,1.3-0.7,2.3-1.9,2.6c-0.1,0-0.2,0-0.4,0.1c-0.1,0.6,0.2,1.5-0.8,1.5c-0.9,0-0.7-0.9-0.8-1.5
		c-0.3,0-0.5,0-0.8,0c-0.5,0-0.8-0.4-0.8-0.8c0-0.4,0.3-0.8,0.8-0.8c0.7,0,1.4,0,2.2,0c0.6,0,1-0.3,0.9-0.8c0-0.5-0.4-0.8-0.9-0.8
		c-0.7,0-1.4,0-2-0.5c-0.8-0.7-1.1-1.5-0.8-2.5c0.3-1,1-1.6,2-1.7C23,21.8,23.1,21.7,23.2,21.7z"/>
</g>
</svg>
