<?xml version="1.0" encoding="utf-8"?>
<!-- Generator: Adobe Illustrator 21.1.0, SVG Export Plug-In . SVG Version: 6.00 Build 0)  -->
<svg version="1.1" id="Layer_1" xmlns="http://www.w3.org/2000/svg" xmlns:xlink="http://www.w3.org/1999/xlink" x="0px" y="0px"
	 viewBox="0 0 48 48" style="enable-background:new 0 0 48 48;" xml:space="preserve">
<style type="text/css">
	.st0{fill:#B3001B;}
</style>
<path class="st0" d="M5.1,47.5c-0.6-0.3-0.8-0.7-0.8-1.4c0-0.5,0-1,0-1.6c0-0.8,0.4-1.2,1.2-1.2c1.3,0,2.6,0,3.9,0c0,0,0.1,0,0.1,0
	c0-0.3,0-0.7,0-1.1c-0.6,0-1.3,0-1.9,0c-1.3,0-1.9-0.6-1.9-1.8c0-1.1,0-2.2,0-3.3c0-2.2,1.3-3.6,3.5-3.7c0.1,0,0.2,0,0.4,0
	c-0.1-0.2-0.1-0.3-0.2-0.4c-0.5-1-1.1-2.1-1.6-3.1c-0.6-1.2-0.2-2.4,0.9-2.9c1.1-0.5,2.2-0.1,2.8,1c0.7,1.4,1.4,2.8,2.1,4.1
	c0.1,0.1,0.2,0.3,0.2,0.4c0.9-0.3,1.8-0.7,2.6-1c0.7-0.2,1.4-0.2,2.1-0.3c0.2,0,0.5-0.1,0.7-0.2c0.4-0.3,0.7-0.6,1.1-0.9
	c0.4-0.3,0.3-0.7-0.1-0.9c-0.8-0.4-1.5-0.8-2.2-1.2c-0.5-0.3-0.6-0.7-0.4-1.1c0.3-0.4,0.6-0.4,1.2-0.1c4.6,3.1,10.7,1.6,13.4-3.2
	c0.6-1.1,0.9-2.2,1.1-3.6c-1.3,1.5-2.9,2.1-4.8,1.6c-1.9-0.5-3-1.8-3.4-3.7c-0.6,0-1.3,0-1.9,0c-0.8,4-5.6,5.2-8.3,2.2
	c0.1,0.6,0.2,1.3,0.5,1.9c0.4,0.9,0.9,1.8,1.4,2.6c0.2,0.3,0.3,0.6,0,0.9c-0.2,0.2-0.5,0.2-0.7,0.2c-0.2,0-0.3-0.2-0.4-0.4
	c-0.8-1.1-1.4-2.3-1.7-3.6c0-0.1-0.1-0.3-0.1-0.5c-1.6,0.3-2.7-0.3-3.3-1.7c-1-1.9-0.3-4.2,1.6-5.3c-0.4-1.4-0.6-2.8-0.4-4.2
	c0.2-2.9,1.1-5.6,3.6-7.5c1.5-1.1,3.3-1.7,5.2-2c0.7-0.1,1.4-0.2,2.1-0.3c1.1,0,2.2,0,3.3,0c0.9,0.1,1.8,0.2,2.7,0.4
	c1.5,0.3,2.9,0.7,4.1,1.6c0.2,0.1,0.4,0.2,0.4,0.4c0,0.3,0,0.6-0.1,0.8c-0.2,0.3-0.5,0.3-0.8,0.1c-2-1.3-4.2-1.7-6.4-1.8
	c-2.2-0.1-4.3,0-6.5,0.5c-3.4,0.9-5.4,3-6.1,6.5c-0.3,1.8-0.2,3.5,0.2,5.3c0.1,0.2,0.2,0.4,0.4,0.5c0.3,0.2,0.6,0.4,0.8,0.6
	c0.2-0.3,0.5-0.6,0.7-1c0.1-0.1,0.1-0.3,0.1-0.5c0.1-1,0.2-2,0.4-3c0.3-1.3,1-2.3,2.4-2.6c0.8-0.2,1.5,0,2.2,0.3
	c2.5,0.9,5,0.9,7.4,0c2.5-0.9,4.3,0.3,4.7,2.8c0.1,0.8,0.2,1.7,0.3,2.5c0,0.3,0.2,0.5,0.3,0.7c0.2,0.4,0.5,0.7,0.7,1
	c0.3-0.3,0.6-0.5,0.9-0.8c0.1-0.1,0.1-0.2,0.2-0.3c0.8-3,0.6-5.8-1-8.6c-0.3-0.4-0.2-0.8,0.2-1c0.4-0.2,0.7-0.1,1,0.3
	c1.4,2.3,1.8,4.7,1.6,7.3c-0.1,0.7-0.3,1.4-0.4,2.1c0,0.1,0.1,0.4,0.2,0.4c1.7,1.3,2,4,0.6,5.7c-0.6,0.8-1.5,1.2-2.6,1.1
	c0,0.1-0.1,0.2-0.1,0.3c-0.9,3.5-3.1,6-6.5,7.4c-0.5,0.2-0.5,0.6-0.2,0.9c0,0,0.1,0.1,0.1,0.1c0.7,0.8,1.6,1.1,2.7,1.1
	c3.8,0.3,7.3,3.6,7.9,7.5c0.1,0.6,0.1,1.3,0.1,2c0,0.8,0,1.7,0,2.6c0.5,0,0.9,0,1.4,0c0.9,0,1.7,0,2.6,0c0.8,0,1.2,0.4,1.2,1.2
	c0,0.5,0,1,0,1.6c0,0.6-0.2,1.1-0.8,1.4c-1.5,0-2.9,0-4.4,0c-0.3-0.2-0.6-0.5-0.4-0.9c0.1-0.4,0.5-0.5,0.9-0.5c0.8,0,1.7,0,2.5,0
	c0.3,0,0.6,0,0.8,0c0-0.5,0-0.9,0-1.4c-12.2,0-24.4,0-36.6,0c0,0.5,0,0.9,0,1.4c0.2,0,0.4,0,0.6,0c9.7,0,19.4,0,29.2,0
	c0.4,0,0.7,0,0.9,0.4c0.2,0.4-0.1,0.7-0.4,0.9C25.7,47.5,15.4,47.5,5.1,47.5z M37.1,43.3c0-1.2,0.1-2.3,0-3.4
	c-0.2-4-3.5-7.2-7.6-7.3c-0.2,0-0.5,0.1-0.6,0.3c-0.7,0.8-1.4,1.6-2.2,2.4c-0.5,0.6-1.1,0.5-1.5-0.1c-0.3-0.4-0.5-0.9-0.8-1.3
	c-0.1-0.2-0.2-0.4-0.4-0.6c-0.1,0.1-0.1,0.1-0.1,0.1c-0.4,0.6-0.7,1.1-1.1,1.7c-0.4,0.7-1,0.8-1.6,0.1c-0.7-0.8-1.4-1.6-2.1-2.3
	c-0.1-0.1-0.3-0.3-0.4-0.2c-1.5,0-2.9,0.4-4.2,1.2c0.1,0.2,0.2,0.4,0.2,0.5c1,2,2.1,4.1,3.1,6.1c0.2,0.3,0.2,0.7,0.3,1
	c0.1,0.6,0.1,1.2,0.1,1.8C24.5,43.3,30.8,43.3,37.1,43.3z M31.4,13.1c-0.2-0.9-0.3-1.8-0.5-2.5c-0.3-1-1.2-1.4-2.2-1.1
	c-0.2,0-0.3,0.1-0.5,0.2c-1.2,0.4-2.4,0.6-3.6,0.7c-1.7,0.1-3.4-0.2-5-0.8c-1.1-0.4-1.9-0.1-2.3,0.8c-0.4,0.8-0.4,1.8-0.5,2.7
	c1.4-0.5,2.8-0.5,4,0.3c1.3,0.7,2,1.9,2.3,3.3c0.7,0,1.3,0,1.9,0C25.6,13.6,28.4,12.1,31.4,13.1z M18.6,14.1c-1.7,0-3.2,1.4-3.3,3.1
	c0,1.8,1.3,3.3,3.1,3.3c1.7,0,3.2-1.4,3.3-3.1C21.8,15.7,20.4,14.2,18.6,14.1z M29.6,14.1c-1.8,0-3.2,1.4-3.3,3.1
	c0,1.8,1.4,3.3,3.2,3.3c1.8,0,3.2-1.4,3.3-3.2C32.7,15.6,31.3,14.2,29.6,14.1z M12.2,37.9c0-0.7,0-1.3,0-2c0-0.6-0.4-1-1-1
	c-0.7,0-1.5,0-2.2,0c-1.1,0.1-1.9,0.9-1.9,2c0,1.2,0,2.3,0,3.5c0,0.3,0.1,0.5,0.4,0.5c1.2,0,2.4,0,3.6,0c0.7,0,1.1-0.4,1.1-1.1
	C12.2,39.1,12.2,38.5,12.2,37.9z M13.2,34.4c0-0.1,0-0.2-0.1-0.3c-0.9-1.9-1.9-3.7-2.8-5.6c-0.2-0.4-0.6-0.5-1-0.4
	c-0.3,0.2-0.5,0.6-0.3,1c0.7,1.3,1.3,2.7,2,4c0.1,0.1,0.2,0.3,0.3,0.3C12.1,33.6,12.7,33.9,13.2,34.4z M13.4,18.6
	C13.4,18.5,13.5,18.5,13.4,18.6c0-0.7-0.1-1.5-0.3-2.2c-0.2-0.8-0.7-0.9-1.3-0.3C10.9,17,11,18.9,12,19.8c0.3,0.3,0.7,0.4,1.1,0.3
	c0.2,0,0.4-0.2,0.4-0.4C13.4,19.3,13.4,18.9,13.4,18.6z M15.3,41.5c0.4-0.2,0.8-0.4,1.2-0.6c-1-1.9-1.9-3.8-2.9-5.7c0,1,0,1.9,0,2.9
	c0,0.1,0.1,0.3,0.1,0.4C14.2,39.4,14.7,40.4,15.3,41.5z M34.5,20.1c0.7,0.2,1.1-0.2,1.4-0.6c0.6-0.8,0.6-2.2,0.1-3
	c-0.2-0.3-0.5-0.5-0.8-0.7c-0.2,0.3-0.5,0.6-0.5,0.9C34.6,17.8,34.6,18.9,34.5,20.1z M13.4,40.9c-0.5,1-1.4,1.4-2.4,1.3
	c0,0.4,0,0.7,0,1.1c0.1,0,0.3,0,0.4,0c1.2,0,2.4,0,3.5,0C14.3,42.6,13.9,41.8,13.4,40.9z M23,32.2c-0.3-0.2-0.5-0.3-0.7-0.4
	c-1.1-0.7-1.1-0.7-2.1,0.2c0,0,0,0,0,0.1c0.6,0.6,1.1,1.2,1.7,1.9C22.3,33.4,22.7,32.8,23,32.2z M26,34c0.3-0.4,0.6-0.7,0.9-1
	c0.3-0.3,0.6-0.6,0.8-0.9c-0.3-0.3-0.6-0.5-0.9-0.8c-0.1-0.1-0.2-0.1-0.3-0.1c-0.5,0.3-1.1,0.6-1.6,1C25.3,32.8,25.7,33.4,26,34z
	 M21.9,29.8c0.2,0.1,0.3,0.2,0.4,0.3c0.5,0.3,1.1,0.9,1.6,0.9c0.6,0,1.1-0.6,1.7-0.9c0.1-0.1,0.3-0.2,0.4-0.3
	C24.7,29.8,23.3,29.8,21.9,29.8z M16.8,43.1c0-0.3-0.1-0.5-0.1-0.8c-0.2,0.1-0.3,0.2-0.5,0.3C16.4,42.7,16.6,42.9,16.8,43.1z"/>
<path class="st0" d="M24.1,25.1c-0.5-0.1-1-0.1-1.5-0.2c-0.4-0.1-0.6-0.4-0.5-0.8c0.1-0.4,0.4-0.5,0.8-0.5c0.8,0,1.6,0,2.4,0
	c0.4,0,0.8,0.1,0.8,0.5c0.1,0.4-0.1,0.7-0.5,0.8C25.1,25,24.6,25,24.1,25.1z"/>
<path class="st0" d="M24.1,37.4c1.2,0,2.2,0.9,2.2,2.1c0,1.2-1,2.2-2.1,2.2c-1.2,0-2.1-1-2.2-2.2C22,38.3,22.9,37.4,24.1,37.4z
	 M24.9,39.5c0-0.4-0.4-0.8-0.8-0.7c-0.4,0-0.7,0.4-0.7,0.8c0,0.4,0.4,0.8,0.8,0.8C24.6,40.3,24.9,40,24.9,39.5z"/>
</svg>
