<?xml version="1.0" encoding="utf-8"?>
<!-- Generator: Adobe Illustrator 21.1.0, SVG Export Plug-In . SVG Version: 6.00 Build 0)  -->
<svg version="1.1" id="Layer_1" xmlns="http://www.w3.org/2000/svg" xmlns:xlink="http://www.w3.org/1999/xlink" x="0px" y="0px"
	 viewBox="0 0 48 48" style="enable-background:new 0 0 48 48;" xml:space="preserve">
<style type="text/css">
	.st0{fill:#B3001B;}
</style>
<g>
	<path class="st0" d="M10.1,27.7c-0.5-4.4,0.5-8.5,2.8-12.3c-0.4-0.4-0.8-0.8-1.2-1.2c-0.1-0.2-0.3-0.4-0.3-0.6
		c0-2.8,2.4-5.1,5.2-5.1c0.2,0,0.4,0.1,0.6,0.2c0.4,0.4,0.8,0.8,1.2,1.3c2-1.3,4.1-2.1,6.3-2.6c0-0.6,0-1.2,0-1.8
		c-1.4-0.3-2.2-1.1-2.2-2.2c0-1.2,0.9-2.2,2.1-2.2c2.5,0,5.1,0,7.6,0c1.1,0,2,0.9,2.1,2c0.1,1.1-0.6,2.1-1.7,2.4
		c-0.2,0-0.3,0.1-0.5,0.1c0,0.3,0,0.6,0,0.9c0,0.3,0,0.6,0,0.9c2.3,0.5,4.4,1.3,6.4,2.6c0.4-0.4,0.8-0.9,1.3-1.3
		c0.1-0.1,0.4-0.2,0.6-0.2c2.8,0,5.1,2.3,5.2,5.1c0,0.2-0.1,0.5-0.3,0.6c-0.4,0.4-0.8,0.8-1.2,1.2c5,7.9,3.3,17.4-2.4,23.2
		c-5.6,5.7-15.4,7.7-23.5,2.3c0.1,0.2,0.1,0.4,0.2,0.6c0.3,0.9,0.2,1.8-0.5,2.5c-0.7,0.7-1.4,1.3-2.5,1.2c-0.2,0-0.4-0.1-0.6-0.2
		c-0.6-0.2-1.2,0-1.5,0.6c-0.4,1-1.2,1.5-2.3,1.5c-0.7,0-1.4,0-1.9-0.5c-0.3-0.3-0.6-0.6-0.8-1c-0.3-0.6-0.9-0.9-1.5-0.6
		c-1,0.4-1.9,0.2-2.7-0.5c-0.7-0.7-1.2-1.4-1-2.4c0-0.2,0.1-0.4,0.2-0.6c0.2-0.6,0-1.2-0.6-1.5c-1-0.4-1.5-1.2-1.5-2.3
		c0-0.6,0-1.3,0.4-1.8c0.3-0.4,0.7-0.7,1.1-0.9c0.6-0.3,0.8-0.9,0.6-1.5c-0.5-1.2-0.1-2.1,0.8-3c0.8-0.8,1.7-1,2.7-0.6
		c0.5,0.2,1.1,0,1.4-0.4C8.8,28.2,8.8,28.2,10.1,27.7z M30.7,17.3c0,4,0,7.9,0,11.8c0.5,0,1,0,1.5,0c0-2.5,0-4.9,0-7.4
		c1.5,0,3,0,4.5,0c0,2.5,0,4.9,0,7.4c1,0,2,0,2.9,0c0,0.5,0,1,0,1.5c-7.3,0-14.5,0-21.9,0c0.8,0.9,0.9,1.8,0.5,2.9
		c-0.1,0.2,0.1,0.6,0.1,0.9c0.1,0,0.1,0,0.2,0c0.5-0.6,1.1-1.1,1.6-1.7c0.4,0.4,0.7,0.7,1.1,1.2c-0.5,0.4-1,0.9-1.4,1.3
		c0.2,0.5,0.4,1,0.6,1.4c0.1,0.2,0.2,0.4,0.3,0.5c1.1,0.8,2.3,1.4,3.6,1.8c1.1,0.4,2.3,0.6,3.5,0.6c0-1,0-1.9,0-2.9c0.5,0,1,0,1.5,0
		c0,1,0,1.9,0,2.9c3.3-0.2,6.2-1.4,8.7-3.6c-0.7-0.7-1.4-1.4-2.1-2c0.3-0.4,0.7-0.7,1.1-1.1c0.7,0.7,1.3,1.4,2,2.1
		c2.2-2.5,3.4-5.3,3.6-8.7c-1,0-1.9,0-2.9,0c0-0.5,0-1,0-1.5c1,0,1.9,0,2.9,0c-0.2-3.3-1.4-6.2-3.6-8.7c-0.7,0.7-1.3,1.4-2,2.1
		c-0.4-0.4-0.8-0.7-1.2-1.1c0.7-0.7,1.4-1.4,2.1-2c-2.5-2.2-5.3-3.4-8.6-3.6c0,1,0,1.9,0,2.9c-0.5,0-1,0-1.5,0c0-1,0-1.9,0-2.9
		c-3.3,0.2-6.2,1.4-8.7,3.6c0.7,0.7,1.4,1.3,2.1,2c-0.4,0.4-0.7,0.7-1.1,1.2c-0.7-0.7-1.3-1.4-2-2.1c-2.2,2.5-3.4,5.3-3.6,8.7
		c1,0,2,0,2.9,0c0,0.5,0,1,0,1.5c-1,0-1.9,0-3,0c0.2,1.2,0.4,2.3,0.6,3.5c1-0.2,1.7,0,2.4,0.7c0-0.5,0-0.8,0-1.2c1,0,1.9,0,2.9,0
		c0-3,0-5.9,0-8.8c1.5,0,3,0,4.5,0c0,3,0,5.9,0,8.8c0.5,0,1,0,1.5,0c0-4,0-7.9,0-11.8C27.7,17.3,29.2,17.3,30.7,17.3z M13.3,29.5
		c-0.9-3.8-0.6-7.4,1.1-10.9c1.7-3.5,4.4-6,7.9-7.5c6.4-2.7,13.9-0.8,18.2,4.6c4.4,5.6,4.6,13.2,0.4,18.9c-2,2.8-4.7,4.7-8,5.7
		c-4.5,1.4-8.8,0.7-12.8-1.7c-0.4,0.4-0.7,0.7-1,1.1c0.1,0.1,0.3,0.2,0.5,0.3c4.1,2.4,8.4,3.1,13,1.9c9-2.3,14.5-11.3,12.4-20.4
		C43.1,13,34.5,7.1,25.8,8.7c-5.7,1-9.9,4.1-12.6,9.2c-1.5,3-2.1,6.1-1.7,9.4c0,0.3,0.1,0.5,0.4,0.6c0.6,0.2,0.9,0.6,1.2,1.2
		C13.2,29.2,13.3,29.4,13.3,29.5z M5.8,43.6c0.1,0,0.3-0.1,0.4-0.1C7.5,43,9,43.5,9.5,44.8c0.2,0.6,0.6,0.7,1.2,0.7
		c0.6,0,1-0.1,1.2-0.7c0.5-1.3,2-1.9,3.3-1.3c0.6,0.2,0.9,0,1.3-0.4c0.4-0.4,0.6-0.7,0.4-1.3c-0.5-1.3,0.1-2.8,1.4-3.3
		c0.5-0.2,0.7-0.6,0.7-1.1c0-0.5-0.1-1-0.7-1.2c-1.3-0.5-1.9-2-1.4-3.3c0.2-0.5,0-0.9-0.3-1.3c-0.4-0.4-0.7-0.6-1.3-0.4
		c-1.3,0.6-2.8,0-3.3-1.4c-0.2-0.5-0.6-0.6-1.1-0.6c-0.5,0-1,0.1-1.2,0.6c-0.6,1.3-2,1.9-3.3,1.4c-0.5-0.2-0.9,0-1.2,0.3
		c-0.4,0.4-0.7,0.7-0.4,1.3c0.6,1.4,0,2.8-1.4,3.4c-0.6,0.2-0.6,0.6-0.6,1.2c0,0.5,0.1,0.9,0.6,1.2c1.4,0.6,1.9,2,1.4,3.4
		C4.3,42.5,5,43.6,5.8,43.6z M27.7,18.8c0,3.5,0,6.9,0,10.3c0.5,0,1,0,1.4,0c0-3.5,0-6.9,0-10.3C28.7,18.8,28.2,18.8,27.7,18.8z
		 M28.5,2.5c-1.2,0-2.3,0-3.5,0c-0.6,0-0.9,0.3-0.9,0.7C24,3.7,24.4,4,24.9,4c2.3,0,4.7,0,7,0c0.6,0,0.9-0.3,0.9-0.7
		c0-0.5-0.3-0.7-0.9-0.7C30.8,2.5,29.6,2.5,28.5,2.5z M23.2,29.2c0-2.5,0-4.9,0-7.4c-0.5,0-1,0-1.4,0c0,2.5,0,4.9,0,7.4
		C22.3,29.2,22.7,29.2,23.2,29.2z M33.7,29.2c0.5,0,1,0,1.4,0c0-2,0-3.9,0-5.9c-0.5,0-1,0-1.4,0C33.7,25.3,33.7,27.2,33.7,29.2z
		 M39.7,10.7c0.1,0,0.2-0.1,0.3-0.1c1.1,1.1,2.2,2.2,3.3,3.4c0,0.1,0.2-0.2,0.4-0.3c0.3-0.3,0.3-0.5,0.2-0.9
		c-0.3-1.2-1.1-2.1-2.3-2.6C41,9.9,40.5,9.8,40,10.5C40,10.6,39.8,10.6,39.7,10.7z M16.9,10.6c0.1,0,0.2,0.1,0.3,0.1
		c-0.3-0.2-0.5-0.5-0.8-0.7C16.4,10,16.2,10,16.1,10c-1.6,0.2-2.9,1.5-3.1,3.1c0,0.1,0,0.3,0.1,0.4c0.2,0.3,0.5,0.5,0.7,0.8
		c0-0.1-0.1-0.2-0.1-0.3C14.7,12.8,15.8,11.7,16.9,10.6z M26.3,7c1.5,0,2.9,0,4.4,0c0-0.5,0-1,0-1.5c-1.5,0-2.9,0-4.4,0
		C26.3,6,26.3,6.5,26.3,7z"/>
	<path class="st0" d="M10.7,42.5c-2.9,0-5.2-2.3-5.2-5.2c0-2.9,2.3-5.2,5.2-5.2c2.9,0,5.2,2.3,5.2,5.2
		C15.9,40.2,13.5,42.5,10.7,42.5z M10.7,33.6c-2,0-3.7,1.7-3.7,3.7c0,2,1.7,3.7,3.7,3.7c2,0,3.7-1.6,3.7-3.7
		C14.4,35.3,12.7,33.6,10.7,33.6z"/>
	<path class="st0" d="M12.9,37.3c0,1.2-1,2.2-2.2,2.2c-1.2,0-2.2-1-2.2-2.2c0-1.2,1-2.2,2.2-2.2C11.9,35.1,12.9,36.1,12.9,37.3z
		 M11.4,37.3c0-0.4-0.3-0.7-0.7-0.7c-0.4,0-0.7,0.3-0.7,0.7c0,0.4,0.3,0.7,0.7,0.7C11.1,38.1,11.4,37.7,11.4,37.3z"/>
</g>
</svg>
